<svg width="50" height="50" viewBox="0 0 50 50" fill="none" xmlns="http://www.w3.org/2000/svg">
<path d="M39.0625 14.4531L37 12.0537C35.2512 10.217 33.147 8.75525 30.8154 7.7575C28.4838 6.75976 25.9736 6.24686 23.4375 6.25001C13.0859 6.25001 4.6875 14.6485 4.6875 25C4.6875 35.3516 13.0859 43.75 23.4375 43.75C27.3154 43.7498 31.098 42.5477 34.2646 40.3091C37.4312 38.0706 39.8263 34.9057 41.1201 31.25" stroke="white" stroke-width="3" stroke-miterlimit="10" stroke-linecap="round"/>
<path d="M45.3125 9.51364V20.3125C45.3125 20.7269 45.1479 21.1243 44.8549 21.4173C44.5618 21.7103 44.1644 21.875 43.75 21.875H32.9512C31.5586 21.875 30.8613 20.1923 31.8457 19.208L42.6455 8.40817C43.6299 7.42184 45.3125 8.12106 45.3125 9.51364Z" fill="white"/>
</svg>
