<svg width="318" height="309" viewBox="0 0 318 309" fill="none" xmlns="http://www.w3.org/2000/svg">
<path d="M55.9975 90.7754L158.255 30.2041L261.755 90.7754L261.755 217.704L158.255 278.204L55.9983 217.704L55.9975 90.7754Z" fill="white" stroke="black"/>
<path d="M206.996 211.5L112.5 211.5L149.5 169.5L158 181L176.5 181L206.996 211.5Z" fill="black" stroke="black"/>
<path d="M122.5 105.5L130 103.5L139 166.001L131.5 168.501L122.5 105.5Z" fill="black" stroke="black"/>
<path d="M200 95.0001L196 97.5001L192 99.5001L188 100.5L183 101L176 101L170 100.5L164 100L150.5 100L145 100L146 104L148 110.5L149.5 116L150 118L150.5 120.5L151 123.5L151 126L150.5 137L150.5 137.5L152 136L153.5 135L155 134L156 133.5L157 133L158.5 132.5L162.5 132L165 132L167.5 132L170.5 132L173.5 132.5L176 133.5L178.5 134.5L181.5 136L183.5 136.5L186 137L188 137L191 137L193.5 136.5L195.5 136L197.5 135.5L199.5 135L201.5 134.5L203 133.5L204.5 132L200 95.0001Z" fill="black" stroke="black"/>
</svg>
