<svg width="319" height="309" viewBox="0 0 319 309" fill="none" xmlns="http://www.w3.org/2000/svg">
<path d="M56.7079 90.7753L158.965 30.2041L262.465 90.7753L262.465 217.704L158.965 278.204L56.7087 217.704L56.7079 90.7753Z" fill="white" stroke="black"/>
<path d="M132.551 125.815L132.551 96.9887L184.629 96.9887L184.627 125.815L169.534 134.757L169.534 181.259L149.132 181.259L149.132 134.757L132.551 125.815Z" fill="black" stroke="black"/>
<path d="M131.973 181L132.43 135.042L139.985 139.689L139.978 181L131.973 181Z" fill="black" stroke="black"/>
<path d="M186.807 180.978L186.349 135.019L178.794 139.667L178.802 180.978L186.807 180.978Z" fill="black" stroke="black"/>
<path d="M134.5 190.5L140 194.5L140 211L178 211L178 194.5L183.5 190.5L134.5 190.5Z" fill="black" stroke="black"/>
<path d="M141 88.5L149 80.5H168L176 88.5H141Z" fill="black" stroke="black"/>
<path d="M106.5 121.886V97.5H119V101L111 105.5V121.886L119.5 131.5V169L111 177.5V211L119.5 222H197L205 211V177.5L198.5 169V131L206.5 121.886L206.5 105.5L199.5 101V97.5H211.5L211.5 121.886L203 131V169L209.5 177.5V211L197 227.5H119.5L106.5 211V177.5L115 169V131.5L106.5 121.886Z" fill="black" stroke="black"/>
</svg>
