<svg width="318" height="309" viewBox="0 0 318 309" fill="none" xmlns="http://www.w3.org/2000/svg">
<path d="M55.9916 90.7755L158.249 30.2042L261.749 90.7754L261.749 217.704L158.249 278.204L55.9924 217.704L55.9916 90.7755Z" fill="white" stroke="black"/>
<path d="M89.3612 90.7136L156.907 76.2137L224.909 90.7136L224.909 206.214L157.909 248.714L89.3613 206.214L89.3612 90.7136Z" fill="black" stroke="black"/>
<path d="M100.027 197.146L100.027 101.646L157.027 88.6455L213.027 101.646L213.027 197.146L158.027 231.646L100.027 197.146Z" fill="white" stroke="black"/>
<rect x="110" y="132" width="42" height="21" fill="black"/>
<rect x="161" y="132" width="42" height="21" fill="black"/>
<rect x="186" y="163" width="17" height="21" fill="black"/>
<rect x="110" y="163" width="17" height="21" fill="black"/>
<rect x="136" y="163" width="41" height="21" fill="black"/>
<path d="M136 105.746L157 99.5L177 105.746V124H136V105.746Z" fill="black"/>
<path d="M185 108L203 112.5V124H185V108Z" fill="black"/>
<path d="M128 108L110 112.5V124H128V108Z" fill="black"/>
<path d="M193 193L161 214V193H193Z" fill="black"/>
<path d="M120 193L152 214V193H120Z" fill="black"/>
</svg>
