<svg width="318" height="309" viewBox="0 0 318 309" fill="none" xmlns="http://www.w3.org/2000/svg">
<path d="M55.9975 90.7754L158.255 30.2041L261.755 90.7753L261.755 217.704L158.255 278.204L55.9983 217.704L55.9975 90.7754Z" fill="white" stroke="black"/>
<path d="M137 106.5H121L120.5 109.5L119.5 111L117.5 111.5H115V149H140.5V179H145L145.5 183H171.5L172 179H176.5V149H201.5V111.5H199L197 111L196.5 109.5V107H178.5V111.5L176.5 114.5L174 116.5H141L138.5 114.5L137 111.5V106.5Z" fill="black" stroke="black"/>
<path d="M141 125.5L142.5 124.5L144 124H173.5L175.5 124.5L177 125.5L178 126.5L178.5 127.5V139L178 140L177.5 140.5L177 141H141L140.5 140.5L140 140L139.5 139V127.5L140 126.5L141 125.5Z" fill="white"/>
<path d="M127.5 160.5H115.5V195L108.5 197.5H122H134.5L127.5 195V160.5Z" fill="black" stroke="black"/>
<path d="M202 161H190V195.5L183 198H196.5H209L202 195.5V161Z" fill="black" stroke="black"/>
</svg>
