<svg width="318" height="309" viewBox="0 0 318 309" fill="none" xmlns="http://www.w3.org/2000/svg">
<path d="M55.9975 90.7753L158.255 30.204L261.755 90.7752L261.755 217.704L158.255 278.204L55.9983 217.704L55.9975 90.7753Z" fill="white" stroke="black"/>
<circle cx="159" cy="154" r="66" fill="black"/>
<path d="M179.998 143.999L183.378 134.999L184.5 131L185 126L185 116L185 112.5L191.499 119.5L195.499 126L199.999 134.999L200.5 143L199.999 150.5L198.499 159.5L195.499 166.999L191.499 173.5L186.999 179.499L184 182.5L180 183.499L134.498 183.499L131 184L127.5 185L123 188L117.498 190.999L119.5 185L122.498 179.499L126.5 175.5L130.998 171.999L136 169L141 166.5L147.5 165L154 163L160.5 160.5L166.5 158L171 156L175 153L178 148.5L179.998 143.999Z" fill="white" stroke="black"/>
<path d="M150.5 139.5L150 143.5L150.5 146L151.5 148.5L153.5 151.5L156 154L152 154.5L147.5 155.5L144 157L141 158.5L138 160L135.5 161.5L133 163L130.001 165L130 149L130 147.5L130.5 145.5L131.5 143L133 140.5L135.5 137.5L138 135L141 132.5L144 130.5L147 129L150 127.5L153 126L157 124.5L160.5 123.5L157 128L155 130.5L153 133.5L151.5 136.5L150.5 139.5Z" fill="white" stroke="black"/>
<rect x="153" y="76" width="11" height="15" fill="black"/>
<rect x="153" y="76" width="11" height="15" fill="black"/>
<rect x="153" y="76" width="11" height="15" fill="black"/>
<rect x="153" y="76" width="11" height="15" fill="black"/>
<rect x="154" y="216" width="11" height="15" fill="black"/>
<rect x="154" y="216" width="11" height="15" fill="black"/>
<rect x="154" y="216" width="11" height="15" fill="black"/>
<rect x="154" y="216" width="11" height="15" fill="black"/>
<rect x="220" y="159" width="11" height="15" transform="rotate(-90 220 159)" fill="black"/>
<rect x="220" y="159" width="11" height="15" transform="rotate(-90 220 159)" fill="black"/>
<rect x="220" y="159" width="11" height="15" transform="rotate(-90 220 159)" fill="black"/>
<rect x="220" y="159" width="11" height="15" transform="rotate(-90 220 159)" fill="black"/>
<rect x="81" y="159" width="11" height="15" transform="rotate(-90 81 159)" fill="black"/>
<rect x="81" y="159" width="11" height="15" transform="rotate(-90 81 159)" fill="black"/>
<rect x="81" y="159" width="11" height="15" transform="rotate(-90 81 159)" fill="black"/>
<rect x="81" y="159" width="11" height="15" transform="rotate(-90 81 159)" fill="black"/>
</svg>
