<svg width="318" height="309" viewBox="0 0 318 309" fill="none" xmlns="http://www.w3.org/2000/svg">
<path d="M55.9975 90.7754L158.255 30.2041L261.755 90.7753L261.755 217.704L158.255 278.204L55.9983 217.704L55.9975 90.7754Z" fill="white" stroke="black"/>
<path d="M152.5 90H138.5L134 92.5L130.5 94.5L127 97L123.5 100L120.5 103L117.5 106.5L115 110.5L114 114.5V178.5H129.5V197.71L130.5 200.5L132 203L133 204.5L135 207L136.5 208.5L138.5 210L140 211L141.5 211.5H152.5V90Z" fill="black" stroke="black"/>
<circle cx="135" cy="157" r="13" fill="white"/>
<path d="M163 90H177.182L181.74 92.4897L185.286 94.4815L188.831 96.9712L192.377 99.9588L195.416 102.947L198.455 106.432L200.987 110.416L202 114.399V178.136H186.299V197.266L185.286 200.045L183.766 202.535L182.753 204.029L180.727 206.519L179.208 208.012L177.182 209.506L175.662 210.502L174.143 211H163V90Z" fill="black" stroke="black"/>
<circle cx="13" cy="13" r="13" transform="matrix(-1 0 0 1 194 144)" fill="white"/>
</svg>
