<svg width="318" height="309" viewBox="0 0 318 309" fill="none" xmlns="http://www.w3.org/2000/svg">
<path d="M55.9975 90.7753L158.255 30.2041L261.755 90.7753L261.755 217.704L158.255 278.204L55.9983 217.704L55.9975 90.7753Z" fill="white" stroke="black"/>
<circle cx="159" cy="154" r="66" fill="black"/>
<rect x="153" y="76.0001" width="11" height="15" fill="black"/>
<rect x="153" y="76.0001" width="11" height="15" fill="black"/>
<rect x="153" y="76.0001" width="11" height="15" fill="black"/>
<rect x="153" y="76.0001" width="11" height="15" fill="black"/>
<rect x="154" y="216" width="11" height="15" fill="black"/>
<rect x="154" y="216" width="11" height="15" fill="black"/>
<rect x="154" y="216" width="11" height="15" fill="black"/>
<rect x="154" y="216" width="11" height="15" fill="black"/>
<rect x="220" y="159" width="11" height="15" transform="rotate(-90 220 159)" fill="black"/>
<rect x="220" y="159" width="11" height="15" transform="rotate(-90 220 159)" fill="black"/>
<rect x="220" y="159" width="11" height="15" transform="rotate(-90 220 159)" fill="black"/>
<rect x="220" y="159" width="11" height="15" transform="rotate(-90 220 159)" fill="black"/>
<rect x="81" y="159" width="11" height="15" transform="rotate(-90 81 159)" fill="black"/>
<rect x="81" y="159" width="11" height="15" transform="rotate(-90 81 159)" fill="black"/>
<rect x="81" y="159" width="11" height="15" transform="rotate(-90 81 159)" fill="black"/>
<rect x="81" y="159" width="11" height="15" transform="rotate(-90 81 159)" fill="black"/>
<path d="M154.5 179V111.5L127 196.5L154.5 179Z" fill="white" stroke="white"/>
<path d="M132.5 157L140 136.5H106L132.5 157Z" fill="white" stroke="white"/>
<path d="M160 178.5V111L187.5 196L160 178.5Z" fill="white" stroke="white"/>
<path d="M182 156.5L174.5 136H208.5L182 156.5Z" fill="white" stroke="white"/>
</svg>
