<svg width="318" height="309" viewBox="0 0 318 309" fill="none" xmlns="http://www.w3.org/2000/svg">
<path d="M55.9975 90.7753L158.255 30.2041L261.755 90.7753L261.755 217.704L158.255 278.204L55.9983 217.704L55.9975 90.7753Z" fill="white" stroke="black"/>
<path d="M154.5 188L154.5 82.0045L151.5 89L147.5 95L144 99L139.5 103.5L135 107L131 109.5L126 112L120.5 114.5L113.5 115.5L107 116L154.5 188Z" fill="black" stroke="black"/>
<path d="M132.5 209.5L132.5 175L116.5 150.5L102 163.179L132.5 209.5Z" fill="black" stroke="black"/>
<path d="M164.981 187.432L164.982 81.4368L167.981 88.4323L171.981 94.4323L175.481 98.4323L179.981 102.932L184.481 106.432L188.481 108.932L193.481 111.432L198.981 113.932L205.981 114.932L212.481 115.432L164.981 187.432Z" fill="black" stroke="black"/>
<path d="M186.981 208.932L186.981 175L203 150.5L217.481 162.611L186.981 208.932Z" fill="black" stroke="black"/>
</svg>
