<svg width="318" height="309" viewBox="0 0 318 309" fill="none" xmlns="http://www.w3.org/2000/svg">
<path d="M55.9975 90.7753L158.255 30.2041L261.755 90.7753L261.755 217.704L158.255 278.204L55.9983 217.704L55.9975 90.7753Z" fill="white" stroke="black"/>
<path d="M175.5 107.5L158 85L141.5 107.5H124L158 162.5L193 107.5H175.5Z" fill="black" stroke="black"/>
<path d="M69.0003 177.5L92 129L125.5 134L131.999 144.5L96.5 144.5L69.0003 177.5Z" fill="#030303" stroke="black"/>
<path d="M118.501 165.5L142 161.5L137.5 155L105.5 155L118.5 208.5L118.501 165.5Z" fill="black" stroke="black"/>
<path d="M247.419 177.619L224.419 129.119L190.919 134.119L184 145L219.499 145L247.419 177.619Z" fill="black" stroke="black"/>
<path d="M197.918 165.619L174.419 161.619L178.92 155.119L210.92 155.119L197.919 208.619L197.918 165.619Z" fill="#060606" stroke="black"/>
</svg>
