<svg width="318" height="309" viewBox="0 0 318 309" fill="none" xmlns="http://www.w3.org/2000/svg">
<path d="M55.9975 90.7753L158.255 30.2041L261.755 90.7753L261.755 217.704L158.255 278.204L55.9983 217.704L55.9975 90.7753Z" fill="white" stroke="black"/>
<path d="M116.5 156L112.5 131.5L94.5 135.5L88 148.5L94.5 156.5L116.5 156Z" fill="black" stroke="black"/>
<path d="M158 111.5H132V114.5L158 114V111.5Z" fill="black" stroke="black"/>
<path d="M155.5 107H152V104H139V107H104.5V110H155.5V107Z" fill="black" stroke="black"/>
<path d="M164.5 120L160.5 116H130.5L124.5 122L115 123.5L120 159L129 163H141.5L126.315 148.397C125.514 147.627 125.494 146.353 126.27 145.558L138.642 132.89C139.398 132.116 140.633 132.084 141.429 132.818L164.941 154.5L157 163H193L177.45 148.365C176.648 147.61 176.608 146.349 177.359 145.544L188.695 133.399C189.425 132.616 190.641 132.547 191.455 133.242L214.017 152.5L221 145.5V118.5H208.5L207 120H164.5Z" fill="black" stroke="black"/>
<path d="M158.5 166C163 168 162 173.5 159 176C157.5 174.5 154 172 152 170C153 168.5 154.5 167 155.5 166C157.5 166 157 166 158.5 166Z" fill="black"/>
<path d="M214 161C215.5 161.5 223 166.5 215.5 175.5C213.5 174 207.5 169.5 205 167C207 164.5 208 163.5 210 161C212.209 161 212 161 214 161Z" fill="black"/>
<path d="M146 168.001L157.5 177.501L139 203.5L122.5 203.5L122.5 195.5L146 168.001Z" fill="black" stroke="black"/>
<path d="M141.5 206H121.5V209H115V212H144.5V209H141.5V206Z" fill="black" stroke="black"/>
<path d="M202.5 169L214 178L195 204L180.5 204L180.5 195L202.5 169Z" fill="black" stroke="black"/>
<path d="M199.179 206H177.5V209H171V212H203V209H199.179V206Z" fill="black" stroke="black"/>
<path d="M161 154L149.5 166.5L129.524 148.382C128.689 147.625 128.645 146.329 129.425 145.516L138.638 135.919C139.394 135.132 140.642 135.096 141.441 135.838L161 154Z" fill="black" stroke="black"/>
<path d="M212.5 154L200.5 166.5L180.523 148.381C179.689 147.625 179.643 146.329 180.422 145.516L189.186 136.371C189.922 135.603 191.132 135.546 191.937 136.241L212.5 154Z" fill="black" stroke="black"/>
</svg>
