<svg width="318" height="309" viewBox="0 0 318 309" fill="none" xmlns="http://www.w3.org/2000/svg">
<path d="M55.9975 90.7753L158.255 30.2041L261.755 90.7753L261.755 217.704L158.255 278.204L55.9983 217.704L55.9975 90.7753Z" fill="white" stroke="black"/>
<path d="M157.548 194L140 167H174L157.548 194Z" fill="black" stroke="black"/>
<path d="M201.778 121.553L181.002 155.553L135.502 155.553L114.501 121.553L135.502 121.553L148.5 108L158.5 94L168.5 108L181.002 121.553L201.778 121.553Z" fill="#030303" stroke="black"/>
<path d="M187.001 164L181 173.5L198 172.5L206 209L206 162L187.001 164Z" fill="black" stroke="black"/>
<path d="M202 138L195.5 149L217 145L235.5 176L220.5 126L202 138Z" fill="black" stroke="black"/>
<path d="M128.499 164.037L134.5 173.537L117.5 172.537L109.5 209.037L109.499 162.037L128.499 164.037Z" fill="black" stroke="black"/>
<path d="M113.5 138.037L120 149.037L98.4998 145.037L80 176.037L94.9995 126.037L113.5 138.037Z" fill="black" stroke="black"/>
</svg>
