<svg width="318" height="309" viewBox="0 0 318 309" fill="none" xmlns="http://www.w3.org/2000/svg">
<path d="M55.9975 90.7754L158.255 30.2041L261.755 90.7753L261.755 217.704L158.255 278.204L55.9983 217.704L55.9975 90.7754Z" fill="white" stroke="black"/>
<path d="M163.5 78.5L159 78L155 78.5L151.5 81L149 84L147.5 87L146.5 89.5L146 92V212.5H153.5V156V147L154 145.5L155 144L156 143L157 142L158 141.5L159.5 141L161 141.5L162 142L163 143L164 144L165 145.5L165.5 147V156V212.5H173V92L172.5 89.5L171.5 87L169.5 84L167 81L163.5 78.5Z" fill="black" stroke="black"/>
<path d="M185 212.5V187L208.5 212.5H185Z" fill="black" stroke="black"/>
<path d="M134.5 212.5V187L111 212.5H134.5Z" fill="black" stroke="black"/>
</svg>
