<svg width="318" height="309" viewBox="0 0 318 309" fill="none" xmlns="http://www.w3.org/2000/svg">
<path d="M55.9975 90.7754L158.255 30.2041L261.755 90.7753L261.755 217.704L158.255 278.204L55.9983 217.704L55.9975 90.7754Z" fill="white" stroke="black"/>
<path d="M140 96L196.292 194.25H83.7083L140 96Z" fill="black"/>
<path d="M230 193.5L205 193.5L178 146.5L192.499 125L230 193.5Z" fill="black" stroke="black"/>
<path d="M131.5 161L122.5 145.5H158.5L149.5 161H131.5Z" fill="white"/>
<path d="M131.5 161L122.5 145.5H158.5M122.5 145.5L131.5 161H149.5L158.5 145.5H122.5Z" stroke="black"/>
<path d="M130.25 165L120 185H161L150.75 165H130.25Z" fill="white"/>
<path d="M130.25 165L120 185H161M120 185L130.25 165H150.75L161 185H120Z" stroke="black"/>
</svg>
