<svg width="318" height="309" viewBox="0 0 318 309" fill="none" xmlns="http://www.w3.org/2000/svg">
<path d="M55.9975 90.7754L158.255 30.2041L261.755 90.7753L261.755 217.704L158.255 278.204L55.9983 217.704L55.9975 90.7754Z" fill="white" stroke="black"/>
<path d="M179 206.5L169 151.5H151L143.5 206.5H179Z" fill="black" stroke="black"/>
<path d="M121 132.5V139L121.5 142L122 144.5L123 147L124.5 149.5L126.5 152L120 158L118.5 156.5L116.5 154.5L115 152L113.5 149L113 147L112.5 144.5V123.5L113 120.5L114 118.5L115 116.5L116.5 114L118.5 111.5L120.5 109.5L126.5 114.5L124.5 116.5L123 118.5L122 121L121.5 124L121 127V132.5Z" fill="black" stroke="black"/>
<path d="M199.5 135.5V129L199 126L198.5 123.5L197.5 121L196 118.5L194 116L200.5 110L202 111.5L204 113.5L205.5 116L207 119L207.5 121L208 123.237V145L207.5 147L207 148.5L205.5 151.5L204 154L202 156.5L200 158.5L194 153.5L196 151.5L197.5 149.5L198.5 147L199 144L199.5 141V135.5Z" fill="black" stroke="black"/>
<path d="M212.464 134.907V124.99L211.786 120.412L211.107 116.598L209.75 112.784L207.714 108.969L205 105.155L213.821 96L215.857 98.2887L218.571 101.34L220.607 105.155L222.643 109.732L223.5 113L224 116.598V149.5L223.5 152.5L222.643 154.742L220.607 159.32L218.571 163.134L215.857 166.948L213.143 170L205 162.371L207.714 159.32L209.75 156.268L211.107 152.454L211.786 147.876L212.464 143.299V134.907Z" fill="black" stroke="black"/>
<path d="M107.536 134.907V124.99L108.214 120.412L108.893 116.598L110.25 112.784L112.286 108.969L115 105.155L106.179 96L104.143 98.2887L101.429 101.34L99.3929 105.155L97.3571 109.732L96.5 113L96 116.598V149.685L96.5 152.5L97.3571 154.742L99.3929 159.32L101.429 163.134L104.143 166.948L106.857 170L115 162.371L112.286 159.32L110.25 156.268L108.893 152.454L108.214 147.876L107.536 143.299V134.907Z" fill="black" stroke="black"/>
<path d="M151.5 126.5L138 118.5V147.5L151.5 140H170L183.5 147.5V118.5L170 126.5H151.5Z" fill="black" stroke="black"/>
</svg>
