<svg width="318" height="309" viewBox="0 0 318 309" fill="none" xmlns="http://www.w3.org/2000/svg">
<path d="M55.997 90.7754L158.254 30.2041L261.754 90.7753L261.754 217.704L158.254 278.204L55.9978 217.704L55.997 90.7754Z" fill="white" stroke="black"/>
<circle cx="166" cy="107" r="16" fill="black"/>
<circle cx="161" cy="131" r="11" fill="black"/>
<circle cx="149.5" cy="137.5" r="4.5" fill="black"/>
<circle cx="138" cy="144" r="11" fill="black"/>
<circle cx="131.5" cy="154.5" r="2.5" fill="black"/>
<circle cx="130.5" cy="157.5" r="1.5" fill="black"/>
<path d="M178.501 205.507L144.919 205.507L134 174.5L178.501 159L192.501 198.5L178.501 205.507Z" fill="black" stroke="black"/>
<path d="M205.5 157.501L188.999 157.501L203 193.5L213.97 182.5L205.5 157.501Z" fill="black" stroke="black"/>
<path d="M133.5 204.5L124.5 178.5L102.999 199L105 204.5L133.5 204.5Z" fill="black" stroke="black"/>
</svg>
