<svg width="318" height="309" viewBox="0 0 318 309" fill="none" xmlns="http://www.w3.org/2000/svg">
<path d="M55.9975 90.7754L158.255 30.2041L261.755 90.7753L261.755 217.704L158.255 278.204L55.9983 217.704L55.9975 90.7754Z" fill="white" stroke="black"/>
<path d="M215 166.5L107 166.5L107 104L215 104L215 166.5Z" fill="black" stroke="black"/>
<path d="M192.498 142.641L159.499 109.5L127 142.641L148.5 142.641L148.5 158L170.998 158L170.998 142.641L192.498 142.641Z" fill="white" stroke="black"/>
<path d="M229 176.5H172V187.5H146V176.5H91V182V185L92 188L93.5 191.5L95.5 194L97.5 196L100 198.5L103.249 201H214.5L218 198.5L221.5 195L224.5 191.5L226.5 188.5L228 184.5L229 180.5V176.5Z" fill="black" stroke="black"/>
</svg>
