<svg xmlns="http://www.w3.org/2000/svg" width="30" height="30" viewBox="0 0 30 30" fill="none">
    <path fill-rule="evenodd" clip-rule="evenodd" d="M6.75017 8.29661L13.1252 4.616C14.0534 4.08011 15.197 4.08011 16.1252 4.616L22.5002 8.29662L23.1927 8.69645C24.1209 9.23235 24.6927 10.2227 24.6927 11.2945V19.4554C24.6927 20.5272 24.1209 21.5176 23.1927 22.0535L22.5002 22.4533L16.1252 26.134C16.0091 26.2009 15.8897 26.2596 15.7678 26.3098C14.9144 26.6615 13.9373 26.6029 13.1252 26.134L6.75017 22.4533L6.05762 22.0535C5.12941 21.5176 4.55762 20.5272 4.55762 19.4554V11.2945C4.55762 10.2227 5.12941 9.23235 6.05762 8.69645L6.75017 8.29661ZM6.75017 28.4025V24.1854L12.3752 27.433C13.7675 28.2368 15.4829 28.2368 16.8752 27.433L22.5002 24.1854V28.4033C22.5002 28.8536 22.106 29.2017 21.659 29.147L14.7163 28.2969C14.6558 28.2894 14.5946 28.2894 14.534 28.2969L7.59132 29.147C7.1443 29.2017 6.75017 28.8529 6.75017 28.4025ZM22.5002 1.64505V6.56456L16.8752 3.31697C15.4829 2.51312 13.7675 2.51312 12.3752 3.31697L6.75017 6.56456V1.64484C6.75017 1.17811 7.17191 0.824934 7.63144 0.906628L14.4939 2.12662C14.5807 2.14206 14.6696 2.14206 14.7564 2.12662L21.6189 0.906628C22.0784 0.824934 22.5002 1.17831 22.5002 1.64505Z" fill="url(#paint0_linear_13_943)"/>
    <path fill-rule="evenodd" clip-rule="evenodd" d="M19.7113 12.6989C19.7349 12.4464 19.7587 12.1912 19.7854 11.9332C19.7854 11.775 19.8165 11.6094 19.847 11.4465C19.9336 10.9849 20.0161 10.5454 19.3754 10.3595C18.7983 10.2083 18.2369 9.99726 17.6763 9.78648C16.0756 9.18467 14.4808 8.58506 12.541 9.38705C12.3426 9.46952 12.1566 9.54588 11.9824 9.61744C9.4404 10.6611 9.38794 10.6826 9.68079 13.7401C9.68719 13.8051 9.69396 13.8701 9.70073 13.9351C9.79326 14.8228 9.88424 15.6955 8.98608 16.3845C8.93526 16.4239 8.86877 16.4664 8.79652 16.5124C8.44173 16.7388 7.94826 17.0537 8.49165 17.5379C8.73665 17.752 8.92551 18.0571 9.11485 18.363C9.52527 19.0261 9.93791 19.6928 10.9294 19.443C11.7899 19.2282 11.937 19.4645 12.0278 20.1271C12.2343 21.6487 13.5549 21.7468 14.6095 21.7499C15.664 21.753 16.9877 21.6977 17.2287 20.1639C17.2317 20.1448 17.2347 20.1259 17.2376 20.1072C17.3255 19.5462 17.3841 19.1724 18.2927 19.4307C19.3288 19.7292 19.7623 19.016 20.175 18.3371C20.3518 18.0462 20.5248 17.7616 20.7398 17.5656C21.2936 17.0606 20.8475 16.7626 20.4718 16.5117C20.3613 16.438 20.257 16.3683 20.1859 16.2986C19.9149 16.0644 19.7112 15.7648 19.5948 15.4295C19.4784 15.0943 19.4535 14.735 19.5225 14.3874C19.6052 13.8371 19.6576 13.275 19.7113 12.6989ZM11.4908 17.5692C12.313 17.5692 12.9796 16.9298 12.9796 16.141C12.9796 15.3523 12.313 14.7128 11.4908 14.7128C10.6685 14.7128 10.0019 15.3523 10.0019 16.141C10.0019 16.9298 10.6685 17.5692 11.4908 17.5692ZM17.8171 17.5692C18.6394 17.5692 19.3059 16.9298 19.3059 16.141C19.3059 15.3523 18.6394 14.7128 17.8171 14.7128C16.9948 14.7128 16.3282 15.3523 16.3282 16.141C16.3282 16.9298 16.9948 17.5692 17.8171 17.5692ZM13.7303 19.1132L14.4448 17.9413C14.5262 17.8079 14.7238 17.8079 14.8052 17.9413L15.5197 19.1132C15.6031 19.2499 15.5023 19.4234 15.3395 19.4234H13.9105C13.7477 19.4234 13.6469 19.2499 13.7303 19.1132Z" fill="black"/>
    <defs>
        <linearGradient id="paint0_linear_13_943" x1="6.00017" y1="0.75" x2="27.0002" y2="30" gradientUnits="userSpaceOnUse">
            <stop stop-color="#EBEA8D"/>
            <stop offset="1" stop-color="#C1AE70"/>
        </linearGradient>
    </defs>
</svg>