<svg width="36" height="36" viewBox="0 0 36 36" fill="none" xmlns="http://www.w3.org/2000/svg">
<path fill-rule="evenodd" clip-rule="evenodd" d="M32 2H5V29.125H32V2ZM32 31.0625H5V33H32V31.0625Z" fill="#FBFF6D"/>
<path d="M26.0243 9.6375V13.95C26.0243 15.7875 25.8025 16.3125 24.8837 17.4L23.9967 18.45C23.7749 18.7125 23.5848 18.9 23.3631 19.0875L26.2143 27.1875H22.4443L19.8782 19.65H14.334V27.1875H10.7858V5.1C10.7858 4.275 11.0709 3.9375 11.7679 3.9375H21.0504C22.476 3.9375 23.173 4.1625 23.9967 5.1375L24.8837 6.1875C25.8025 7.275 26.0243 7.8 26.0243 9.6375ZM22.5077 13.875V9.8625C22.5077 9.4125 22.4126 9.1875 22.1275 8.85L21.4622 8.0625C21.1771 7.725 20.9553 7.6125 20.5118 7.6125H14.334V15.975H20.5435C20.9236 15.975 21.1454 15.9 21.3672 15.6375L22.2225 14.625C22.4443 14.3625 22.5077 14.175 22.5077 13.875Z" fill="black"/>
</svg>
