<svg width="718" height="581" viewBox="0 0 718 581" fill="none" xmlns="http://www.w3.org/2000/svg">
<path d="M63.9454 143.957C64.0484 143.835 64.1725 143.76 64.3177 143.732C64.4532 143.695 64.5872 143.712 64.7197 143.782L77.2744 149.518L76.1025 150.91L65.5574 145.887C65.3872 145.8 65.2127 145.718 65.0339 145.641C64.854 145.545 64.6837 145.458 64.5232 145.38L64.1627 145.808C64.2545 145.968 64.356 146.137 64.4673 146.315C64.5688 146.483 64.666 146.657 64.759 146.836L70.6939 157.337L69.522 158.73L62.685 146.199C62.604 146.068 62.5731 145.929 62.5921 145.783C62.6014 145.627 62.6576 145.488 62.7606 145.365L63.9454 143.957ZM71.3879 147.457L72.4943 148.499L67.9871 153.855L66.8807 152.813L71.3879 147.457Z" fill="#C64A4A"/>
<path d="M73.4425 132.933C74.2061 132.096 74.888 131.506 75.4883 131.164C76.0791 130.813 76.6575 130.712 77.2234 130.862C77.7983 131.003 78.4209 131.407 79.0914 132.076C79.7901 132.772 80.1979 133.442 80.3146 134.085C80.4403 134.718 80.253 135.368 79.7527 136.036L79.8093 136.092C80.5672 135.4 81.3027 135.127 82.0161 135.273C82.7384 135.41 83.4914 135.87 84.2751 136.651C84.9456 137.319 85.3661 137.945 85.5367 138.529C85.7074 139.113 85.6481 139.722 85.359 140.355C85.0695 140.969 84.5698 141.666 83.8601 142.444C83.3301 143.025 82.8672 143.523 82.4715 143.937C82.0942 144.351 81.7344 144.726 81.3921 145.062C81.0498 145.398 80.6893 145.744 80.3106 146.1L79.5078 144.904C79.7149 144.697 80.0971 144.297 80.6546 143.706C81.221 143.104 81.8725 142.4 82.6092 141.592C83.1033 141.05 83.4471 140.584 83.6406 140.194C83.8336 139.784 83.8658 139.393 83.737 139.02C83.6173 138.638 83.3261 138.216 82.8634 137.754C82.3535 137.246 81.8987 136.924 81.4991 136.789C81.0995 136.654 80.6948 136.693 80.285 136.905C79.8753 137.117 79.4096 137.499 78.8881 138.052L75.8966 141.333L74.9476 140.386L77.9257 137.12C78.3654 136.618 78.673 136.182 78.8486 135.812C79.0236 135.422 79.0515 135.045 78.9322 134.682C78.8035 134.309 78.522 133.906 78.0876 133.473C77.6438 133.031 77.241 132.761 76.8791 132.663C76.5173 132.566 76.1457 132.637 75.7642 132.878C75.3918 133.108 74.954 133.5 74.4509 134.051C74.0107 134.534 73.6154 134.968 73.2651 135.352C72.9147 135.736 72.6095 136.081 72.3495 136.386C72.0889 136.672 71.8783 136.922 71.7175 137.138L70.5374 136.357C70.814 135.974 71.0869 135.626 71.3559 135.311C71.6245 134.977 71.925 134.627 72.2574 134.263C72.5893 133.879 72.9843 133.436 73.4425 132.933ZM71.6962 135.086L81.4695 144.829L80.3106 146.1L70.5374 136.357L71.6962 135.086Z" fill="#C64A4A"/>
<path d="M84.5104 121.547L94.0125 131.555L92.7771 132.808L83.2751 122.801L84.5104 121.547ZM87.6408 118.37L88.715 119.502L81.2328 127.095L80.1587 125.963L87.6408 118.37Z" fill="#C64A4A"/>
<path d="M94.7985 111.215C95.5283 110.531 96.2263 110.041 96.8926 109.746C97.5686 109.442 98.2444 109.356 98.92 109.491C99.5965 109.606 100.31 109.942 101.061 110.499C101.821 111.047 102.651 111.822 103.55 112.825C104.45 113.827 105.134 114.739 105.602 115.56C106.08 116.373 106.351 117.133 106.413 117.842C106.477 118.531 106.331 119.207 105.975 119.869C105.629 120.521 105.092 121.189 104.362 121.873C103.632 122.557 102.929 123.051 102.253 123.355C101.587 123.651 100.916 123.741 100.239 123.626C99.5538 123.5 98.8309 123.164 98.0706 122.616C97.3199 122.059 96.4949 121.279 95.5956 120.277C94.6962 119.274 94.0074 118.367 93.5293 117.555C93.0608 116.733 92.7997 115.973 92.746 115.274C92.6834 114.566 92.825 113.885 93.1707 113.233C93.5261 112.571 94.0687 111.898 94.7985 111.215ZM95.8537 112.391C95.192 113.01 94.7823 113.632 94.6246 114.254C94.4766 114.868 94.5915 115.555 94.9693 116.315C95.3479 117.056 96.0091 117.953 96.953 119.005C97.888 120.047 98.7049 120.798 99.4037 121.257C100.112 121.708 100.772 121.884 101.383 121.787C102.004 121.68 102.645 121.317 103.307 120.697C103.968 120.077 104.373 119.461 104.521 118.847C104.679 118.224 104.564 117.537 104.177 116.786C103.799 116.026 103.142 115.125 102.207 114.083C101.264 113.031 100.442 112.284 99.7421 111.844C99.0433 111.384 98.3834 111.208 97.7627 111.315C97.1517 111.412 96.5154 111.771 95.8537 112.391Z" fill="#C64A4A"/>
<path d="M113.271 95.2991C113.636 94.9877 113.977 95.0209 114.294 95.3987L123.134 105.024L121.795 106.166L113.479 97.0401L113.16 97.3127L117.362 107.107C117.538 107.483 117.474 107.8 117.169 108.06L115.967 109.085C115.653 109.353 115.321 109.373 114.973 109.145L106.083 103.347L105.779 103.606L113.348 113.368L112.009 114.51L104.022 104.158C103.725 103.763 103.754 103.414 104.109 103.111L105.631 101.814C105.915 101.571 106.232 101.564 106.58 101.793L113.958 106.567C114.236 106.733 114.499 106.912 114.747 107.103C115.005 107.286 115.272 107.47 115.549 107.654L115.823 107.421C115.688 107.115 115.553 106.819 115.417 106.532C115.28 106.245 115.14 105.944 114.997 105.628L111.572 97.5365C111.396 97.1609 111.46 96.8434 111.764 96.5838L113.271 95.2991Z" fill="#C64A4A"/>
<path d="M122.687 87.8965C122.813 87.7983 122.952 87.7491 123.105 87.7489C123.249 87.7381 123.382 87.7781 123.504 87.8689L135.245 95.6154L133.807 96.7319L123.983 90.0299C123.825 89.9159 123.662 89.806 123.494 89.7001C123.329 89.5757 123.171 89.4616 123.022 89.3581L122.58 89.7016C122.645 89.8706 122.718 90.0501 122.799 90.24C122.873 90.4194 122.941 90.603 123.003 90.7906L127.174 101.885L125.736 103.001L121.009 89.8074C120.95 89.6676 120.943 89.5294 120.988 89.3929C121.025 89.2459 121.107 89.1234 121.233 89.0252L122.687 87.8965ZM129.629 92.583L130.568 93.7778L125.04 98.072L124.101 96.8772L129.629 92.583Z" fill="#C64A4A"/>
<path d="M134.682 79.0314L142.912 90.1084L141.481 91.1332L133.251 80.0562L134.682 79.0314ZM138.308 76.4346L139.238 77.6868L130.572 83.8936L129.641 82.6414L138.308 76.4346Z" fill="#C64A4A"/>
<path d="M146.562 70.6272C147.397 70.0779 148.174 69.7112 148.891 69.527C149.619 69.3354 150.316 69.3555 150.983 69.5872C151.653 69.8006 152.33 70.2329 153.014 70.884C153.708 71.5278 154.442 72.4012 155.214 73.5044C155.987 74.6075 156.553 75.5908 156.914 76.4543C157.285 77.3105 157.454 78.0851 157.418 78.7782C157.386 79.453 157.144 80.0828 156.691 80.6676C156.249 81.245 155.611 81.8084 154.775 82.3576C153.939 82.9069 153.158 83.2773 152.429 83.4689C151.712 83.6531 151.019 83.6385 150.349 83.4251C149.671 83.2007 148.985 82.7666 148.29 82.1228C147.606 81.4717 146.878 80.5946 146.106 79.4915C145.333 78.3883 144.761 77.4087 144.39 76.5525C144.029 75.689 143.87 74.9162 143.913 74.234C143.949 73.541 144.187 72.9057 144.629 72.3283C145.082 71.7435 145.726 71.1765 146.562 70.6272ZM147.468 71.9215C146.71 72.4195 146.208 72.957 145.961 73.5339C145.726 74.1035 145.746 74.7837 146.023 75.5744C146.304 76.3469 146.85 77.3121 147.66 78.4698C148.463 79.6167 149.187 80.4646 149.832 81.0137C150.488 81.5554 151.132 81.8255 151.766 81.8238C152.41 81.8149 153.111 81.5614 153.869 81.0634C154.627 80.5654 155.123 80.0316 155.359 79.462C155.606 78.885 155.585 78.2048 155.297 77.4214C155.02 76.6307 154.48 75.6619 153.677 74.515C152.866 73.3573 152.137 72.513 151.488 71.9822C150.844 71.4331 150.199 71.163 149.555 71.172C148.921 71.1737 148.226 71.4235 147.468 71.9215Z" fill="#C64A4A"/>
<path d="M157.779 63.8631L165.354 75.3984L163.843 76.3023L156.269 64.767L157.779 63.8631ZM166.531 65.2147L167.366 66.4853L161.583 69.947L160.748 68.6764L166.531 65.2147ZM164.746 59.6926L172.321 71.2279L170.811 72.1318L163.236 60.5966L164.746 59.6926Z" fill="#C64A4A"/>
<path d="M177.37 59.0525C178.367 58.515 179.227 58.2108 179.948 58.1399C180.674 58.0512 181.32 58.2021 181.887 58.5926C182.453 58.9831 183.011 59.6276 183.561 60.5263C184.131 61.459 184.444 62.2509 184.498 62.9019C184.565 63.5466 184.385 64.1199 183.958 64.6219C183.544 65.1175 182.884 65.6087 181.98 66.0956C181.311 66.4561 180.733 66.7602 180.244 67.0081C179.763 67.2674 179.316 67.4931 178.903 67.6853C178.49 67.8776 178.05 68.0768 177.583 68.2829L177.061 66.9311C177.338 66.7971 177.814 66.5555 178.49 66.2064C179.178 65.8511 179.997 65.4173 180.948 64.9051C181.594 64.5573 182.052 64.2349 182.323 63.9377C182.599 63.6229 182.706 63.2626 182.645 62.8569C182.584 62.4511 182.37 61.9468 182.001 61.3439C181.653 60.7751 181.31 60.3549 180.973 60.0832C180.635 59.8115 180.245 59.6965 179.802 59.7384C179.364 59.7625 178.811 59.9548 178.142 60.3152L174.268 62.4019L173.496 61.1392L177.37 59.0525ZM171.898 55.6938L179.097 67.4672L177.548 68.3019L170.349 56.5285L171.898 55.6938ZM182.181 50.1546L189.38 61.928L187.848 62.7532L180.649 50.9798L182.181 50.1546Z" fill="#C64A4A"/>
</svg>
