<svg width="706" height="555" viewBox="0 0 706 555" fill="none" xmlns="http://www.w3.org/2000/svg">
<path d="M705.997 274.853C704.045 423.765 554.258 551.214 353.751 554.003C167.497 556.593 -1.95387 444.515 0.0170245 275.614C8.38185 117.126 170.97 2.40557 353.75 0.0131991C547.854 -1.42222 705.012 114.368 705.997 274.853Z" fill="#0B3451" fill-opacity="0.4"/>
<path d="M389.694 229.667C389.694 219.141 377.378 203.83 356.193 203.83C339.991 203.503 320.373 214.065 319.241 229.704C319.115 237.146 325.178 252.727 344.807 256.43C348.433 256.891 352 257.06 356.182 257.006C358.941 256.609 360.818 256.732 363.092 256.457C376.043 253.496 388.084 244.321 389.694 229.667Z" stroke="#0B3451" stroke-opacity="0.4"/>
<path d="M610.897 117.226L634.903 106.395C654.634 126.485 673.056 152.575 685.736 181.365C694.693 201.933 700.781 223.6 703.581 245.867C706.021 264.934 706.185 283.953 703.317 303.222L669.03 295.696C671.758 270.224 671.691 255.649 669.03 229.188H633.559C630.162 207.526 625.96 196.016 616.316 176.078L647.353 169.379C635.272 148.167 626.979 136.871 610.897 117.226Z" stroke="#0B3451" stroke-opacity="0.4"/>
<path d="M1.67358 302.811C-0.791534 277.543 0.539065 260.755 7.29187 230.312L75.3637 230.144C69.4803 256.969 73.4188 278.927 74.9307 287.929C79.0871 312.675 84.9338 327.121 93.1281 344.97L58.6264 360.29C48.2294 338.125 43.0746 325.902 37.9347 294.739L1.67358 302.811Z" stroke="#0B3451" stroke-opacity="0.4"/>
<path d="M139.535 60.7064C99.7256 85.1296 62.4061 118.516 35.2192 163.504L65.0311 169.379C74.8843 150.719 87.7667 136.017 104.444 117.226L136.898 131.649L157.282 140.713C168.215 129.47 180.771 119.16 198.048 106.702L139.535 60.7064Z" stroke="#0B3451" stroke-opacity="0.4"/>
<path d="M75.3443 230.144L7.30165 230.309C15.2103 201.354 22.3612 185.412 35.1755 163.492L65.0352 169.374C71.4397 156.923 82.2776 141.65 104.447 117.227L157.28 140.718C145.456 153.169 137.621 164.602 127.101 182.774L95.5977 176.563C87.7151 194.761 81.2562 204.284 75.3443 230.144Z" stroke="#0B3451" stroke-opacity="0.4"/>
<path d="M537.984 90.9099C558.22 104.577 568.508 112.969 584.293 129.666C590.07 136.823 597.051 145.06 602.5 152.74C607.797 159.951 613.638 169.975 616.329 176.07L647.354 169.379C634.931 148.105 626.884 136.728 610.897 117.226L634.905 106.4C622.912 93.7788 604.364 77.7622 584.934 64.8861C564.79 51.3948 541.161 38.7991 511.524 27.4857L483.791 62.68C504.73 71.4323 518.72 78.4906 537.984 90.9099Z" stroke="#0B3451" stroke-opacity="0.4"/>
<path d="M511.546 27.499L483.791 62.6799C461.129 55.0244 447.334 50.7181 423.194 45.4549L430.584 25.8375C402.502 20.5743 384.632 19.1025 360.134 19.6174V0.532336C408.871 0.315313 466.612 10.1207 511.546 27.499Z" stroke="#0B3451" stroke-opacity="0.4"/>
<path d="M423.194 45.4549L430.584 25.8375C401.347 20.4452 385.971 19.1663 360.133 19.6174V0.511719C299.851 1.47699 257.359 9.56285 208.42 27.2432L220.711 43.541C240.91 36.364 270.962 27.7514 289.191 25.8375L295.103 45.9334C325.647 37.3209 393.142 37.3209 423.194 45.4549Z" stroke="#0B3451" stroke-opacity="0.4"/>
<path d="M208.407 27.2466C180.125 38.05 165.142 45.416 139.529 60.7092L198.049 106.699C235.491 85.6466 266.529 72.2493 301.507 66.5077C298.94 58.7081 297.578 54.0451 295.115 45.9589L289.191 25.8375C269.977 27.7514 234.546 38.4224 220.711 43.541L208.407 27.2466Z" stroke="#0B3451" stroke-opacity="0.4"/>
<path d="M37.9347 294.739L1.67017 302.801C6.18017 351.418 28.6701 404.09 70.3602 446.945L163.835 375.871C137.748 350.119 117.757 323.466 109.8 280.871L75.0179 288.491C79.4134 312.832 83.5524 323.841 93.1125 344.979L58.6264 360.29C47.3076 336.531 42.4728 322.344 37.9347 294.739Z" stroke="#0B3451" stroke-opacity="0.4"/>
<path d="M214.883 411.522C191.386 399.451 180.336 391.523 163.829 375.878L70.3816 446.946C111.699 490.588 173.847 523.953 239.831 540.443L266.482 469.368C236.503 461.908 220.46 455.462 192.629 441.152L214.883 411.522Z" stroke="#0B3451" stroke-opacity="0.4"/>
<path d="M350.846 409.101C328.184 410.058 313.824 408.138 291.162 402.396C270.963 457.899 255.6 498.341 239.835 540.447C280.855 550.475 316.014 553.475 347.418 553.582L348.31 515.315C379.778 515.031 408.069 511.791 442.901 503.832L432.552 468.899C402.919 476.359 384.139 478.807 349.295 478.952L349.776 443.066H350.289L350.846 409.101Z" stroke="#0B3451" stroke-opacity="0.4"/>
<path d="M552.517 503.343L486.251 411.962C461.79 423.122 442.334 429.875 420.668 435.222C401.271 440.01 378.331 442.334 349.79 443.056L349.294 478.952C383.523 478.866 401.689 476.522 432.553 468.904L442.899 503.832C404.092 512.17 383.362 514.779 348.308 515.315L347.418 553.582C435.995 553.291 505.286 529.442 552.517 503.343Z" stroke="#0B3451" stroke-opacity="0.4"/>
<path d="M576.411 330.146C554.734 367.467 519.263 396.176 486.255 411.965L552.507 503.325C580.575 487.565 603.247 471.709 629.259 446.083L569.514 398.568C589.639 378.365 598.349 366.437 610.405 345.936L576.411 330.146Z" stroke="#0B3451" stroke-opacity="0.4"/>
<path d="M596.61 280.385C592.273 301.573 587.99 312.544 576.411 330.146L610.404 345.936C597.461 367.875 588.613 379.455 569.514 398.568L629.259 446.083C670.66 404.526 695.61 355.777 703.374 303.177C689.961 300.384 682.425 298.604 669.002 295.675L596.61 280.385Z" stroke="#0B3451" stroke-opacity="0.4"/>
<path d="M552.763 188.518L616.316 176.078C626.67 197.628 630.249 208.45 633.559 229.189H669.031C671.794 257.5 671.658 270.47 669.031 295.696L596.61 280.385C601.527 260.875 601.338 249.716 599.073 229.667H564.094C561.922 212.833 559.003 203.811 552.763 188.518Z" stroke="#0B3451" stroke-opacity="0.4"/>
<path d="M552.764 188.518C544.604 171.765 539.212 164.265 528.623 153.111L559.661 139.714L584.294 129.666C598.088 146.413 608.927 159.81 616.317 176.078L552.764 188.518Z" stroke="#0B3451" stroke-opacity="0.4"/>
<path d="M496.038 122.937L537.984 90.9099C557.817 104.237 568.109 112.652 584.294 129.666C562.913 138.31 550.729 143.41 528.623 153.111C517.276 140.622 510.105 133.995 496.038 122.937Z" stroke="#0B3451" stroke-opacity="0.4"/>
<path d="M537.983 90.9099C519.024 78.6101 504.744 71.4499 483.791 62.68L438.466 121.532C452.868 126.86 460.511 131.377 473.445 140.193L496.044 122.936L537.983 90.9099Z" stroke="#0B3451" stroke-opacity="0.4"/>
<path d="M423.194 45.4549C406.937 41.1486 383.626 39.3892 359.149 39.4501V61.723C382.046 61.3248 394.392 62.2938 415.312 66.0292L407.922 87.5605C390.177 83.9223 379.642 82.6947 358.163 82.7758L357.671 105.264C389.927 106.331 407.828 109.989 438.467 121.532L483.791 62.6799C460.91 54.7055 441.81 49.4669 423.194 45.4549Z" stroke="#0B3451" stroke-opacity="0.4"/>
<path d="M359.148 39.4511C342.398 39.4511 314.316 40.6702 295.103 45.9334C297.145 52.7098 299.242 59.5219 301.512 66.5063C305.813 79.7418 310.592 93.6065 315.794 109.092C331.067 106.7 338.949 105.743 357.67 105.264L358.163 82.7759C375.353 82.5443 390.679 83.7328 407.922 87.5606L415.312 66.0293C392.98 62.0979 380.431 61.3169 359.148 61.7231V39.4511Z" stroke="#0B3451" stroke-opacity="0.4"/>
<path d="M315.794 109.092L301.507 66.5078C280.775 70.0098 264.501 75.3588 251.415 80.5616C235.314 86.8249 219.816 94.6459 198.049 106.699C206.517 113.188 211.491 117.229 219.233 123.446C235.491 113.398 244.074 107.911 261.109 100.958C266.946 109.267 270.992 114.634 275.396 121.054C291.786 115.43 301.528 112.509 315.794 109.092Z" stroke="#0B3451" stroke-opacity="0.4"/>
<path d="M184.254 152.633L211.843 165.073C222.49 153.895 228.93 148.283 239.918 140.184C226.346 129.341 212.497 117.779 198.09 106.732C165.075 129.977 145.608 149.405 127.106 182.777L158.636 189.003C162.066 181.308 170.401 168.97 184.254 152.633Z" stroke="#0B3451" stroke-opacity="0.4"/>
<path d="M145.826 230.146L110.847 230.146C108.746 249.609 108.613 260.715 109.861 280.864L75.0094 288.497C71.3605 260.085 71.8186 249.257 75.3597 230.062C80.413 202.671 89.9329 189.942 95.576 176.557L158.635 188.997C152.83 204.564 150.035 213.581 145.826 230.146Z" stroke="#0B3451" stroke-opacity="0.4"/>
<path d="M217.732 258.745C215.874 248.227 215.262 241.548 215.784 230.146H110.848C108.889 249.391 108.555 260.466 109.863 280.876L217.732 258.745Z" stroke="#0B3451" stroke-opacity="0.4"/>
<path d="M192.386 353.844C165.139 325.511 154.617 305.884 145.784 273.5L109.803 280.882C116.7 315.811 129.843 342.388 163.836 375.882L192.386 353.844Z" stroke="#0B3451" stroke-opacity="0.4"/>
<path d="M163.829 375.886L249.783 309.569C259.923 318.502 265.651 322.774 277.86 329.189C253.219 361.248 239.484 379.369 214.894 411.522C191.739 399.56 180.699 391.877 163.829 375.886Z" stroke="#0B3451" stroke-opacity="0.4"/>
<path d="M350.841 409.102L350.776 377.484C331.659 377.009 317.018 374.817 303.478 371.295C284.138 367.196 273.628 363.91 257.69 355.517C229.753 391.871 215.237 410.882 192.63 441.152C219.798 455.495 236.003 461.554 266.482 469.368L291.162 402.396C314.768 408.246 327.91 410.018 350.841 409.102Z" stroke="#0B3451" stroke-opacity="0.4"/>
<path d="M445.363 355.505C412.994 371.097 390.326 375.974 350.773 377.515C350.98 403.336 350.803 417.869 350.28 443.066C380.451 442.071 402.985 439.79 420.664 435.229L410.384 402.396C433.031 396.016 445.62 391.819 464.515 383.161L445.363 355.505Z" stroke="#0B3451" stroke-opacity="0.4"/>
<path d="M420.67 435.234L410.385 402.396C430.561 396.956 448.305 390.885 464.472 383.11C498.78 366.086 522.002 347.892 543.896 315.314L576.411 330.146C555.366 365.911 521.058 395.588 486.239 411.97C467.832 420.67 444.979 429.189 420.67 435.234Z" stroke="#0B3451" stroke-opacity="0.4"/>
<path d="M576.411 330.146C587.93 312.722 592.219 301.748 596.61 280.385L526.616 265.558C513.517 262.796 505.322 261.238 491.673 258.375C487.75 270.17 484.931 275.98 478.918 285.559L576.411 330.146Z" stroke="#0B3451" stroke-opacity="0.4"/>
<path d="M526.652 265.553C528.908 251.705 529.522 242.982 529.12 229.667H599.073C601.76 251.253 600.959 262.743 596.61 280.385L526.652 265.553Z" stroke="#0B3451" stroke-opacity="0.4"/>
<path d="M473.445 140.193L496.049 122.933C510.045 134.006 517.311 140.587 528.623 153.111C539.845 164.914 545.134 172.619 552.763 188.518C559.389 204.881 562.091 213.921 564.095 229.667L529.094 229.667C525.458 209.285 518.614 188.642 509.391 176.22C500.711 163.371 488.535 151.796 473.445 140.193Z" stroke="#0B3451" stroke-opacity="0.4"/>
<path d="M443.886 190.432C433.44 178.014 425.08 172.232 406.444 163.638C418.823 147.633 426.198 138.343 438.458 121.525C453.026 126.913 459.961 131.045 473.445 140.193C493.37 155.719 506.32 169.314 514.867 185.045C522.568 200.046 526.443 215.568 529.106 229.667L494.63 229.667C491.412 207.012 486.234 195.784 472.953 177.513L443.886 190.432Z" stroke="#0B3451" stroke-opacity="0.4"/>
<path d="M389.693 184.691C378.869 179.525 371.569 177.736 356.192 177.992L357.67 105.264C388.775 106.444 406.827 109.436 438.479 121.537C426.024 138.63 416.641 150.393 406.437 163.639C401.251 170.06 395.951 176.872 389.693 184.691Z" stroke="#0B3451" stroke-opacity="0.4"/>
<path d="M356.193 177.992L357.671 105.264C342.59 105.449 328.699 106.857 315.804 109.111C302.841 112.048 290.544 115.845 275.397 121.054L290.176 141.628C304.956 135.408 309.39 134.451 322.692 132.537L330.575 154.547L306.434 162.681L322.199 184.212C336.261 179.132 342.694 178.164 356.193 177.992Z" stroke="#0B3451" stroke-opacity="0.4"/>
<path d="M261.109 100.958C243.373 108.135 234.998 113.877 219.233 123.446L239.925 140.193C230.564 146.891 220.711 155.504 211.843 165.073L239.929 177.995C254.96 160.841 265.761 152.741 290.176 141.628L261.109 100.958Z" stroke="#0B3451" stroke-opacity="0.4"/>
<path d="M180.806 230.145H145.827C148.879 218.897 151.816 206.527 158.567 189.141C163.193 179.077 172.561 166.572 184.261 152.64C205.895 162.373 218.1 167.907 239.914 177.99C232.012 185.956 227.994 191.838 223.174 202.394L189.674 196.652C184.468 209.127 182.776 216.27 180.806 230.145Z" stroke="#0B3451" stroke-opacity="0.4"/>
<path d="M267.581 190.351L239.91 177.99C231.646 186.462 228 191.822 223.174 202.394L189.674 196.652C184.722 208.575 182.692 216.221 180.806 230.146H251.749C250.997 212.97 259.993 198.928 267.581 190.351Z" stroke="#0B3451" stroke-opacity="0.4"/>
<path d="M320.901 222.955L255.827 208.64C253.592 213.818 251.338 220.947 251.749 230.146H215.784C215.335 241.827 215.872 247.962 217.722 258.757C242.41 253.599 259.762 249.371 286.727 243.543C285.249 238.758 284.525 235.774 284.757 230.146H319.226C319.226 228.232 320.034 224.893 320.901 222.955Z" stroke="#0B3451" stroke-opacity="0.4"/>
<path d="M195.586 300.003C188.688 288.998 184.747 279.428 182.284 266.031C168.047 269.021 159.994 270.473 145.792 273.521C155.43 307.988 165.775 325.617 192.379 353.847L249.775 309.581C240.414 302.404 235.39 297.309 228.594 286.127L195.586 300.003Z" stroke="#0B3451" stroke-opacity="0.4"/>
<path d="M252.241 251.198C223.304 257.778 210.755 260.182 182.266 266.027C183.756 274.239 186.639 285.971 195.586 300.003L228.594 286.127C235.349 297.22 239.943 302.038 249.77 309.584L276.645 288.709C265.806 281.532 253.719 266.031 252.241 251.198Z" stroke="#0B3451" stroke-opacity="0.4"/>
<path d="M276.617 288.73L249.778 309.572C259.653 318.247 265.744 322.544 277.86 329.189L257.661 355.505C272.653 363.466 283.029 367.004 303.478 371.295L324.518 312.387C302.573 305.962 292.318 300.811 276.617 288.73Z" stroke="#0B3451" stroke-opacity="0.4"/>
<path d="M381.318 311.486C359.598 315.538 346.57 316.877 324.532 312.357L303.478 371.295C318.75 375.123 331.56 377.037 351.266 377.496C392.006 376.242 414.82 370.009 445.364 355.505L426.15 330.146C410.968 335.631 405.934 336.85 390.186 340.194L381.318 311.486Z" stroke="#0B3451" stroke-opacity="0.4"/>
<path d="M430.584 289.955C415.029 301.706 403.197 306.913 381.318 311.486L390.186 340.194C404.625 337.258 412.536 335.097 426.15 330.146L445.364 355.505C460.626 346.907 468.791 341.622 482.806 331.582L430.584 289.955Z" stroke="#0B3451" stroke-opacity="0.4"/>
<path d="M430.584 289.955C438.027 282.893 441.628 278.752 447.741 271.263L543.896 315.314C525.175 343.065 503.396 364.134 464.465 383.101L445.364 355.505C460.549 346.883 468.637 341.645 482.806 331.582L430.584 289.955Z" stroke="#0B3451" stroke-opacity="0.4"/>
<path d="M422.701 244.5C423.885 239.636 424.864 236.417 424.179 229.667H529.115C529.415 243.918 528.934 251.787 526.652 265.553L491.673 258.375C487.944 269.676 485.211 275.57 478.907 285.552L447.827 271.294C452.26 264.117 453.65 260.904 455.709 251.677L422.701 244.5Z" stroke="#0B3451" stroke-opacity="0.4"/>
<path d="M494.629 229.667H424.179C423.676 223.098 422.173 215.707 417.165 207.128C412.39 199.062 403.648 191.363 389.693 184.691L406.444 163.638C425.119 172.313 433.469 177.99 443.886 190.432L472.952 177.514C487.376 197.253 491.609 208.746 494.629 229.667Z" stroke="#0B3451" stroke-opacity="0.4"/>
<path d="M295.595 202.873L239.937 178.008C246.398 170.162 256.616 160.414 266.292 154.231C275.032 148.77 283.427 144.58 290.205 141.621C300.394 137.265 308.682 134.184 322.691 132.537L330.574 154.547L306.434 162.681L322.199 184.212C307.912 189.954 300.522 197.131 295.595 202.873Z" stroke="#0B3451" stroke-opacity="0.4"/>
<path d="M255.801 208.635C259.267 201.086 261.889 196.95 267.558 190.348C278.596 195.257 284.629 198.014 295.596 202.873C301.523 195.596 311.14 188.511 322.188 184.212C335.813 179.051 346.671 177.693 356.193 177.992V203.823C342.241 203.624 326.268 211.077 320.95 222.984L255.801 208.635Z" stroke="#0B3451" stroke-opacity="0.4"/>
<path d="M335.962 253.624C327.101 249.451 319.848 240.826 319.243 230.146H284.757C284.582 235.607 285.046 238.302 286.728 243.543L252.241 251.198C253.365 264.411 264.49 280.52 276.598 288.733L303.478 268.902C307.885 273.641 311.444 275.723 318.258 277.514L335.962 253.624Z" stroke="#0B3451" stroke-opacity="0.4"/>
<path d="M389.693 229.667H424.18C424.645 235.554 424.285 238.807 422.702 244.5L455.71 251.677C453.881 260.78 451.346 265.919 447.791 271.218C447.791 271.218 437.725 283.678 430.584 289.955L403.488 269.38C393.635 275.6 383.782 281.342 371.465 283.256L363.09 256.462C378.51 252.753 388.189 242.601 389.693 229.667Z" stroke="#0B3451" stroke-opacity="0.4"/>
<path d="M356.192 203.829V177.992C369.557 177.598 378.285 179.111 389.693 184.691C411.215 195.217 422.209 207.657 424.179 229.667H389.693C389.577 221.642 383.33 212.918 373.853 207.953C368.218 205.133 362.643 203.794 356.192 203.829Z" stroke="#0B3451" stroke-opacity="0.4"/>
<path d="M344.861 256.461C352.567 257.32 355.902 257.062 363.089 256.461L371.465 283.256C384.791 280.855 391.582 276.687 403.478 269.386L403.488 269.38L430.588 289.947C414.978 301.609 404.601 306.382 381.318 311.486C358.618 315.832 345.771 316.627 324.534 312.355L344.861 256.461Z" stroke="#0B3451" stroke-opacity="0.4"/>
</svg>
