<svg width="718" height="581" viewBox="0 0 718 581" fill="none" xmlns="http://www.w3.org/2000/svg">
<path d="M717.997 287.481C716.012 443.235 563.679 576.54 359.763 579.456C170.344 582.166 -1.98708 464.938 0.0173139 288.277C8.52432 122.507 173.876 2.51609 359.762 0.0138055C557.166 -1.48756 716.995 119.623 717.997 287.481Z" fill="#0B3451" fill-opacity="0.4"/>
<path d="M396.318 240.219C396.318 229.209 383.792 213.195 362.248 213.195C345.77 212.853 325.818 223.9 324.668 240.258C324.539 248.042 330.705 264.338 350.668 268.212C354.355 268.694 357.983 268.87 362.237 268.814C365.042 268.399 366.951 268.527 369.264 268.24C382.435 265.143 394.68 255.547 396.318 240.219Z" stroke="#0B3451" stroke-opacity="0.4"/>
<path d="M621.28 122.612L645.695 111.284C665.761 132.296 684.496 159.585 697.392 189.698C706.501 211.211 712.693 233.874 715.54 257.164C718.021 277.106 718.189 296.999 715.272 317.154L680.402 309.282C683.176 282.639 683.108 267.395 680.402 239.719H644.328C640.873 217.061 636.599 205.022 626.792 184.168L658.357 177.162C646.07 154.975 637.636 143.16 621.28 122.612Z" stroke="#0B3451" stroke-opacity="0.4"/>
<path d="M1.70192 316.724C-0.805096 290.294 0.54812 272.735 7.4157 240.894L76.6445 240.718C70.6612 268.776 74.6666 291.743 76.2042 301.158C80.4313 327.041 86.3773 342.151 94.7109 360.82L59.6228 376.844C49.0491 353.66 43.8066 340.875 38.5794 308.281L1.70192 316.724Z" stroke="#0B3451" stroke-opacity="0.4"/>
<path d="M141.906 63.4955C101.421 89.0409 63.4668 123.961 35.8179 171.016L66.1364 177.162C76.1571 157.644 89.2585 142.267 106.219 122.612L139.225 137.698L159.956 147.178C171.074 135.419 183.844 124.634 201.414 111.605L141.906 63.4955Z" stroke="#0B3451" stroke-opacity="0.4"/>
<path d="M76.625 240.718L7.42581 240.89C15.4688 210.605 22.7414 193.931 35.7734 171.003L66.1406 177.156C72.654 164.133 83.6761 148.158 106.223 122.613L159.953 147.183C147.928 160.206 139.961 172.165 129.262 191.171L97.2226 184.675C89.2061 203.709 82.6374 213.67 76.625 240.718Z" stroke="#0B3451" stroke-opacity="0.4"/>
<path d="M547.128 95.0867C567.709 109.381 578.171 118.159 594.225 135.624C600.099 143.109 607.199 151.725 612.741 159.757C618.128 167.3 624.068 177.784 626.805 184.16L658.357 177.162C645.723 154.91 637.539 143.01 621.281 122.612L645.697 111.289C633.5 98.0874 614.636 81.335 594.876 67.8673C574.39 53.7561 550.359 40.5817 520.218 28.7485L492.014 65.5598C513.309 74.7143 527.537 82.0969 547.128 95.0867Z" stroke="#0B3451" stroke-opacity="0.4"/>
<path d="M520.241 28.7624L492.014 65.5598C468.967 57.5524 454.938 53.0483 430.387 47.5433L437.903 27.0246C409.344 21.5196 391.17 19.9801 366.255 20.5187V0.55679C415.82 0.329796 474.543 10.5857 520.241 28.7624Z" stroke="#0B3451" stroke-opacity="0.4"/>
<path d="M430.387 47.5434L437.902 27.0246C408.169 21.3846 392.531 20.0469 366.255 20.5187V0.535217C304.947 1.54484 261.733 10.0022 211.962 28.4949L224.462 45.5415C245.005 38.0347 275.568 29.0265 294.106 27.0246L300.118 48.0438C331.182 39.0356 399.824 39.0356 430.387 47.5434Z" stroke="#0B3451" stroke-opacity="0.4"/>
<path d="M211.949 28.4985C183.186 39.7983 167.949 47.5027 141.9 63.4985L201.415 111.602C239.494 89.5817 271.059 75.5689 306.632 69.5634C304.022 61.4055 302.636 56.5282 300.131 48.0705L294.106 27.0246C274.566 29.0264 238.533 40.1877 224.463 45.5415L211.949 28.4985Z" stroke="#0B3451" stroke-opacity="0.4"/>
<path d="M38.5794 308.281L1.69849 316.714C6.28515 367.564 29.1573 422.656 71.5561 467.48L166.62 393.14C140.089 366.206 119.758 338.327 111.666 293.776L76.293 301.746C80.7631 327.205 84.9725 338.72 94.6951 360.829L59.6228 376.844C48.1116 351.993 43.1947 337.154 38.5794 308.281Z" stroke="#0B3451" stroke-opacity="0.4"/>
<path d="M218.535 430.429C194.639 417.803 183.401 409.511 166.613 393.148L71.5779 467.48C113.598 513.128 176.802 548.026 243.908 565.274L271.012 490.933C240.523 483.13 224.207 476.388 195.904 461.421L218.535 430.429Z" stroke="#0B3451" stroke-opacity="0.4"/>
<path d="M356.809 427.897C333.762 428.898 319.158 426.889 296.11 420.884C275.568 478.937 259.944 521.237 243.911 565.277C285.629 575.767 321.386 578.904 353.323 579.016L354.23 538.992C386.233 538.695 415.005 535.305 450.428 526.981L439.904 490.442C409.768 498.245 390.668 500.806 355.232 500.957L355.721 463.423H356.243L356.809 427.897Z" stroke="#0B3451" stroke-opacity="0.4"/>
<path d="M561.908 526.469L494.516 430.89C469.639 442.562 449.853 449.626 427.819 455.218C408.091 460.226 384.761 462.657 355.735 463.412L355.231 500.957C390.042 500.867 408.516 498.416 439.905 490.447L450.427 526.981C410.961 535.701 389.878 538.43 354.229 538.992L353.323 579.016C443.406 578.712 513.875 553.767 561.908 526.469Z" stroke="#0B3451" stroke-opacity="0.4"/>
<path d="M586.209 345.315C564.163 384.351 528.089 414.378 494.52 430.893L561.898 526.45C590.443 509.967 613.501 493.382 639.954 466.578L579.194 416.88C599.661 395.75 608.519 383.273 620.78 361.83L586.209 345.315Z" stroke="#0B3451" stroke-opacity="0.4"/>
<path d="M606.751 293.268C602.34 315.429 597.984 326.903 586.208 345.315L620.78 361.83C607.616 384.777 598.618 396.889 579.194 416.88L639.954 466.578C682.059 423.112 707.433 372.123 715.329 317.106C701.689 314.185 694.024 312.324 680.373 309.259L606.751 293.268Z" stroke="#0B3451" stroke-opacity="0.4"/>
<path d="M562.159 197.18L626.792 184.168C637.322 206.708 640.961 218.027 644.328 239.719H680.402C683.213 269.331 683.075 282.896 680.402 309.282L606.751 293.268C611.752 272.861 611.559 261.189 609.256 240.219H573.682C571.474 222.612 568.505 213.175 562.159 197.18Z" stroke="#0B3451" stroke-opacity="0.4"/>
<path d="M562.159 197.18C553.861 179.657 548.377 171.812 537.608 160.146L569.173 146.133L594.225 135.624C608.254 153.14 619.277 167.152 626.792 184.168L562.159 197.18Z" stroke="#0B3451" stroke-opacity="0.4"/>
<path d="M504.469 128.585L547.128 95.0867C567.298 109.026 577.766 117.828 594.225 135.624C572.481 144.664 560.09 149.999 537.608 160.146C526.068 147.083 518.775 140.151 504.469 128.585Z" stroke="#0B3451" stroke-opacity="0.4"/>
<path d="M547.128 95.0868C527.846 82.2219 513.323 74.7326 492.014 65.5598L445.919 127.116C460.565 132.688 468.338 137.414 481.492 146.634L504.475 128.584L547.128 95.0868Z" stroke="#0B3451" stroke-opacity="0.4"/>
<path d="M430.387 47.5433C413.853 43.0392 390.147 41.199 365.253 41.2626V64.5588C388.54 64.1423 401.095 65.1559 422.371 69.0629L414.855 91.5835C396.809 87.778 386.095 86.4941 364.251 86.5789L363.75 110.1C396.554 111.216 414.76 115.042 445.919 127.116L492.014 65.5597C468.744 57.2189 449.319 51.7396 430.387 47.5433Z" stroke="#0B3451" stroke-opacity="0.4"/>
<path d="M365.253 41.2637C348.218 41.2637 319.659 42.5388 300.119 48.0438C302.195 55.1315 304.328 62.2566 306.637 69.562C311.011 83.4055 315.871 97.9072 321.162 114.104C336.694 111.602 344.711 110.601 363.75 110.1L364.251 86.579C381.733 86.3368 397.319 87.5799 414.855 91.5835L422.371 69.063C399.66 64.951 386.897 64.1341 365.253 64.5589V41.2637Z" stroke="#0B3451" stroke-opacity="0.4"/>
<path d="M321.162 114.104L306.632 69.5635C285.547 73.2264 268.997 78.8212 255.688 84.2631C239.314 90.8141 223.552 98.9945 201.415 111.602C210.028 118.389 215.086 122.615 222.959 129.118C239.494 118.608 248.222 112.869 265.547 105.596C271.484 114.288 275.598 119.901 280.077 126.616C296.746 120.734 306.653 117.678 321.162 114.104Z" stroke="#0B3451" stroke-opacity="0.4"/>
<path d="M187.386 159.646L215.444 172.658C226.272 160.966 232.821 155.096 243.996 146.624C230.193 135.283 216.109 123.19 201.457 111.636C167.881 135.949 148.083 156.269 129.266 191.175L161.332 197.687C164.82 189.638 173.297 176.734 187.386 159.646Z" stroke="#0B3451" stroke-opacity="0.4"/>
<path d="M148.304 240.72L112.731 240.72C110.594 261.077 110.46 272.693 111.729 293.768L76.2843 301.752C72.1972 279.063 72.6641 260.783 76.6406 240.632C82.1902 212.51 91.4615 198.669 97.2005 184.669L161.331 197.68C155.428 213.963 152.585 223.394 148.304 240.72Z" stroke="#0B3451" stroke-opacity="0.4"/>
<path d="M221.433 270.633C219.543 259.632 218.921 252.646 219.452 240.72H112.732C110.74 260.849 110.4 272.434 111.73 293.781L221.433 270.633Z" stroke="#0B3451" stroke-opacity="0.4"/>
<path d="M195.656 370.101C167.946 340.467 157.245 319.938 148.262 286.066L111.669 293.787C118.684 330.321 132.05 358.12 166.621 393.151L195.656 370.101Z" stroke="#0B3451" stroke-opacity="0.4"/>
<path d="M166.613 393.156L254.029 323.793C264.341 333.136 270.167 337.604 282.583 344.314C257.524 377.846 243.554 396.799 218.547 430.429C194.998 417.918 183.77 409.882 166.613 393.156Z" stroke="#0B3451" stroke-opacity="0.4"/>
<path d="M356.805 427.898L356.738 394.828C337.296 394.331 322.406 392.038 308.637 388.354C288.968 384.067 278.279 380.63 262.07 371.851C233.658 409.876 218.896 429.76 195.904 461.421C223.534 476.423 240.014 482.761 271.012 490.933L296.111 420.884C320.118 427.003 333.483 428.856 356.805 427.898Z" stroke="#0B3451" stroke-opacity="0.4"/>
<path d="M452.933 371.839C420.014 388.147 396.96 393.249 356.735 394.86C356.945 421.867 356.766 437.068 356.234 463.423C386.918 462.382 409.835 459.996 427.815 455.225L417.36 420.884C440.391 414.211 453.195 409.821 472.41 400.765L452.933 371.839Z" stroke="#0B3451" stroke-opacity="0.4"/>
<path d="M427.82 455.231L417.36 420.884C437.88 415.194 455.925 408.845 472.366 400.713C507.257 382.906 530.875 363.876 553.14 329.801L586.208 345.315C564.805 382.723 529.914 413.763 494.504 430.898C475.784 439.998 452.542 448.908 427.82 455.231Z" stroke="#0B3451" stroke-opacity="0.4"/>
<path d="M586.208 345.315C597.923 327.09 602.284 315.612 606.75 293.267L535.567 277.759C522.245 274.87 513.911 273.241 500.03 270.246C496.04 282.583 493.174 288.66 487.059 298.679L586.208 345.315Z" stroke="#0B3451" stroke-opacity="0.4"/>
<path d="M535.604 277.753C537.898 263.27 538.522 254.146 538.114 240.219H609.256C611.989 262.797 611.174 274.815 606.751 293.268L535.604 277.753Z" stroke="#0B3451" stroke-opacity="0.4"/>
<path d="M481.493 146.634L504.48 128.581C518.715 140.163 526.104 147.046 537.608 160.146C549.021 172.491 554.4 180.55 562.159 197.18C568.898 214.294 571.645 223.749 573.683 240.219L538.088 240.219C534.39 218.9 527.429 197.31 518.049 184.316C509.221 170.878 496.839 158.77 481.493 146.634Z" stroke="#0B3451" stroke-opacity="0.4"/>
<path d="M451.431 199.182C440.807 186.193 432.305 180.145 413.352 171.156C425.942 154.415 433.442 144.699 445.911 127.108C460.726 132.744 467.779 137.065 481.493 146.634C501.756 162.874 514.926 177.093 523.618 193.546C531.451 209.237 535.392 225.472 538.099 240.219L503.037 240.219C499.765 216.523 494.499 204.779 480.991 185.669L451.431 199.182Z" stroke="#0B3451" stroke-opacity="0.4"/>
<path d="M396.317 193.176C385.308 187.774 377.885 185.902 362.247 186.17L363.75 110.1C395.383 111.335 413.742 114.464 445.932 127.121C433.265 144.999 423.722 157.303 413.345 171.157C408.071 177.873 402.681 184.998 396.317 193.176Z" stroke="#0B3451" stroke-opacity="0.4"/>
<path d="M362.247 186.17L363.75 110.1C348.413 110.294 334.286 111.766 321.171 114.124C307.988 117.196 295.482 121.167 280.078 126.616L295.109 148.135C310.14 141.629 314.649 140.628 328.177 138.626L336.193 161.647L311.643 170.155L327.676 192.676C341.976 187.362 348.519 186.349 362.247 186.17Z" stroke="#0B3451" stroke-opacity="0.4"/>
<path d="M265.547 105.596C247.51 113.103 238.992 119.109 222.959 129.118L244.003 146.634C234.483 153.64 224.462 162.648 215.444 172.657L244.007 186.173C259.294 168.231 270.279 159.759 295.108 148.135L265.547 105.596Z" stroke="#0B3451" stroke-opacity="0.4"/>
<path d="M183.879 240.72H148.306C151.41 228.955 154.397 216.016 161.262 197.831C165.967 187.305 175.494 174.226 187.393 159.653C209.395 169.834 221.807 175.622 243.992 186.167C235.956 194.5 231.869 200.652 226.968 211.693L192.898 205.688C187.604 218.735 185.883 226.206 183.879 240.72Z" stroke="#0B3451" stroke-opacity="0.4"/>
<path d="M272.129 199.097L243.988 186.167C235.583 195.029 231.876 200.635 226.968 211.693L192.897 205.688C187.861 218.158 185.797 226.156 183.879 240.72H256.028C255.264 222.755 264.412 208.067 272.129 199.097Z" stroke="#0B3451" stroke-opacity="0.4"/>
<path d="M326.355 233.199L260.176 218.226C257.903 223.642 255.61 231.098 256.028 240.72H219.452C218.995 252.938 219.541 259.355 221.423 270.646C246.53 265.251 264.177 260.829 291.601 254.732C290.098 249.728 289.362 246.607 289.597 240.72H324.652C324.652 238.718 325.474 235.226 326.355 233.199Z" stroke="#0B3451" stroke-opacity="0.4"/>
<path d="M198.91 313.786C191.895 302.276 187.887 292.267 185.382 278.254C170.903 281.381 162.713 282.9 148.27 286.088C158.072 322.139 168.593 340.578 195.648 370.105L254.02 323.805C244.501 316.298 239.391 310.969 232.479 299.273L198.91 313.786Z" stroke="#0B3451" stroke-opacity="0.4"/>
<path d="M256.529 262.74C227.1 269.621 214.337 272.136 185.364 278.249C186.879 286.839 189.812 299.11 198.91 313.786L232.479 299.273C239.35 310.876 244.022 315.915 254.016 323.808L281.347 301.974C270.324 294.467 258.032 278.254 256.529 262.74Z" stroke="#0B3451" stroke-opacity="0.4"/>
<path d="M281.319 301.996L254.024 323.795C264.066 332.869 270.261 337.364 282.583 344.314L262.04 371.839C277.288 380.165 287.84 383.867 308.636 388.354L330.034 326.739C307.716 320.019 297.286 314.632 281.319 301.996Z" stroke="#0B3451" stroke-opacity="0.4"/>
<path d="M387.799 325.797C365.71 330.035 352.461 331.436 330.048 326.708L308.636 388.354C324.168 392.358 337.195 394.36 357.236 394.84C398.669 393.529 421.871 387.009 452.934 371.839L433.393 345.315C417.954 351.052 412.834 352.327 396.818 355.825L387.799 325.797Z" stroke="#0B3451" stroke-opacity="0.4"/>
<path d="M437.903 303.277C422.084 315.568 410.051 321.015 387.799 325.797L396.818 355.825C411.503 352.753 419.548 350.493 433.393 345.315L452.934 371.839C468.455 362.846 476.759 357.317 491.012 346.816L437.903 303.277Z" stroke="#0B3451" stroke-opacity="0.4"/>
<path d="M437.903 303.277C445.472 295.89 449.134 291.559 455.352 283.726L553.14 329.801C534.101 358.827 511.952 380.864 472.359 400.703L452.934 371.839C468.377 362.82 476.602 357.341 491.012 346.816L437.903 303.277Z" stroke="#0B3451" stroke-opacity="0.4"/>
<path d="M429.886 255.733C431.09 250.646 432.086 247.279 431.389 240.219H538.109C538.413 255.125 537.924 263.356 535.604 277.753L500.03 270.247C496.238 282.066 493.458 288.231 487.047 298.671L455.438 283.759C459.948 276.252 461.361 272.891 463.455 263.24L429.886 255.733Z" stroke="#0B3451" stroke-opacity="0.4"/>
<path d="M503.037 240.219H431.389C430.878 233.349 429.349 225.617 424.255 216.644C419.4 208.208 410.509 200.155 396.317 193.176L413.352 171.156C432.345 180.23 440.837 186.167 451.431 199.182L480.991 185.669C495.66 206.316 499.965 218.337 503.037 240.219Z" stroke="#0B3451" stroke-opacity="0.4"/>
<path d="M300.62 212.194L244.016 186.187C250.586 177.98 260.978 167.785 270.819 161.317C279.707 155.606 288.244 151.222 295.137 148.128C305.499 143.571 313.929 140.349 328.176 138.626L336.193 161.647L311.642 170.155L327.675 192.676C313.145 198.681 305.63 206.188 300.62 212.194Z" stroke="#0B3451" stroke-opacity="0.4"/>
<path d="M260.149 218.22C263.674 210.325 266.34 205.999 272.105 199.093C283.331 204.228 289.467 207.112 300.62 212.194C306.648 204.583 316.429 197.172 327.664 192.675C341.521 187.277 352.564 185.858 362.247 186.17V213.187C348.058 212.979 331.813 220.775 326.405 233.229L260.149 218.22Z" stroke="#0B3451" stroke-opacity="0.4"/>
<path d="M341.672 265.277C332.661 260.912 325.284 251.891 324.669 240.72H289.597C289.419 246.432 289.891 249.25 291.601 254.732L256.529 262.74C257.672 276.559 268.985 293.408 281.299 301.999L308.636 281.257C313.118 286.213 316.737 288.391 323.667 290.265L341.672 265.277Z" stroke="#0B3451" stroke-opacity="0.4"/>
<path d="M396.317 240.219H431.389C431.862 246.377 431.496 249.779 429.886 255.733L463.455 263.24C461.596 272.762 459.018 278.137 455.402 283.679C455.402 283.679 445.165 296.712 437.903 303.277L410.346 281.757C400.325 288.263 390.305 294.268 377.779 296.27L369.261 268.245C384.943 264.366 394.787 253.748 396.317 240.219Z" stroke="#0B3451" stroke-opacity="0.4"/>
<path d="M362.247 213.194V186.17C375.838 185.758 384.714 187.34 396.317 193.176C418.204 204.186 429.385 217.198 431.389 240.219H396.317C396.199 231.826 389.845 222.7 380.207 217.507C374.477 214.558 368.807 213.158 362.247 213.194Z" stroke="#0B3451" stroke-opacity="0.4"/>
<path d="M350.723 268.245C358.56 269.142 361.951 268.873 369.261 268.245L377.778 296.27C391.332 293.759 398.238 289.399 410.336 281.763L410.346 281.757L437.906 303.269C422.031 315.466 411.478 320.458 387.799 325.797C364.714 330.343 351.648 331.174 330.05 326.706L350.723 268.245Z" stroke="#0B3451" stroke-opacity="0.4"/>
<path d="M324.668 289.761L342.674 264.767C345.37 266.037 347.732 266.856 351.712 267.722L331.05 326.212C309.338 319.804 298.448 314.252 282.321 301.501L309.645 280.751C314.452 285.999 317.816 287.843 324.668 289.761Z" stroke="#0B3451" stroke-opacity="0.4"/>
</svg>
