<svg width="16" height="15" viewBox="0 0 16 15" fill="none" xmlns="http://www.w3.org/2000/svg">
<rect x="0.75" y="0.5" width="14" height="14" rx="2" fill="#2CC388" stroke="#2CC388"/>
<path d="M12.4642 4.1999C12.4642 4.39728 12.3984 4.59477 12.2669 4.7452L6.87916 10.9166C6.74814 11.068 6.57557 11.1428 6.40299 11.1428C6.23041 11.1428 6.05826 11.0674 5.92693 10.9167L3.23306 7.83103C3.10152 7.68097 3.03564 7.48329 3.03564 7.28561C3.03564 6.84493 3.35028 6.51418 3.70911 6.51418C3.88144 6.51418 4.05385 6.58952 4.18517 6.74019L6.40299 9.28168L11.3151 3.65507C11.4456 3.50392 11.6182 3.42847 11.7907 3.42847C12.1506 3.42847 12.4642 3.75873 12.4642 4.1999Z" fill="#01212F"/>
</svg>
