<svg width="19" height="19" viewBox="0 0 19 19" fill="none" xmlns="http://www.w3.org/2000/svg">
<rect x="0.75" y="0.75" width="18" height="18" rx="2.75" fill="#2CC388" stroke="#2CC388" stroke-width="0.5"/>
<path d="M15.25 5.9C15.25 6.13029 15.1733 6.36069 15.0198 6.53619L8.7341 13.7362C8.58125 13.9128 8.37991 14 8.17857 14C7.97723 14 7.77638 13.9121 7.62317 13.7363L4.48031 10.1363C4.32685 9.96125 4.25 9.73062 4.25 9.5C4.25 8.98587 4.61708 8.6 5.03571 8.6C5.23676 8.6 5.4379 8.68789 5.59112 8.86367L8.17857 11.8287L13.9094 5.26438C14.0616 5.08803 14.2629 5 14.4643 5C14.8842 5 15.25 5.38531 15.25 5.9Z" fill="#01212F"/>
</svg>
