<svg width="32" height="33" viewBox="0 0 32 33" fill="none" xmlns="http://www.w3.org/2000/svg">
<g clip-path="url(#clip0_313_244)">
<path d="M10.6643 14.3249C10.8565 14.1902 11.0965 14.1385 11.3353 14.1806L31.2525 17.6883C31.4752 17.7275 31.5527 18.021 31.3737 18.1469L20.9607 25.4725C20.7683 25.6078 20.5278 25.6597 20.2886 25.6176L0.342627 22.1048C0.119809 22.0656 0.0424192 21.7717 0.221792 21.6459L10.6643 14.3249Z" fill="#0B0D0F" stroke="black" stroke-width="0.1"/>
<path d="M11.1963 16.2629C11.1963 16.3046 11.1693 16.3384 11.1361 16.3384C11.1028 16.3384 11.0759 16.3046 11.0759 16.2629C11.0759 16.2211 11.1028 16.1873 11.1361 16.1873C11.1693 16.1873 11.1963 16.2211 11.1963 16.2629Z" fill="white"/>
<path d="M8.58275 20.6143C8.58275 20.656 8.5558 20.6899 8.52257 20.6899C8.48933 20.6899 8.46239 20.656 8.46239 20.6143C8.46239 20.5726 8.48933 20.5387 8.52257 20.5387C8.5558 20.5387 8.58275 20.5726 8.58275 20.6143Z" fill="white"/>
<path d="M13.1121 20.6899C13.1121 20.7316 13.0852 20.7654 13.052 20.7654C13.0187 20.7654 12.9918 20.7316 12.9918 20.6899C12.9918 20.6481 13.0187 20.6143 13.052 20.6143C13.0852 20.6143 13.1121 20.6481 13.1121 20.6899Z" fill="white"/>
<path d="M16.9573 19.1981C16.9573 19.2398 16.9303 19.2736 16.8971 19.2736C16.8639 19.2736 16.8369 19.2398 16.8369 19.1981C16.8369 19.1563 16.8639 19.1225 16.8971 19.1225C16.9303 19.1225 16.9573 19.1563 16.9573 19.1981Z" fill="white"/>
<path d="M14.1332 17.8315C14.1332 17.8732 14.1062 17.9071 14.073 17.9071C14.0398 17.9071 14.0128 17.8732 14.0128 17.8315C14.0128 17.7897 14.0398 17.7559 14.073 17.7559C14.1062 17.7559 14.1332 17.7897 14.1332 17.8315Z" fill="white"/>
<path d="M18.577 23.7913C18.577 23.833 18.5501 23.8669 18.5168 23.8669C18.4836 23.8669 18.4567 23.833 18.4567 23.7913C18.4567 23.7496 18.4836 23.7157 18.5168 23.7157C18.5501 23.7157 18.577 23.7496 18.577 23.7913Z" fill="white"/>
<path d="M20.8359 18.7991C20.8359 18.8408 20.809 18.8746 20.7757 18.8746C20.7425 18.8746 20.7156 18.8408 20.7156 18.7991C20.7156 18.7573 20.7425 18.7235 20.7757 18.7235C20.809 18.7235 20.8359 18.7573 20.8359 18.7991Z" fill="white"/>
<path d="M15.6856 23.0708C15.6856 23.1125 15.6587 23.1463 15.6255 23.1463C15.5922 23.1463 15.5653 23.1125 15.5653 23.0708C15.5653 23.029 15.5922 22.9952 15.6255 22.9952C15.6587 22.9952 15.6856 23.029 15.6856 23.0708Z" fill="white"/>
<path d="M21.0248 22.4429C21.0248 22.4846 20.9979 22.5184 20.9647 22.5184C20.9314 22.5184 20.9045 22.4846 20.9045 22.4429C20.9045 22.4011 20.9314 22.3673 20.9647 22.3673C20.9979 22.3673 21.0248 22.4011 21.0248 22.4429Z" fill="white"/>
<path d="M26.2901 18.5623C26.2901 18.604 26.2632 18.6379 26.2299 18.6379C26.1967 18.6379 26.1697 18.604 26.1697 18.5623C26.1697 18.5206 26.1967 18.4867 26.2299 18.4867C26.2632 18.4867 26.2901 18.5206 26.2901 18.5623Z" fill="white"/>
<path d="M18.3635 16.6272C18.3635 16.6689 18.3365 16.7027 18.3033 16.7027C18.27 16.7027 18.2431 16.6689 18.2431 16.6272C18.2431 16.5854 18.27 16.5516 18.3033 16.5516C18.3365 16.5516 18.3635 16.5854 18.3635 16.6272Z" fill="white"/>
<path d="M14.0128 15.3508C14.0128 15.3925 13.9859 15.4264 13.9526 15.4264C13.9194 15.4264 13.8925 15.3925 13.8925 15.3508C13.8925 15.3091 13.9194 15.2752 13.9526 15.2752C13.9859 15.2752 14.0128 15.3091 14.0128 15.3508Z" fill="white"/>
<path d="M5.8396 19.3549C5.8396 19.3966 5.81265 19.4305 5.77942 19.4305C5.74618 19.4305 5.71924 19.3966 5.71924 19.3549C5.71924 19.3132 5.74618 19.2793 5.77942 19.2793C5.81265 19.2793 5.8396 19.3132 5.8396 19.3549Z" fill="white"/>
<path d="M17.8128 21.1845C17.8128 21.2262 17.7858 21.2601 17.7526 21.2601C17.7194 21.2601 17.6924 21.2262 17.6924 21.1845C17.6924 21.1428 17.7194 21.1089 17.7526 21.1089C17.7858 21.1089 17.8128 21.1428 17.8128 21.1845Z" fill="white"/>
<path d="M15.3079 20.841C15.3079 20.8827 15.2809 20.9166 15.2477 20.9166C15.2145 20.9166 15.1875 20.8827 15.1875 20.841C15.1875 20.7993 15.2145 20.7654 15.2477 20.7654C15.2809 20.7654 15.3079 20.7993 15.3079 20.841Z" fill="white"/>
<path d="M9.66359 22.7098C9.66359 22.7515 9.63664 22.7854 9.60341 22.7854C9.57017 22.7854 9.54323 22.7515 9.54323 22.7098C9.54323 22.6681 9.57017 22.6342 9.60341 22.6342C9.63664 22.6342 9.66359 22.6681 9.66359 22.7098Z" fill="white"/>
<path d="M11.2619 18.7543C11.2619 18.796 11.235 18.8299 11.2017 18.8299C11.1685 18.8299 11.1416 18.796 11.1416 18.7543C11.1416 18.7126 11.1685 18.6787 11.2017 18.6787C11.235 18.6787 11.2619 18.7126 11.2619 18.7543Z" fill="white"/>
<path d="M21.4418 19.5169C21.4418 19.5586 21.4149 19.5924 21.3816 19.5924C21.3484 19.5924 21.3214 19.5586 21.3214 19.5169C21.3214 19.4751 21.3484 19.4413 21.3816 19.4413C21.4149 19.4413 21.4418 19.4751 21.4418 19.5169Z" fill="white"/>
<path d="M19.5986 21.9598C19.5986 22.0016 19.5716 22.0354 19.5384 22.0354C19.5051 22.0354 19.4782 22.0016 19.4782 21.9598C19.4782 21.9181 19.5051 21.8843 19.5384 21.8843C19.5716 21.8843 19.5986 21.9181 19.5986 21.9598Z" fill="white"/>
<path d="M24.4418 18.5623C24.4418 18.604 24.4149 18.6379 24.3816 18.6379C24.3484 18.6379 24.3215 18.604 24.3215 18.5623C24.3215 18.5206 24.3484 18.4867 24.3816 18.4867C24.4149 18.4867 24.4418 18.5206 24.4418 18.5623Z" fill="white"/>
<path d="M23.5257 20.5387C23.5257 20.5805 23.4988 20.6143 23.4655 20.6143C23.4323 20.6143 23.4053 20.5805 23.4053 20.5387C23.4053 20.497 23.4323 20.4631 23.4655 20.4631C23.4988 20.4631 23.5257 20.497 23.5257 20.5387Z" fill="white"/>
<path d="M5.89978 21.4537C5.89978 21.4954 5.87283 21.5293 5.8396 21.5293C5.80636 21.5293 5.77942 21.4954 5.77942 21.4537C5.77942 21.412 5.80636 21.3781 5.8396 21.3781C5.87283 21.3781 5.89978 21.412 5.89978 21.4537Z" fill="white"/>
<path d="M12.1245 22.7098C12.1245 22.7515 12.0976 22.7854 12.0643 22.7854C12.0311 22.7854 12.0042 22.7515 12.0042 22.7098C12.0042 22.6681 12.0311 22.6342 12.0643 22.6342C12.0976 22.6342 12.1245 22.6681 12.1245 22.7098Z" fill="white"/>
<path d="M11.5563 21.2915C11.5563 21.3332 11.5293 21.367 11.4961 21.367C11.4629 21.367 11.4359 21.3332 11.4359 21.2915C11.4359 21.2497 11.4629 21.2159 11.4961 21.2159C11.5293 21.2159 11.5563 21.2497 11.5563 21.2915Z" fill="white"/>
<path d="M21.4418 20.8172C21.4418 20.8589 21.4149 20.8928 21.3816 20.8928C21.3484 20.8928 21.3214 20.8589 21.3214 20.8172C21.3214 20.7755 21.3484 20.7416 21.3816 20.7416C21.4149 20.7416 21.4418 20.7755 21.4418 20.8172Z" fill="white"/>
<path d="M29.3351 19.339C29.3351 19.3807 29.3081 19.4145 29.2749 19.4145C29.2416 19.4145 29.2147 19.3807 29.2147 19.339C29.2147 19.2972 29.2416 19.2634 29.2749 19.2634C29.3081 19.2634 29.3351 19.2972 29.3351 19.339Z" fill="white"/>
<path d="M20.7715 24.5297C20.7715 24.5714 20.7446 24.6053 20.7114 24.6053C20.6781 24.6053 20.6512 24.5714 20.6512 24.5297C20.6512 24.488 20.6781 24.4541 20.7114 24.4541C20.7446 24.4541 20.7715 24.488 20.7715 24.5297Z" fill="white"/>
<path d="M26.1898 20.6899C26.1898 20.7316 26.1629 20.7654 26.1296 20.7654C26.0964 20.7654 26.0694 20.7316 26.0694 20.6899C26.0694 20.6481 26.0964 20.6143 26.1296 20.6143C26.1629 20.6143 26.1898 20.6481 26.1898 20.6899Z" fill="white"/>
<path d="M10.6643 9.43698C10.8565 9.30224 11.0965 9.25061 11.3353 9.29266L31.2525 12.8003C31.4752 12.8396 31.5527 13.1331 31.3737 13.259L20.9607 20.5846C20.7683 20.7199 20.5278 20.7718 20.2886 20.7297L0.342627 17.2169C0.119809 17.1777 0.0424192 16.8838 0.221792 16.758L10.6643 9.43698Z" fill="#0B3451" fill-opacity="0.8" stroke="black" stroke-width="0.1"/>
<path d="M1.36401 15.9252C1.51831 16.2195 1.34755 16.1333 1.77681 16.1689L25.347 17.1196L25.2599 17.185" stroke="#17537A" stroke-width="0.3" stroke-dasharray="2 2"/>
<path d="M22.1821 11.6967L14.6937 19.2671" stroke="#17537A" stroke-width="0.3" stroke-linecap="round" stroke-dasharray="2 2"/>
<path d="M18.0343 19.9871L9.87492 10.2695" stroke="#17537A" stroke-width="0.3" stroke-linecap="round" stroke-dasharray="2 2"/>
<path d="M16.1346 17.2778L16.828 16.7689L16.1724 16.1866" stroke="#2CC388" stroke-width="0.2" stroke-linecap="round" stroke-linejoin="round"/>
<path d="M18.2554 14.913L18.1383 15.7652L19.0127 15.6996" stroke="#2CC388" stroke-width="0.2" stroke-linecap="round" stroke-linejoin="round"/>
<path d="M15.2168 17.9941L15.0997 18.8462L15.9741 18.7806" stroke="#2CC388" stroke-width="0.2" stroke-linecap="round" stroke-linejoin="round"/>
<path d="M20.8301 12.3203L20.713 13.1725L21.5874 13.1068" stroke="#2CC388" stroke-width="0.2" stroke-linecap="round" stroke-linejoin="round"/>
<path d="M16.648 19.2029L17.4935 19.3605L17.4697 18.484" stroke="#2CC388" stroke-width="0.2" stroke-linecap="round" stroke-linejoin="round"/>
<path d="M14.0659 16.1157L14.9115 16.2734L14.8877 15.3968" stroke="#2CC388" stroke-width="0.2" stroke-linecap="round" stroke-linejoin="round"/>
<path d="M12.2793 13.9963L13.1249 14.1539L13.1011 13.2774" stroke="#2CC388" stroke-width="0.2" stroke-linecap="round" stroke-linejoin="round"/>
<path d="M10.3276 11.6494L11.1732 11.807L11.1494 10.9305" stroke="#2CC388" stroke-width="0.2" stroke-linecap="round" stroke-linejoin="round"/>
<path d="M21.4427 17.4983L22.1361 16.9894L21.4805 16.4071" stroke="#2CC388" stroke-width="0.2" stroke-linecap="round" stroke-linejoin="round"/>
<path d="M18.9505 17.403L19.6439 16.8941L18.9883 16.3118" stroke="#2CC388" stroke-width="0.2" stroke-linecap="round" stroke-linejoin="round"/>
<path d="M12.597 17.1066L13.2904 16.5977L12.6348 16.0154" stroke="#2CC388" stroke-width="0.2" stroke-linecap="round" stroke-linejoin="round"/>
<path d="M8.44122 16.9554L9.13462 16.4464L8.479 15.8642" stroke="#2CC388" stroke-width="0.2" stroke-linecap="round" stroke-linejoin="round"/>
<path d="M5.21417 16.821L5.90757 16.3121L5.25195 15.7298" stroke="#2CC388" stroke-width="0.2" stroke-linecap="round" stroke-linejoin="round"/>
<mask id="path-20-inside-1_313_244" fill="white">
<path fill-rule="evenodd" clip-rule="evenodd" d="M8.70153 6.01111C8.64502 5.99266 8.58807 5.97432 8.53056 5.95604L5.68557 7.95061C5.91497 8.02524 6.12459 8.10472 6.35256 8.20036C6.52468 8.2722 6.70422 8.3521 6.90522 8.44404L8.1647 7.79641L10.3937 6.65023C9.78865 6.39271 9.26686 6.19608 8.70153 6.01111ZM2.97647 10.7603C2.74909 10.638 2.48026 10.5253 2.16695 10.4174L1.20392 11.0926C1.48581 11.1924 1.72403 11.3311 1.89462 11.4894C2.0354 11.6201 2.13677 11.7707 2.16953 11.9287H3.95085C3.93291 11.8387 3.90829 11.7533 3.8768 11.6721C3.81951 11.5326 3.72999 11.3826 3.58876 11.2196C3.4523 11.0645 3.25254 10.9097 2.97647 10.7603ZM1.98038 12.0197C1.97375 11.9041 1.90263 11.7697 1.75858 11.6361C1.61159 11.4997 1.39791 11.3732 1.13509 11.2804C1.08911 11.2649 1.04321 11.2506 0.997216 11.2375L0.184666 11.8072C-0.0305799 11.9581 0.062289 12.3108 0.329671 12.3579L1.58791 12.5795C1.81025 12.4182 1.94245 12.2251 1.98038 12.0197ZM4.15879 12.3893C4.1494 12.4333 4.13674 12.4775 4.1209 12.5237L5.90045 12.7842L6.01837 12.8015L5.98089 12.9146L5.97887 12.9207C5.93969 13.0503 5.89495 13.1605 5.8441 13.2583C5.83287 13.2803 5.82124 13.3018 5.80906 13.3229L7.564 13.6319C7.66938 13.4798 7.76158 13.3166 7.86905 13.099L7.90108 13.0342L7.92361 13.0374L7.97275 13.0441L9.13056 13.2041C9.33398 13.2319 9.54028 13.2602 9.76904 13.2923L9.89924 13.3103C9.94335 13.1197 9.97454 12.9543 9.99476 12.7941C10.0197 12.5875 10.0257 12.3853 10.02 12.1289H4.17967C4.18492 12.2173 4.17869 12.2928 4.16428 12.364C4.16257 12.3725 4.16073 12.3809 4.15879 12.3893ZM3.97102 12.3046C3.96893 12.3184 3.96642 12.3323 3.96344 12.3464C3.94981 12.4046 3.92967 12.4598 3.9046 12.5284L3.90457 12.5284L3.90456 12.5285L3.89178 12.5636L3.8906 12.5664L3.84164 12.685L3.96854 12.7035L5.75197 12.9647C5.7231 13.044 5.69578 13.1088 5.66619 13.1669C5.64437 13.2088 5.62127 13.248 5.59678 13.2855L1.84781 12.6252C2.00325 12.4811 2.11054 12.3144 2.16055 12.1289H3.97702C3.98111 12.1954 3.97914 12.2508 3.97102 12.3046ZM4.44936 9.89116C4.72569 10.0315 4.96629 10.1896 5.22568 10.3948L6.94766 9.93078L6.94772 9.93082L6.95096 9.93382C7.08849 10.0607 7.21067 10.1794 7.31958 10.293C7.50603 10.4869 7.65723 10.6695 7.78145 10.8598C7.80059 10.8891 7.81901 10.9183 7.83673 10.9476C7.98428 11.1916 8.08182 11.4383 8.1589 11.7232C8.1769 11.7892 8.19381 11.8575 8.20984 11.9286H9.98367C9.83336 11.4233 9.61618 10.882 9.21715 10.3582C9.14247 10.2657 9.06168 10.175 8.97417 10.0856C8.95398 10.0659 8.93359 10.0467 8.913 10.028L8.90951 10.0249L8.90959 10.0248C8.80947 9.92499 8.70092 9.82705 8.58417 9.73054C8.14958 9.37485 7.58992 9.02633 6.86412 8.64536C6.64184 8.54383 6.45091 8.45845 6.27187 8.3834C6.00684 8.2729 5.76041 8.18218 5.47854 8.09575L3.47692 9.49905C3.87021 9.6307 4.17697 9.75228 4.44936 9.89116ZM3.08003 10.589C2.87878 10.4794 2.64271 10.3747 2.3691 10.2757L5.1417 10.5837L5.14175 10.5837L5.18267 10.6166L5.23305 10.6016L6.85372 10.1165C6.97324 10.2282 7.08031 10.3327 7.17659 10.4328C7.35981 10.6241 7.50084 10.7969 7.61294 10.9676C7.62125 10.9803 7.62942 10.993 7.63745 11.0058C7.78132 11.2345 7.88424 11.4763 7.96567 11.7747C7.97915 11.8245 7.99204 11.8758 8.0045 11.9287H4.1555C4.13816 11.8235 4.10976 11.7134 4.06253 11.5979C3.96008 11.3347 3.79401 11.1096 3.56214 10.9125C3.42428 10.7953 3.26359 10.6883 3.08003 10.589ZM3.27257 9.64231C3.72698 9.78969 4.06373 9.91929 4.35613 10.0681C4.06408 9.92005 3.72715 9.79096 3.27201 9.64271L3.27257 9.64231ZM7.78068 13.6701L13.6373 14.7015C13.7254 14.5173 13.8016 14.3164 13.8771 14.08L9.95886 13.5211L9.74272 13.4906L9.10078 13.4019L8.94419 13.3805L8.94373 13.3805L8.94282 13.3803L8.94235 13.3803L8.94204 13.3802L8.94168 13.3802L8.9412 13.3801C8.65796 13.3415 8.36965 13.3021 8.01654 13.2524C7.93647 13.4121 7.86239 13.545 7.78068 13.6701ZM10.0982 13.3383L13.9416 13.887L13.9437 13.8811C14.0287 13.639 14.0852 13.4285 14.1149 13.2169C14.1241 13.149 14.1305 13.0822 14.1341 13.0154C14.1487 12.7478 14.1207 12.4757 14.0648 12.1289H10.2217C10.2294 12.3816 10.2214 12.5958 10.1932 12.8189C10.1736 12.9811 10.143 13.1459 10.0982 13.3383ZM10.1924 11.9285C9.98462 11.1843 9.61499 10.4317 9.11516 9.9437C8.99302 9.81899 8.859 9.69712 8.7119 9.57665C8.28031 9.21986 7.74612 8.88646 7.12511 8.5564L8.21018 7.99849L8.22724 8.00756C8.65179 8.23469 8.96687 8.41348 9.2715 8.60843C9.46525 8.73279 9.65481 8.86364 9.86649 9.01745L9.86181 9.01881L10.0307 9.13861L10.0499 9.15227L10.0697 9.16694L10.0703 9.16678C10.6455 9.57781 10.945 9.86256 11.397 10.4871L11.422 10.5286C11.6425 10.8979 11.7823 11.1678 11.8829 11.4564C11.9324 11.6004 11.9739 11.7533 12.0112 11.9285H10.1924ZM10.0502 8.90393C9.8088 8.72622 9.59661 8.57904 9.37956 8.44013C9.09646 8.2584 8.80489 8.09048 8.42647 7.88726L10.6315 6.75356C11.148 6.98911 11.5504 7.18433 11.9198 7.38725C12.3008 7.59741 12.6529 7.81943 13.0664 8.10642C12.7668 8.18817 12.4976 8.26218 12.2404 8.33366L11.8512 8.44058L11.8498 8.44099L11.599 8.51388C11.1487 8.64181 10.6875 8.77595 10.1086 8.9469L10.0502 8.90393ZM11.5267 10.3244C11.1374 9.7844 10.843 9.48504 10.3136 9.09577L11.6543 8.70607C11.8653 8.64612 12.0739 8.58754 12.2911 8.52717L13.2743 8.2571C13.3386 8.31056 13.405 8.36521 13.4723 8.42067L13.4747 8.42268L13.4749 8.42282C13.5623 8.49485 13.6514 8.56825 13.74 8.64217C14.0445 8.89844 14.3148 9.13908 14.5503 9.38322C14.6835 9.5237 14.8103 9.66996 14.9121 9.79906C14.9305 9.82291 14.9486 9.84688 14.9664 9.87099L11.5267 10.3244ZM12.2158 11.9287C12.1755 11.7295 12.1295 11.5564 12.0715 11.3899C11.9695 11.0935 11.8359 10.8342 11.6443 10.5107L15.0957 10.0558L15.0958 10.056L15.0971 10.0558C15.6615 10.8519 15.8569 11.2596 16.0403 12.0332L16.0473 12.0627L16.0583 12.11H16.0585L16.0585 12.1102H16.1376H18.0956C18.1648 12.6014 18.1984 12.9704 18.1988 13.3243C18.1988 13.4601 18.194 13.5954 18.1845 13.7349C18.1687 13.9628 18.1398 14.2015 18.0984 14.4784L16.1086 14.1955L15.9337 14.1706L14.1436 13.9157C14.2298 13.6692 14.2844 13.4532 14.3131 13.2434C14.3207 13.1888 14.3267 13.1339 14.331 13.0784C14.3555 12.7646 14.3268 12.4343 14.2485 12.0107L14.2433 11.9821L14.2343 11.9287H14.1497H12.2158ZM10.626 6.53149L10.6656 6.54939L10.6668 6.55007L10.668 6.5506L10.6752 6.55376L10.67 6.5514L10.6656 6.54939L10.6682 6.55055L10.6698 6.55123L10.6698 6.55125L10.6779 6.55493L10.8609 6.63489L10.8381 6.64661L13.3558 8.06512L13.3559 8.06519L13.356 8.06525L13.3621 8.06962L13.529 8.18769L13.5111 8.19256C13.6394 8.2978 13.7634 8.40019 13.8827 8.50079C14.0689 8.6565 14.2539 8.81574 14.4156 8.96914L14.415 8.96855L14.4142 8.96939L14.4154 8.97055L14.4162 8.96972L14.4156 8.96914C14.5097 9.05539 14.6067 9.15184 14.7007 9.25122C14.8339 9.38973 14.9569 9.53013 15.0693 9.67543C15.1153 9.73386 15.1568 9.78928 15.1921 9.83988L16.7368 9.61557C16.1821 8.98483 15.7659 8.57883 15.1112 8.02649C15.0036 7.936 14.8896 7.84147 14.7678 7.74128L14.6236 7.62265L14.6238 7.62259L14.6235 7.62238L14.8024 7.56807L15.9885 7.20791C15.304 6.74254 14.3207 6.18158 13.294 5.72346L13.2937 5.7233C12.4536 5.34442 11.5072 4.98353 10.3985 4.64648L8.73603 5.81199L8.76249 5.82062C9.37965 6.02212 9.94548 6.23693 10.6066 6.52386L10.6252 6.53191L10.626 6.53149ZM18.2688 11.9102L18.2776 11.9704L18.2813 11.9952C18.3592 12.5169 18.3989 12.922 18.3988 13.3232C18.399 13.4643 18.3941 13.6032 18.3842 13.7461C18.3683 13.9812 18.3392 14.228 18.2967 14.5072L18.6076 14.5533L19.8939 14.7434L20.0806 14.7699C20.2222 14.0683 20.2084 13.374 20.0757 12.676L20.0757 12.6757C19.917 11.8258 19.5716 10.997 19.0615 10.2082C18.3475 9.1167 17.3119 8.12353 16.1981 7.35333L15.0391 7.70545C15.1083 7.76288 15.175 7.81858 15.2393 7.8729C15.9498 8.47 16.3929 8.89675 16.9954 9.60759L17.0085 9.62262L17.1283 9.76082L17.1254 9.76124L17.1256 9.76147L16.9472 9.78739L15.3201 10.0239C15.7988 10.7032 16.0317 11.1502 16.2167 11.91H18.1824H18.2685L18.2686 11.9102H18.2688ZM18.1682 14.6907L16.0805 14.3935L15.9106 14.3693L14.0784 14.1087C14.0047 14.3436 13.9294 14.548 13.8419 14.7376L19.7895 15.785C19.8915 15.5153 19.9752 15.2426 20.0404 14.9672L19.865 14.9413C19.5022 14.8894 19.2071 14.8453 18.8851 14.797L18.885 14.797L18.5766 14.7509L18.2046 14.6959L18.1682 14.6907ZM19.9899 15.8203L20.2757 15.8706C20.5275 15.915 20.7806 15.8603 20.9831 15.7179L31.3961 8.39233C31.6109 8.2412 31.5179 7.88895 31.2507 7.8419L11.3335 4.33421C11.0822 4.28995 10.8295 4.3443 10.6272 4.48613L10.606 4.50098C11.6584 4.8272 12.5655 5.17549 13.3757 5.5409C14.5012 6.04316 15.5761 6.66801 16.2732 7.16196L16.2829 7.16889C17.4245 7.95345 18.492 8.97205 19.229 10.0989L19.2293 10.0993C19.7518 10.9072 20.1082 11.7602 20.2722 12.6388C20.4083 13.3551 20.4238 14.0717 20.279 14.7978L20.2831 14.7984L20.26 14.9038C20.1922 15.2131 20.1021 15.5187 19.9899 15.8203Z"/>
</mask>
<path fill-rule="evenodd" clip-rule="evenodd" d="M8.70153 6.01111C8.64502 5.99266 8.58807 5.97432 8.53056 5.95604L5.68557 7.95061C5.91497 8.02524 6.12459 8.10472 6.35256 8.20036C6.52468 8.2722 6.70422 8.3521 6.90522 8.44404L8.1647 7.79641L10.3937 6.65023C9.78865 6.39271 9.26686 6.19608 8.70153 6.01111ZM2.97647 10.7603C2.74909 10.638 2.48026 10.5253 2.16695 10.4174L1.20392 11.0926C1.48581 11.1924 1.72403 11.3311 1.89462 11.4894C2.0354 11.6201 2.13677 11.7707 2.16953 11.9287H3.95085C3.93291 11.8387 3.90829 11.7533 3.8768 11.6721C3.81951 11.5326 3.72999 11.3826 3.58876 11.2196C3.4523 11.0645 3.25254 10.9097 2.97647 10.7603ZM1.98038 12.0197C1.97375 11.9041 1.90263 11.7697 1.75858 11.6361C1.61159 11.4997 1.39791 11.3732 1.13509 11.2804C1.08911 11.2649 1.04321 11.2506 0.997216 11.2375L0.184666 11.8072C-0.0305799 11.9581 0.062289 12.3108 0.329671 12.3579L1.58791 12.5795C1.81025 12.4182 1.94245 12.2251 1.98038 12.0197ZM4.15879 12.3893C4.1494 12.4333 4.13674 12.4775 4.1209 12.5237L5.90045 12.7842L6.01837 12.8015L5.98089 12.9146L5.97887 12.9207C5.93969 13.0503 5.89495 13.1605 5.8441 13.2583C5.83287 13.2803 5.82124 13.3018 5.80906 13.3229L7.564 13.6319C7.66938 13.4798 7.76158 13.3166 7.86905 13.099L7.90108 13.0342L7.92361 13.0374L7.97275 13.0441L9.13056 13.2041C9.33398 13.2319 9.54028 13.2602 9.76904 13.2923L9.89924 13.3103C9.94335 13.1197 9.97454 12.9543 9.99476 12.7941C10.0197 12.5875 10.0257 12.3853 10.02 12.1289H4.17967C4.18492 12.2173 4.17869 12.2928 4.16428 12.364C4.16257 12.3725 4.16073 12.3809 4.15879 12.3893ZM3.97102 12.3046C3.96893 12.3184 3.96642 12.3323 3.96344 12.3464C3.94981 12.4046 3.92967 12.4598 3.9046 12.5284L3.90457 12.5284L3.90456 12.5285L3.89178 12.5636L3.8906 12.5664L3.84164 12.685L3.96854 12.7035L5.75197 12.9647C5.7231 13.044 5.69578 13.1088 5.66619 13.1669C5.64437 13.2088 5.62127 13.248 5.59678 13.2855L1.84781 12.6252C2.00325 12.4811 2.11054 12.3144 2.16055 12.1289H3.97702C3.98111 12.1954 3.97914 12.2508 3.97102 12.3046ZM4.44936 9.89116C4.72569 10.0315 4.96629 10.1896 5.22568 10.3948L6.94766 9.93078L6.94772 9.93082L6.95096 9.93382C7.08849 10.0607 7.21067 10.1794 7.31958 10.293C7.50603 10.4869 7.65723 10.6695 7.78145 10.8598C7.80059 10.8891 7.81901 10.9183 7.83673 10.9476C7.98428 11.1916 8.08182 11.4383 8.1589 11.7232C8.1769 11.7892 8.19381 11.8575 8.20984 11.9286H9.98367C9.83336 11.4233 9.61618 10.882 9.21715 10.3582C9.14247 10.2657 9.06168 10.175 8.97417 10.0856C8.95398 10.0659 8.93359 10.0467 8.913 10.028L8.90951 10.0249L8.90959 10.0248C8.80947 9.92499 8.70092 9.82705 8.58417 9.73054C8.14958 9.37485 7.58992 9.02633 6.86412 8.64536C6.64184 8.54383 6.45091 8.45845 6.27187 8.3834C6.00684 8.2729 5.76041 8.18218 5.47854 8.09575L3.47692 9.49905C3.87021 9.6307 4.17697 9.75228 4.44936 9.89116ZM3.08003 10.589C2.87878 10.4794 2.64271 10.3747 2.3691 10.2757L5.1417 10.5837L5.14175 10.5837L5.18267 10.6166L5.23305 10.6016L6.85372 10.1165C6.97324 10.2282 7.08031 10.3327 7.17659 10.4328C7.35981 10.6241 7.50084 10.7969 7.61294 10.9676C7.62125 10.9803 7.62942 10.993 7.63745 11.0058C7.78132 11.2345 7.88424 11.4763 7.96567 11.7747C7.97915 11.8245 7.99204 11.8758 8.0045 11.9287H4.1555C4.13816 11.8235 4.10976 11.7134 4.06253 11.5979C3.96008 11.3347 3.79401 11.1096 3.56214 10.9125C3.42428 10.7953 3.26359 10.6883 3.08003 10.589ZM3.27257 9.64231C3.72698 9.78969 4.06373 9.91929 4.35613 10.0681C4.06408 9.92005 3.72715 9.79096 3.27201 9.64271L3.27257 9.64231ZM7.78068 13.6701L13.6373 14.7015C13.7254 14.5173 13.8016 14.3164 13.8771 14.08L9.95886 13.5211L9.74272 13.4906L9.10078 13.4019L8.94419 13.3805L8.94373 13.3805L8.94282 13.3803L8.94235 13.3803L8.94204 13.3802L8.94168 13.3802L8.9412 13.3801C8.65796 13.3415 8.36965 13.3021 8.01654 13.2524C7.93647 13.4121 7.86239 13.545 7.78068 13.6701ZM10.0982 13.3383L13.9416 13.887L13.9437 13.8811C14.0287 13.639 14.0852 13.4285 14.1149 13.2169C14.1241 13.149 14.1305 13.0822 14.1341 13.0154C14.1487 12.7478 14.1207 12.4757 14.0648 12.1289H10.2217C10.2294 12.3816 10.2214 12.5958 10.1932 12.8189C10.1736 12.9811 10.143 13.1459 10.0982 13.3383ZM10.1924 11.9285C9.98462 11.1843 9.61499 10.4317 9.11516 9.9437C8.99302 9.81899 8.859 9.69712 8.7119 9.57665C8.28031 9.21986 7.74612 8.88646 7.12511 8.5564L8.21018 7.99849L8.22724 8.00756C8.65179 8.23469 8.96687 8.41348 9.2715 8.60843C9.46525 8.73279 9.65481 8.86364 9.86649 9.01745L9.86181 9.01881L10.0307 9.13861L10.0499 9.15227L10.0697 9.16694L10.0703 9.16678C10.6455 9.57781 10.945 9.86256 11.397 10.4871L11.422 10.5286C11.6425 10.8979 11.7823 11.1678 11.8829 11.4564C11.9324 11.6004 11.9739 11.7533 12.0112 11.9285H10.1924ZM10.0502 8.90393C9.8088 8.72622 9.59661 8.57904 9.37956 8.44013C9.09646 8.2584 8.80489 8.09048 8.42647 7.88726L10.6315 6.75356C11.148 6.98911 11.5504 7.18433 11.9198 7.38725C12.3008 7.59741 12.6529 7.81943 13.0664 8.10642C12.7668 8.18817 12.4976 8.26218 12.2404 8.33366L11.8512 8.44058L11.8498 8.44099L11.599 8.51388C11.1487 8.64181 10.6875 8.77595 10.1086 8.9469L10.0502 8.90393ZM11.5267 10.3244C11.1374 9.7844 10.843 9.48504 10.3136 9.09577L11.6543 8.70607C11.8653 8.64612 12.0739 8.58754 12.2911 8.52717L13.2743 8.2571C13.3386 8.31056 13.405 8.36521 13.4723 8.42067L13.4747 8.42268L13.4749 8.42282C13.5623 8.49485 13.6514 8.56825 13.74 8.64217C14.0445 8.89844 14.3148 9.13908 14.5503 9.38322C14.6835 9.5237 14.8103 9.66996 14.9121 9.79906C14.9305 9.82291 14.9486 9.84688 14.9664 9.87099L11.5267 10.3244ZM12.2158 11.9287C12.1755 11.7295 12.1295 11.5564 12.0715 11.3899C11.9695 11.0935 11.8359 10.8342 11.6443 10.5107L15.0957 10.0558L15.0958 10.056L15.0971 10.0558C15.6615 10.8519 15.8569 11.2596 16.0403 12.0332L16.0473 12.0627L16.0583 12.11H16.0585L16.0585 12.1102H16.1376H18.0956C18.1648 12.6014 18.1984 12.9704 18.1988 13.3243C18.1988 13.4601 18.194 13.5954 18.1845 13.7349C18.1687 13.9628 18.1398 14.2015 18.0984 14.4784L16.1086 14.1955L15.9337 14.1706L14.1436 13.9157C14.2298 13.6692 14.2844 13.4532 14.3131 13.2434C14.3207 13.1888 14.3267 13.1339 14.331 13.0784C14.3555 12.7646 14.3268 12.4343 14.2485 12.0107L14.2433 11.9821L14.2343 11.9287H14.1497H12.2158ZM10.626 6.53149L10.6656 6.54939L10.6668 6.55007L10.668 6.5506L10.6752 6.55376L10.67 6.5514L10.6656 6.54939L10.6682 6.55055L10.6698 6.55123L10.6698 6.55125L10.6779 6.55493L10.8609 6.63489L10.8381 6.64661L13.3558 8.06512L13.3559 8.06519L13.356 8.06525L13.3621 8.06962L13.529 8.18769L13.5111 8.19256C13.6394 8.2978 13.7634 8.40019 13.8827 8.50079C14.0689 8.6565 14.2539 8.81574 14.4156 8.96914L14.415 8.96855L14.4142 8.96939L14.4154 8.97055L14.4162 8.96972L14.4156 8.96914C14.5097 9.05539 14.6067 9.15184 14.7007 9.25122C14.8339 9.38973 14.9569 9.53013 15.0693 9.67543C15.1153 9.73386 15.1568 9.78928 15.1921 9.83988L16.7368 9.61557C16.1821 8.98483 15.7659 8.57883 15.1112 8.02649C15.0036 7.936 14.8896 7.84147 14.7678 7.74128L14.6236 7.62265L14.6238 7.62259L14.6235 7.62238L14.8024 7.56807L15.9885 7.20791C15.304 6.74254 14.3207 6.18158 13.294 5.72346L13.2937 5.7233C12.4536 5.34442 11.5072 4.98353 10.3985 4.64648L8.73603 5.81199L8.76249 5.82062C9.37965 6.02212 9.94548 6.23693 10.6066 6.52386L10.6252 6.53191L10.626 6.53149ZM18.2688 11.9102L18.2776 11.9704L18.2813 11.9952C18.3592 12.5169 18.3989 12.922 18.3988 13.3232C18.399 13.4643 18.3941 13.6032 18.3842 13.7461C18.3683 13.9812 18.3392 14.228 18.2967 14.5072L18.6076 14.5533L19.8939 14.7434L20.0806 14.7699C20.2222 14.0683 20.2084 13.374 20.0757 12.676L20.0757 12.6757C19.917 11.8258 19.5716 10.997 19.0615 10.2082C18.3475 9.1167 17.3119 8.12353 16.1981 7.35333L15.0391 7.70545C15.1083 7.76288 15.175 7.81858 15.2393 7.8729C15.9498 8.47 16.3929 8.89675 16.9954 9.60759L17.0085 9.62262L17.1283 9.76082L17.1254 9.76124L17.1256 9.76147L16.9472 9.78739L15.3201 10.0239C15.7988 10.7032 16.0317 11.1502 16.2167 11.91H18.1824H18.2685L18.2686 11.9102H18.2688ZM18.1682 14.6907L16.0805 14.3935L15.9106 14.3693L14.0784 14.1087C14.0047 14.3436 13.9294 14.548 13.8419 14.7376L19.7895 15.785C19.8915 15.5153 19.9752 15.2426 20.0404 14.9672L19.865 14.9413C19.5022 14.8894 19.2071 14.8453 18.8851 14.797L18.885 14.797L18.5766 14.7509L18.2046 14.6959L18.1682 14.6907ZM19.9899 15.8203L20.2757 15.8706C20.5275 15.915 20.7806 15.8603 20.9831 15.7179L31.3961 8.39233C31.6109 8.2412 31.5179 7.88895 31.2507 7.8419L11.3335 4.33421C11.0822 4.28995 10.8295 4.3443 10.6272 4.48613L10.606 4.50098C11.6584 4.8272 12.5655 5.17549 13.3757 5.5409C14.5012 6.04316 15.5761 6.66801 16.2732 7.16196L16.2829 7.16889C17.4245 7.95345 18.492 8.97205 19.229 10.0989L19.2293 10.0993C19.7518 10.9072 20.1082 11.7602 20.2722 12.6388C20.4083 13.3551 20.4238 14.0717 20.279 14.7978L20.2831 14.7984L20.26 14.9038C20.1922 15.2131 20.1021 15.5187 19.9899 15.8203Z" fill="#05B06D" fill-opacity="0.85"/>
<path d="M6.93465 9.88251L5.21267 10.3466L5.23869 10.4431L6.96067 9.97906L6.93465 9.88251ZM5.14722 10.534L2.37462 10.226L2.36358 10.3254L5.13618 10.6334L5.14722 10.534ZM13.3806 8.02169L10.8627 6.60305L10.8136 6.69018L13.3315 8.10881L13.3806 8.02169ZM10.6913 6.50652L10.6901 6.50584L10.641 6.59295L10.6422 6.59363L10.6913 6.50652ZM8.53056 5.95604L8.56086 5.86074L8.51369 5.84574L8.47316 5.87416L8.53056 5.95604ZM8.70153 6.01111L8.73262 5.91607L8.73257 5.91605L8.70153 6.01111ZM5.68557 7.95061L5.62816 7.86873L5.46413 7.98373L5.65463 8.0457L5.68557 7.95061ZM6.35256 8.20036L6.31387 8.29258L6.31404 8.29265L6.35256 8.20036ZM6.90522 8.44404L6.86363 8.53498L6.90777 8.55517L6.95095 8.53297L6.90522 8.44404ZM8.1647 7.79641L8.11897 7.70748L8.1647 7.79641ZM10.3937 6.65023L10.4395 6.73916L10.629 6.64169L10.4329 6.55822L10.3937 6.65023ZM2.16695 10.4174L2.19951 10.3229L2.1513 10.3063L2.10954 10.3356L2.16695 10.4174ZM2.97647 10.7603L3.02406 10.6724L3.02384 10.6723L2.97647 10.7603ZM1.20392 11.0926L1.14652 11.0107L0.987652 11.1221L1.17054 11.1869L1.20392 11.0926ZM1.89462 11.4894L1.8266 11.5627L1.8266 11.5628L1.89462 11.4894ZM2.16953 11.9287L2.07161 11.949L2.08813 12.0287H2.16953V11.9287ZM3.95085 11.9287V12.0287H4.07274L4.04893 11.9092L3.95085 11.9287ZM3.8768 11.6721L3.97005 11.6359L3.96931 11.6341L3.8768 11.6721ZM3.58876 11.2196L3.66433 11.1541L3.66385 11.1536L3.58876 11.2196ZM1.75858 11.6361L1.69056 11.7094L1.69056 11.7094L1.75858 11.6361ZM1.98038 12.0197L2.07871 12.0378L2.0809 12.026L2.08021 12.014L1.98038 12.0197ZM1.13509 11.2804L1.16838 11.1861L1.167 11.1856L1.13509 11.2804ZM0.997216 11.2375L1.02464 11.1413L0.97882 11.1283L0.93981 11.1556L0.997216 11.2375ZM0.184666 11.8072L0.127261 11.7253H0.127261L0.184666 11.8072ZM0.329671 12.3579L0.347015 12.2594L0.329671 12.3579ZM1.58791 12.5795L1.57056 12.6779L1.61231 12.6853L1.64662 12.6604L1.58791 12.5795ZM4.1209 12.5237L4.0263 12.4913L3.98723 12.6052L4.10641 12.6226L4.1209 12.5237ZM4.15879 12.3893L4.06136 12.3667L4.06099 12.3684L4.15879 12.3893ZM5.90045 12.7842L5.91494 12.6853L5.90045 12.7842ZM6.01837 12.8015L6.1133 12.833L6.15078 12.7198L6.03286 12.7026L6.01837 12.8015ZM5.98089 12.9146L6.0758 12.9461L6.07582 12.9461L5.98089 12.9146ZM5.97887 12.9207L5.88393 12.8892L5.88315 12.8918L5.97887 12.9207ZM5.8441 13.2583L5.75538 13.2121L5.75499 13.2129L5.8441 13.2583ZM5.80906 13.3229L5.72245 13.2729L5.65104 13.3966L5.79172 13.4213L5.80906 13.3229ZM7.564 13.6319L7.54665 13.7304L7.60973 13.7415L7.6462 13.6889L7.564 13.6319ZM7.86905 13.099L7.95871 13.1433L7.95871 13.1433L7.86905 13.099ZM7.90108 13.0342L7.91507 12.9352L7.84345 12.925L7.81142 12.9899L7.90108 13.0342ZM7.92361 13.0374L7.90962 13.1364L7.90993 13.1364L7.92361 13.0374ZM7.97275 13.0441L7.98644 12.9451H7.98644L7.97275 13.0441ZM9.13056 13.2041L9.11687 13.3032L9.11702 13.3032L9.13056 13.2041ZM9.76904 13.2923L9.75515 13.3914L9.75536 13.3914L9.76904 13.2923ZM9.89924 13.3103L9.88555 13.4094L9.97606 13.4219L9.99667 13.3329L9.89924 13.3103ZM9.99476 12.7941L10.094 12.8066L10.094 12.8061L9.99476 12.7941ZM10.02 12.1289L10.12 12.1266L10.1178 12.0289H10.02V12.1289ZM4.17967 12.1289V12.0289H4.07355L4.07984 12.1348L4.17967 12.1289ZM4.16428 12.364L4.06627 12.3442L4.06626 12.3442L4.16428 12.364ZM3.96344 12.3464L4.06083 12.3692L4.06128 12.3671L3.96344 12.3464ZM3.97102 12.3046L3.87214 12.2897L3.87214 12.2897L3.97102 12.3046ZM3.9046 12.5284L3.81067 12.494L3.81043 12.4947L3.9046 12.5284ZM3.90457 12.5284L3.99621 12.5692L3.99875 12.5621L3.90457 12.5284ZM3.90456 12.5285L3.81296 12.4877L3.8106 12.4942L3.90456 12.5285ZM3.89178 12.5636L3.98431 12.6017L3.98574 12.5978L3.89178 12.5636ZM3.8906 12.5664L3.98302 12.6046L3.98305 12.6045L3.8906 12.5664ZM3.84164 12.685L3.74921 12.6468L3.70025 12.7653L3.82715 12.7839L3.84164 12.685ZM3.96854 12.7035L3.98302 12.6046H3.98302L3.96854 12.7035ZM5.75197 12.9647L5.84594 12.9989L5.88795 12.8835L5.76646 12.8657L5.75197 12.9647ZM5.66619 13.1669L5.75487 13.2131L5.75531 13.2123L5.66619 13.1669ZM5.59678 13.2855L5.57943 13.384L5.64436 13.3954L5.68045 13.3402L5.59678 13.2855ZM1.84781 12.6252L1.77981 12.5519L1.63219 12.6888L1.83046 12.7237L1.84781 12.6252ZM2.16055 12.1289V12.0289H2.08394L2.064 12.1028L2.16055 12.1289ZM3.97702 12.1289L4.07683 12.1227L4.07105 12.0289H3.97702V12.1289ZM5.22568 10.3948L5.16362 10.4733L5.20309 10.5045L5.2517 10.4914L5.22568 10.3948ZM4.44936 9.89116L4.40394 9.98025L4.40408 9.98032L4.44936 9.89116ZM6.94766 9.93078L7.00196 9.84681L6.9646 9.82265L6.92164 9.83423L6.94766 9.93078ZM6.94772 9.93082L7.01569 9.85747L7.00931 9.85156L7.00201 9.84684L6.94772 9.93082ZM6.95096 9.93382L6.88299 10.0072L6.88317 10.0073L6.95096 9.93382ZM7.31958 10.293L7.24739 10.3622L7.24749 10.3623L7.31958 10.293ZM7.78145 10.8598L7.69769 10.9145L7.69782 10.9147L7.78145 10.8598ZM7.83673 10.9476L7.9223 10.8958L7.9223 10.8958L7.83673 10.9476ZM8.1589 11.7232L8.06238 11.7493L8.06242 11.7495L8.1589 11.7232ZM8.20984 11.9286L8.11229 11.9506L8.12989 12.0286H8.20984V11.9286ZM9.98367 11.9286V12.0286H10.1178L10.0795 11.9001L9.98367 11.9286ZM9.21715 10.3582L9.29673 10.2976L9.29496 10.2954L9.21715 10.3582ZM8.97417 10.0856L9.04568 10.0156L9.04397 10.014L8.97417 10.0856ZM8.913 10.028L8.84581 10.1021L8.84582 10.1021L8.913 10.028ZM8.90951 10.0249L8.83858 9.95436L8.7648 10.0286L8.84232 10.0989L8.90951 10.0249ZM8.90959 10.0248L8.98051 10.0953L9.05091 10.0244L8.98018 9.95395L8.90959 10.0248ZM8.58417 9.73054L8.64788 9.65346L8.6475 9.65316L8.58417 9.73054ZM6.86412 8.64536L6.91066 8.55668L6.90567 8.5544L6.86412 8.64536ZM6.27187 8.3834L6.31053 8.29118L6.31036 8.2911L6.27187 8.3834ZM5.47854 8.09575L5.50786 8.00014L5.46115 7.98582L5.42114 8.01387L5.47854 8.09575ZM3.47692 9.49905L3.41951 9.41717L3.25721 9.53096L3.44517 9.59388L3.47692 9.49905ZM2.3691 10.2757L2.38014 10.1763L2.33508 10.3697L2.3691 10.2757ZM3.08003 10.589L3.03221 10.6768L3.03242 10.6769L3.08003 10.589ZM5.1417 10.5837L5.16064 10.4852L5.15274 10.4843L5.1417 10.5837ZM5.14175 10.5837L5.20446 10.5058L5.18508 10.4902L5.16063 10.4855L5.14175 10.5837ZM5.18267 10.6166L5.11996 10.6945L5.16094 10.7275L5.21134 10.7125L5.18267 10.6166ZM5.23305 10.6016L5.26172 10.6974H5.26172L5.23305 10.6016ZM6.85372 10.1165L6.922 10.0435L6.88005 10.0043L6.82505 10.0207L6.85372 10.1165ZM7.17659 10.4328L7.2488 10.3637L7.24869 10.3636L7.17659 10.4328ZM7.61294 10.9676L7.69666 10.9129L7.69652 10.9127L7.61294 10.9676ZM7.63745 11.0058L7.55281 11.0591L7.55281 11.0591L7.63745 11.0058ZM7.96567 11.7747L8.06219 11.7486L8.06214 11.7484L7.96567 11.7747ZM8.0045 11.9287V12.0287H8.13078L8.10184 11.9058L8.0045 11.9287ZM4.1555 11.9287L4.05683 11.945L4.07062 12.0287H4.1555V11.9287ZM4.06253 11.5979L3.96933 11.6342L3.96997 11.6358L4.06253 11.5979ZM3.56214 10.9125L3.49737 10.9887L3.49737 10.9887L3.56214 10.9125ZM4.35613 10.0681L4.31091 10.1573L4.40149 9.97899L4.35613 10.0681ZM3.27257 9.64231L3.30342 9.54719L3.25597 9.5318L3.21514 9.56045L3.27257 9.64231ZM3.27201 9.64271L3.21458 9.56084L3.05072 9.6758L3.24104 9.73779L3.27201 9.64271ZM13.6373 14.7015L13.62 14.8L13.6948 14.8132L13.7275 14.7447L13.6373 14.7015ZM7.78068 13.6701L7.69695 13.6154L7.61411 13.7423L7.76334 13.7686L7.78068 13.6701ZM13.8771 14.08L13.9724 14.1105L14.0084 13.9977L13.8913 13.981L13.8771 14.08ZM9.95886 13.5211L9.97298 13.4221L9.97283 13.4221L9.95886 13.5211ZM9.74272 13.4906L9.75669 13.3916L9.75641 13.3915L9.74272 13.4906ZM9.10078 13.4019L9.11447 13.3028L9.1143 13.3028L9.10078 13.4019ZM8.94419 13.3805L8.93057 13.4796L8.93067 13.4796L8.94419 13.3805ZM8.94282 13.3803L8.95644 13.2813L8.95627 13.2812L8.94282 13.3803ZM8.94235 13.3803L8.92884 13.4794L8.9289 13.4794L8.94235 13.3803ZM8.94204 13.3802L8.92846 13.4793L8.92853 13.4793L8.94204 13.3802ZM8.94168 13.3802L8.95527 13.2811L8.95525 13.2811L8.94168 13.3802ZM8.9412 13.3801L8.95477 13.281L8.95472 13.281L8.9412 13.3801ZM8.01654 13.2524L8.03047 13.1534L7.95934 13.1434L7.92715 13.2076L8.01654 13.2524ZM13.9416 13.887L13.9275 13.986L14.0084 13.9976L14.0358 13.9206L13.9416 13.887ZM10.0982 13.3383L10.0008 13.3156L9.97609 13.4219L10.0841 13.4373L10.0982 13.3383ZM13.9437 13.8811L14.0379 13.9147L14.0381 13.9143L13.9437 13.8811ZM14.1149 13.2169L14.2139 13.2307L14.2139 13.2304L14.1149 13.2169ZM14.1341 13.0154L14.2339 13.0209V13.0209L14.1341 13.0154ZM14.0648 12.1289L14.1635 12.1129L14.15 12.0289H14.0648V12.1289ZM10.2217 12.1289V12.0289H10.1186L10.1218 12.1319L10.2217 12.1289ZM10.1932 12.8189L10.094 12.8064L10.0939 12.8069L10.1932 12.8189ZM9.11516 9.9437L9.0437 10.0137L9.0453 10.0153L9.11516 9.9437ZM10.1924 11.9285L10.0961 11.9554L10.1165 12.0285H10.1924V11.9285ZM8.7119 9.57665L8.64818 9.65373L8.64854 9.65402L8.7119 9.57665ZM7.12511 8.5564L7.07939 8.46747L6.90928 8.55493L7.07818 8.6447L7.12511 8.5564ZM8.21018 7.99849L8.25712 7.91019L8.21095 7.88565L8.16445 7.90956L8.21018 7.99849ZM8.22724 8.00756L8.27441 7.91939L8.27417 7.91926L8.22724 8.00756ZM9.2715 8.60843L9.32552 8.52427L9.32541 8.5242L9.2715 8.60843ZM9.86649 9.01745L9.89441 9.11347L10.0904 9.0565L9.92527 8.93655L9.86649 9.01745ZM9.86181 9.01881L9.83389 8.92278L9.63506 8.98058L9.80395 9.10038L9.86181 9.01881ZM10.0307 9.13861L10.0886 9.05709L10.0886 9.05704L10.0307 9.13861ZM10.0499 9.15227L10.1095 9.07191L10.1079 9.07075L10.0499 9.15227ZM10.0697 9.16694L10.0102 9.24729L10.0503 9.277L10.0981 9.26283L10.0697 9.16694ZM10.0703 9.16678L10.1284 9.08542L10.0887 9.05703L10.0419 9.0709L10.0703 9.16678ZM11.397 10.4871L11.4829 10.4353L11.478 10.4285L11.397 10.4871ZM11.422 10.5286L11.5079 10.4774L11.5076 10.4769L11.422 10.5286ZM11.8829 11.4564L11.9774 11.4239L11.9773 11.4235L11.8829 11.4564ZM12.0112 11.9285V12.0285H12.1347L12.109 11.9077L12.0112 11.9285ZM9.37956 8.44013L9.32554 8.52428L9.32565 8.52436L9.37956 8.44013ZM10.0502 8.90393L9.99093 8.98446L9.99096 8.98449L10.0502 8.90393ZM8.42647 7.88726L8.38074 7.79833L8.21152 7.88534L8.37916 7.97536L8.42647 7.88726ZM10.6315 6.75356L10.673 6.66258L10.6289 6.64246L10.5858 6.66463L10.6315 6.75356ZM11.9198 7.38725L11.9681 7.29969L11.968 7.2996L11.9198 7.38725ZM13.0664 8.10642L13.0927 8.20289L13.2995 8.14646L13.1234 8.02427L13.0664 8.10642ZM12.2404 8.33366L12.2669 8.43009L12.2672 8.43001L12.2404 8.33366ZM11.8512 8.44058L11.8247 8.34414L11.8233 8.34454L11.8512 8.44058ZM11.8498 8.44099L11.8219 8.34495L11.8218 8.34496L11.8498 8.44099ZM11.599 8.51388L11.6263 8.61008L11.6269 8.60991L11.599 8.51388ZM10.1086 8.9469L10.0494 9.02746L10.0894 9.05686L10.137 9.04281L10.1086 8.9469ZM10.3136 9.09577L10.2857 8.99974L10.0911 9.05629L10.2544 9.17633L10.3136 9.09577ZM11.5267 10.3244L11.4456 10.3829L11.4805 10.4313L11.5398 10.4235L11.5267 10.3244ZM11.6543 8.70607L11.627 8.60987L11.6264 8.61004L11.6543 8.70607ZM12.2911 8.52717L12.2646 8.43074L12.2643 8.43082L12.2911 8.52717ZM13.2743 8.2571L13.3382 8.18019L13.2981 8.14686L13.2478 8.16068L13.2743 8.2571ZM13.4723 8.42067L13.5359 8.34354L13.5359 8.34349L13.4723 8.42067ZM13.4747 8.42268L13.4111 8.49983L13.4123 8.50077L13.4747 8.42268ZM13.4749 8.42282L13.5385 8.34563L13.5374 8.34473L13.4749 8.42282ZM13.74 8.64217L13.8044 8.56566L13.8041 8.5654L13.74 8.64217ZM14.5503 9.38322L14.6228 9.3144L14.6223 9.3138L14.5503 9.38322ZM14.9121 9.79906L14.9912 9.73794L14.9906 9.73715L14.9121 9.79906ZM14.9664 9.87099L14.9795 9.97014L15.1475 9.94799L15.0469 9.81163L14.9664 9.87099ZM12.0715 11.3899L11.9769 11.4225L11.9771 11.4228L12.0715 11.3899ZM12.2158 11.9287L12.1178 11.9486L12.1341 12.0287H12.2158V11.9287ZM11.6443 10.5107L11.6313 10.4116L11.4811 10.4314L11.5583 10.5617L11.6443 10.5107ZM15.0957 10.0558L15.1792 10.0007L15.1447 9.94849L15.0827 9.95667L15.0957 10.0558ZM15.0958 10.056L15.0124 10.1111L15.0474 10.164L15.1102 10.1549L15.0958 10.056ZM15.0971 10.0558L15.1787 9.99794L15.1433 9.94802L15.0828 9.95681L15.0971 10.0558ZM16.0403 12.0332L15.943 12.0563L15.943 12.0563L16.0403 12.0332ZM16.0473 12.0627L16.1447 12.04L16.1446 12.0396L16.0473 12.0627ZM16.0583 12.11L15.9609 12.1327L15.9789 12.21H16.0583V12.11ZM16.0585 12.11L16.1557 12.0864L16.1371 12.01H16.0585V12.11ZM16.0585 12.1102L15.9613 12.1337L15.9799 12.2102H16.0585V12.1102ZM18.0956 12.1102L18.1946 12.0962L18.1825 12.0102H18.0956V12.1102ZM18.1988 13.3243L18.2988 13.3244V13.3242L18.1988 13.3243ZM18.1845 13.7349L18.2843 13.7418L18.2843 13.7417L18.1845 13.7349ZM18.0984 14.4784L18.0843 14.5774L18.1826 14.5914L18.1973 14.4932L18.0984 14.4784ZM16.1086 14.1955L16.1227 14.0965L16.1086 14.1955ZM15.9337 14.1706L15.9196 14.2696L15.9196 14.2696L15.9337 14.1706ZM14.1436 13.9157L14.0492 13.8828L14.0091 13.9976L14.1295 14.0147L14.1436 13.9157ZM14.3131 13.2434L14.214 13.2296L14.214 13.2299L14.3131 13.2434ZM14.331 13.0784L14.2313 13.0706V13.0706L14.331 13.0784ZM14.2485 12.0107L14.1502 12.0289L14.1502 12.0289L14.2485 12.0107ZM14.2433 11.9821L14.1446 11.9987L14.1449 12.0003L14.2433 11.9821ZM14.2343 11.9287L14.3329 11.9122L14.3189 11.8287H14.2343V11.9287ZM10.626 6.53149L10.6672 6.44039L10.6232 6.42046L10.5802 6.44258L10.626 6.53149ZM10.6668 6.55007L10.6174 6.63764L10.6268 6.64172L10.6668 6.55007ZM10.668 6.5506L10.708 6.45896L10.708 6.45896L10.668 6.5506ZM10.6752 6.55376L10.6352 6.6454L10.7165 6.46266L10.6752 6.55376ZM10.67 6.5514L10.7113 6.46031L10.7112 6.4603L10.67 6.5514ZM10.6682 6.55055L10.7081 6.45883L10.7081 6.45882L10.6682 6.55055ZM10.6698 6.55123L10.7617 6.59063L10.8009 6.49917L10.7097 6.45952L10.6698 6.55123ZM10.6698 6.55125L10.5779 6.51186L10.5394 6.60175L10.6284 6.64226L10.6698 6.55125ZM10.6779 6.55493L10.6365 6.64596L10.6379 6.64657L10.6779 6.55493ZM10.8609 6.63489L10.9067 6.72382L11.0939 6.62754L10.901 6.54325L10.8609 6.63489ZM10.8381 6.64661L10.7924 6.55768L10.6273 6.64259L10.789 6.73374L10.8381 6.64661ZM13.3558 8.06512L13.414 7.98313L13.4049 7.97799L13.3558 8.06512ZM13.3559 8.06519L13.298 8.14672L13.3055 8.15206L13.3139 8.15594L13.3559 8.06519ZM13.356 8.06525L13.4144 7.98403L13.4067 7.97849L13.398 7.9745L13.356 8.06525ZM13.3621 8.06962L13.3038 8.15084L13.3044 8.15126L13.3621 8.06962ZM13.529 8.18769L13.5553 8.28418L13.7598 8.2285L13.5868 8.10606L13.529 8.18769ZM13.5111 8.19256L13.4849 8.09607L13.2979 8.14698L13.4477 8.26988L13.5111 8.19256ZM13.8827 8.50079L13.8183 8.57725L13.8186 8.5775L13.8827 8.50079ZM14.415 8.96855L14.4827 8.89497L14.4091 8.82718L14.3413 8.90088L14.415 8.96855ZM14.4142 8.96939L14.3406 8.90173L14.2735 8.97468L14.3459 9.04239L14.4142 8.96939ZM14.4154 8.97055L14.3471 9.04355L14.4195 9.11139L14.4879 9.03944L14.4154 8.97055ZM14.4162 8.96972L14.4887 9.0386L14.5576 8.96608L14.4851 8.89719L14.4162 8.96972ZM14.7007 9.25122L14.6281 9.31995L14.6286 9.32052L14.7007 9.25122ZM15.0693 9.67543L14.9901 9.7366L14.9907 9.73734L15.0693 9.67543ZM15.1921 9.83988L15.1101 9.89715L15.1455 9.9477L15.2065 9.93884L15.1921 9.83988ZM16.7368 9.61557L16.7512 9.71453L16.9337 9.68803L16.8119 9.54953L16.7368 9.61557ZM15.1112 8.02649L15.1757 7.95006L15.1756 7.94994L15.1112 8.02649ZM14.7678 7.74128L14.7043 7.81851L14.7678 7.74128ZM14.6236 7.62265L14.5946 7.52694L14.4157 7.58111L14.5601 7.69988L14.6236 7.62265ZM14.6238 7.62259L14.6527 7.7183L14.8317 7.66412L14.6873 7.54536L14.6238 7.62259ZM14.6235 7.62238L14.5944 7.52669L14.4157 7.58096L14.56 7.69961L14.6235 7.62238ZM14.8024 7.56807L14.8314 7.66376V7.66375L14.8024 7.56807ZM15.9885 7.20791L16.0176 7.30359L16.2177 7.24281L16.0447 7.12521L15.9885 7.20791ZM13.294 5.72346L13.3348 5.63214L13.3348 5.63214L13.294 5.72346ZM13.2937 5.7233L13.2526 5.81446L13.2529 5.81463L13.2937 5.7233ZM10.3985 4.64648L10.4276 4.5508L10.381 4.53663L10.3411 4.5646L10.3985 4.64648ZM8.73603 5.81199L8.67863 5.73011L8.51479 5.84497L8.705 5.90705L8.73603 5.81199ZM8.76249 5.82062L8.79352 5.72556L8.79352 5.72556L8.76249 5.82062ZM10.6066 6.52386L10.5668 6.61559L10.5669 6.61566L10.6066 6.52386ZM10.6252 6.53191L10.5856 6.62371L10.629 6.64245L10.671 6.62082L10.6252 6.53191ZM18.2776 11.9704L18.1786 11.9848L18.1787 11.9852L18.2776 11.9704ZM18.2688 11.9102L18.3678 11.8958L18.3554 11.8102H18.2688V11.9102ZM18.2813 11.9952L18.1824 12.01V12.01L18.2813 11.9952ZM18.3988 13.3232L18.2988 13.3231L18.2988 13.3233L18.3988 13.3232ZM18.3842 13.7461L18.2845 13.7392L18.2845 13.7393L18.3842 13.7461ZM18.2967 14.5072L18.1978 14.4921L18.1827 14.5913L18.282 14.6061L18.2967 14.5072ZM18.6076 14.5533L18.5929 14.6522L18.593 14.6522L18.6076 14.5533ZM19.8939 14.7434L19.8793 14.8424L19.8799 14.8424L19.8939 14.7434ZM20.0806 14.7699L20.0666 14.8689L20.16 14.8822L20.1786 14.7897L20.0806 14.7699ZM20.0757 12.676L20.174 12.6574L20.1739 12.6569L20.0757 12.676ZM20.0757 12.6757L19.9774 12.6941L19.9775 12.6949L20.0757 12.6757ZM19.0615 10.2082L19.1455 10.1539L19.1452 10.1534L19.0615 10.2082ZM16.1981 7.35333L16.255 7.27108L16.2153 7.24361L16.169 7.25765L16.1981 7.35333ZM15.0391 7.70545L15.01 7.60977L14.8322 7.66379L14.9752 7.78243L15.0391 7.70545ZM15.2393 7.8729L15.1749 7.94933L15.175 7.94945L15.2393 7.8729ZM16.9954 9.60759L16.9191 9.67225L16.9199 9.67312L16.9954 9.60759ZM17.0085 9.62262L17.084 9.55711L17.084 9.55709L17.0085 9.62262ZM17.1283 9.76082L17.1427 9.85978L17.3237 9.8335L17.2038 9.6953L17.1283 9.76082ZM17.1254 9.76124L17.111 9.66228L16.9327 9.68816L17.049 9.82577L17.1254 9.76124ZM17.1256 9.76147L17.14 9.86043L17.3182 9.83453L17.202 9.69694L17.1256 9.76147ZM16.9472 9.78739L16.9328 9.68843L16.9472 9.78739ZM15.3201 10.0239L15.3058 9.92489L15.1446 9.94832L15.2384 10.0815L15.3201 10.0239ZM16.2167 11.91L16.1195 11.9336L16.1381 12.01H16.2167V11.91ZM18.2685 11.91L18.3676 11.8959L18.3553 11.81H18.2685V11.91ZM18.2686 11.9102L18.1696 11.9242L18.1818 12.0102H18.2686V11.9102ZM16.0805 14.3935L16.0946 14.2945L16.0945 14.2945L16.0805 14.3935ZM18.1682 14.6907L18.1541 14.7897H18.1541L18.1682 14.6907ZM15.9106 14.3693L15.8965 14.4683L15.9106 14.3693ZM14.0784 14.1087L14.0925 14.0097L14.0085 13.9978L13.983 14.0788L14.0784 14.1087ZM13.8419 14.7376L13.7511 14.6956L13.6967 14.8135L13.8245 14.836L13.8419 14.7376ZM19.7895 15.785L19.7721 15.8835L19.8537 15.8979L19.883 15.8204L19.7895 15.785ZM20.0404 14.9672L20.1377 14.9903L20.1628 14.8843L20.055 14.8683L20.0404 14.9672ZM19.865 14.9413L19.8797 14.8424L19.8792 14.8423L19.865 14.9413ZM18.8851 14.797L18.8999 14.6981L18.8988 14.698L18.8851 14.797ZM18.885 14.797L18.8702 14.8959L18.8712 14.896L18.885 14.797ZM18.5766 14.7509L18.5914 14.652L18.5912 14.652L18.5766 14.7509ZM18.2046 14.6959L18.2192 14.597L18.2187 14.5969L18.2046 14.6959ZM20.2757 15.8706L20.2583 15.9691L20.2757 15.8706ZM19.9899 15.8203L19.8962 15.7854L19.8543 15.898L19.9725 15.9188L19.9899 15.8203ZM20.9831 15.7179L20.9256 15.6361L20.9831 15.7179ZM31.3961 8.39233L31.3385 8.31054L31.3961 8.39233ZM31.2507 7.8419L31.2334 7.94038L31.2507 7.8419ZM11.3335 4.33421L11.3161 4.43269V4.43269L11.3335 4.33421ZM10.6272 4.48613L10.6846 4.56801L10.6846 4.56801L10.6272 4.48613ZM10.606 4.50098L10.5486 4.41909L10.3817 4.53613L10.5764 4.59649L10.606 4.50098ZM13.3757 5.5409L13.3346 5.63206L13.335 5.63222L13.3757 5.5409ZM16.2732 7.16196L16.2153 7.24355L16.2153 7.24355L16.2732 7.16196ZM16.2829 7.16889L16.2251 7.25049L16.2263 7.2513L16.2829 7.16889ZM19.229 10.0989L19.3128 10.0443L19.3127 10.0442L19.229 10.0989ZM19.2293 10.0993L19.3133 10.045L19.3131 10.0447L19.2293 10.0993ZM20.2722 12.6388L20.1739 12.6571L20.174 12.6574L20.2722 12.6388ZM20.279 14.7978L20.1809 14.7782L20.1602 14.8821L20.2651 14.8968L20.279 14.7978ZM20.2831 14.7984L20.3808 14.8198L20.4039 14.7143L20.297 14.6993L20.2831 14.7984ZM20.26 14.9038L20.3577 14.9252V14.9252L20.26 14.9038ZM8.50027 6.05134C8.55754 6.06954 8.61424 6.0878 8.67049 6.10617L8.73257 5.91605C8.67581 5.89752 8.6186 5.87909 8.56086 5.86074L8.50027 6.05134ZM5.74297 8.03249L8.58797 6.03792L8.47316 5.87416L5.62816 7.86873L5.74297 8.03249ZM6.39125 8.10815C6.16117 8.01162 5.94894 7.93113 5.7165 7.85551L5.65463 8.0457C5.881 8.11935 6.08801 8.19781 6.31387 8.29258L6.39125 8.10815ZM6.94682 8.3531C6.74533 8.26094 6.56465 8.18053 6.39108 8.10808L6.31404 8.29265C6.4847 8.36388 6.66311 8.44326 6.86363 8.53498L6.94682 8.3531ZM8.11897 7.70748L6.85949 8.35511L6.95095 8.53297L8.21043 7.88534L8.11897 7.70748ZM10.348 6.5613L8.11897 7.70748L8.21043 7.88534L10.4395 6.73916L10.348 6.5613ZM8.67043 6.10615C9.23283 6.29016 9.75193 6.48576 10.3546 6.74224L10.4329 6.55822C9.82538 6.29966 9.30089 6.102 8.73262 5.91607L8.67043 6.10615ZM2.13438 10.512C2.44434 10.6187 2.70787 10.7294 2.92911 10.8484L3.02384 10.6723C2.79031 10.5467 2.51617 10.4319 2.19951 10.3229L2.13438 10.512ZM1.26133 11.1745L2.22435 10.4993L2.10954 10.3356L1.14652 11.0107L1.26133 11.1745ZM1.96264 11.4161C1.78004 11.2467 1.52918 11.1017 1.23731 10.9983L1.17054 11.1869C1.44243 11.2831 1.66801 11.4156 1.8266 11.5627L1.96264 11.4161ZM2.26745 11.9084C2.22907 11.7232 2.11261 11.5553 1.96264 11.4161L1.8266 11.5628C1.95818 11.6849 2.04448 11.8181 2.07161 11.949L2.26745 11.9084ZM3.95085 11.8287H2.16953V12.0287H3.95085V11.8287ZM3.78356 11.7083C3.81285 11.7838 3.8359 11.8635 3.85278 11.9483L4.04893 11.9092C4.02992 11.8138 4.00372 11.7228 3.97003 11.6359L3.78356 11.7083ZM3.51319 11.2851C3.64805 11.4407 3.73152 11.5815 3.78429 11.7101L3.96931 11.6341C3.90751 11.4836 3.81194 11.3244 3.66433 11.1541L3.51319 11.2851ZM2.92888 10.8483C3.19779 10.9938 3.38712 11.1418 3.51367 11.2856L3.66385 11.1536C3.51749 10.9872 3.3073 10.8256 3.02406 10.6724L2.92888 10.8483ZM1.69056 11.7094C1.82426 11.8334 1.87595 11.9453 1.88054 12.0254L2.08021 12.014C2.07155 11.8628 1.981 11.706 1.8266 11.5627L1.69056 11.7094ZM1.10179 11.3747C1.3546 11.464 1.5556 11.5841 1.69056 11.7094L1.8266 11.5628C1.66758 11.4152 1.44122 11.2824 1.16838 11.1861L1.10179 11.3747ZM0.969796 11.3337C1.01424 11.3464 1.05864 11.3602 1.10317 11.3752L1.167 11.1856C1.11959 11.1697 1.07219 11.1549 1.02464 11.1413L0.969796 11.3337ZM0.242072 11.8891L1.05462 11.3194L0.93981 11.1556L0.127261 11.7253L0.242072 11.8891ZM0.347015 12.2594C0.256475 12.2434 0.193963 12.176 0.172887 12.096C0.151894 12.0163 0.174504 11.9364 0.242072 11.8891L0.127261 11.7253C-0.0204176 11.8288 -0.0589966 12.0008 -0.0205207 12.1469C0.0178716 12.2927 0.135485 12.4252 0.312326 12.4563L0.347015 12.2594ZM1.60525 12.481L0.347015 12.2594L0.312326 12.4563L1.57056 12.6779L1.60525 12.481ZM1.88204 12.0015C1.8499 12.1756 1.73637 12.3482 1.52919 12.4985L1.64662 12.6604C1.88412 12.4881 2.035 12.2746 2.07871 12.0378L1.88204 12.0015ZM4.21549 12.5561C4.23238 12.5069 4.24621 12.4588 4.25659 12.4101L4.06099 12.3684C4.05258 12.4079 4.04111 12.4481 4.0263 12.4913L4.21549 12.5561ZM5.91494 12.6853L4.13538 12.4247L4.10641 12.6226L5.88597 12.8832L5.91494 12.6853ZM6.03286 12.7026L5.91494 12.6853L5.88597 12.8832L6.00389 12.9005L6.03286 12.7026ZM6.07582 12.9461L6.1133 12.833L5.92345 12.7701L5.88597 12.8832L6.07582 12.9461ZM6.07377 12.9522L6.0758 12.9461L5.88599 12.8831L5.88396 12.8892L6.07377 12.9522ZM5.93281 13.3044C5.98684 13.2006 6.03383 13.0845 6.07459 12.9497L5.88315 12.8918C5.84556 13.0161 5.80305 13.1205 5.75538 13.2121L5.93281 13.3044ZM5.89567 13.3729C5.90874 13.3502 5.92121 13.3272 5.9332 13.3037L5.75499 13.2129C5.74454 13.2334 5.73374 13.2533 5.72245 13.2729L5.89567 13.3729ZM7.58134 13.5334L5.8264 13.2244L5.79172 13.4213L7.54665 13.7304L7.58134 13.5334ZM7.77939 13.0547C7.67321 13.2697 7.58343 13.4282 7.48179 13.575L7.6462 13.6889C7.75532 13.5313 7.84996 13.3635 7.95871 13.1433L7.77939 13.0547ZM7.81142 12.9899L7.77939 13.0547L7.95871 13.1433L7.99074 13.0785L7.81142 12.9899ZM7.9376 12.9383L7.91507 12.9352L7.88709 13.1332L7.90962 13.1364L7.9376 12.9383ZM7.98644 12.9451L7.9373 12.9383L7.90993 13.1364L7.95907 13.1432L7.98644 12.9451ZM9.14425 13.1051L7.98644 12.9451L7.95907 13.1432L9.11687 13.3032L9.14425 13.1051ZM9.78293 13.1933C9.554 13.1612 9.34757 13.1328 9.1441 13.105L9.11702 13.3032C9.3204 13.331 9.52656 13.3593 9.75515 13.3914L9.78293 13.1933ZM9.91293 13.2113L9.78273 13.1933L9.75536 13.3914L9.88555 13.4094L9.91293 13.2113ZM9.89555 12.7816C9.87587 12.9375 9.84539 13.0995 9.80182 13.2878L9.99667 13.3329C10.0413 13.14 10.0732 12.9711 10.094 12.8066L9.89555 12.7816ZM9.92004 12.1311C9.92565 12.3846 9.91962 12.5818 9.89548 12.7822L10.094 12.8061C10.1197 12.5933 10.1257 12.3859 10.12 12.1266L9.92004 12.1311ZM4.17967 12.2289H10.02V12.0289H4.17967V12.2289ZM4.2623 12.3838C4.27843 12.304 4.28525 12.2199 4.27949 12.1229L4.07984 12.1348C4.08459 12.2147 4.07894 12.2815 4.06627 12.3442L4.2623 12.3838ZM4.2562 12.4119C4.25835 12.4026 4.26039 12.3933 4.2623 12.3838L4.06626 12.3442C4.06475 12.3517 4.06311 12.3592 4.06138 12.3667L4.2562 12.4119ZM4.06128 12.3671C4.06465 12.3511 4.06752 12.3353 4.0699 12.3196L3.87214 12.2897C3.87035 12.3016 3.86819 12.3135 3.86561 12.3257L4.06128 12.3671ZM3.99853 12.5627C4.02315 12.4953 4.04555 12.4344 4.06081 12.3692L3.86607 12.3236C3.85406 12.3749 3.83618 12.4242 3.81067 12.494L3.99853 12.5627ZM3.99875 12.5621L3.99878 12.562L3.81043 12.4947L3.8104 12.4948L3.99875 12.5621ZM3.99594 12.5691L3.99595 12.569L3.81319 12.4878L3.81318 12.4878L3.99594 12.5691ZM3.98574 12.5978L3.99853 12.5627L3.8106 12.4942L3.79781 12.5294L3.98574 12.5978ZM3.98305 12.6045L3.98423 12.6017L3.79932 12.5255L3.79815 12.5283L3.98305 12.6045ZM3.93407 12.7231L3.98302 12.6046L3.79817 12.5283L3.74921 12.6468L3.93407 12.7231ZM3.98302 12.6046L3.85613 12.586L3.82715 12.7839L3.95405 12.8025L3.98302 12.6046ZM5.76646 12.8657L3.98302 12.6046L3.95405 12.8025L5.73748 13.0636L5.76646 12.8657ZM5.75531 13.2123C5.78726 13.1495 5.81614 13.0807 5.84594 12.9989L5.65801 12.9305C5.63006 13.0072 5.6043 13.0681 5.57706 13.1216L5.75531 13.2123ZM5.68045 13.3402C5.70674 13.3001 5.7315 13.258 5.75486 13.2131L5.57751 13.1207C5.55723 13.1596 5.5358 13.196 5.5131 13.2307L5.68045 13.3402ZM1.83046 12.7237L5.57943 13.384L5.61412 13.187L1.86515 12.5267L1.83046 12.7237ZM2.064 12.1028C2.01962 12.2674 1.92375 12.4184 1.77981 12.5519L1.9158 12.6986C2.08276 12.5437 2.20146 12.3613 2.2571 12.1549L2.064 12.1028ZM3.97702 12.0289H2.16055V12.2289H3.97702V12.0289ZM4.0699 12.3196C4.07926 12.2575 4.08127 12.1949 4.07683 12.1227L3.87721 12.135C3.88095 12.1959 3.87902 12.2441 3.87214 12.2897L4.0699 12.3196ZM5.28774 10.3164C5.02391 10.1076 4.77774 9.94579 4.49465 9.802L4.40408 9.98032C4.67365 10.1172 4.90868 10.2715 5.16362 10.4733L5.28774 10.3164ZM6.92164 9.83423L5.19966 10.2983L5.2517 10.4914L6.97368 10.0273L6.92164 9.83423ZM7.00201 9.84684L7.00196 9.84681L6.89337 10.0148L6.89342 10.0148L7.00201 9.84684ZM7.01893 9.86047L7.01569 9.85747L6.87975 10.0042L6.88299 10.0072L7.01893 9.86047ZM7.39177 10.2238C7.28112 10.1084 7.15741 9.98819 7.01876 9.86031L6.88317 10.0073C7.01957 10.1331 7.14022 10.2504 7.24739 10.3622L7.39177 10.2238ZM7.8652 10.8052C7.73663 10.6081 7.58109 10.4207 7.39166 10.2237L7.24749 10.3623C7.43097 10.5531 7.57783 10.7308 7.6977 10.9145L7.8652 10.8052ZM7.9223 10.8958C7.90394 10.8655 7.88487 10.8352 7.86508 10.805L7.69782 10.9147C7.71631 10.9429 7.73408 10.9711 7.75115 10.9993L7.9223 10.8958ZM8.25543 11.697C8.17645 11.4052 8.07564 11.1495 7.9223 10.8958L7.75115 10.9993C7.89292 11.2338 7.9872 11.4715 8.06238 11.7493L8.25543 11.697ZM8.30739 11.9066C8.29106 11.8342 8.2738 11.7644 8.25538 11.6969L8.06242 11.7495C8.07999 11.8139 8.09655 11.8808 8.11229 11.9506L8.30739 11.9066ZM9.98367 11.8286H8.20984V12.0286H9.98367V11.8286ZM9.13761 10.4188C9.52676 10.9296 9.73952 11.4586 9.88782 11.9571L10.0795 11.9001C9.92721 11.3881 9.7056 10.8343 9.2967 10.2976L9.13761 10.4188ZM8.90268 10.1555C8.98807 10.2428 9.06675 10.3311 9.13935 10.421L9.29496 10.2954C9.21819 10.2003 9.13528 10.1073 9.04566 10.0156L8.90268 10.1555ZM8.84582 10.1021C8.8655 10.1199 8.88501 10.1383 8.90436 10.1572L9.04397 10.014C9.02295 9.99346 9.00168 9.97345 8.98018 9.95395L8.84582 10.1021ZM8.84232 10.0989L8.84581 10.1021L8.98019 9.95396L8.9767 9.95079L8.84232 10.0989ZM8.83866 9.95428L8.83858 9.95436L8.98043 10.0953L8.98051 10.0953L8.83866 9.95428ZM8.52046 9.80762C8.63507 9.90236 8.74129 9.99822 8.83899 10.0956L8.98018 9.95395C8.87764 9.85175 8.76677 9.75174 8.64788 9.65346L8.52046 9.80762ZM6.81764 8.7339C7.54053 9.11334 8.09361 9.45826 8.52083 9.80793L8.6475 9.65316C8.20555 9.29144 7.63931 8.93931 6.91059 8.55682L6.81764 8.7339ZM6.23321 8.47563C6.41079 8.55006 6.60059 8.63492 6.82257 8.73632L6.90567 8.5544C6.68309 8.45273 6.49104 8.36684 6.31053 8.29118L6.23321 8.47563ZM5.44923 8.19135C5.72765 8.27673 5.97101 8.3663 6.23339 8.4757L6.31036 8.2911C6.04267 8.17949 5.79317 8.08763 5.50786 8.00014L5.44923 8.19135ZM3.53432 9.58093L5.53595 8.17763L5.42114 8.01387L3.41951 9.41717L3.53432 9.58093ZM4.49478 9.80207C4.21633 9.66011 3.90449 9.53672 3.50866 9.40422L3.44517 9.59388C3.83592 9.72468 4.1376 9.84446 4.40394 9.98025L4.49478 9.80207ZM2.33508 10.3697C2.60489 10.4674 2.8362 10.5701 3.03221 10.6768L3.12784 10.5011C2.92135 10.3887 2.68053 10.282 2.40312 10.1817L2.33508 10.3697ZM5.15274 10.4843L2.38014 10.1763L2.35806 10.3751L5.13066 10.6831L5.15274 10.4843ZM5.16063 10.4855L5.16058 10.4855L5.12281 10.6819L5.12286 10.6819L5.16063 10.4855ZM5.24538 10.5388L5.20446 10.5058L5.07904 10.6616L5.11996 10.6945L5.24538 10.5388ZM5.20438 10.5058L5.154 10.5208L5.21134 10.7125L5.26172 10.6974L5.20438 10.5058ZM6.82505 10.0207L5.20437 10.5058L5.26172 10.6974L6.88239 10.2123L6.82505 10.0207ZM7.24869 10.3636C7.15084 10.2617 7.04243 10.156 6.922 10.0435L6.78545 10.1896C6.90406 10.3004 7.00977 10.4036 7.10449 10.5021L7.24869 10.3636ZM7.69652 10.9127C7.58026 10.7357 7.43507 10.5581 7.2488 10.3637L7.10438 10.502C7.28455 10.6901 7.42142 10.8582 7.52936 11.0225L7.69652 10.9127ZM7.72209 10.9526C7.71375 10.9393 7.70527 10.9261 7.69666 10.9129L7.52922 11.0223C7.53722 11.0345 7.54509 11.0468 7.55281 11.0591L7.72209 10.9526ZM8.06214 11.7484C7.97852 11.442 7.87196 11.1907 7.72209 10.9526L7.55281 11.0591C7.69068 11.2782 7.78997 11.5107 7.86919 11.8011L8.06214 11.7484ZM8.10184 11.9058C8.08915 11.8519 8.07599 11.7996 8.06219 11.7486L7.86914 11.8009C7.88231 11.8495 7.89493 11.8996 7.90716 11.9516L8.10184 11.9058ZM4.1555 12.0287H8.0045V11.8287H4.1555V12.0287ZM3.96997 11.6358C4.01401 11.7434 4.04055 11.8461 4.05683 11.945L4.25417 11.9125C4.23577 11.8008 4.2055 11.6833 4.15509 11.56L3.96997 11.6358ZM3.49737 10.9887C3.71801 11.1762 3.87355 11.3881 3.96934 11.6342L4.15572 11.5616C4.04662 11.2813 3.87 11.0429 3.62691 10.8363L3.49737 10.9887ZM3.03242 10.6769C3.21114 10.7737 3.36581 10.8768 3.49737 10.9887L3.62691 10.8363C3.48275 10.7137 3.31603 10.603 3.12763 10.501L3.03242 10.6769ZM4.40149 9.97899C4.10239 9.82675 3.76004 9.69528 3.30342 9.54719L3.24172 9.73743C3.69393 9.8841 4.02508 10.0118 4.31076 10.1572L4.40149 9.97899ZM3.24104 9.73779C3.69416 9.88539 4.02553 10.0126 4.31091 10.1573L4.40134 9.97892C4.10263 9.82748 3.76014 9.69654 3.30298 9.54762L3.24104 9.73779ZM3.21514 9.56045L3.21458 9.56084L3.32944 9.72457L3.33 9.72418L3.21514 9.56045ZM13.6547 14.603L7.79803 13.5716L7.76334 13.7686L13.62 14.8L13.6547 14.603ZM13.7819 14.0496C13.7073 14.2831 13.6327 14.4795 13.5471 14.6584L13.7275 14.7447C13.8182 14.5552 13.896 14.3497 13.9724 14.1105L13.7819 14.0496ZM9.94473 13.6201L13.863 14.179L13.8913 13.981L9.97298 13.4221L9.94473 13.6201ZM9.72875 13.5896L9.94488 13.6201L9.97283 13.4221L9.75669 13.3916L9.72875 13.5896ZM9.08709 13.501L9.72903 13.5897L9.75641 13.3915L9.11447 13.3028L9.08709 13.501ZM8.93067 13.4796L9.08726 13.501L9.1143 13.3028L8.95771 13.2814L8.93067 13.4796ZM8.93011 13.4795L8.93057 13.4796L8.95781 13.2815L8.95735 13.2814L8.93011 13.4795ZM8.92919 13.4794L8.93011 13.4795L8.95735 13.2814L8.95644 13.2813L8.92919 13.4794ZM8.9289 13.4794L8.92936 13.4794L8.95627 13.2812L8.95581 13.2812L8.9289 13.4794ZM8.92853 13.4793L8.92884 13.4794L8.95586 13.2812L8.95555 13.2811L8.92853 13.4793ZM8.9281 13.4793L8.92846 13.4793L8.95562 13.2812L8.95527 13.2811L8.9281 13.4793ZM8.92764 13.4792L8.92812 13.4793L8.95525 13.2811L8.95477 13.281L8.92764 13.4792ZM8.0026 13.3515C8.35594 13.4012 8.64444 13.4406 8.92769 13.4792L8.95472 13.281C8.67147 13.2424 8.38335 13.2031 8.03047 13.1534L8.0026 13.3515ZM7.86441 13.7248C7.94879 13.5955 8.02473 13.4592 8.10593 13.2973L7.92715 13.2076C7.8482 13.365 7.776 13.4944 7.69695 13.6154L7.86441 13.7248ZM13.9558 13.788L10.1124 13.2393L10.0841 13.4373L13.9275 13.986L13.9558 13.788ZM13.8496 13.8475L13.8475 13.8534L14.0358 13.9206L14.0379 13.9147L13.8496 13.8475ZM14.0158 13.203C13.9874 13.4061 13.933 13.61 13.8494 13.848L14.0381 13.9143C14.1245 13.6681 14.1831 13.4509 14.2139 13.2307L14.0158 13.203ZM14.0342 13.01C14.0307 13.0741 14.0247 13.1382 14.0158 13.2033L14.2139 13.2304C14.2236 13.1599 14.2302 13.0904 14.2339 13.0209L14.0342 13.01ZM13.9661 12.1448C14.0216 12.4893 14.0483 12.753 14.0342 13.01L14.2339 13.0209C14.2491 12.7425 14.2198 12.4621 14.1635 12.1129L13.9661 12.1448ZM10.2217 12.2289H14.0648V12.0289H10.2217V12.2289ZM10.2924 12.8314C10.3214 12.6023 10.3295 12.3828 10.3217 12.1258L10.1218 12.1319C10.1293 12.3805 10.1214 12.5894 10.094 12.8064L10.2924 12.8314ZM10.1956 13.361C10.241 13.1661 10.2724 12.9976 10.2925 12.8309L10.0939 12.8069C10.0749 12.9646 10.045 13.1258 10.0008 13.3156L10.1956 13.361ZM9.0453 10.0153C9.52817 10.4867 9.89107 11.2211 10.0961 11.9554L10.2887 11.9017C10.0782 11.1475 9.70181 10.3767 9.18502 9.87215L9.0453 10.0153ZM8.64854 9.65402C8.7931 9.7724 8.92438 9.89182 9.04371 10.0137L9.1866 9.87373C9.06166 9.74616 8.9249 9.62183 8.77525 9.49928L8.64854 9.65402ZM7.07818 8.6447C7.69606 8.9731 8.22379 9.30289 8.64818 9.65373L8.77561 9.49958C8.33683 9.13684 7.79618 8.79982 7.17205 8.4681L7.07818 8.6447ZM8.16445 7.90956L7.07939 8.46747L7.17084 8.64533L8.25591 8.08743L8.16445 7.90956ZM8.27417 7.91926L8.25712 7.91019L8.16324 8.08679L8.1803 8.09586L8.27417 7.91926ZM9.32541 8.5242C9.01765 8.32725 8.7 8.14707 8.27441 7.91939L8.18007 8.09574C8.60358 8.32231 8.9161 8.49971 9.2176 8.69266L9.32541 8.5242ZM9.92527 8.93655C9.7124 8.78188 9.52123 8.64989 9.32552 8.52427L9.21749 8.69258C9.40927 8.81569 9.59721 8.94541 9.80771 9.09835L9.92527 8.93655ZM9.88972 9.11483L9.89441 9.11347L9.83858 8.92142L9.83389 8.92278L9.88972 9.11483ZM10.0886 9.05704L9.91966 8.93724L9.80395 9.10038L9.97285 9.22017L10.0886 9.05704ZM10.1079 9.07075L10.0886 9.05709L9.97279 9.22013L9.99202 9.23379L10.1079 9.07075ZM10.1293 9.0866L10.1095 9.07193L9.9904 9.23261L10.0102 9.24729L10.1293 9.0866ZM10.0419 9.0709L10.0413 9.07106L10.0981 9.26283L10.0987 9.26267L10.0419 9.0709ZM11.478 10.4285C11.0194 9.79479 10.712 9.50246 10.1284 9.08542L10.0121 9.24814C10.5789 9.65316 10.8706 9.93034 11.316 10.5458L11.478 10.4285ZM11.5076 10.4769L11.4826 10.4354L11.3114 10.5388L11.3364 10.5803L11.5076 10.4769ZM11.9773 11.4235C11.8735 11.1254 11.7296 10.8488 11.5079 10.4774L11.3362 10.5799C11.5554 10.9471 11.6912 11.2102 11.7884 11.4893L11.9773 11.4235ZM12.109 11.9077C12.071 11.7292 12.0285 11.5723 11.9774 11.4239L11.7883 11.4889C11.8363 11.6285 11.8768 11.7774 11.9133 11.9493L12.109 11.9077ZM10.1924 12.0285H12.0112V11.8285H10.1924V12.0285ZM9.32565 8.52436C9.54051 8.66186 9.75089 8.80776 9.99093 8.98446L10.1095 8.8234C9.86672 8.64468 9.65272 8.49622 9.43346 8.3559L9.32565 8.52436ZM8.37916 7.97536C8.75616 8.17782 9.04532 8.34441 9.32554 8.52428L9.43358 8.35597C9.14759 8.1724 8.85361 8.00314 8.47378 7.79916L8.37916 7.97536ZM10.5858 6.66463L8.38074 7.79833L8.47219 7.9762L10.6772 6.8425L10.5858 6.66463ZM11.968 7.2996C11.5954 7.09497 11.1905 6.89858 10.673 6.66258L10.59 6.84455C11.1055 7.07964 11.5053 7.27369 11.8717 7.4749L11.968 7.2996ZM13.1234 8.02427C12.7078 7.73576 12.3527 7.51182 11.9681 7.29969L11.8715 7.47481C12.2489 7.68299 12.5981 7.90311 13.0094 8.18857L13.1234 8.02427ZM12.2672 8.43001C12.5242 8.35858 12.7933 8.28462 13.0927 8.20289L13.0401 8.00994C12.7404 8.09173 12.471 8.16578 12.2137 8.23731L12.2672 8.43001ZM11.8777 8.537L12.2669 8.43009L12.214 8.23723L11.8247 8.34415L11.8777 8.537ZM11.8776 8.53703L11.8791 8.53661L11.8233 8.34454L11.8219 8.34495L11.8776 8.53703ZM11.6269 8.60991L11.8777 8.53701L11.8218 8.34496L11.5711 8.41786L11.6269 8.60991ZM10.137 9.04281C10.7156 8.87192 11.1765 8.73788 11.6263 8.61008L11.5716 8.41769C11.121 8.54574 10.6594 8.67998 10.0803 8.851L10.137 9.04281ZM9.99096 8.98449L10.0494 9.02746L10.1679 8.86634L10.1095 8.82337L9.99096 8.98449ZM10.2544 9.17633C10.7751 9.55927 11.0623 9.85112 11.4456 10.3829L11.6078 10.2659C11.2126 9.71769 10.9108 9.41081 10.3728 9.0152L10.2544 9.17633ZM11.6264 8.61004L10.2857 8.99974L10.3415 9.19179L11.6823 8.80209L11.6264 8.61004ZM12.2643 8.43082C12.0469 8.49125 11.8382 8.54988 11.627 8.60987L11.6817 8.80226C11.8925 8.74237 12.1008 8.68384 12.3179 8.62352L12.2643 8.43082ZM13.2478 8.16068L12.2646 8.43074L12.3176 8.6236L13.3008 8.35353L13.2478 8.16068ZM13.5359 8.34349C13.4685 8.28801 13.4023 8.23349 13.3382 8.18019L13.2104 8.33402C13.2749 8.38763 13.3414 8.44241 13.4087 8.49786L13.5359 8.34349ZM13.5384 8.34555L13.5359 8.34354L13.4086 8.49781L13.4111 8.49982L13.5384 8.34555ZM13.5374 8.34473L13.5372 8.3446L13.4123 8.50077L13.4124 8.50091L13.5374 8.34473ZM13.8041 8.5654C13.7152 8.49123 13.6259 8.41763 13.5385 8.34564L13.4113 8.50001C13.4988 8.57207 13.5876 8.64526 13.6759 8.71894L13.8041 8.5654ZM14.6223 9.3138C14.3833 9.06599 14.1099 8.82278 13.8044 8.56566L13.6756 8.71868C13.979 8.9741 14.2464 9.21216 14.4783 9.45264L14.6223 9.3138ZM14.9906 9.73715C14.8867 9.60543 14.7579 9.45687 14.6228 9.31441L14.4777 9.45203C14.6091 9.59052 14.7338 9.7345 14.8335 9.86098L14.9906 9.73715ZM15.0469 9.81163C15.0286 9.78688 15.01 9.76233 14.9912 9.73794L14.8329 9.86018C14.8509 9.8835 14.8686 9.90688 14.8859 9.93036L15.0469 9.81163ZM11.5398 10.4235L14.9795 9.97014L14.9533 9.77185L11.5136 10.2252L11.5398 10.4235ZM11.9771 11.4228C12.0333 11.5843 12.0782 11.7529 12.1178 11.9486L12.3139 11.9089C12.2727 11.7061 12.2257 11.5285 12.1659 11.357L11.9771 11.4228ZM11.5583 10.5617C11.7483 10.8825 11.878 11.1352 11.9769 11.4225L12.166 11.3574C12.0609 11.0519 11.9235 10.7859 11.7304 10.4598L11.5583 10.5617ZM15.0827 9.95667L11.6313 10.4116L11.6574 10.6099L15.1088 10.155L15.0827 9.95667ZM15.1793 10.0009L15.1792 10.0007L15.0123 10.1109L15.0124 10.1111L15.1793 10.0009ZM15.0828 9.95681L15.0815 9.957L15.1102 10.1549L15.1115 10.1547L15.0828 9.95681ZM16.1376 12.0102C15.9506 11.2214 15.7488 10.8022 15.1787 9.99794L15.0155 10.1136C15.5742 10.9017 15.7632 11.2977 15.943 12.0563L16.1376 12.0102ZM16.1446 12.0396L16.1376 12.0102L15.943 12.0563L15.95 12.0858L16.1446 12.0396ZM16.1557 12.0873L16.1447 12.04L15.9499 12.0854L15.9609 12.1327L16.1557 12.0873ZM16.0585 12.01H16.0583V12.21H16.0585V12.01ZM16.1557 12.0866L16.1557 12.0864L15.9613 12.1335L15.9613 12.1337L16.1557 12.0866ZM16.1376 12.0102H16.0585V12.2102H16.1376V12.0102ZM18.0956 12.0102H16.1376V12.2102H18.0956V12.0102ZM18.2988 13.3242C18.2984 12.9638 18.2641 12.5897 18.1946 12.0962L17.9965 12.1241C18.0654 12.6131 18.0984 12.977 18.0988 13.3244L18.2988 13.3242ZM18.2843 13.7417C18.294 13.6 18.2988 13.4625 18.2988 13.3244L18.0988 13.3243C18.0988 13.4577 18.0941 13.5907 18.0848 13.7281L18.2843 13.7417ZM18.1973 14.4932C18.2389 14.2148 18.2682 13.9733 18.2843 13.7418L18.0848 13.7279C18.0692 13.9523 18.0406 14.1882 17.9995 14.4637L18.1973 14.4932ZM16.0945 14.2945L18.0843 14.5774L18.1124 14.3794L16.1227 14.0965L16.0945 14.2945ZM15.9196 14.2696L16.0945 14.2945L16.1227 14.0965L15.9478 14.0716L15.9196 14.2696ZM14.1295 14.0147L15.9196 14.2696L15.9478 14.0716L14.1577 13.8167L14.1295 14.0147ZM14.214 13.2299C14.1864 13.4317 14.1337 13.641 14.0492 13.8828L14.238 13.9487C14.3259 13.6973 14.3824 13.4748 14.4122 13.257L14.214 13.2299ZM14.2313 13.0706C14.2271 13.1241 14.2214 13.177 14.214 13.2296L14.4121 13.2573C14.42 13.2007 14.4262 13.1438 14.4307 13.0861L14.2313 13.0706ZM14.1502 12.0289C14.2277 12.4478 14.2548 12.7688 14.2313 13.0706L14.4307 13.0861C14.4561 12.7605 14.426 12.4208 14.3469 11.9925L14.1502 12.0289ZM14.1449 12.0003L14.1502 12.0289L14.3469 11.9925L14.3416 11.9639L14.1449 12.0003ZM14.1357 11.9453L14.1446 11.9987L14.3419 11.9656L14.3329 11.9122L14.1357 11.9453ZM14.1497 12.0287H14.2343V11.8287H14.1497V12.0287ZM12.2158 12.0287H14.1497V11.8287H12.2158V12.0287ZM10.7068 6.45829L10.6672 6.44039L10.5848 6.6226L10.6244 6.6405L10.7068 6.45829ZM10.7159 6.46296L10.7147 6.46228L10.6165 6.63651L10.6177 6.63719L10.7159 6.46296ZM10.708 6.45896L10.7068 6.45843L10.6268 6.64172L10.628 6.64224L10.708 6.45896ZM10.7152 6.46212L10.708 6.45896L10.628 6.64224L10.6352 6.6454L10.7152 6.46212ZM10.6288 6.6425L10.634 6.64485L10.7165 6.46266L10.7113 6.46031L10.6288 6.6425ZM10.6244 6.6405L10.6288 6.64251L10.7112 6.4603L10.7068 6.45829L10.6244 6.6405ZM10.7081 6.45882L10.7054 6.45767L10.6258 6.64112L10.6284 6.64228L10.7081 6.45882ZM10.7097 6.45952L10.7081 6.45883L10.6284 6.64226L10.63 6.64295L10.7097 6.45952ZM10.7617 6.59064L10.7617 6.59063L10.5779 6.51184L10.5779 6.51186L10.7617 6.59064ZM10.7193 6.46392L10.7112 6.46023L10.6284 6.64226L10.6365 6.64595L10.7193 6.46392ZM10.901 6.54325L10.7179 6.4633L10.6379 6.64657L10.8209 6.72653L10.901 6.54325ZM10.8839 6.73555L10.9067 6.72382L10.8152 6.54596L10.7924 6.55768L10.8839 6.73555ZM13.4049 7.97799L10.8872 6.55949L10.789 6.73374L13.3067 8.15224L13.4049 7.97799ZM13.4138 7.98365L13.4137 7.98358L13.2979 8.14666L13.298 8.14672L13.4138 7.98365ZM13.398 7.9745L13.3979 7.97443L13.3139 8.15594L13.314 8.156L13.398 7.9745ZM13.4205 7.98841L13.4144 7.98403L13.2977 8.14647L13.3038 8.15084L13.4205 7.98841ZM13.5868 8.10606L13.4199 7.98799L13.3044 8.15126L13.4712 8.26933L13.5868 8.10606ZM13.5374 8.28905L13.5553 8.28418L13.5027 8.09121L13.4849 8.09607L13.5374 8.28905ZM13.9472 8.42433C13.8273 8.32331 13.703 8.22061 13.5746 8.11525L13.4477 8.26988C13.5759 8.375 13.6994 8.47706 13.8183 8.57725L13.9472 8.42433ZM14.4845 8.8966C14.3205 8.74102 14.1336 8.58021 13.9469 8.42407L13.8186 8.5775C14.0043 8.7328 14.1874 8.89046 14.3468 9.04169L14.4845 8.8966ZM14.3473 9.04212L14.3479 9.04271L14.4834 8.89557L14.4827 8.89497L14.3473 9.04212ZM14.4878 9.03706L14.4886 9.03621L14.3413 8.90088L14.3406 8.90173L14.4878 9.03706ZM14.4838 8.89755L14.4826 8.8964L14.3459 9.04239L14.3471 9.04355L14.4838 8.89755ZM14.3437 8.90083L14.343 8.90166L14.4879 9.03944L14.4887 9.0386L14.3437 8.90083ZM14.3468 9.04167L14.3474 9.04224L14.4851 8.89719L14.4845 8.89662L14.3468 9.04167ZM14.7733 9.18249C14.678 9.08171 14.5793 8.98355 14.4832 8.89545L14.348 9.04284C14.44 9.12722 14.5354 9.22198 14.6281 9.31995L14.7733 9.18249ZM15.1484 9.61426C15.0335 9.46568 14.908 9.32256 14.7728 9.18192L14.6286 9.32052C14.7597 9.45689 14.8803 9.59458 14.9901 9.7366L15.1484 9.61426ZM15.2741 9.78261C15.2374 9.73011 15.1948 9.67312 15.1478 9.61352L14.9907 9.73734C15.0359 9.79459 15.0761 9.84845 15.1101 9.89715L15.2741 9.78261ZM16.7224 9.51661L15.1777 9.74092L15.2065 9.93884L16.7512 9.71453L16.7224 9.51661ZM15.0468 8.10292C15.6977 8.65218 16.1104 9.05473 16.6617 9.68161L16.8119 9.54953C16.2538 8.91494 15.834 8.50549 15.1757 7.95006L15.0468 8.10292ZM14.7043 7.81851C14.8259 7.91854 14.9396 8.01284 15.0469 8.10305L15.1756 7.94994C15.0676 7.85916 14.9533 7.7644 14.8313 7.66405L14.7043 7.81851ZM14.5601 7.69988L14.7043 7.81851L14.8313 7.66405L14.6871 7.54542L14.5601 7.69988ZM14.5948 7.52688L14.5946 7.52694L14.6526 7.71836L14.6527 7.7183L14.5948 7.52688ZM14.56 7.69961L14.5602 7.69983L14.6873 7.54536L14.687 7.54514L14.56 7.69961ZM14.7733 7.47238L14.5944 7.52669L14.6525 7.71806L14.8314 7.66376L14.7733 7.47238ZM15.9595 7.11222L14.7733 7.47238L14.8314 7.66375L16.0176 7.30359L15.9595 7.11222ZM13.2533 5.81478C14.2746 6.27054 15.2527 6.82863 15.9323 7.29061L16.0447 7.12521C15.3552 6.65646 14.3667 6.09263 13.3348 5.63214L13.2533 5.81478ZM13.2529 5.81463L13.2533 5.81479L13.3348 5.63214L13.3344 5.63197L13.2529 5.81463ZM10.3694 4.74215C11.4741 5.07801 12.4165 5.43741 13.2526 5.81446L13.3348 5.63214C12.4906 5.25143 11.5402 4.88905 10.4276 4.5508L10.3694 4.74215ZM8.79344 5.89387L10.4559 4.72836L10.3411 4.5646L8.67863 5.73011L8.79344 5.89387ZM8.79352 5.72556L8.76706 5.71693L8.705 5.90705L8.73146 5.91569L8.79352 5.72556ZM10.6464 6.43213C9.9826 6.14403 9.41385 5.92809 8.79352 5.72556L8.73145 5.91569C9.34546 6.11615 9.90836 6.32983 10.5668 6.61559L10.6464 6.43213ZM10.6649 6.44011L10.6462 6.43206L10.5669 6.61566L10.5856 6.62371L10.6649 6.44011ZM10.5802 6.44258L10.5794 6.443L10.671 6.62082L10.6718 6.6204L10.5802 6.44258ZM18.3765 11.9561L18.3678 11.8958L18.1699 11.9245L18.1786 11.9848L18.3765 11.9561ZM18.3802 11.9804L18.3765 11.9557L18.1787 11.9852L18.1824 12.01L18.3802 11.9804ZM18.4988 13.3232C18.4989 12.9151 18.4584 12.5046 18.3802 11.9804L18.1824 12.01C18.2599 12.5292 18.2989 12.9289 18.2988 13.3231L18.4988 13.3232ZM18.484 13.753C18.494 13.6079 18.499 13.4666 18.4988 13.323L18.2988 13.3233C18.299 13.462 18.2942 13.5985 18.2845 13.7392L18.484 13.753ZM18.3956 14.5222C18.4384 14.2411 18.4678 13.9915 18.484 13.7528L18.2845 13.7393C18.2687 13.971 18.24 14.2148 18.1978 14.4921L18.3956 14.5222ZM18.6223 14.4544L18.3114 14.4082L18.282 14.6061L18.5929 14.6522L18.6223 14.4544ZM19.9086 14.6445L18.6222 14.4544L18.593 14.6522L19.8793 14.8424L19.9086 14.6445ZM20.0947 14.6709L19.908 14.6444L19.8799 14.8424L20.0666 14.8689L20.0947 14.6709ZM19.9775 12.6947C20.108 13.3817 20.1213 14.0628 19.9826 14.7502L20.1786 14.7897C20.3231 14.0738 20.3087 13.3664 20.174 12.6574L19.9775 12.6947ZM19.9775 12.6949L19.9776 12.6952L20.1739 12.6569L20.1738 12.6566L19.9775 12.6949ZM18.9775 10.2625C19.4814 11.0417 19.8214 11.8585 19.9774 12.6941L20.174 12.6574C20.0126 11.7931 19.6617 10.9522 19.1455 10.1539L18.9775 10.2625ZM16.1412 7.43558C17.2467 8.20001 18.2723 9.18436 18.9778 10.2629L19.1452 10.1534C18.4228 9.04904 17.3771 8.04705 16.255 7.27108L16.1412 7.43558ZM15.0681 7.80113L16.2272 7.44901L16.169 7.25765L15.01 7.60977L15.0681 7.80113ZM15.3038 7.79647C15.2392 7.74194 15.1723 7.68606 15.1029 7.62847L14.9752 7.78243C15.0443 7.83969 15.1107 7.89521 15.1749 7.94933L15.3038 7.79647ZM17.0717 9.54293C16.465 8.82716 16.0177 8.39648 15.3037 7.79635L15.175 7.94945C15.8819 8.54352 16.3208 8.96635 16.9191 9.67224L17.0717 9.54293ZM17.084 9.55709L17.0709 9.54205L16.9199 9.67312L16.9329 9.68816L17.084 9.55709ZM17.2038 9.6953L17.084 9.55711L16.9329 9.68814L17.0527 9.82633L17.2038 9.6953ZM17.1398 9.8602L17.1427 9.85978L17.1139 9.66185L17.111 9.66228L17.1398 9.8602ZM17.202 9.69694L17.2018 9.69671L17.049 9.82577L17.0492 9.826L17.202 9.69694ZM16.9616 9.88635L17.14 9.86043L17.1112 9.66251L16.9328 9.68843L16.9616 9.88635ZM15.3345 10.1228L16.9616 9.88635L16.9328 9.68843L15.3058 9.92489L15.3345 10.1228ZM16.3138 11.8863C16.1252 11.1113 15.8857 10.6529 15.4019 9.96626L15.2384 10.0815C15.7118 10.7534 15.9382 11.1891 16.1195 11.9336L16.3138 11.8863ZM18.1824 11.81H16.2167V12.01H18.1824V11.81ZM18.2685 11.81H18.1824V12.01H18.2685V11.81ZM18.3676 11.8961L18.3676 11.8959L18.1695 11.924L18.1696 11.9242L18.3676 11.8961ZM18.2688 11.8102H18.2686V12.0102H18.2688V11.8102ZM16.0664 14.4925L18.1541 14.7897L18.1823 14.5917L16.0946 14.2945L16.0664 14.4925ZM15.8965 14.4683L16.0664 14.4925L16.0945 14.2945L15.9246 14.2703L15.8965 14.4683ZM14.0644 14.2078L15.8965 14.4683L15.9246 14.2703L14.0925 14.0097L14.0644 14.2078ZM13.9327 14.7795C14.0225 14.5849 14.0992 14.3762 14.1738 14.1387L13.983 14.0788C13.9101 14.311 13.8363 14.5111 13.7511 14.6956L13.9327 14.7795ZM19.8068 15.6865L13.8592 14.6391L13.8245 14.836L19.7721 15.8835L19.8068 15.6865ZM19.9431 14.9442C19.8789 15.2153 19.7965 15.4838 19.6959 15.7496L19.883 15.8204C19.9865 15.5467 20.0715 15.2699 20.1377 14.9903L19.9431 14.9442ZM19.8504 15.0403L20.0258 15.0662L20.055 14.8683L19.8797 14.8424L19.8504 15.0403ZM18.8702 14.8959C19.1923 14.9442 19.4876 14.9884 19.8509 15.0403L19.8792 14.8423C19.5167 14.7905 19.222 14.7464 18.8999 14.6981L18.8702 14.8959ZM18.8712 14.896L18.8713 14.8961L18.8988 14.698L18.8987 14.698L18.8712 14.896ZM18.5618 14.8498L18.8702 14.8959L18.8997 14.6981L18.5914 14.652L18.5618 14.8498ZM18.19 14.7948L18.562 14.8498L18.5912 14.652L18.2192 14.597L18.19 14.7948ZM18.1541 14.7897L18.1905 14.7949L18.2187 14.5969L18.1823 14.5917L18.1541 14.7897ZM20.293 15.7722L20.0072 15.7218L19.9725 15.9188L20.2583 15.9691L20.293 15.7722ZM20.9256 15.6361C20.7456 15.7627 20.5196 15.8121 20.293 15.7722L20.2583 15.9691C20.5354 16.0179 20.8156 15.958 21.0407 15.7997L20.9256 15.6361ZM31.3385 8.31054L20.9256 15.6361L21.0407 15.7997L31.4536 8.47412L31.3385 8.31054ZM31.2334 7.94038C31.3238 7.95632 31.3863 8.02364 31.4075 8.10362C31.4285 8.18328 31.406 8.2631 31.3385 8.31054L31.4536 8.47412C31.601 8.37043 31.6394 8.19856 31.6008 8.05255C31.5623 7.90686 31.4448 7.77453 31.2681 7.74341L31.2334 7.94038ZM11.3161 4.43269L31.2334 7.94038L31.2681 7.74341L11.3508 4.23572L11.3161 4.43269ZM10.6846 4.56801C10.8644 4.44196 11.09 4.39287 11.3161 4.43269L11.3508 4.23572C11.0743 4.18704 10.7946 4.24664 10.5698 4.40424L10.6846 4.56801ZM10.6634 4.58286L10.6846 4.56801L10.5698 4.40424L10.5486 4.41909L10.6634 4.58286ZM13.4168 5.44974C12.6027 5.08259 11.6918 4.73285 10.6356 4.40546L10.5764 4.59649C11.6251 4.92154 12.5282 5.2684 13.3346 5.63206L13.4168 5.44974ZM16.331 7.08036C15.6282 6.58235 14.5475 5.95432 13.4165 5.44958L13.335 5.63222C14.4549 6.132 15.524 6.75366 16.2153 7.24355L16.331 7.08036ZM16.3408 7.08729L16.331 7.08036L16.2153 7.24355L16.2251 7.25048L16.3408 7.08729ZM19.3127 10.0442C18.5671 8.90429 17.4896 7.87683 16.3396 7.08648L16.2263 7.2513C17.3594 8.03008 18.4168 9.0398 19.1453 10.1537L19.3127 10.0442ZM19.3131 10.0447L19.3128 10.0443L19.1452 10.1535L19.1455 10.154L19.3131 10.0447ZM20.3705 12.6204C20.2038 11.7275 19.8419 10.8624 19.3133 10.045L19.1453 10.1537C19.6616 10.952 20.0125 11.7929 20.1739 12.6571L20.3705 12.6204ZM20.3771 14.8174C20.5247 14.0771 20.5087 13.3473 20.3705 12.6201L20.174 12.6574C20.308 13.3628 20.3229 14.0664 20.1809 14.7782L20.3771 14.8174ZM20.297 14.6993L20.2929 14.6988L20.2651 14.8968L20.2692 14.8974L20.297 14.6993ZM20.3577 14.9252L20.3808 14.8198L20.1854 14.777L20.1623 14.8824L20.3577 14.9252ZM20.0836 15.8552C20.1974 15.5493 20.2889 15.2391 20.3577 14.9252L20.1623 14.8824C20.0955 15.187 20.0068 15.4881 19.8962 15.7854L20.0836 15.8552Z" fill="#040404" mask="url(#path-20-inside-1_313_244)"/>
</g>
<defs>
<clipPath id="clip0_313_244">
<rect width="32" height="32" fill="white" transform="translate(0 0.186615)"/>
</clipPath>
</defs>
</svg>
