<svg width="15" height="15" viewBox="0 0 15 15" fill="none" xmlns="http://www.w3.org/2000/svg">
<rect x="0.5" y="0.5" width="14" height="14" rx="2" fill="#01212F" stroke="#2CC388"/>
<path d="M12.2142 4.1999C12.2142 4.39728 12.1484 4.59477 12.0169 4.7452L6.62916 10.9166C6.49814 11.068 6.32557 11.1428 6.15299 11.1428C5.98041 11.1428 5.80826 11.0674 5.67693 10.9167L2.98306 7.83103C2.85152 7.68097 2.78564 7.48329 2.78564 7.28561C2.78564 6.84493 3.10028 6.51418 3.45911 6.51418C3.63144 6.51418 3.80385 6.58952 3.93517 6.74019L6.15299 9.28168L11.0651 3.65507C11.1956 3.50392 11.3682 3.42847 11.5407 3.42847C11.9006 3.42847 12.2142 3.75873 12.2142 4.1999Z" fill="#2CC388"/>
</svg>
