<svg width="19" height="19" viewBox="0 0 19 19" fill="none" xmlns="http://www.w3.org/2000/svg">
<rect x="0.5" y="0.75" width="18" height="18" rx="2.75" fill="#01212F" stroke="#2CC388" stroke-width="0.5"/>
<path d="M15 5.9C15 6.13029 14.9233 6.36069 14.7698 6.53619L8.4841 13.7362C8.33125 13.9128 8.12991 14 7.92857 14C7.72723 14 7.52638 13.9121 7.37317 13.7363L4.23031 10.1363C4.07685 9.96125 4 9.73062 4 9.5C4 8.98587 4.36708 8.6 4.78571 8.6C4.98676 8.6 5.1879 8.68789 5.34112 8.86367L7.92857 11.8287L13.6594 5.26438C13.8116 5.08803 14.0129 5 14.2143 5C14.6342 5 15 5.38531 15 5.9Z" fill="#2CC388"/>
</svg>
