<svg width="662" height="528" viewBox="0 0 662 528" fill="none" xmlns="http://www.w3.org/2000/svg">
<rect x="626.996" y="139" width="6.2" height="1.8" rx="0.9" transform="rotate(66.6141 626.996 139)" fill="#1874B7"/>
<rect x="630.996" y="148" width="6.2" height="1.8" rx="0.9" transform="rotate(66.6141 630.996 148)" fill="#1874B7"/>
<rect x="634.996" y="156" width="6.2" height="1.8" rx="0.9" transform="rotate(66.6141 634.996 156)" fill="#1874B7"/>
<rect x="638.738" y="165.026" width="6.2" height="1.8" rx="0.9" transform="rotate(66.6141 638.738 165.026)" fill="#1874B7"/>
<rect x="640.903" y="181.596" width="6.2" height="1.8" rx="0.9" transform="rotate(137.231 640.903 181.596)" fill="#1874B7"/>
<rect x="632.903" y="189.596" width="6.2" height="1.8" rx="0.9" transform="rotate(137.231 632.903 189.596)" fill="#1874B7"/>
<rect x="627.373" y="201" width="6.2" height="1.8" rx="0.9" transform="rotate(39.122 627.373 201)" fill="#1874B7"/>
<rect x="636.373" y="208" width="6.2" height="1.8" rx="0.9" transform="rotate(39.122 636.373 208)" fill="#1874B7"/>
<rect x="645.373" y="215" width="6.2" height="1.8" rx="0.9" transform="rotate(39.122 645.373 215)" fill="#1874B7"/>
<rect x="660.169" y="237" width="6.2" height="1.8" rx="0.9" transform="rotate(86.0592 660.169 237)" fill="#1874B7"/>
<rect x="661.029" y="247.962" width="6.2" height="1.8" rx="0.9" transform="rotate(87.1314 661.029 247.962)" fill="#1874B7"/>
<rect x="557.798" y="200" width="6.2" height="1.8" rx="0.9" transform="rotate(21.5221 557.798 200)" fill="#1874B7"/>
<rect x="568.798" y="204" width="6.2" height="1.8" rx="0.9" transform="rotate(21.5221 568.798 204)" fill="#1874B7"/>
<rect x="585.624" y="216" width="6.2" height="1.8" rx="0.9" transform="rotate(48.309 585.624 216)" fill="#1874B7"/>
<rect x="608.624" y="243" width="6.2" height="1.8" rx="0.9" transform="rotate(48.309 608.624 243)" fill="#1874B7"/>
<rect x="615.624" y="251" width="6.2" height="1.8" rx="0.9" transform="rotate(48.309 615.624 251)" fill="#1874B7"/>
<rect x="616.076" y="263" width="6.2" height="1.8" rx="0.9" transform="rotate(1.99192 616.076 263)" fill="#1874B7"/>
<rect x="177.992" y="489.091" width="6.2" height="1.8" rx="0.9" transform="rotate(25.0511 177.992 489.091)" fill="#1874B7"/>
<rect x="166.079" y="483" width="6.2" height="1.8" rx="0.9" transform="rotate(26.9124 166.079 483)" fill="#1874B7"/>
<rect x="155.142" y="477" width="6.2" height="1.8" rx="0.9" transform="rotate(28.6211 155.142 477)" fill="#1874B7"/>
<rect x="119.402" y="454.031" width="6.2" height="1.8" rx="0.9" transform="rotate(36.5627 119.402 454.031)" fill="#1874B7"/>
<rect x="129.319" y="461.075" width="6.2" height="1.8" rx="0.9" transform="rotate(34.7109 129.319 461.075)" fill="#1874B7"/>
<rect x="109.802" y="447.047" width="6.2" height="1.8" rx="0.9" transform="rotate(37.3676 109.802 447.047)" fill="#1874B7"/>
<rect x="124.062" y="411.38" width="6.2" height="1.8" rx="0.9" transform="rotate(-47.3443 124.062 411.38)" fill="#1874B7"/>
<rect x="113.894" y="420.044" width="6.2" height="1.8" rx="0.9" transform="rotate(-41.7974 113.894 420.044)" fill="#1874B7"/>
<rect x="105" y="429.265" width="6.2" height="1.8" rx="0.9" transform="rotate(-45.4139 105 429.265)" fill="#1874B7"/>
<rect x="87" y="365.389" width="6.2" height="1.8" rx="0.9" transform="rotate(-88.5094 87 365.389)" fill="#1874B7"/>
<rect x="85.8755" y="376.335" width="6.2" height="1.8" rx="0.9" transform="rotate(-85.4171 85.8755 376.335)" fill="#1874B7"/>
<rect x="84.7021" y="387.278" width="6.2" height="1.8" rx="0.9" transform="rotate(-84.6529 84.7021 387.278)" fill="#1874B7"/>
<rect x="50.9697" y="390.711" width="6.2" height="1.8" rx="0.9" transform="rotate(-160.535 50.9697 390.711)" fill="#1874B7"/>
<rect x="61.9697" y="394.711" width="6.2" height="1.8" rx="0.9" transform="rotate(-160.535 61.9697 394.711)" fill="#1874B7"/>
<rect x="73.9009" y="399.022" width="6.2" height="1.8" rx="0.9" transform="rotate(-159.449 73.9009 399.022)" fill="#1874B7"/>
<rect x="83.4121" y="352.947" width="6.2" height="1.8" rx="0.9" transform="rotate(144.743 83.4121 352.947)" fill="#1874B7"/>
<rect x="73.4121" y="359.947" width="6.2" height="1.8" rx="0.9" transform="rotate(144.743 73.4121 359.947)" fill="#1874B7"/>
<rect x="62.4863" y="366.769" width="6.2" height="1.8" rx="0.9" transform="rotate(144.743 62.4863 366.769)" fill="#1874B7"/>
<rect x="51.561" y="374.041" width="6.2" height="1.8" rx="0.9" transform="rotate(148.91 51.561 374.041)" fill="#1874B7"/>
<rect x="8.19043" y="341.924" width="6.2" height="1.8" rx="0.9" transform="rotate(58.0229 8.19043 341.924)" fill="#1874B7"/>
<rect x="13.9282" y="351" width="6.2" height="1.8" rx="0.9" transform="rotate(53.9934 13.9282 351)" fill="#1874B7"/>
<rect x="20.1382" y="359.938" width="6.2" height="1.8" rx="0.9" transform="rotate(57.2254 20.1382 359.938)" fill="#1874B7"/>
<rect x="25.9282" y="368" width="6.2" height="1.8" rx="0.9" transform="rotate(53.9934 25.9282 368)" fill="#1874B7"/>
<rect x="77.46" y="308.997" width="6.2" height="1.8" rx="0.9" transform="rotate(73.0163 77.46 308.997)" fill="#1874B7"/>
<rect x="80.4326" y="318.983" width="6.2" height="1.8" rx="0.9" transform="rotate(70.0741 80.4326 318.983)" fill="#1874B7"/>
<rect x="84.3428" y="328.997" width="6.2" height="1.8" rx="0.9" transform="rotate(71.2917 84.3428 328.997)" fill="#1874B7"/>
<rect x="125.095" y="328" width="6.2" height="1.8" rx="0.9" transform="rotate(61.5033 125.095 328)" fill="#1874B7"/>
<rect x="130.599" y="338.066" width="6.2" height="1.8" rx="0.9" transform="rotate(61.5033 130.599 338.066)" fill="#1874B7"/>
<rect x="109.095" y="296" width="6.2" height="1.8" rx="0.9" transform="rotate(61.5033 109.095 296)" fill="#1874B7"/>
<rect x="114.095" y="306" width="6.2" height="1.8" rx="0.9" transform="rotate(61.5033 114.095 306)" fill="#1874B7"/>
<rect x="182.03" y="324.735" width="6.2" height="1.8" rx="0.9" transform="rotate(-25.0441 182.03 324.735)" fill="#1874B7"/>
<rect x="159.718" y="325" width="6.2" height="1.8" rx="0.9" transform="rotate(17.5354 159.718 325)" fill="#1874B7"/>
<rect x="167.12" y="316" width="6.2" height="1.8" rx="0.9" transform="rotate(62.7761 167.12 316)" fill="#1874B7"/>
<rect x="162.12" y="307" width="6.2" height="1.8" rx="0.9" transform="rotate(62.7761 162.12 307)" fill="#1874B7"/>
<rect x="157.12" y="297" width="6.2" height="1.8" rx="0.9" transform="rotate(62.7761 157.12 297)" fill="#1874B7"/>
<rect x="145.242" y="287" width="6.2" height="1.8" rx="0.9" transform="rotate(31.3888 145.242 287)" fill="#1874B7"/>
<rect x="179.107" y="379.426" width="6.2" height="1.8" rx="0.9" transform="rotate(-90.681 179.107 379.426)" fill="#1874B7"/>
<rect x="197.299" y="365.522" width="6.2" height="1.8" rx="0.9" transform="rotate(-170.91 197.299 365.522)" fill="#1874B7"/>
<rect x="206.915" y="360.361" width="6.2" height="1.8" rx="0.9" transform="rotate(-87.8497 206.915 360.361)" fill="#1874B7"/>
<rect x="215.23" y="340.042" width="6.2" height="1.8" rx="0.9" transform="rotate(-38.9657 215.23 340.042)" fill="#1874B7"/>
<rect x="293.891" y="389.128" width="6.2" height="1.8" rx="0.9" transform="rotate(23.1261 293.891 389.128)" fill="#1874B7"/>
<rect x="260.319" y="381" width="6.2" height="1.8" rx="0.9" transform="rotate(7.68884 260.319 381)" fill="#1874B7"/>
<rect x="238" y="395.432" width="6.2" height="1.8" rx="0.9" transform="rotate(-60.476 238 395.432)" fill="#1874B7"/>
<rect x="227" y="417.921" width="6.2" height="1.8" rx="0.9" transform="rotate(-69.4312 227 417.921)" fill="#1874B7"/>
<rect x="222.821" y="428.752" width="6.2" height="1.8" rx="0.9" transform="rotate(-69.4312 222.821 428.752)" fill="#1874B7"/>
<rect x="262.82" y="315.263" width="6.2" height="1.8" rx="0.9" transform="rotate(-158.435 262.82 315.263)" fill="#1874B7"/>
<rect x="273.678" y="320.427" width="6.2" height="1.8" rx="0.9" transform="rotate(-155.239 273.678 320.427)" fill="#1874B7"/>
<rect x="277" y="339.053" width="6.2" height="1.8" rx="0.9" transform="rotate(-72.5756 277 339.053)" fill="#1874B7"/>
<rect x="255.976" y="352.483" width="6.2" height="1.8" rx="0.9" transform="rotate(-15.8634 255.976 352.483)" fill="#1874B7"/>
<rect x="194.573" y="270.67" width="6.2" height="1.8" rx="0.9" transform="rotate(155.869 194.573 270.67)" fill="#1874B7"/>
<rect x="217.39" y="271.543" width="6.2" height="1.8" rx="0.9" transform="rotate(-178.759 217.39 271.543)" fill="#1874B7"/>
<rect x="225.722" y="288.744" width="6.2" height="1.8" rx="0.9" transform="rotate(-103.474 225.722 288.744)" fill="#1874B7"/>
<rect x="353.603" y="500.139" width="6.2" height="1.8" rx="0.9" transform="rotate(172.007 353.603 500.139)" fill="#1874B7"/>
<rect x="339.581" y="502.057" width="6.2" height="1.8" rx="0.9" transform="rotate(173.741 339.581 502.057)" fill="#1874B7"/>
<rect x="326.553" y="503.377" width="6.2" height="1.8" rx="0.9" transform="rotate(175.593 326.553 503.377)" fill="#1874B7"/>
<rect x="294.562" y="505.58" width="6.2" height="1.8" rx="0.9" transform="rotate(175.327 294.562 505.58)" fill="#1874B7"/>
<rect x="280.562" y="507.376" width="6.2" height="1.8" rx="0.9" transform="rotate(175.327 280.562 507.376)" fill="#1874B7"/>
<rect x="260.916" y="495.333" width="6.2" height="1.8" rx="0.9" transform="rotate(100.659 260.916 495.333)" fill="#1874B7"/>
<rect x="263.71" y="483.441" width="6.2" height="1.8" rx="0.9" transform="rotate(100.659 263.71 483.441)" fill="#1874B7"/>
<rect x="265.71" y="471.441" width="6.2" height="1.8" rx="0.9" transform="rotate(100.659 265.71 471.441)" fill="#1874B7"/>
<rect x="267.71" y="459.441" width="6.2" height="1.8" rx="0.9" transform="rotate(100.659 267.71 459.441)" fill="#1874B7"/>
<rect x="270.87" y="446.533" width="6.2" height="1.8" rx="0.9" transform="rotate(103.385 270.87 446.533)" fill="#1874B7"/>
<rect x="276.774" y="438" width="6.2" height="1.8" rx="0.9" transform="rotate(25.4767 276.774 438)" fill="#1874B7"/>
<rect x="288.025" y="443" width="6.2" height="1.8" rx="0.9" transform="rotate(25.4767 288.025 443)" fill="#1874B7"/>
<rect x="398.009" y="525.918" width="6.2" height="1.8" rx="0.9" transform="rotate(-13.8314 398.009 525.918)" fill="#1874B7"/>
<rect x="411" y="522.098" width="6.2" height="1.8" rx="0.9" transform="rotate(-16.4899 411 522.098)" fill="#1874B7"/>
<rect x="424" y="518.098" width="6.2" height="1.8" rx="0.9" transform="rotate(-16.4899 424 518.098)" fill="#1874B7"/>
<rect x="449" y="502.746" width="6.2" height="1.8" rx="0.9" transform="rotate(-65.8698 449 502.746)" fill="#1874B7"/>
<rect x="454" y="491.746" width="6.2" height="1.8" rx="0.9" transform="rotate(-65.8698 454 491.746)" fill="#1874B7"/>
<rect x="459" y="480.746" width="6.2" height="1.8" rx="0.9" transform="rotate(-65.8698 459 480.746)" fill="#1874B7"/>
<rect x="455.801" y="460.966" width="6.2" height="1.8" rx="0.9" transform="rotate(-156.66 455.801 460.966)" fill="#1874B7"/>
<rect x="443.927" y="455.815" width="6.2" height="1.8" rx="0.9" transform="rotate(-159.562 443.927 455.815)" fill="#1874B7"/>
<rect x="412.748" y="450.509" width="6.2" height="1.8" rx="0.9" transform="rotate(167.385 412.748 450.509)" fill="#1874B7"/>
<rect x="399.743" y="453.565" width="6.2" height="1.8" rx="0.9" transform="rotate(164.198 399.743 453.565)" fill="#1874B7"/>
<rect x="386.688" y="457.1" width="6.2" height="1.8" rx="0.9" transform="rotate(168.116 386.688 457.1)" fill="#1874B7"/>
<rect x="374.652" y="459.361" width="6.2" height="1.8" rx="0.9" transform="rotate(172.007 374.652 459.361)" fill="#1874B7"/>
<rect x="604.076" y="263" width="6.2" height="1.8" rx="0.9" transform="rotate(1.99192 604.076 263)" fill="#1874B7"/>
<rect x="393.958" y="380.438" width="6.2" height="1.8" rx="0.9" transform="rotate(-14.3708 393.958 380.438)" fill="#1874B7"/>
<rect x="362" y="385.992" width="6.2" height="1.8" rx="0.9" transform="rotate(-7.71346 362 385.992)" fill="#1874B7"/>
<rect x="358.893" y="397" width="6.2" height="1.8" rx="0.9" transform="rotate(52.5642 358.893 397)" fill="#1874B7"/>
<rect x="360.417" y="419.949" width="6.2" height="1.8" rx="0.9" transform="rotate(144.852 360.417 419.949)" fill="#1874B7"/>
<rect x="509" y="357.677" width="6.2" height="1.8" rx="0.9" transform="rotate(-50.1713 509 357.677)" fill="#1874B7"/>
<rect x="485" y="375.765" width="6.2" height="1.8" rx="0.9" transform="rotate(-30.6205 485 375.765)" fill="#1874B7"/>
<rect x="475" y="381.765" width="6.2" height="1.8" rx="0.9" transform="rotate(-30.6205 475 381.765)" fill="#1874B7"/>
<rect x="450" y="397.386" width="6.2" height="1.8" rx="0.9" transform="rotate(-36.3925 450 397.386)" fill="#1874B7"/>
<rect x="440" y="404.386" width="6.2" height="1.8" rx="0.9" transform="rotate(-36.3925 440 404.386)" fill="#1874B7"/>
<rect x="392.791" y="351.629" width="6.2" height="1.8" rx="0.9" transform="rotate(133.096 392.791 351.629)" fill="#1874B7"/>
<rect x="361.195" y="354.015" width="6.2" height="1.8" rx="0.9" transform="rotate(-166.745 361.195 354.015)" fill="#1874B7"/>
<rect x="345.984" y="342.761" width="6.2" height="1.8" rx="0.9" transform="rotate(-105.567 345.984 342.761)" fill="#1874B7"/>
<rect x="324" y="325.02" width="6.2" height="1.8" rx="0.9" transform="rotate(-0.156383 324 325.02)" fill="#1874B7"/>
<rect x="333.034" y="358.498" width="6.2" height="1.8" rx="0.9" transform="rotate(-35.1398 333.034 358.498)" fill="#1874B7"/>
<rect x="307" y="361.309" width="6.2" height="1.8" rx="0.9" transform="rotate(-2.39808 307 361.309)" fill="#1874B7"/>
<rect x="519.923" y="442.888" width="6.2" height="1.8" rx="0.9" transform="rotate(82.3273 519.923 442.888)" fill="#1874B7"/>
<rect x="537" y="379.502" width="6.2" height="1.8" rx="0.9" transform="rotate(-48.101 537 379.502)" fill="#1874B7"/>
<rect x="529" y="388.502" width="6.2" height="1.8" rx="0.9" transform="rotate(-48.101 529 388.502)" fill="#1874B7"/>
<rect x="518.374" y="431" width="6.2" height="1.8" rx="0.9" transform="rotate(84.857 518.374 431)" fill="#1874B7"/>
<rect x="547.734" y="447.193" width="6.2" height="1.8" rx="0.9" transform="rotate(156.902 547.734 447.193)" fill="#1874B7"/>
<rect x="519.923" y="442.888" width="6.2" height="1.8" rx="0.9" transform="rotate(82.3273 519.923 442.888)" fill="#1874B7"/>
<rect x="516.372" y="419" width="6.2" height="1.8" rx="0.9" transform="rotate(84.1742 516.372 419)" fill="#1874B7"/>
<rect x="522" y="396.502" width="6.2" height="1.8" rx="0.9" transform="rotate(-48.101 522 396.502)" fill="#1874B7"/>
<rect x="536.735" y="452.193" width="6.2" height="1.8" rx="0.9" transform="rotate(156.902 536.735 452.193)" fill="#1874B7"/>
<rect x="549.94" y="437.146" width="6.2" height="1.8" rx="0.9" transform="rotate(-143.481 549.94 437.146)" fill="#1874B7"/>
<rect x="539.94" y="429.146" width="6.2" height="1.8" rx="0.9" transform="rotate(-143.481 539.94 429.146)" fill="#1874B7"/>
<rect x="528.94" y="421.146" width="6.2" height="1.8" rx="0.9" transform="rotate(-143.481 528.94 421.146)" fill="#1874B7"/>
<rect x="427.119" y="324.136" width="6.2" height="1.8" rx="0.9" transform="rotate(45.5069 427.119 324.136)" fill="#1874B7"/>
<rect x="404.981" y="312" width="6.2" height="1.8" rx="0.9" transform="rotate(24.316 404.981 312)" fill="#1874B7"/>
<rect x="382" y="313.692" width="6.2" height="1.8" rx="0.9" transform="rotate(-13.232 382 313.692)" fill="#1874B7"/>
<rect x="462.664" y="317" width="6.2" height="1.8" rx="0.9" transform="rotate(44.2616 462.664 317)" fill="#1874B7"/>
<rect x="453.889" y="308.678" width="6.2" height="1.8" rx="0.9" transform="rotate(44.2616 453.889 308.678)" fill="#1874B7"/>
<rect x="433.379" y="293" width="6.2" height="1.8" rx="0.9" transform="rotate(35.3534 433.379 293)" fill="#1874B7"/>
<rect x="454" y="303.133" width="6.2" height="1.8" rx="0.9" transform="rotate(-1.02938 454 303.133)" fill="#1874B7"/>
<rect x="475.383" y="313" width="6.2" height="1.8" rx="0.9" transform="rotate(88.5157 475.383 313)" fill="#1874B7"/>
<rect x="471.841" y="338.842" width="6.2" height="1.8" rx="0.9" transform="rotate(110.683 471.841 338.842)" fill="#1874B7"/>
<rect x="456.664" y="356.357" width="6.2" height="1.8" rx="0.9" transform="rotate(171.464 456.664 356.357)" fill="#1874B7"/>
<rect x="522" y="287.114" width="6.2" height="1.8" rx="0.9" transform="rotate(-8.66819 522 287.114)" fill="#1874B7"/>
<rect x="520.504" y="296" width="6.2" height="1.8" rx="0.9" transform="rotate(39.1207 520.504 296)" fill="#1874B7"/>
<rect x="492.02" y="281" width="6.2" height="1.8" rx="0.9" transform="rotate(25.3223 492.02 281)" fill="#1874B7"/>
<rect x="588.723" y="305" width="6.2" height="1.8" rx="0.9" transform="rotate(52.4378 588.723 305)" fill="#1874B7"/>
<rect x="596.723" y="314" width="6.2" height="1.8" rx="0.9" transform="rotate(52.4378 596.723 314)" fill="#1874B7"/>
<rect x="604.723" y="323" width="6.2" height="1.8" rx="0.9" transform="rotate(52.4378 604.723 323)" fill="#1874B7"/>
<rect x="640.583" y="320.944" width="6.2" height="1.8" rx="0.9" transform="rotate(153.412 640.583 320.944)" fill="#1874B7"/>
<rect x="629.583" y="325.944" width="6.2" height="1.8" rx="0.9" transform="rotate(153.412 629.583 325.944)" fill="#1874B7"/>
<rect x="614.071" y="348.629" width="6.2" height="1.8" rx="0.9" transform="rotate(-98.3359 614.071 348.629)" fill="#1874B7"/>
<rect x="616.071" y="359.629" width="6.2" height="1.8" rx="0.9" transform="rotate(-98.3359 616.071 359.629)" fill="#1874B7"/>
<rect x="617.602" y="371.545" width="6.2" height="1.8" rx="0.9" transform="rotate(-94.6746 617.602 371.545)" fill="#1874B7"/>
<rect x="607" y="384.762" width="6.2" height="1.8" rx="0.9" transform="rotate(-40.1103 607 384.762)" fill="#1874B7"/>
<rect x="598" y="392.762" width="6.2" height="1.8" rx="0.9" transform="rotate(-40.1103 598 392.762)" fill="#1874B7"/>
<rect x="588.75" y="401.027" width="6.2" height="1.8" rx="0.9" transform="rotate(-40.1103 588.75 401.027)" fill="#1874B7"/>
<rect x="522.347" y="248.457" width="6.2" height="1.8" rx="0.9" transform="rotate(-51.4367 522.347 248.457)" fill="#1874B7"/>
<rect x="550.392" y="238.473" width="6.2" height="1.8" rx="0.9" transform="rotate(-179.308 550.392 238.473)" fill="#1874B7"/>
<rect x="541.614" y="246.62" width="6.2" height="1.8" rx="0.9" transform="rotate(-139.413 541.614 246.62)" fill="#1874B7"/>
<rect x="550.614" y="254.62" width="6.2" height="1.8" rx="0.9" transform="rotate(-139.413 550.614 254.62)" fill="#1874B7"/>
<rect x="422.373" y="236.904" width="6.2" height="1.8" rx="0.9" transform="rotate(-175.92 422.373 236.904)" fill="#1874B7"/>
<rect x="440.08" y="251.48" width="6.2" height="1.8" rx="0.9" transform="rotate(-123.498 440.08 251.48)" fill="#1874B7"/>
<rect x="448.442" y="239.989" width="6.2" height="1.8" rx="0.9" transform="rotate(-177.158 448.442 239.989)" fill="#1874B7"/>
<rect x="477.341" y="244.23" width="6.2" height="1.8" rx="0.9" transform="rotate(-173.298 477.341 244.23)" fill="#1874B7"/>
<rect x="410" y="145.518" width="6.2" height="1.8" rx="0.9" transform="rotate(-48.2836 410 145.518)" fill="#1874B7"/>
<rect x="438.457" y="181.498" width="6.2" height="1.8" rx="0.9" transform="rotate(-150.87 438.457 181.498)" fill="#1874B7"/>
<rect x="443.422" y="179.498" width="6.2" height="1.8" rx="0.9" transform="rotate(-95.3678 443.422 179.498)" fill="#1874B7"/>
<rect x="442.143" y="168.433" width="6.2" height="1.8" rx="0.9" transform="rotate(-91.1042 442.143 168.433)" fill="#1874B7"/>
<rect x="429" y="166.104" width="6.2" height="1.8" rx="0.9" transform="rotate(-43.6636 429 166.104)" fill="#1874B7"/>
<rect x="461.412" y="185.174" width="6.2" height="1.8" rx="0.9" transform="rotate(179.461 461.412 185.174)" fill="#1874B7"/>
<rect x="450.114" y="186" width="6.2" height="1.8" rx="0.9" transform="rotate(30.8238 450.114 186)" fill="#1874B7"/>
<rect x="460.114" y="192" width="6.2" height="1.8" rx="0.9" transform="rotate(30.8238 460.114 192)" fill="#1874B7"/>
<rect x="471.114" y="198" width="6.2" height="1.8" rx="0.9" transform="rotate(30.8238 471.114 198)" fill="#1874B7"/>
<rect x="484.313" y="191.041" width="6.2" height="1.8" rx="0.9" transform="rotate(91.0799 484.313 191.041)" fill="#1874B7"/>
<rect x="473.412" y="185.174" width="6.2" height="1.8" rx="0.9" transform="rotate(179.461 473.412 185.174)" fill="#1874B7"/>
<rect x="456.412" y="157.174" width="6.2" height="1.8" rx="0.9" transform="rotate(179.461 456.412 157.174)" fill="#1874B7"/>
<rect x="468.101" y="148.421" width="6.2" height="1.8" rx="0.9" transform="rotate(-90.7804 468.101 148.421)" fill="#1874B7"/>
<rect x="480.365" y="142" width="6.2" height="1.8" rx="0.9" transform="rotate(38.9037 480.365 142)" fill="#1874B7"/>
<rect x="475" y="152.017" width="6.2" height="1.8" rx="0.9" transform="rotate(-0.134291 475 152.017)" fill="#1874B7"/>
<rect x="489.388" y="185" width="6.2" height="1.8" rx="0.9" transform="rotate(10.2653 489.388 185)" fill="#1874B7"/>
<rect x="498.809" y="187" width="6.2" height="1.8" rx="0.9" transform="rotate(21.8377 498.809 187)" fill="#1874B7"/>
<rect x="528.04" y="195" width="6.2" height="1.8" rx="0.9" transform="rotate(1.03716 528.04 195)" fill="#1874B7"/>
<rect x="398.26" y="187.741" width="6.2" height="1.8" rx="0.9" transform="rotate(-135.362 398.26 187.741)" fill="#1874B7"/>
<rect x="413.26" y="205.741" width="6.2" height="1.8" rx="0.9" transform="rotate(-135.362 413.26 205.741)" fill="#1874B7"/>
<rect x="422" y="206.27" width="6.2" height="1.8" rx="0.9" transform="rotate(-45.4782 422 206.27)" fill="#1874B7"/>
<rect x="459" y="208.618" width="6.2" height="1.8" rx="0.9" transform="rotate(-4.79876 459 208.618)" fill="#1874B7"/>
<rect x="470" y="207.618" width="6.2" height="1.8" rx="0.9" transform="rotate(-4.79876 470 207.618)" fill="#1874B7"/>
<rect x="544" y="161.088" width="6.2" height="1.8" rx="0.9" transform="rotate(-43.4949 544 161.088)" fill="#1874B7"/>
<rect x="553" y="153.088" width="6.2" height="1.8" rx="0.9" transform="rotate(-43.4949 553 153.088)" fill="#1874B7"/>
<rect x="538.046" y="147" width="6.2" height="1.8" rx="0.9" transform="rotate(1.22449 538.046 147)" fill="#1874B7"/>
<rect x="549.046" y="147" width="6.2" height="1.8" rx="0.9" transform="rotate(1.22449 549.046 147)" fill="#1874B7"/>
<rect x="531.519" y="154" width="6.2" height="1.8" rx="0.9" transform="rotate(44.3002 531.519 154)" fill="#1874B7"/>
<rect x="554.519" y="135" width="6.2" height="1.8" rx="0.9" transform="rotate(44.3002 554.519 135)" fill="#1874B7"/>
<rect x="545.519" y="126" width="6.2" height="1.8" rx="0.9" transform="rotate(44.3002 545.519 126)" fill="#1874B7"/>
<rect x="511.807" y="138.352" width="6.2" height="1.8" rx="0.9" transform="rotate(24.7831 511.807 138.352)" fill="#1874B7"/>
<rect x="548.904" y="115.204" width="6.2" height="1.8" rx="0.9" transform="rotate(123.634 548.904 115.204)" fill="#1874B7"/>
<rect x="553.682" y="106.732" width="6.2" height="1.8" rx="0.9" transform="rotate(123.634 553.682 106.732)" fill="#1874B7"/>
<rect x="547.459" y="101.173" width="6.2" height="1.8" rx="0.9" transform="rotate(178.135 547.459 101.173)" fill="#1874B7"/>
<rect x="543.415" y="73.3313" width="6.2" height="1.8" rx="0.9" transform="rotate(-179.418 543.415 73.3313)" fill="#1874B7"/>
<rect x="535.459" y="101.173" width="6.2" height="1.8" rx="0.9" transform="rotate(178.135 535.459 101.173)" fill="#1874B7"/>
<rect x="524.459" y="101.173" width="6.2" height="1.8" rx="0.9" transform="rotate(178.135 524.459 101.173)" fill="#1874B7"/>
<rect x="507.434" y="105.851" width="6.2" height="1.8" rx="0.9" transform="rotate(148.367 507.434 105.851)" fill="#1874B7"/>
<rect x="495.968" y="118" width="6.2" height="1.8" rx="0.9" transform="rotate(64.8768 495.968 118)" fill="#1874B7"/>
<rect x="497.728" y="143.14" width="6.2" height="1.8" rx="0.9" transform="rotate(121.63 497.728 143.14)" fill="#1874B7"/>
<rect x="492.405" y="135.174" width="6.2" height="1.8" rx="0.9" transform="rotate(179.644 492.405 135.174)" fill="#1874B7"/>
<rect x="544.283" y="70.7428" width="6.2" height="1.8" rx="0.9" transform="rotate(-148.203 544.283 70.7428)" fill="#1874B7"/>
<rect x="535.283" y="64.7428" width="6.2" height="1.8" rx="0.9" transform="rotate(-148.203 535.283 64.7428)" fill="#1874B7"/>
<rect x="527.283" y="59.7428" width="6.2" height="1.8" rx="0.9" transform="rotate(-148.203 527.283 59.7428)" fill="#1874B7"/>
<rect x="519.283" y="54.7428" width="6.2" height="1.8" rx="0.9" transform="rotate(-148.203 519.283 54.7428)" fill="#1874B7"/>
<rect x="510.283" y="48.7428" width="6.2" height="1.8" rx="0.9" transform="rotate(-148.203 510.283 48.7428)" fill="#1874B7"/>
<rect x="554.973" y="75" width="6.2" height="1.8" rx="0.9" transform="rotate(26.5925 554.973 75)" fill="#1874B7"/>
<rect x="565.973" y="80" width="6.2" height="1.8" rx="0.9" transform="rotate(26.5925 565.973 80)" fill="#1874B7"/>
<rect x="583.116" y="94" width="6.2" height="1.8" rx="0.9" transform="rotate(76.6942 583.116 94)" fill="#1874B7"/>
<rect x="585.116" y="102" width="6.2" height="1.8" rx="0.9" transform="rotate(76.6942 585.116 102)" fill="#1874B7"/>
<rect x="488" y="50.2695" width="6.2" height="1.8" rx="0.9" transform="rotate(-45.4689 488 50.2695)" fill="#1874B7"/>
<rect x="497.536" y="64.3747" width="6.2" height="1.8" rx="0.9" transform="rotate(-152.158 497.536 64.3747)" fill="#1874B7"/>
<rect x="587.116" y="110" width="6.2" height="1.8" rx="0.9" transform="rotate(76.6942 587.116 110)" fill="#1874B7"/>
<rect x="506.536" y="69.3747" width="6.2" height="1.8" rx="0.9" transform="rotate(-152.158 506.536 69.3747)" fill="#1874B7"/>
<rect x="532.392" y="73.2491" width="6.2" height="1.8" rx="0.9" transform="rotate(-179.418 532.392 73.2491)" fill="#1874B7"/>
<rect x="589.116" y="119" width="6.2" height="1.8" rx="0.9" transform="rotate(76.6942 589.116 119)" fill="#1874B7"/>
<rect x="448.498" y="106.138" width="6.2" height="1.8" rx="0.9" transform="rotate(127.814 448.498 106.138)" fill="#1874B7"/>
<rect x="458.974" y="81.2391" width="6.2" height="1.8" rx="0.9" transform="rotate(96.3133 458.974 81.2391)" fill="#1874B7"/>
<rect x="470.685" y="91.0361" width="6.2" height="1.8" rx="0.9" transform="rotate(159.478 470.685 91.0361)" fill="#1874B7"/>
<rect x="479.438" y="87.6858" width="6.2" height="1.8" rx="0.9" transform="rotate(159.478 479.438 87.6858)" fill="#1874B7"/>
<rect x="475.536" y="82.3747" width="6.2" height="1.8" rx="0.9" transform="rotate(-152.158 475.536 82.3747)" fill="#1874B7"/>
<rect x="361.398" y="3.1741" width="6.2" height="1.8" rx="0.9" transform="rotate(179.835 361.398 3.1741)" fill="#1874B7"/>
<rect x="371.398" y="3.1741" width="6.2" height="1.8" rx="0.9" transform="rotate(179.835 371.398 3.1741)" fill="#1874B7"/>
<rect x="395.272" y="6.46173" width="6.2" height="1.8" rx="0.9" transform="rotate(-169.692 395.272 6.46173)" fill="#1874B7"/>
<rect x="405.272" y="8.46173" width="6.2" height="1.8" rx="0.9" transform="rotate(-169.692 405.272 8.46173)" fill="#1874B7"/>
<rect x="415.272" y="10.4617" width="6.2" height="1.8" rx="0.9" transform="rotate(-169.692 415.272 10.4617)" fill="#1874B7"/>
<rect x="426.289" y="12.6542" width="6.2" height="1.8" rx="0.9" transform="rotate(-169.692 426.289 12.6542)" fill="#1874B7"/>
<rect x="431.154" y="31.4357" width="6.2" height="1.8" rx="0.9" transform="rotate(-91.195 431.154 31.4357)" fill="#1874B7"/>
<rect x="329.389" y="21.3871" width="6.2" height="1.8" rx="0.9" transform="rotate(-178.342 329.389 21.3871)" fill="#1874B7"/>
<rect x="341.384" y="21.5113" width="6.2" height="1.8" rx="0.9" transform="rotate(-177.368 341.384 21.5113)" fill="#1874B7"/>
<rect x="240.68" y="8.12862" width="6.2" height="1.8" rx="0.9" transform="rotate(168.261 240.68 8.12862)" fill="#1874B7"/>
<rect x="250.68" y="6.12862" width="6.2" height="1.8" rx="0.9" transform="rotate(168.261 250.68 6.12862)" fill="#1874B7"/>
<rect x="260.685" y="4.18855" width="6.2" height="1.8" rx="0.9" transform="rotate(168.261 260.685 4.18855)" fill="#1874B7"/>
<rect x="270.68" y="2.41701" width="6.2" height="1.8" rx="0.9" transform="rotate(169.927 270.68 2.41701)" fill="#1874B7"/>
<rect x="275.06" y="12.705" width="6.2" height="1.8" rx="0.9" transform="rotate(-106.178 275.06 12.705)" fill="#1874B7"/>
<rect x="278.06" y="22.705" width="6.2" height="1.8" rx="0.9" transform="rotate(-106.178 278.06 22.705)" fill="#1874B7"/>
<rect x="296.689" y="24.1206" width="6.2" height="1.8" rx="0.9" transform="rotate(167.268 296.689 24.1206)" fill="#1874B7"/>
<rect x="306.67" y="22.3328" width="6.2" height="1.8" rx="0.9" transform="rotate(170.438 306.67 22.3328)" fill="#1874B7"/>
<rect x="341.4" y="21.4634" width="6.2" height="1.8" rx="0.9" transform="rotate(-178.12 341.4 21.4634)" fill="#1874B7"/>
<rect x="352.341" y="22.3534" width="6.2" height="1.8" rx="0.9" transform="rotate(-177.368 352.341 22.3534)" fill="#1874B7"/>
<rect x="346.318" y="86" width="6.2" height="1.8" rx="0.9" transform="rotate(8.42039 346.318 86)" fill="#1874B7"/>
<rect x="358.318" y="88" width="6.2" height="1.8" rx="0.9" transform="rotate(8.42039 358.318 88)" fill="#1874B7"/>
<rect x="379" y="87.6978" width="6.2" height="1.8" rx="0.9" transform="rotate(-39.459 379 87.6978)" fill="#1874B7"/>
<rect x="403" y="72.7565" width="6.2" height="1.8" rx="0.9" transform="rotate(-30.5426 403 72.7565)" fill="#1874B7"/>
<rect x="412" y="67.7565" width="6.2" height="1.8" rx="0.9" transform="rotate(-30.5426 412 67.7565)" fill="#1874B7"/>
<rect x="409.164" y="87.8933" width="6.2" height="1.8" rx="0.9" transform="rotate(-146.495 409.164 87.8933)" fill="#1874B7"/>
<rect x="416.508" y="87.1716" width="6.2" height="1.8" rx="0.9" transform="rotate(-79.1689 416.508 87.1716)" fill="#1874B7"/>
<rect x="418.533" y="76.1842" width="6.2" height="1.8" rx="0.9" transform="rotate(-79.5833 418.533 76.1842)" fill="#1874B7"/>
<rect x="389.329" y="47.1169" width="6.2" height="1.8" rx="0.9" transform="rotate(-172.529 389.329 47.1169)" fill="#1874B7"/>
<rect x="416.529" y="61.5327" width="6.2" height="1.8" rx="0.9" transform="rotate(-138.412 416.529 61.5327)" fill="#1874B7"/>
<rect x="378.265" y="45.8141" width="6.2" height="1.8" rx="0.9" transform="rotate(-172.529 378.265 45.8141)" fill="#1874B7"/>
<rect x="328.795" y="50" width="6.2" height="1.8" rx="0.9" transform="rotate(21.4512 328.795 50)" fill="#1874B7"/>
<rect x="339.795" y="55" width="6.2" height="1.8" rx="0.9" transform="rotate(21.4512 339.795 55)" fill="#1874B7"/>
<rect x="340" y="61.764" width="6.2" height="1.8" rx="0.9" transform="rotate(-5.93249 340 61.764)" fill="#1874B7"/>
<rect x="329.036" y="62.5935" width="6.2" height="1.8" rx="0.9" transform="rotate(-3.34271 329.036 62.5935)" fill="#1874B7"/>
<rect x="318.922" y="63.4402" width="6.2" height="1.8" rx="0.9" transform="rotate(-5.93249 318.922 63.4402)" fill="#1874B7"/>
<rect x="299" y="46.105" width="6.2" height="1.8" rx="0.9" transform="rotate(-0.813663 299 46.105)" fill="#1874B7"/>
<rect x="299.275" y="56" width="6.2" height="1.8" rx="0.9" transform="rotate(35.9005 299.275 56)" fill="#1874B7"/>
<rect x="308.795" y="69.5501" width="6.2" height="1.8" rx="0.9" transform="rotate(135.478 308.795 69.5501)" fill="#1874B7"/>
<rect x="301.568" y="77.1785" width="6.2" height="1.8" rx="0.9" transform="rotate(129.001 301.568 77.1785)" fill="#1874B7"/>
<rect x="311.448" y="68.0106" width="6.2" height="1.8" rx="0.9" transform="rotate(78.02 311.448 68.0106)" fill="#1874B7"/>
<rect x="314.073" y="79" width="6.2" height="1.8" rx="0.9" transform="rotate(72.4418 314.073 79)" fill="#1874B7"/>
<rect x="351" y="162.125" width="6.2" height="1.8" rx="0.9" transform="rotate(-30.2647 351 162.125)" fill="#1874B7"/>
<rect x="365" y="151.028" width="6.2" height="1.8" rx="0.9" transform="rotate(-76.4807 365 151.028)" fill="#1874B7"/>
<rect x="354.006" y="139" width="6.2" height="1.8" rx="0.9" transform="rotate(0.191521 354.006 139)" fill="#1874B7"/>
<rect x="375" y="131.218" width="6.2" height="1.8" rx="0.9" transform="rotate(-42.8638 375 131.218)" fill="#1874B7"/>
<rect x="367.179" y="117" width="6.2" height="1.8" rx="0.9" transform="rotate(5.69508 367.179 117)" fill="#1874B7"/>
<rect x="356.179" y="116" width="6.2" height="1.8" rx="0.9" transform="rotate(5.69508 356.179 116)" fill="#1874B7"/>
<rect x="298.496" y="124" width="6.2" height="1.8" rx="0.9" transform="rotate(16.0003 298.496 124)" fill="#1874B7"/>
<rect x="288.496" y="121" width="6.2" height="1.8" rx="0.9" transform="rotate(16.0003 288.496 121)" fill="#1874B7"/>
<rect x="286" y="115.227" width="6.2" height="1.8" rx="0.9" transform="rotate(-11.4146 286 115.227)" fill="#1874B7"/>
<rect x="296.01" y="113.377" width="6.2" height="1.8" rx="0.9" transform="rotate(-11.4146 296.01 113.377)" fill="#1874B7"/>
<rect x="312.328" y="124.286" width="6.2" height="1.8" rx="0.9" transform="rotate(-93.0295 312.328 124.286)" fill="#1874B7"/>
<rect x="310.843" y="143.131" width="6.2" height="1.8" rx="0.9" transform="rotate(-83.8649 310.843 143.131)" fill="#1874B7"/>
<rect x="309.85" y="153.134" width="6.2" height="1.8" rx="0.9" transform="rotate(-83.9998 309.85 153.134)" fill="#1874B7"/>
<rect x="215.104" y="38" width="6.2" height="1.8" rx="0.9" transform="rotate(3.3352 215.104 38)" fill="#1874B7"/>
<rect x="205.104" y="37" width="6.2" height="1.8" rx="0.9" transform="rotate(3.3352 205.104 37)" fill="#1874B7"/>
<rect x="195.104" y="36.5" width="6.2" height="1.8" rx="0.9" transform="rotate(3.3352 195.104 36.5)" fill="#1874B7"/>
<rect x="185.104" y="36" width="6.2" height="1.8" rx="0.9" transform="rotate(3.3352 185.104 36)" fill="#1874B7"/>
<rect x="175.104" y="35.5" width="6.2" height="1.8" rx="0.9" transform="rotate(3.3352 175.104 35.5)" fill="#1874B7"/>
<rect x="166.104" y="35" width="6.2" height="1.8" rx="0.9" transform="rotate(3.3352 166.104 35)" fill="#1874B7"/>
<rect x="179" y="55.6853" width="6.2" height="1.8" rx="0.9" transform="rotate(-15.7731 179 55.6853)" fill="#1874B7"/>
<rect x="169" y="58.6853" width="6.2" height="1.8" rx="0.9" transform="rotate(-15.7731 169 58.6853)" fill="#1874B7"/>
<rect x="161.783" y="51" width="6.2" height="1.8" rx="0.9" transform="rotate(82.0859 161.783 51)" fill="#1874B7"/>
<rect x="159.783" y="42" width="6.2" height="1.8" rx="0.9" transform="rotate(82.0859 159.783 42)" fill="#1874B7"/>
<rect x="249.059" y="115.696" width="6.2" height="1.8" rx="0.9" transform="rotate(112.755 249.059 115.696)" fill="#1874B7"/>
<rect x="253.232" y="106.542" width="6.2" height="1.8" rx="0.9" transform="rotate(112.755 253.232 106.542)" fill="#1874B7"/>
<rect x="253.407" y="98.6534" width="6.2" height="1.8" rx="0.9" transform="rotate(156.712 253.407 98.6534)" fill="#1874B7"/>
<rect x="244.407" y="102.653" width="6.2" height="1.8" rx="0.9" transform="rotate(156.712 244.407 102.653)" fill="#1874B7"/>
<rect x="248.788" y="95.9026" width="6.2" height="1.8" rx="0.9" transform="rotate(-158.997 248.788 95.9026)" fill="#1874B7"/>
<rect x="238.788" y="91.9026" width="6.2" height="1.8" rx="0.9" transform="rotate(-158.997 238.788 91.9026)" fill="#1874B7"/>
<rect x="224.827" y="101.385" width="6.2" height="1.8" rx="0.9" transform="rotate(-97.6654 224.827 101.385)" fill="#1874B7"/>
<rect x="223.443" y="106.549" width="6.2" height="1.8" rx="0.9" transform="rotate(-151.391 223.443 106.549)" fill="#1874B7"/>
<rect x="215.443" y="102.549" width="6.2" height="1.8" rx="0.9" transform="rotate(-151.391 215.443 102.549)" fill="#1874B7"/>
<rect x="182.07" y="109.455" width="6.2" height="1.8" rx="0.9" transform="rotate(143.912 182.07 109.455)" fill="#1874B7"/>
<rect x="191.07" y="103.455" width="6.2" height="1.8" rx="0.9" transform="rotate(143.912 191.07 103.455)" fill="#1874B7"/>
<rect x="199.07" y="97.4546" width="6.2" height="1.8" rx="0.9" transform="rotate(143.912 199.07 97.4546)" fill="#1874B7"/>
<rect x="215.36" y="88.2134" width="6.2" height="1.8" rx="0.9" transform="rotate(150.647 215.36 88.2134)" fill="#1874B7"/>
<rect x="235.322" y="81.1395" width="6.2" height="1.8" rx="0.9" transform="rotate(159.058 235.322 81.1395)" fill="#1874B7"/>
<rect x="250.189" y="89.2427" width="6.2" height="1.8" rx="0.9" transform="rotate(-120.957 250.189 89.2427)" fill="#1874B7"/>
<rect x="233.813" y="71.8434" width="6.2" height="1.8" rx="0.9" transform="rotate(-159.654 233.813 71.8434)" fill="#1874B7"/>
<rect x="196.005" y="87.2443" width="6.2" height="1.8" rx="0.9" transform="rotate(-114.828 196.005 87.2443)" fill="#1874B7"/>
<rect x="152.243" y="102" width="6.2" height="1.8" rx="0.9" transform="rotate(43.6844 152.243 102)" fill="#1874B7"/>
<rect x="159.243" y="109" width="6.2" height="1.8" rx="0.9" transform="rotate(43.6844 159.243 109)" fill="#1874B7"/>
<rect x="141.315" y="147.797" width="6.2" height="1.8" rx="0.9" transform="rotate(-54.3443 141.315 147.797)" fill="#1874B7"/>
<rect x="159" y="128.311" width="6.2" height="1.8" rx="0.9" transform="rotate(-44.0593 159 128.311)" fill="#1874B7"/>
<rect x="177.759" y="128.84" width="6.2" height="1.8" rx="0.9" transform="rotate(56.3712 177.759 128.84)" fill="#1874B7"/>
<rect x="157.164" y="137.707" width="6.2" height="1.8" rx="0.9" transform="rotate(7.24871 157.164 137.707)" fill="#1874B7"/>
<rect x="168.131" y="138.785" width="6.2" height="1.8" rx="0.9" transform="rotate(5.74653 168.131 138.785)" fill="#1874B7"/>
<rect x="193.443" y="143" width="6.2" height="1.8" rx="0.9" transform="rotate(14.2391 193.443 143)" fill="#1874B7"/>
<rect x="204.443" y="146" width="6.2" height="1.8" rx="0.9" transform="rotate(14.2391 204.443 146)" fill="#1874B7"/>
<rect x="221" y="143.039" width="6.2" height="1.8" rx="0.9" transform="rotate(-40.6497 221 143.039)" fill="#1874B7"/>
<rect x="230" y="136.039" width="6.2" height="1.8" rx="0.9" transform="rotate(-40.6497 230 136.039)" fill="#1874B7"/>
<rect x="235.521" y="120.125" width="6.2" height="1.8" rx="0.9" transform="rotate(-124.612 235.521 120.125)" fill="#1874B7"/>
<rect x="42" y="130.55" width="6.2" height="1.8" rx="0.9" transform="rotate(-47.2172 42 130.55)" fill="#1874B7"/>
<rect x="55" y="115.55" width="6.2" height="1.8" rx="0.9" transform="rotate(-47.2172 55 115.55)" fill="#1874B7"/>
<rect x="49" y="122.55" width="6.2" height="1.8" rx="0.9" transform="rotate(-47.2172 49 122.55)" fill="#1874B7"/>
<rect x="61.9336" y="108.604" width="6.2" height="1.8" rx="0.9" transform="rotate(-47.2172 61.9336 108.604)" fill="#1874B7"/>
<rect x="82.3306" y="100" width="6.2" height="1.8" rx="0.9" transform="rotate(10.587 82.3306 100)" fill="#1874B7"/>
<rect x="92.3306" y="102" width="6.2" height="1.8" rx="0.9" transform="rotate(10.587 92.3306 102)" fill="#1874B7"/>
<rect x="102.345" y="104.192" width="6.2" height="1.8" rx="0.9" transform="rotate(10.587 102.345 104.192)" fill="#1874B7"/>
<rect x="129.965" y="104.185" width="6.2" height="1.8" rx="0.9" transform="rotate(-17.4423 129.965 104.185)" fill="#1874B7"/>
<rect x="268" y="183.921" width="6.2" height="1.8" rx="0.9" transform="rotate(-72.7593 268 183.921)" fill="#1874B7"/>
<rect x="224.01" y="150" width="6.2" height="1.8" rx="0.9" transform="rotate(0.331196 224.01 150)" fill="#1874B7"/>
<rect x="235.01" y="150" width="6.2" height="1.8" rx="0.9" transform="rotate(0.331196 235.01 150)" fill="#1874B7"/>
<rect x="247.01" y="150" width="6.2" height="1.8" rx="0.9" transform="rotate(0.331196 247.01 150)" fill="#1874B7"/>
<rect x="271" y="147.943" width="6.2" height="1.8" rx="0.9" transform="rotate(-8.74931 271 147.943)" fill="#1874B7"/>
<rect x="251" y="163.321" width="6.2" height="1.8" rx="0.9" transform="rotate(-59.1201 251 163.321)" fill="#1874B7"/>
<rect x="256.141" y="171.083" width="6.2" height="1.8" rx="0.9" transform="rotate(3.55869 256.141 171.083)" fill="#1874B7"/>
<rect x="233.716" y="161.241" width="6.2" height="1.8" rx="0.9" transform="rotate(26.1407 233.716 161.241)" fill="#1874B7"/>
<rect x="224.96" y="156" width="6.2" height="1.8" rx="0.9" transform="rotate(32.2245 224.96 156)" fill="#1874B7"/>
<rect x="21.8848" y="221.369" width="6.2" height="1.8" rx="0.9" transform="rotate(139.531 21.8848 221.369)" fill="#1874B7"/>
<rect x="30.814" y="214.456" width="6.2" height="1.8" rx="0.9" transform="rotate(139.531 30.814 214.456)" fill="#1874B7"/>
<rect x="52.1211" y="212.13" width="6.2" height="1.8" rx="0.9" transform="rotate(-174.816 52.1211 212.13)" fill="#1874B7"/>
<rect x="43.1313" y="192.561" width="6.2" height="1.8" rx="0.9" transform="rotate(-64.4801 43.1313 192.561)" fill="#1874B7"/>
<rect x="38.7329" y="201.495" width="6.2" height="1.8" rx="0.9" transform="rotate(-61.2771 38.7329 201.495)" fill="#1874B7"/>
<rect x="47.5" y="183.734" width="6.2" height="1.8" rx="0.9" transform="rotate(-67.6377 47.5 183.734)" fill="#1874B7"/>
<rect x="31.8584" y="204.973" width="6.2" height="1.8" rx="0.9" transform="rotate(-128.484 31.8584 204.973)" fill="#1874B7"/>
<rect x="25.8584" y="196.973" width="6.2" height="1.8" rx="0.9" transform="rotate(-128.484 25.8584 196.973)" fill="#1874B7"/>
<rect x="34.4248" y="179.671" width="6.2" height="1.8" rx="0.9" transform="rotate(158.166 34.4248 179.671)" fill="#1874B7"/>
<rect x="44.3999" y="175.821" width="6.2" height="1.8" rx="0.9" transform="rotate(158.166 44.3999 175.821)" fill="#1874B7"/>
<rect x="81.4429" y="162.824" width="6.2" height="1.8" rx="0.9" transform="rotate(161.674 81.4429 162.824)" fill="#1874B7"/>
<rect x="71.4429" y="166.013" width="6.2" height="1.8" rx="0.9" transform="rotate(161.513 71.4429 166.013)" fill="#1874B7"/>
<rect x="65.2988" y="159.132" width="6.2" height="1.8" rx="0.9" transform="rotate(128.972 65.2988 159.132)" fill="#1874B7"/>
<rect x="71.2988" y="151.132" width="6.2" height="1.8" rx="0.9" transform="rotate(128.972 71.2988 151.132)" fill="#1874B7"/>
<rect x="77.2988" y="143.132" width="6.2" height="1.8" rx="0.9" transform="rotate(128.972 77.2988 143.132)" fill="#1874B7"/>
<rect x="71.207" y="135.8" width="6.2" height="1.8" rx="0.9" transform="rotate(179.769 71.207 135.8)" fill="#1874B7"/>
<rect x="60.207" y="135.8" width="6.2" height="1.8" rx="0.9" transform="rotate(179.769 60.207 135.8)" fill="#1874B7"/>
<rect x="49.207" y="135.8" width="6.2" height="1.8" rx="0.9" transform="rotate(179.769 49.207 135.8)" fill="#1874B7"/>
<rect x="87.2886" y="151.413" width="6.2" height="1.8" rx="0.9" transform="rotate(-106.653 87.2886 151.413)" fill="#1874B7"/>
<rect x="103" y="187.414" width="6.2" height="1.8" rx="0.9" transform="rotate(-33.4134 103 187.414)" fill="#1874B7"/>
<rect x="110.913" y="181.575" width="6.2" height="1.8" rx="0.9" transform="rotate(-33.4134 110.913 181.575)" fill="#1874B7"/>
<rect x="110.718" y="165" width="6.2" height="1.8" rx="0.9" transform="rotate(23.5216 110.718 165)" fill="#1874B7"/>
<rect x="101.718" y="161" width="6.2" height="1.8" rx="0.9" transform="rotate(23.5216 101.718 161)" fill="#1874B7"/>
<rect x="107.011" y="156.116" width="6.2" height="1.8" rx="0.9" transform="rotate(-0.692568 107.011 156.116)" fill="#1874B7"/>
<rect x="119.045" y="156" width="6.2" height="1.8" rx="0.9" transform="rotate(1.4498 119.045 156)" fill="#1874B7"/>
<rect x="216.125" y="198.79" width="6.2" height="1.8" rx="0.9" transform="rotate(122.235 216.125 198.79)" fill="#1874B7"/>
<rect x="192.049" y="211" width="6.2" height="1.8" rx="0.9" transform="rotate(1.54935 192.049 211)" fill="#1874B7"/>
<rect x="145" y="202.159" width="6.2" height="1.8" rx="0.9" transform="rotate(-83.4374 145 202.159)" fill="#1874B7"/>
<rect x="155" y="179.469" width="6.2" height="1.8" rx="0.9" transform="rotate(-46.1157 155 179.469)" fill="#1874B7"/>
<rect x="173.741" y="173.296" width="6.2" height="1.8" rx="0.9" transform="rotate(28.9501 173.741 173.296)" fill="#1874B7"/>
<rect x="46.811" y="243.071" width="6.2" height="1.8" rx="0.9" transform="rotate(-24.5002 46.811 243.071)" fill="#1874B7"/>
<rect x="46" y="274.784" width="6.2" height="1.8" rx="0.9" transform="rotate(-37.6071 46 274.784)" fill="#1874B7"/>
<rect x="45.4619" y="260.19" width="6.2" height="1.8" rx="0.9" transform="rotate(14.9825 45.4619 260.19)" fill="#1874B7"/>
<rect x="71" y="264.306" width="6.2" height="1.8" rx="0.9" transform="rotate(-2.82652 71 264.306)" fill="#1874B7"/>
<rect x="58.8423" y="261.104" width="6.2" height="1.8" rx="0.9" transform="rotate(-81.4776 58.8423 261.104)" fill="#1874B7"/>
<rect x="60.4155" y="251.225" width="6.2" height="1.8" rx="0.9" transform="rotate(-84.5258 60.4155 251.225)" fill="#1874B7"/>
<rect x="67" y="227.024" width="6.2" height="1.8" rx="0.9" transform="rotate(-76.3318 67 227.024)" fill="#1874B7"/>
<rect x="74" y="230.07" width="6.2" height="1.8" rx="0.9" transform="rotate(-29.6854 74 230.07)" fill="#1874B7"/>
<rect x="84" y="225.07" width="6.2" height="1.8" rx="0.9" transform="rotate(-29.6854 84 225.07)" fill="#1874B7"/>
<rect x="94" y="220.07" width="6.2" height="1.8" rx="0.9" transform="rotate(-29.6854 94 220.07)" fill="#1874B7"/>
<rect x="89.043" y="212.149" width="6.2" height="1.8" rx="0.9" transform="rotate(0.0909925 89.043 212.149)" fill="#1874B7"/>
<rect x="78.0903" y="212" width="6.2" height="1.8" rx="0.9" transform="rotate(2.87131 78.0903 212)" fill="#1874B7"/>
<rect x="99.4048" y="201" width="6.2" height="1.8" rx="0.9" transform="rotate(51.3069 99.4048 201)" fill="#1874B7"/>
<rect x="87.0435" y="202.442" width="6.2" height="1.8" rx="0.9" transform="rotate(143.214 87.0435 202.442)" fill="#1874B7"/>
<rect x="64.2271" y="213.209" width="6.2" height="1.8" rx="0.9" transform="rotate(-177.534 64.2271 213.209)" fill="#1874B7"/>
<rect x="32.7891" y="311" width="6.2" height="1.8" rx="0.9" transform="rotate(83.7259 32.7891 311)" fill="#1874B7"/>
<rect x="31.7891" y="300" width="6.2" height="1.8" rx="0.9" transform="rotate(83.7259 31.7891 300)" fill="#1874B7"/>
<rect x="10" y="265.181" width="6.2" height="1.8" rx="0.9" transform="rotate(-42.402 10 265.181)" fill="#1874B7"/>
<rect y="273.181" width="6.2" height="1.8" rx="0.9" transform="rotate(-42.402 0 273.181)" fill="#1874B7"/>
<rect x="2.95605" y="278.68" width="6.2" height="1.8" rx="0.9" transform="rotate(29.4639 2.95605 278.68)" fill="#1874B7"/>
<rect x="39.8916" y="260.641" width="6.2" height="1.8" rx="0.9" transform="rotate(-161.86 39.8916 260.641)" fill="#1874B7"/>
<rect x="42.3584" y="247.616" width="6.2" height="1.8" rx="0.9" transform="rotate(153.84 42.3584 247.616)" fill="#1874B7"/>
<rect x="20.2783" y="253.785" width="6.2" height="1.8" rx="0.9" transform="rotate(-148.358 20.2783 253.785)" fill="#1874B7"/>
<rect x="12.2783" y="248.785" width="6.2" height="1.8" rx="0.9" transform="rotate(-148.358 12.2783 248.785)" fill="#1874B7"/>
<rect x="13.6694" y="284" width="6.2" height="1.8" rx="0.9" transform="rotate(21.8324 13.6694 284)" fill="#1874B7"/>
<rect x="38" y="281.784" width="6.2" height="1.8" rx="0.9" transform="rotate(-37.6071 38 281.784)" fill="#1874B7"/>
<rect x="12.8848" y="229.369" width="6.2" height="1.8" rx="0.9" transform="rotate(139.531 12.8848 229.369)" fill="#1874B7"/>
<rect x="166" y="247.533" width="6.2" height="1.8" rx="0.9" transform="rotate(-46.9758 166 247.533)" fill="#1874B7"/>
<rect x="150.204" y="243" width="6.2" height="1.8" rx="0.9" transform="rotate(41.9961 150.204 243)" fill="#1874B7"/>
<rect x="131.162" y="250.483" width="6.2" height="1.8" rx="0.9" transform="rotate(-48.4449 131.162 250.483)" fill="#1874B7"/>
<rect x="125" y="237.476" width="6.2" height="1.8" rx="0.9" transform="rotate(-4.39957 125 237.476)" fill="#1874B7"/>
<rect x="113" y="238.476" width="6.2" height="1.8" rx="0.9" transform="rotate(-4.39957 113 238.476)" fill="#1874B7"/>
<rect x="113.033" y="261.651" width="6.2" height="1.8" rx="0.9" transform="rotate(-4.39957 113.033 261.651)" fill="#1874B7"/>
<rect x="83" y="263.306" width="6.2" height="1.8" rx="0.9" transform="rotate(-2.82652 83 263.306)" fill="#1874B7"/>
<rect x="241.737" y="225" width="6.2" height="1.8" rx="0.9" transform="rotate(74.8228 241.737 225)" fill="#1874B7"/>
<rect x="260" y="228.377" width="6.2" height="1.8" rx="0.9" transform="rotate(-22.5457 260 228.377)" fill="#1874B7"/>
<rect x="248.777" y="232.993" width="6.2" height="1.8" rx="0.9" transform="rotate(-22.5457 248.777 232.993)" fill="#1874B7"/>
<rect x="225" y="227.864" width="6.2" height="1.8" rx="0.9" transform="rotate(-38.5568 225 227.864)" fill="#1874B7"/>
<rect x="217" y="234.864" width="6.2" height="1.8" rx="0.9" transform="rotate(-38.5568 217 234.864)" fill="#1874B7"/>
<rect x="265.535" y="258.857" width="6.2" height="1.8" rx="0.9" transform="rotate(118.436 265.535 258.857)" fill="#1874B7"/>
<rect x="301" y="252.225" width="6.2" height="1.8" rx="0.9" transform="rotate(-42.9562 301 252.225)" fill="#1874B7"/>
<rect x="275.207" y="241.746" width="6.2" height="1.8" rx="0.9" transform="rotate(114.477 275.207 241.746)" fill="#1874B7"/>
<rect x="276.486" y="253.231" width="6.2" height="1.8" rx="0.9" transform="rotate(16.0513 276.486 253.231)" fill="#1874B7"/>
<rect x="246.823" y="261" width="6.2" height="1.8" rx="0.9" transform="rotate(27.2072 246.823 261)" fill="#1874B7"/>
<rect x="309.121" y="244.442" width="6.2" height="1.8" rx="0.9" transform="rotate(-47.3716 309.121 244.442)" fill="#1874B7"/>
<rect x="281.797" y="289.598" width="6.2" height="1.8" rx="0.9" transform="rotate(24.9564 281.797 289.598)" fill="#1874B7"/>
<rect x="289" y="280.659" width="6.2" height="1.8" rx="0.9" transform="rotate(-25.393 289 280.659)" fill="#1874B7"/>
<rect x="328.799" y="270" width="6.2" height="1.8" rx="0.9" transform="rotate(88.413 328.799 270)" fill="#1874B7"/>
<rect x="372" y="291.542" width="6.2" height="1.8" rx="0.9" transform="rotate(-5.01058 372 291.542)" fill="#1874B7"/>
<rect x="351.435" y="288.263" width="6.2" height="1.8" rx="0.9" transform="rotate(14.1 351.435 288.263)" fill="#1874B7"/>
<rect x="340.611" y="284.788" width="6.2" height="1.8" rx="0.9" transform="rotate(19.6717 340.611 284.788)" fill="#1874B7"/>
<rect x="325.727" y="289.588" width="6.2" height="1.8" rx="0.9" transform="rotate(109.074 325.727 289.588)" fill="#1874B7"/>
<rect x="276" y="203.911" width="6.2" height="1.8" rx="0.9" transform="rotate(-39.1123 276 203.911)" fill="#1874B7"/>
<rect x="308" y="194.931" width="6.2" height="1.8" rx="0.9" transform="rotate(-39.351 308 194.931)" fill="#1874B7"/>
<rect x="292.188" y="196" width="6.2" height="1.8" rx="0.9" transform="rotate(5.97665 292.188 196)" fill="#1874B7"/>
<rect x="253.563" y="202" width="6.2" height="1.8" rx="0.9" transform="rotate(18.2304 253.563 202)" fill="#1874B7"/>
<rect x="310.316" y="205" width="6.2" height="1.8" rx="0.9" transform="rotate(47.0006 310.316 205)" fill="#1874B7"/>
<rect x="381.624" y="245" width="6.2" height="1.8" rx="0.9" transform="rotate(64.4687 381.624 245)" fill="#1874B7"/>
<rect x="374" y="252.108" width="6.2" height="1.8" rx="0.9" transform="rotate(-1.00063 374 252.108)" fill="#1874B7"/>
<rect x="369" y="260.956" width="6.2" height="1.8" rx="0.9" transform="rotate(-28.4764 369 260.956)" fill="#1874B7"/>
<rect x="360" y="265.956" width="6.2" height="1.8" rx="0.9" transform="rotate(-28.4764 360 265.956)" fill="#1874B7"/>
<rect x="373.195" y="357.015" width="7.392" height="2.38386" rx="1.19193" transform="rotate(-166.745 373.195 357.015)" fill="#1874B7"/>
<rect x="393.064" y="262" width="6.2" height="1.8" rx="0.9" transform="rotate(36.2278 393.064 262)" fill="#1874B7"/>
<rect x="350.02" y="240" width="6.2" height="1.8" rx="0.9" transform="rotate(34.4915 350.02 240)" fill="#1874B7"/>
<rect x="397.058" y="254" width="6.2" height="1.8" rx="0.9" transform="rotate(1.85684 397.058 254)" fill="#1874B7"/>
<rect x="379.177" y="214.328" width="6.2" height="1.8" rx="0.9" transform="rotate(-175.056 379.177 214.328)" fill="#1874B7"/>
<rect x="370.332" y="201.788" width="6.2" height="1.8" rx="0.9" transform="rotate(115.953 370.332 201.788)" fill="#1874B7"/>
<rect x="347.777" y="187" width="6.2" height="1.8" rx="0.9" transform="rotate(80.8558 347.777 187)" fill="#1874B7"/>
<rect x="355.94" y="185" width="6.2" height="1.8" rx="0.9" transform="rotate(31.491 355.94 185)" fill="#1874B7"/>
<rect x="339" y="211.159" width="6.2" height="1.8" rx="0.9" transform="rotate(-56.3206 339 211.159)" fill="#1874B7"/>
</svg>
