<svg width="662" height="527" viewBox="0 0 662 527" fill="none" xmlns="http://www.w3.org/2000/svg">
<rect x="627.541" y="138.415" width="6.2" height="1.8" rx="0.9" transform="rotate(66.6141 627.541 138.415)" fill="#1874B7"/>
<rect x="631.541" y="147.415" width="6.2" height="1.8" rx="0.9" transform="rotate(66.6141 631.541 147.415)" fill="#1874B7"/>
<rect x="635.541" y="155.415" width="6.2" height="1.8" rx="0.9" transform="rotate(66.6141 635.541 155.415)" fill="#1874B7"/>
<rect x="639.282" y="164.441" width="6.2" height="1.8" rx="0.9" transform="rotate(66.6141 639.282 164.441)" fill="#1874B7"/>
<rect x="641.448" y="181.011" width="6.2" height="1.8" rx="0.9" transform="rotate(137.231 641.448 181.011)" fill="#1874B7"/>
<rect x="633.448" y="189.011" width="6.2" height="1.8" rx="0.9" transform="rotate(137.231 633.448 189.011)" fill="#1874B7"/>
<rect x="627.917" y="200.415" width="6.2" height="1.8" rx="0.9" transform="rotate(39.122 627.917 200.415)" fill="#1874B7"/>
<rect x="636.917" y="207.415" width="6.2" height="1.8" rx="0.9" transform="rotate(39.122 636.917 207.415)" fill="#1874B7"/>
<rect x="645.917" y="214.415" width="6.2" height="1.8" rx="0.9" transform="rotate(39.122 645.917 214.415)" fill="#1874B7"/>
<rect x="660.714" y="236.415" width="6.2" height="1.8" rx="0.9" transform="rotate(86.0592 660.714 236.415)" fill="#1874B7"/>
<rect x="661.573" y="247.377" width="6.2" height="1.8" rx="0.9" transform="rotate(87.1314 661.573 247.377)" fill="#1874B7"/>
<rect x="558.343" y="199.415" width="6.2" height="1.8" rx="0.9" transform="rotate(21.5221 558.343 199.415)" fill="#1874B7"/>
<rect x="569.343" y="203.415" width="6.2" height="1.8" rx="0.9" transform="rotate(21.5221 569.343 203.415)" fill="#1874B7"/>
<rect x="586.168" y="215.415" width="6.2" height="1.8" rx="0.9" transform="rotate(48.309 586.168 215.415)" fill="#1874B7"/>
<rect x="609.168" y="242.415" width="6.2" height="1.8" rx="0.9" transform="rotate(48.309 609.168 242.415)" fill="#1874B7"/>
<rect x="616.168" y="250.415" width="6.2" height="1.8" rx="0.9" transform="rotate(48.309 616.168 250.415)" fill="#1874B7"/>
<rect x="616.621" y="262.415" width="6.2" height="1.8" rx="0.9" transform="rotate(1.99192 616.621 262.415)" fill="#1874B7"/>
<rect x="178.537" y="488.506" width="6.2" height="1.8" rx="0.9" transform="rotate(25.0511 178.537 488.506)" fill="#1874B7"/>
<rect x="166.624" y="482.415" width="6.2" height="1.8" rx="0.9" transform="rotate(26.9124 166.624 482.415)" fill="#1874B7"/>
<rect x="155.687" y="476.415" width="6.2" height="1.8" rx="0.9" transform="rotate(28.6211 155.687 476.415)" fill="#1874B7"/>
<rect x="119.947" y="453.447" width="6.2" height="1.8" rx="0.9" transform="rotate(36.5627 119.947 453.447)" fill="#1874B7"/>
<rect x="129.864" y="460.49" width="6.2" height="1.8" rx="0.9" transform="rotate(34.7109 129.864 460.49)" fill="#1874B7"/>
<rect x="110.347" y="446.463" width="6.2" height="1.8" rx="0.9" transform="rotate(37.3676 110.347 446.463)" fill="#1874B7"/>
<rect x="124.607" y="410.795" width="6.2" height="1.8" rx="0.9" transform="rotate(-47.3443 124.607 410.795)" fill="#1874B7"/>
<rect x="114.438" y="419.459" width="6.2" height="1.8" rx="0.9" transform="rotate(-41.7974 114.438 419.459)" fill="#1874B7"/>
<rect x="105.545" y="428.68" width="6.2" height="1.8" rx="0.9" transform="rotate(-45.4139 105.545 428.68)" fill="#1874B7"/>
<rect x="87.5449" y="364.805" width="6.2" height="1.8" rx="0.9" transform="rotate(-88.5094 87.5449 364.805)" fill="#1874B7"/>
<rect x="86.4204" y="375.751" width="6.2" height="1.8" rx="0.9" transform="rotate(-85.4171 86.4204 375.751)" fill="#1874B7"/>
<rect x="85.2471" y="386.693" width="6.2" height="1.8" rx="0.9" transform="rotate(-84.6529 85.2471 386.693)" fill="#1874B7"/>
<rect x="51.5146" y="390.126" width="6.2" height="1.8" rx="0.9" transform="rotate(-160.535 51.5146 390.126)" fill="#1874B7"/>
<rect x="62.5146" y="394.126" width="6.2" height="1.8" rx="0.9" transform="rotate(-160.535 62.5146 394.126)" fill="#1874B7"/>
<rect x="74.4458" y="398.438" width="6.2" height="1.8" rx="0.9" transform="rotate(-159.449 74.4458 398.438)" fill="#1874B7"/>
<rect x="83.957" y="352.362" width="6.2" height="1.8" rx="0.9" transform="rotate(144.743 83.957 352.362)" fill="#1874B7"/>
<rect x="73.957" y="359.362" width="6.2" height="1.8" rx="0.9" transform="rotate(144.743 73.957 359.362)" fill="#1874B7"/>
<rect x="63.0312" y="366.185" width="6.2" height="1.8" rx="0.9" transform="rotate(144.743 63.0312 366.185)" fill="#1874B7"/>
<rect x="52.106" y="373.457" width="6.2" height="1.8" rx="0.9" transform="rotate(148.91 52.106 373.457)" fill="#1874B7"/>
<rect x="8.73535" y="341.34" width="6.2" height="1.8" rx="0.9" transform="rotate(58.0229 8.73535 341.34)" fill="#1874B7"/>
<rect x="14.4731" y="350.415" width="6.2" height="1.8" rx="0.9" transform="rotate(53.9934 14.4731 350.415)" fill="#1874B7"/>
<rect x="20.6831" y="359.353" width="6.2" height="1.8" rx="0.9" transform="rotate(57.2254 20.6831 359.353)" fill="#1874B7"/>
<rect x="26.4731" y="367.415" width="6.2" height="1.8" rx="0.9" transform="rotate(53.9934 26.4731 367.415)" fill="#1874B7"/>
<rect x="78.0049" y="308.412" width="6.2" height="1.8" rx="0.9" transform="rotate(73.0163 78.0049 308.412)" fill="#1874B7"/>
<rect x="80.9775" y="318.399" width="6.2" height="1.8" rx="0.9" transform="rotate(70.0741 80.9775 318.399)" fill="#1874B7"/>
<rect x="84.8877" y="328.412" width="6.2" height="1.8" rx="0.9" transform="rotate(71.2917 84.8877 328.412)" fill="#1874B7"/>
<rect x="125.64" y="327.415" width="6.2" height="1.8" rx="0.9" transform="rotate(61.5033 125.64 327.415)" fill="#1874B7"/>
<rect x="131.144" y="337.482" width="6.2" height="1.8" rx="0.9" transform="rotate(61.5033 131.144 337.482)" fill="#1874B7"/>
<rect x="109.64" y="295.415" width="6.2" height="1.8" rx="0.9" transform="rotate(61.5033 109.64 295.415)" fill="#1874B7"/>
<rect x="114.64" y="305.415" width="6.2" height="1.8" rx="0.9" transform="rotate(61.5033 114.64 305.415)" fill="#1874B7"/>
<rect x="182.575" y="324.15" width="6.2" height="1.8" rx="0.9" transform="rotate(-25.0441 182.575 324.15)" fill="#1874B7"/>
<rect x="160.263" y="324.415" width="6.2" height="1.8" rx="0.9" transform="rotate(17.5354 160.263 324.415)" fill="#1874B7"/>
<rect x="167.665" y="315.415" width="6.2" height="1.8" rx="0.9" transform="rotate(62.7761 167.665 315.415)" fill="#1874B7"/>
<rect x="162.665" y="306.415" width="6.2" height="1.8" rx="0.9" transform="rotate(62.7761 162.665 306.415)" fill="#1874B7"/>
<rect x="157.665" y="296.415" width="6.2" height="1.8" rx="0.9" transform="rotate(62.7761 157.665 296.415)" fill="#1874B7"/>
<rect x="145.787" y="286.415" width="6.2" height="1.8" rx="0.9" transform="rotate(31.3888 145.787 286.415)" fill="#1874B7"/>
<rect x="179.652" y="378.841" width="6.2" height="1.8" rx="0.9" transform="rotate(-90.681 179.652 378.841)" fill="#1874B7"/>
<rect x="197.844" y="364.937" width="6.2" height="1.8" rx="0.9" transform="rotate(-170.91 197.844 364.937)" fill="#1874B7"/>
<rect x="207.459" y="359.777" width="6.2" height="1.8" rx="0.9" transform="rotate(-87.8497 207.459 359.777)" fill="#1874B7"/>
<rect x="215.775" y="339.457" width="6.2" height="1.8" rx="0.9" transform="rotate(-38.9657 215.775 339.457)" fill="#1874B7"/>
<rect x="294.436" y="388.543" width="6.2" height="1.8" rx="0.9" transform="rotate(23.1261 294.436 388.543)" fill="#1874B7"/>
<rect x="260.864" y="380.415" width="6.2" height="1.8" rx="0.9" transform="rotate(7.68884 260.864 380.415)" fill="#1874B7"/>
<rect x="238.545" y="394.848" width="6.2" height="1.8" rx="0.9" transform="rotate(-60.476 238.545 394.848)" fill="#1874B7"/>
<rect x="227.545" y="417.336" width="6.2" height="1.8" rx="0.9" transform="rotate(-69.4312 227.545 417.336)" fill="#1874B7"/>
<rect x="223.366" y="428.167" width="6.2" height="1.8" rx="0.9" transform="rotate(-69.4312 223.366 428.167)" fill="#1874B7"/>
<rect x="263.365" y="314.679" width="6.2" height="1.8" rx="0.9" transform="rotate(-158.435 263.365 314.679)" fill="#1874B7"/>
<rect x="274.223" y="319.842" width="6.2" height="1.8" rx="0.9" transform="rotate(-155.239 274.223 319.842)" fill="#1874B7"/>
<rect x="277.545" y="338.468" width="6.2" height="1.8" rx="0.9" transform="rotate(-72.5756 277.545 338.468)" fill="#1874B7"/>
<rect x="256.521" y="351.898" width="6.2" height="1.8" rx="0.9" transform="rotate(-15.8634 256.521 351.898)" fill="#1874B7"/>
<rect x="195.118" y="270.085" width="6.2" height="1.8" rx="0.9" transform="rotate(155.869 195.118 270.085)" fill="#1874B7"/>
<rect x="217.935" y="270.959" width="6.2" height="1.8" rx="0.9" transform="rotate(-178.759 217.935 270.959)" fill="#1874B7"/>
<rect x="226.267" y="288.159" width="6.2" height="1.8" rx="0.9" transform="rotate(-103.474 226.267 288.159)" fill="#1874B7"/>
<rect x="354.147" y="499.554" width="6.2" height="1.8" rx="0.9" transform="rotate(172.007 354.147 499.554)" fill="#1874B7"/>
<rect x="340.125" y="501.473" width="6.2" height="1.8" rx="0.9" transform="rotate(173.741 340.125 501.473)" fill="#1874B7"/>
<rect x="327.098" y="502.792" width="6.2" height="1.8" rx="0.9" transform="rotate(175.593 327.098 502.792)" fill="#1874B7"/>
<rect x="295.106" y="504.995" width="6.2" height="1.8" rx="0.9" transform="rotate(175.327 295.106 504.995)" fill="#1874B7"/>
<rect x="281.106" y="506.791" width="6.2" height="1.8" rx="0.9" transform="rotate(175.327 281.106 506.791)" fill="#1874B7"/>
<rect x="261.46" y="494.748" width="6.2" height="1.8" rx="0.9" transform="rotate(100.659 261.46 494.748)" fill="#1874B7"/>
<rect x="264.255" y="482.856" width="6.2" height="1.8" rx="0.9" transform="rotate(100.659 264.255 482.856)" fill="#1874B7"/>
<rect x="266.255" y="470.856" width="6.2" height="1.8" rx="0.9" transform="rotate(100.659 266.255 470.856)" fill="#1874B7"/>
<rect x="268.255" y="458.856" width="6.2" height="1.8" rx="0.9" transform="rotate(100.659 268.255 458.856)" fill="#1874B7"/>
<rect x="271.415" y="445.948" width="6.2" height="1.8" rx="0.9" transform="rotate(103.385 271.415 445.948)" fill="#1874B7"/>
<rect x="277.319" y="437.415" width="6.2" height="1.8" rx="0.9" transform="rotate(25.4767 277.319 437.415)" fill="#1874B7"/>
<rect x="288.57" y="442.415" width="6.2" height="1.8" rx="0.9" transform="rotate(25.4767 288.57 442.415)" fill="#1874B7"/>
<rect x="398.554" y="525.334" width="6.2" height="1.8" rx="0.9" transform="rotate(-13.8314 398.554 525.334)" fill="#1874B7"/>
<rect x="411.545" y="521.514" width="6.2" height="1.8" rx="0.9" transform="rotate(-16.4899 411.545 521.514)" fill="#1874B7"/>
<rect x="424.545" y="517.514" width="6.2" height="1.8" rx="0.9" transform="rotate(-16.4899 424.545 517.514)" fill="#1874B7"/>
<rect x="449.545" y="502.161" width="6.2" height="1.8" rx="0.9" transform="rotate(-65.8698 449.545 502.161)" fill="#1874B7"/>
<rect x="454.545" y="491.161" width="6.2" height="1.8" rx="0.9" transform="rotate(-65.8698 454.545 491.161)" fill="#1874B7"/>
<rect x="459.545" y="480.161" width="6.2" height="1.8" rx="0.9" transform="rotate(-65.8698 459.545 480.161)" fill="#1874B7"/>
<rect x="456.346" y="460.382" width="6.2" height="1.8" rx="0.9" transform="rotate(-156.66 456.346 460.382)" fill="#1874B7"/>
<rect x="444.472" y="455.23" width="6.2" height="1.8" rx="0.9" transform="rotate(-159.562 444.472 455.23)" fill="#1874B7"/>
<rect x="413.293" y="449.925" width="6.2" height="1.8" rx="0.9" transform="rotate(167.385 413.293 449.925)" fill="#1874B7"/>
<rect x="400.288" y="452.981" width="6.2" height="1.8" rx="0.9" transform="rotate(164.198 400.288 452.981)" fill="#1874B7"/>
<rect x="387.233" y="456.515" width="6.2" height="1.8" rx="0.9" transform="rotate(168.116 387.233 456.515)" fill="#1874B7"/>
<rect x="375.197" y="458.776" width="6.2" height="1.8" rx="0.9" transform="rotate(172.007 375.197 458.776)" fill="#1874B7"/>
<rect x="604.621" y="262.415" width="6.2" height="1.8" rx="0.9" transform="rotate(1.99192 604.621 262.415)" fill="#1874B7"/>
<rect x="394.503" y="379.853" width="6.2" height="1.8" rx="0.9" transform="rotate(-14.3708 394.503 379.853)" fill="#1874B7"/>
<rect x="362.545" y="385.408" width="6.2" height="1.8" rx="0.9" transform="rotate(-7.71346 362.545 385.408)" fill="#1874B7"/>
<rect x="359.438" y="396.415" width="6.2" height="1.8" rx="0.9" transform="rotate(52.5642 359.438 396.415)" fill="#1874B7"/>
<rect x="360.961" y="419.365" width="6.2" height="1.8" rx="0.9" transform="rotate(144.852 360.961 419.365)" fill="#1874B7"/>
<rect x="509.545" y="357.092" width="6.2" height="1.8" rx="0.9" transform="rotate(-50.1713 509.545 357.092)" fill="#1874B7"/>
<rect x="485.545" y="375.18" width="6.2" height="1.8" rx="0.9" transform="rotate(-30.6205 485.545 375.18)" fill="#1874B7"/>
<rect x="475.545" y="381.18" width="6.2" height="1.8" rx="0.9" transform="rotate(-30.6205 475.545 381.18)" fill="#1874B7"/>
<rect x="450.545" y="396.801" width="6.2" height="1.8" rx="0.9" transform="rotate(-36.3925 450.545 396.801)" fill="#1874B7"/>
<rect x="440.545" y="403.801" width="6.2" height="1.8" rx="0.9" transform="rotate(-36.3925 440.545 403.801)" fill="#1874B7"/>
<rect x="393.336" y="351.044" width="6.2" height="1.8" rx="0.9" transform="rotate(133.096 393.336 351.044)" fill="#1874B7"/>
<rect x="361.74" y="353.431" width="6.2" height="1.8" rx="0.9" transform="rotate(-166.745 361.74 353.431)" fill="#1874B7"/>
<rect x="346.529" y="342.176" width="6.2" height="1.8" rx="0.9" transform="rotate(-105.567 346.529 342.176)" fill="#1874B7"/>
<rect x="324.545" y="324.436" width="6.2" height="1.8" rx="0.9" transform="rotate(-0.156383 324.545 324.436)" fill="#1874B7"/>
<rect x="333.579" y="357.914" width="6.2" height="1.8" rx="0.9" transform="rotate(-35.1398 333.579 357.914)" fill="#1874B7"/>
<rect x="307.545" y="360.725" width="6.2" height="1.8" rx="0.9" transform="rotate(-2.39808 307.545 360.725)" fill="#1874B7"/>
<rect x="520.468" y="442.303" width="6.2" height="1.8" rx="0.9" transform="rotate(82.3273 520.468 442.303)" fill="#1874B7"/>
<rect x="537.545" y="378.917" width="6.2" height="1.8" rx="0.9" transform="rotate(-48.101 537.545 378.917)" fill="#1874B7"/>
<rect x="529.545" y="387.917" width="6.2" height="1.8" rx="0.9" transform="rotate(-48.101 529.545 387.917)" fill="#1874B7"/>
<rect x="518.919" y="430.415" width="6.2" height="1.8" rx="0.9" transform="rotate(84.857 518.919 430.415)" fill="#1874B7"/>
<rect x="548.279" y="446.608" width="6.2" height="1.8" rx="0.9" transform="rotate(156.902 548.279 446.608)" fill="#1874B7"/>
<rect x="520.468" y="442.303" width="6.2" height="1.8" rx="0.9" transform="rotate(82.3273 520.468 442.303)" fill="#1874B7"/>
<rect x="516.917" y="418.415" width="6.2" height="1.8" rx="0.9" transform="rotate(84.1742 516.917 418.415)" fill="#1874B7"/>
<rect x="522.545" y="395.917" width="6.2" height="1.8" rx="0.9" transform="rotate(-48.101 522.545 395.917)" fill="#1874B7"/>
<rect x="537.28" y="451.608" width="6.2" height="1.8" rx="0.9" transform="rotate(156.902 537.28 451.608)" fill="#1874B7"/>
<rect x="550.485" y="436.562" width="6.2" height="1.8" rx="0.9" transform="rotate(-143.481 550.485 436.562)" fill="#1874B7"/>
<rect x="540.485" y="428.562" width="6.2" height="1.8" rx="0.9" transform="rotate(-143.481 540.485 428.562)" fill="#1874B7"/>
<rect x="529.485" y="420.562" width="6.2" height="1.8" rx="0.9" transform="rotate(-143.481 529.485 420.562)" fill="#1874B7"/>
<rect x="427.664" y="323.552" width="6.2" height="1.8" rx="0.9" transform="rotate(45.5069 427.664 323.552)" fill="#1874B7"/>
<rect x="405.526" y="311.415" width="6.2" height="1.8" rx="0.9" transform="rotate(24.316 405.526 311.415)" fill="#1874B7"/>
<rect x="382.545" y="313.107" width="6.2" height="1.8" rx="0.9" transform="rotate(-13.232 382.545 313.107)" fill="#1874B7"/>
<rect x="463.208" y="316.415" width="6.2" height="1.8" rx="0.9" transform="rotate(44.2616 463.208 316.415)" fill="#1874B7"/>
<rect x="454.434" y="308.093" width="6.2" height="1.8" rx="0.9" transform="rotate(44.2616 454.434 308.093)" fill="#1874B7"/>
<rect x="433.924" y="292.415" width="6.2" height="1.8" rx="0.9" transform="rotate(35.3534 433.924 292.415)" fill="#1874B7"/>
<rect x="454.545" y="302.548" width="6.2" height="1.8" rx="0.9" transform="rotate(-1.02938 454.545 302.548)" fill="#1874B7"/>
<rect x="475.928" y="312.415" width="6.2" height="1.8" rx="0.9" transform="rotate(88.5157 475.928 312.415)" fill="#1874B7"/>
<rect x="472.386" y="338.257" width="6.2" height="1.8" rx="0.9" transform="rotate(110.683 472.386 338.257)" fill="#1874B7"/>
<rect x="457.209" y="355.773" width="6.2" height="1.8" rx="0.9" transform="rotate(171.464 457.209 355.773)" fill="#1874B7"/>
<rect x="522.545" y="286.529" width="6.2" height="1.8" rx="0.9" transform="rotate(-8.66819 522.545 286.529)" fill="#1874B7"/>
<rect x="521.049" y="295.415" width="6.2" height="1.8" rx="0.9" transform="rotate(39.1207 521.049 295.415)" fill="#1874B7"/>
<rect x="492.564" y="280.415" width="6.2" height="1.8" rx="0.9" transform="rotate(25.3223 492.564 280.415)" fill="#1874B7"/>
<rect x="589.268" y="304.415" width="6.2" height="1.8" rx="0.9" transform="rotate(52.4378 589.268 304.415)" fill="#1874B7"/>
<rect x="597.268" y="313.415" width="6.2" height="1.8" rx="0.9" transform="rotate(52.4378 597.268 313.415)" fill="#1874B7"/>
<rect x="605.268" y="322.415" width="6.2" height="1.8" rx="0.9" transform="rotate(52.4378 605.268 322.415)" fill="#1874B7"/>
<rect x="641.128" y="320.36" width="6.2" height="1.8" rx="0.9" transform="rotate(153.412 641.128 320.36)" fill="#1874B7"/>
<rect x="630.128" y="325.36" width="6.2" height="1.8" rx="0.9" transform="rotate(153.412 630.128 325.36)" fill="#1874B7"/>
<rect x="614.616" y="348.044" width="6.2" height="1.8" rx="0.9" transform="rotate(-98.3359 614.616 348.044)" fill="#1874B7"/>
<rect x="616.616" y="359.044" width="6.2" height="1.8" rx="0.9" transform="rotate(-98.3359 616.616 359.044)" fill="#1874B7"/>
<rect x="618.147" y="370.96" width="6.2" height="1.8" rx="0.9" transform="rotate(-94.6746 618.147 370.96)" fill="#1874B7"/>
<rect x="607.544" y="384.178" width="6.2" height="1.8" rx="0.9" transform="rotate(-40.1103 607.544 384.178)" fill="#1874B7"/>
<rect x="598.544" y="392.178" width="6.2" height="1.8" rx="0.9" transform="rotate(-40.1103 598.544 392.178)" fill="#1874B7"/>
<rect x="589.295" y="400.442" width="6.2" height="1.8" rx="0.9" transform="rotate(-40.1103 589.295 400.442)" fill="#1874B7"/>
<rect x="522.892" y="247.872" width="6.2" height="1.8" rx="0.9" transform="rotate(-51.4367 522.892 247.872)" fill="#1874B7"/>
<rect x="550.937" y="237.888" width="6.2" height="1.8" rx="0.9" transform="rotate(-179.308 550.937 237.888)" fill="#1874B7"/>
<rect x="542.159" y="246.035" width="6.2" height="1.8" rx="0.9" transform="rotate(-139.413 542.159 246.035)" fill="#1874B7"/>
<rect x="551.159" y="254.035" width="6.2" height="1.8" rx="0.9" transform="rotate(-139.413 551.159 254.035)" fill="#1874B7"/>
<rect x="422.918" y="236.319" width="6.2" height="1.8" rx="0.9" transform="rotate(-175.92 422.918 236.319)" fill="#1874B7"/>
<rect x="440.625" y="250.895" width="6.2" height="1.8" rx="0.9" transform="rotate(-123.498 440.625 250.895)" fill="#1874B7"/>
<rect x="448.987" y="239.404" width="6.2" height="1.8" rx="0.9" transform="rotate(-177.158 448.987 239.404)" fill="#1874B7"/>
<rect x="477.886" y="243.646" width="6.2" height="1.8" rx="0.9" transform="rotate(-173.298 477.886 243.646)" fill="#1874B7"/>
<rect x="410.545" y="144.933" width="6.2" height="1.8" rx="0.9" transform="rotate(-48.2836 410.545 144.933)" fill="#1874B7"/>
<rect x="439.002" y="180.913" width="6.2" height="1.8" rx="0.9" transform="rotate(-150.87 439.002 180.913)" fill="#1874B7"/>
<rect x="443.967" y="178.913" width="6.2" height="1.8" rx="0.9" transform="rotate(-95.3678 443.967 178.913)" fill="#1874B7"/>
<rect x="442.688" y="167.848" width="6.2" height="1.8" rx="0.9" transform="rotate(-91.1042 442.688 167.848)" fill="#1874B7"/>
<rect x="429.545" y="165.519" width="6.2" height="1.8" rx="0.9" transform="rotate(-43.6636 429.545 165.519)" fill="#1874B7"/>
<rect x="461.957" y="184.589" width="6.2" height="1.8" rx="0.9" transform="rotate(179.461 461.957 184.589)" fill="#1874B7"/>
<rect x="450.659" y="185.415" width="6.2" height="1.8" rx="0.9" transform="rotate(30.8238 450.659 185.415)" fill="#1874B7"/>
<rect x="460.659" y="191.415" width="6.2" height="1.8" rx="0.9" transform="rotate(30.8238 460.659 191.415)" fill="#1874B7"/>
<rect x="471.659" y="197.415" width="6.2" height="1.8" rx="0.9" transform="rotate(30.8238 471.659 197.415)" fill="#1874B7"/>
<rect x="484.858" y="190.456" width="6.2" height="1.8" rx="0.9" transform="rotate(91.0799 484.858 190.456)" fill="#1874B7"/>
<rect x="473.957" y="184.589" width="6.2" height="1.8" rx="0.9" transform="rotate(179.461 473.957 184.589)" fill="#1874B7"/>
<rect x="456.957" y="156.589" width="6.2" height="1.8" rx="0.9" transform="rotate(179.461 456.957 156.589)" fill="#1874B7"/>
<rect x="468.646" y="147.836" width="6.2" height="1.8" rx="0.9" transform="rotate(-90.7804 468.646 147.836)" fill="#1874B7"/>
<rect x="480.91" y="141.415" width="6.2" height="1.8" rx="0.9" transform="rotate(38.9037 480.91 141.415)" fill="#1874B7"/>
<rect x="475.545" y="151.433" width="6.2" height="1.8" rx="0.9" transform="rotate(-0.134291 475.545 151.433)" fill="#1874B7"/>
<rect x="489.933" y="184.415" width="6.2" height="1.8" rx="0.9" transform="rotate(10.2653 489.933 184.415)" fill="#1874B7"/>
<rect x="499.354" y="186.415" width="6.2" height="1.8" rx="0.9" transform="rotate(21.8377 499.354 186.415)" fill="#1874B7"/>
<rect x="528.584" y="194.415" width="6.2" height="1.8" rx="0.9" transform="rotate(1.03716 528.584 194.415)" fill="#1874B7"/>
<rect x="398.805" y="187.156" width="6.2" height="1.8" rx="0.9" transform="rotate(-135.362 398.805 187.156)" fill="#1874B7"/>
<rect x="413.805" y="205.156" width="6.2" height="1.8" rx="0.9" transform="rotate(-135.362 413.805 205.156)" fill="#1874B7"/>
<rect x="422.545" y="205.686" width="6.2" height="1.8" rx="0.9" transform="rotate(-45.4782 422.545 205.686)" fill="#1874B7"/>
<rect x="459.545" y="208.034" width="6.2" height="1.8" rx="0.9" transform="rotate(-4.79876 459.545 208.034)" fill="#1874B7"/>
<rect x="470.545" y="207.034" width="6.2" height="1.8" rx="0.9" transform="rotate(-4.79876 470.545 207.034)" fill="#1874B7"/>
<rect x="544.545" y="160.503" width="6.2" height="1.8" rx="0.9" transform="rotate(-43.4949 544.545 160.503)" fill="#1874B7"/>
<rect x="553.545" y="152.503" width="6.2" height="1.8" rx="0.9" transform="rotate(-43.4949 553.545 152.503)" fill="#1874B7"/>
<rect x="538.591" y="146.415" width="6.2" height="1.8" rx="0.9" transform="rotate(1.22449 538.591 146.415)" fill="#1874B7"/>
<rect x="549.591" y="146.415" width="6.2" height="1.8" rx="0.9" transform="rotate(1.22449 549.591 146.415)" fill="#1874B7"/>
<rect x="532.063" y="153.415" width="6.2" height="1.8" rx="0.9" transform="rotate(44.3002 532.063 153.415)" fill="#1874B7"/>
<rect x="555.063" y="134.415" width="6.2" height="1.8" rx="0.9" transform="rotate(44.3002 555.063 134.415)" fill="#1874B7"/>
<rect x="546.063" y="125.415" width="6.2" height="1.8" rx="0.9" transform="rotate(44.3002 546.063 125.415)" fill="#1874B7"/>
<rect x="512.352" y="137.767" width="6.2" height="1.8" rx="0.9" transform="rotate(24.7831 512.352 137.767)" fill="#1874B7"/>
<rect x="549.449" y="114.62" width="6.2" height="1.8" rx="0.9" transform="rotate(123.634 549.449 114.62)" fill="#1874B7"/>
<rect x="554.227" y="106.147" width="6.2" height="1.8" rx="0.9" transform="rotate(123.634 554.227 106.147)" fill="#1874B7"/>
<rect x="548.004" y="100.588" width="6.2" height="1.8" rx="0.9" transform="rotate(178.135 548.004 100.588)" fill="#1874B7"/>
<rect x="543.959" y="72.7467" width="6.2" height="1.8" rx="0.9" transform="rotate(-179.418 543.959 72.7467)" fill="#1874B7"/>
<rect x="536.004" y="100.588" width="6.2" height="1.8" rx="0.9" transform="rotate(178.135 536.004 100.588)" fill="#1874B7"/>
<rect x="525.004" y="100.588" width="6.2" height="1.8" rx="0.9" transform="rotate(178.135 525.004 100.588)" fill="#1874B7"/>
<rect x="507.979" y="105.266" width="6.2" height="1.8" rx="0.9" transform="rotate(148.367 507.979 105.266)" fill="#1874B7"/>
<rect x="496.513" y="117.415" width="6.2" height="1.8" rx="0.9" transform="rotate(64.8768 496.513 117.415)" fill="#1874B7"/>
<rect x="498.272" y="142.556" width="6.2" height="1.8" rx="0.9" transform="rotate(121.63 498.272 142.556)" fill="#1874B7"/>
<rect x="492.95" y="134.589" width="6.2" height="1.8" rx="0.9" transform="rotate(179.644 492.95 134.589)" fill="#1874B7"/>
<rect x="544.828" y="70.1582" width="6.2" height="1.8" rx="0.9" transform="rotate(-148.203 544.828 70.1582)" fill="#1874B7"/>
<rect x="535.828" y="64.1582" width="6.2" height="1.8" rx="0.9" transform="rotate(-148.203 535.828 64.1582)" fill="#1874B7"/>
<rect x="527.828" y="59.1582" width="6.2" height="1.8" rx="0.9" transform="rotate(-148.203 527.828 59.1582)" fill="#1874B7"/>
<rect x="519.828" y="54.1582" width="6.2" height="1.8" rx="0.9" transform="rotate(-148.203 519.828 54.1582)" fill="#1874B7"/>
<rect x="510.828" y="48.1582" width="6.2" height="1.8" rx="0.9" transform="rotate(-148.203 510.828 48.1582)" fill="#1874B7"/>
<rect x="555.518" y="74.4154" width="6.2" height="1.8" rx="0.9" transform="rotate(26.5925 555.518 74.4154)" fill="#1874B7"/>
<rect x="566.518" y="79.4154" width="6.2" height="1.8" rx="0.9" transform="rotate(26.5925 566.518 79.4154)" fill="#1874B7"/>
<rect x="583.661" y="93.4154" width="6.2" height="1.8" rx="0.9" transform="rotate(76.6942 583.661 93.4154)" fill="#1874B7"/>
<rect x="585.661" y="101.415" width="6.2" height="1.8" rx="0.9" transform="rotate(76.6942 585.661 101.415)" fill="#1874B7"/>
<rect x="488.545" y="49.685" width="6.2" height="1.8" rx="0.9" transform="rotate(-45.4689 488.545 49.685)" fill="#1874B7"/>
<rect x="498.081" y="63.7901" width="6.2" height="1.8" rx="0.9" transform="rotate(-152.158 498.081 63.7901)" fill="#1874B7"/>
<rect x="587.661" y="109.415" width="6.2" height="1.8" rx="0.9" transform="rotate(76.6942 587.661 109.415)" fill="#1874B7"/>
<rect x="507.081" y="68.7901" width="6.2" height="1.8" rx="0.9" transform="rotate(-152.158 507.081 68.7901)" fill="#1874B7"/>
<rect x="532.937" y="72.6645" width="6.2" height="1.8" rx="0.9" transform="rotate(-179.418 532.937 72.6645)" fill="#1874B7"/>
<rect x="589.661" y="118.415" width="6.2" height="1.8" rx="0.9" transform="rotate(76.6942 589.661 118.415)" fill="#1874B7"/>
<rect x="449.042" y="105.553" width="6.2" height="1.8" rx="0.9" transform="rotate(127.814 449.042 105.553)" fill="#1874B7"/>
<rect x="459.519" y="80.6545" width="6.2" height="1.8" rx="0.9" transform="rotate(96.3133 459.519 80.6545)" fill="#1874B7"/>
<rect x="471.23" y="90.4515" width="6.2" height="1.8" rx="0.9" transform="rotate(159.478 471.23 90.4515)" fill="#1874B7"/>
<rect x="479.982" y="87.1012" width="6.2" height="1.8" rx="0.9" transform="rotate(159.478 479.982 87.1012)" fill="#1874B7"/>
<rect x="476.081" y="81.7901" width="6.2" height="1.8" rx="0.9" transform="rotate(-152.158 476.081 81.7901)" fill="#1874B7"/>
<rect x="361.943" y="2.58949" width="6.2" height="1.8" rx="0.9" transform="rotate(179.835 361.943 2.58949)" fill="#1874B7"/>
<rect x="371.943" y="2.58949" width="6.2" height="1.8" rx="0.9" transform="rotate(179.835 371.943 2.58949)" fill="#1874B7"/>
<rect x="395.817" y="5.87713" width="6.2" height="1.8" rx="0.9" transform="rotate(-169.692 395.817 5.87713)" fill="#1874B7"/>
<rect x="405.817" y="7.87713" width="6.2" height="1.8" rx="0.9" transform="rotate(-169.692 405.817 7.87713)" fill="#1874B7"/>
<rect x="415.817" y="9.87713" width="6.2" height="1.8" rx="0.9" transform="rotate(-169.692 415.817 9.87713)" fill="#1874B7"/>
<rect x="426.834" y="12.0696" width="6.2" height="1.8" rx="0.9" transform="rotate(-169.692 426.834 12.0696)" fill="#1874B7"/>
<rect x="431.699" y="30.8512" width="6.2" height="1.8" rx="0.9" transform="rotate(-91.195 431.699 30.8512)" fill="#1874B7"/>
<rect x="329.934" y="20.8025" width="6.2" height="1.8" rx="0.9" transform="rotate(-178.342 329.934 20.8025)" fill="#1874B7"/>
<rect x="341.929" y="20.9267" width="6.2" height="1.8" rx="0.9" transform="rotate(-177.368 341.929 20.9267)" fill="#1874B7"/>
<rect x="241.225" y="7.54402" width="6.2" height="1.8" rx="0.9" transform="rotate(168.261 241.225 7.54402)" fill="#1874B7"/>
<rect x="251.225" y="5.54402" width="6.2" height="1.8" rx="0.9" transform="rotate(168.261 251.225 5.54402)" fill="#1874B7"/>
<rect x="261.229" y="3.60394" width="6.2" height="1.8" rx="0.9" transform="rotate(168.261 261.229 3.60394)" fill="#1874B7"/>
<rect x="271.225" y="1.83241" width="6.2" height="1.8" rx="0.9" transform="rotate(169.927 271.225 1.83241)" fill="#1874B7"/>
<rect x="275.604" y="12.1204" width="6.2" height="1.8" rx="0.9" transform="rotate(-106.178 275.604 12.1204)" fill="#1874B7"/>
<rect x="278.604" y="22.1204" width="6.2" height="1.8" rx="0.9" transform="rotate(-106.178 278.604 22.1204)" fill="#1874B7"/>
<rect x="297.234" y="23.536" width="6.2" height="1.8" rx="0.9" transform="rotate(167.268 297.234 23.536)" fill="#1874B7"/>
<rect x="307.215" y="21.7482" width="6.2" height="1.8" rx="0.9" transform="rotate(170.438 307.215 21.7482)" fill="#1874B7"/>
<rect x="341.945" y="20.8788" width="6.2" height="1.8" rx="0.9" transform="rotate(-178.12 341.945 20.8788)" fill="#1874B7"/>
<rect x="352.886" y="21.7688" width="6.2" height="1.8" rx="0.9" transform="rotate(-177.368 352.886 21.7688)" fill="#1874B7"/>
<rect x="346.863" y="85.4154" width="6.2" height="1.8" rx="0.9" transform="rotate(8.42039 346.863 85.4154)" fill="#1874B7"/>
<rect x="358.863" y="87.4154" width="6.2" height="1.8" rx="0.9" transform="rotate(8.42039 358.863 87.4154)" fill="#1874B7"/>
<rect x="379.545" y="87.1132" width="6.2" height="1.8" rx="0.9" transform="rotate(-39.459 379.545 87.1132)" fill="#1874B7"/>
<rect x="403.545" y="72.1719" width="6.2" height="1.8" rx="0.9" transform="rotate(-30.5426 403.545 72.1719)" fill="#1874B7"/>
<rect x="412.545" y="67.1719" width="6.2" height="1.8" rx="0.9" transform="rotate(-30.5426 412.545 67.1719)" fill="#1874B7"/>
<rect x="409.708" y="87.3087" width="6.2" height="1.8" rx="0.9" transform="rotate(-146.495 409.708 87.3087)" fill="#1874B7"/>
<rect x="417.053" y="86.587" width="6.2" height="1.8" rx="0.9" transform="rotate(-79.1689 417.053 86.587)" fill="#1874B7"/>
<rect x="419.078" y="75.5996" width="6.2" height="1.8" rx="0.9" transform="rotate(-79.5833 419.078 75.5996)" fill="#1874B7"/>
<rect x="389.874" y="46.5323" width="6.2" height="1.8" rx="0.9" transform="rotate(-172.529 389.874 46.5323)" fill="#1874B7"/>
<rect x="417.074" y="60.9481" width="6.2" height="1.8" rx="0.9" transform="rotate(-138.412 417.074 60.9481)" fill="#1874B7"/>
<rect x="378.81" y="45.2295" width="6.2" height="1.8" rx="0.9" transform="rotate(-172.529 378.81 45.2295)" fill="#1874B7"/>
<rect x="329.34" y="49.4154" width="6.2" height="1.8" rx="0.9" transform="rotate(21.4512 329.34 49.4154)" fill="#1874B7"/>
<rect x="340.34" y="54.4154" width="6.2" height="1.8" rx="0.9" transform="rotate(21.4512 340.34 54.4154)" fill="#1874B7"/>
<rect x="340.545" y="61.1794" width="6.2" height="1.8" rx="0.9" transform="rotate(-5.93249 340.545 61.1794)" fill="#1874B7"/>
<rect x="329.581" y="62.0089" width="6.2" height="1.8" rx="0.9" transform="rotate(-3.34271 329.581 62.0089)" fill="#1874B7"/>
<rect x="319.467" y="62.8556" width="6.2" height="1.8" rx="0.9" transform="rotate(-5.93249 319.467 62.8556)" fill="#1874B7"/>
<rect x="299.545" y="45.5204" width="6.2" height="1.8" rx="0.9" transform="rotate(-0.813663 299.545 45.5204)" fill="#1874B7"/>
<rect x="299.82" y="55.4154" width="6.2" height="1.8" rx="0.9" transform="rotate(35.9005 299.82 55.4154)" fill="#1874B7"/>
<rect x="309.34" y="68.9655" width="6.2" height="1.8" rx="0.9" transform="rotate(135.478 309.34 68.9655)" fill="#1874B7"/>
<rect x="302.113" y="76.5939" width="6.2" height="1.8" rx="0.9" transform="rotate(129.001 302.113 76.5939)" fill="#1874B7"/>
<rect x="311.993" y="67.426" width="6.2" height="1.8" rx="0.9" transform="rotate(78.02 311.993 67.426)" fill="#1874B7"/>
<rect x="314.618" y="78.4154" width="6.2" height="1.8" rx="0.9" transform="rotate(72.4418 314.618 78.4154)" fill="#1874B7"/>
<rect x="351.545" y="161.54" width="6.2" height="1.8" rx="0.9" transform="rotate(-30.2647 351.545 161.54)" fill="#1874B7"/>
<rect x="365.545" y="150.444" width="6.2" height="1.8" rx="0.9" transform="rotate(-76.4807 365.545 150.444)" fill="#1874B7"/>
<rect x="354.551" y="138.415" width="6.2" height="1.8" rx="0.9" transform="rotate(0.191521 354.551 138.415)" fill="#1874B7"/>
<rect x="375.545" y="130.633" width="6.2" height="1.8" rx="0.9" transform="rotate(-42.8638 375.545 130.633)" fill="#1874B7"/>
<rect x="367.724" y="116.415" width="6.2" height="1.8" rx="0.9" transform="rotate(5.69508 367.724 116.415)" fill="#1874B7"/>
<rect x="356.724" y="115.415" width="6.2" height="1.8" rx="0.9" transform="rotate(5.69508 356.724 115.415)" fill="#1874B7"/>
<rect x="299.041" y="123.415" width="6.2" height="1.8" rx="0.9" transform="rotate(16.0003 299.041 123.415)" fill="#1874B7"/>
<rect x="289.041" y="120.415" width="6.2" height="1.8" rx="0.9" transform="rotate(16.0003 289.041 120.415)" fill="#1874B7"/>
<rect x="286.545" y="114.642" width="6.2" height="1.8" rx="0.9" transform="rotate(-11.4146 286.545 114.642)" fill="#1874B7"/>
<rect x="296.555" y="112.793" width="6.2" height="1.8" rx="0.9" transform="rotate(-11.4146 296.555 112.793)" fill="#1874B7"/>
<rect x="312.873" y="123.702" width="6.2" height="1.8" rx="0.9" transform="rotate(-93.0295 312.873 123.702)" fill="#1874B7"/>
<rect x="311.388" y="142.546" width="6.2" height="1.8" rx="0.9" transform="rotate(-83.8649 311.388 142.546)" fill="#1874B7"/>
<rect x="310.395" y="152.549" width="6.2" height="1.8" rx="0.9" transform="rotate(-83.9998 310.395 152.549)" fill="#1874B7"/>
<rect x="215.649" y="37.4154" width="6.2" height="1.8" rx="0.9" transform="rotate(3.3352 215.649 37.4154)" fill="#1874B7"/>
<rect x="205.649" y="36.4154" width="6.2" height="1.8" rx="0.9" transform="rotate(3.3352 205.649 36.4154)" fill="#1874B7"/>
<rect x="195.649" y="35.9154" width="6.2" height="1.8" rx="0.9" transform="rotate(3.3352 195.649 35.9154)" fill="#1874B7"/>
<rect x="185.649" y="35.4154" width="6.2" height="1.8" rx="0.9" transform="rotate(3.3352 185.649 35.4154)" fill="#1874B7"/>
<rect x="175.649" y="34.9154" width="6.2" height="1.8" rx="0.9" transform="rotate(3.3352 175.649 34.9154)" fill="#1874B7"/>
<rect x="166.649" y="34.4154" width="6.2" height="1.8" rx="0.9" transform="rotate(3.3352 166.649 34.4154)" fill="#1874B7"/>
<rect x="179.545" y="55.1007" width="6.2" height="1.8" rx="0.9" transform="rotate(-15.7731 179.545 55.1007)" fill="#1874B7"/>
<rect x="169.545" y="58.1007" width="6.2" height="1.8" rx="0.9" transform="rotate(-15.7731 169.545 58.1007)" fill="#1874B7"/>
<rect x="162.328" y="50.4154" width="6.2" height="1.8" rx="0.9" transform="rotate(82.0859 162.328 50.4154)" fill="#1874B7"/>
<rect x="160.328" y="41.4154" width="6.2" height="1.8" rx="0.9" transform="rotate(82.0859 160.328 41.4154)" fill="#1874B7"/>
<rect x="249.604" y="115.112" width="6.2" height="1.8" rx="0.9" transform="rotate(112.755 249.604 115.112)" fill="#1874B7"/>
<rect x="253.777" y="105.957" width="6.2" height="1.8" rx="0.9" transform="rotate(112.755 253.777 105.957)" fill="#1874B7"/>
<rect x="253.952" y="98.0688" width="6.2" height="1.8" rx="0.9" transform="rotate(156.712 253.952 98.0688)" fill="#1874B7"/>
<rect x="244.952" y="102.069" width="6.2" height="1.8" rx="0.9" transform="rotate(156.712 244.952 102.069)" fill="#1874B7"/>
<rect x="249.333" y="95.318" width="6.2" height="1.8" rx="0.9" transform="rotate(-158.997 249.333 95.318)" fill="#1874B7"/>
<rect x="239.333" y="91.318" width="6.2" height="1.8" rx="0.9" transform="rotate(-158.997 239.333 91.318)" fill="#1874B7"/>
<rect x="225.372" y="100.8" width="6.2" height="1.8" rx="0.9" transform="rotate(-97.6654 225.372 100.8)" fill="#1874B7"/>
<rect x="223.988" y="105.964" width="6.2" height="1.8" rx="0.9" transform="rotate(-151.391 223.988 105.964)" fill="#1874B7"/>
<rect x="215.988" y="101.964" width="6.2" height="1.8" rx="0.9" transform="rotate(-151.391 215.988 101.964)" fill="#1874B7"/>
<rect x="182.615" y="108.87" width="6.2" height="1.8" rx="0.9" transform="rotate(143.912 182.615 108.87)" fill="#1874B7"/>
<rect x="191.615" y="102.87" width="6.2" height="1.8" rx="0.9" transform="rotate(143.912 191.615 102.87)" fill="#1874B7"/>
<rect x="199.615" y="96.87" width="6.2" height="1.8" rx="0.9" transform="rotate(143.912 199.615 96.87)" fill="#1874B7"/>
<rect x="215.905" y="87.6288" width="6.2" height="1.8" rx="0.9" transform="rotate(150.647 215.905 87.6288)" fill="#1874B7"/>
<rect x="235.867" y="80.5549" width="6.2" height="1.8" rx="0.9" transform="rotate(159.058 235.867 80.5549)" fill="#1874B7"/>
<rect x="250.734" y="88.6581" width="6.2" height="1.8" rx="0.9" transform="rotate(-120.957 250.734 88.6581)" fill="#1874B7"/>
<rect x="234.358" y="71.2588" width="6.2" height="1.8" rx="0.9" transform="rotate(-159.654 234.358 71.2588)" fill="#1874B7"/>
<rect x="196.55" y="86.6597" width="6.2" height="1.8" rx="0.9" transform="rotate(-114.828 196.55 86.6597)" fill="#1874B7"/>
<rect x="152.788" y="101.415" width="6.2" height="1.8" rx="0.9" transform="rotate(43.6844 152.788 101.415)" fill="#1874B7"/>
<rect x="159.788" y="108.415" width="6.2" height="1.8" rx="0.9" transform="rotate(43.6844 159.788 108.415)" fill="#1874B7"/>
<rect x="141.86" y="147.212" width="6.2" height="1.8" rx="0.9" transform="rotate(-54.3443 141.86 147.212)" fill="#1874B7"/>
<rect x="159.545" y="127.727" width="6.2" height="1.8" rx="0.9" transform="rotate(-44.0593 159.545 127.727)" fill="#1874B7"/>
<rect x="178.304" y="128.255" width="6.2" height="1.8" rx="0.9" transform="rotate(56.3712 178.304 128.255)" fill="#1874B7"/>
<rect x="157.708" y="137.123" width="6.2" height="1.8" rx="0.9" transform="rotate(7.24871 157.708 137.123)" fill="#1874B7"/>
<rect x="168.676" y="138.201" width="6.2" height="1.8" rx="0.9" transform="rotate(5.74653 168.676 138.201)" fill="#1874B7"/>
<rect x="193.988" y="142.415" width="6.2" height="1.8" rx="0.9" transform="rotate(14.2391 193.988 142.415)" fill="#1874B7"/>
<rect x="204.988" y="145.415" width="6.2" height="1.8" rx="0.9" transform="rotate(14.2391 204.988 145.415)" fill="#1874B7"/>
<rect x="221.545" y="142.454" width="6.2" height="1.8" rx="0.9" transform="rotate(-40.6497 221.545 142.454)" fill="#1874B7"/>
<rect x="230.545" y="135.454" width="6.2" height="1.8" rx="0.9" transform="rotate(-40.6497 230.545 135.454)" fill="#1874B7"/>
<rect x="236.066" y="119.541" width="6.2" height="1.8" rx="0.9" transform="rotate(-124.612 236.066 119.541)" fill="#1874B7"/>
<rect x="42.5449" y="129.966" width="6.2" height="1.8" rx="0.9" transform="rotate(-47.2172 42.5449 129.966)" fill="#1874B7"/>
<rect x="55.5449" y="114.966" width="6.2" height="1.8" rx="0.9" transform="rotate(-47.2172 55.5449 114.966)" fill="#1874B7"/>
<rect x="49.5449" y="121.966" width="6.2" height="1.8" rx="0.9" transform="rotate(-47.2172 49.5449 121.966)" fill="#1874B7"/>
<rect x="62.4785" y="108.019" width="6.2" height="1.8" rx="0.9" transform="rotate(-47.2172 62.4785 108.019)" fill="#1874B7"/>
<rect x="82.8755" y="99.4154" width="6.2" height="1.8" rx="0.9" transform="rotate(10.587 82.8755 99.4154)" fill="#1874B7"/>
<rect x="92.8755" y="101.415" width="6.2" height="1.8" rx="0.9" transform="rotate(10.587 92.8755 101.415)" fill="#1874B7"/>
<rect x="102.89" y="103.607" width="6.2" height="1.8" rx="0.9" transform="rotate(10.587 102.89 103.607)" fill="#1874B7"/>
<rect x="130.51" y="103.6" width="6.2" height="1.8" rx="0.9" transform="rotate(-17.4423 130.51 103.6)" fill="#1874B7"/>
<rect x="268.545" y="183.337" width="6.2" height="1.8" rx="0.9" transform="rotate(-72.7593 268.545 183.337)" fill="#1874B7"/>
<rect x="224.555" y="149.415" width="6.2" height="1.8" rx="0.9" transform="rotate(0.331196 224.555 149.415)" fill="#1874B7"/>
<rect x="235.555" y="149.415" width="6.2" height="1.8" rx="0.9" transform="rotate(0.331196 235.555 149.415)" fill="#1874B7"/>
<rect x="247.555" y="149.415" width="6.2" height="1.8" rx="0.9" transform="rotate(0.331196 247.555 149.415)" fill="#1874B7"/>
<rect x="271.545" y="147.358" width="6.2" height="1.8" rx="0.9" transform="rotate(-8.74931 271.545 147.358)" fill="#1874B7"/>
<rect x="251.545" y="162.737" width="6.2" height="1.8" rx="0.9" transform="rotate(-59.1201 251.545 162.737)" fill="#1874B7"/>
<rect x="256.686" y="170.498" width="6.2" height="1.8" rx="0.9" transform="rotate(3.55869 256.686 170.498)" fill="#1874B7"/>
<rect x="234.261" y="160.656" width="6.2" height="1.8" rx="0.9" transform="rotate(26.1407 234.261 160.656)" fill="#1874B7"/>
<rect x="225.505" y="155.415" width="6.2" height="1.8" rx="0.9" transform="rotate(32.2245 225.505 155.415)" fill="#1874B7"/>
<rect x="22.4297" y="220.785" width="6.2" height="1.8" rx="0.9" transform="rotate(139.531 22.4297 220.785)" fill="#1874B7"/>
<rect x="31.3589" y="213.871" width="6.2" height="1.8" rx="0.9" transform="rotate(139.531 31.3589 213.871)" fill="#1874B7"/>
<rect x="52.666" y="211.545" width="6.2" height="1.8" rx="0.9" transform="rotate(-174.816 52.666 211.545)" fill="#1874B7"/>
<rect x="43.6763" y="191.976" width="6.2" height="1.8" rx="0.9" transform="rotate(-64.4801 43.6763 191.976)" fill="#1874B7"/>
<rect x="39.2778" y="200.911" width="6.2" height="1.8" rx="0.9" transform="rotate(-61.2771 39.2778 200.911)" fill="#1874B7"/>
<rect x="48.0449" y="183.149" width="6.2" height="1.8" rx="0.9" transform="rotate(-67.6377 48.0449 183.149)" fill="#1874B7"/>
<rect x="32.4033" y="204.389" width="6.2" height="1.8" rx="0.9" transform="rotate(-128.484 32.4033 204.389)" fill="#1874B7"/>
<rect x="26.4033" y="196.389" width="6.2" height="1.8" rx="0.9" transform="rotate(-128.484 26.4033 196.389)" fill="#1874B7"/>
<rect x="34.9697" y="179.086" width="6.2" height="1.8" rx="0.9" transform="rotate(158.166 34.9697 179.086)" fill="#1874B7"/>
<rect x="44.9448" y="175.237" width="6.2" height="1.8" rx="0.9" transform="rotate(158.166 44.9448 175.237)" fill="#1874B7"/>
<rect x="81.9878" y="162.24" width="6.2" height="1.8" rx="0.9" transform="rotate(161.674 81.9878 162.24)" fill="#1874B7"/>
<rect x="71.9878" y="165.429" width="6.2" height="1.8" rx="0.9" transform="rotate(161.513 71.9878 165.429)" fill="#1874B7"/>
<rect x="65.8438" y="158.547" width="6.2" height="1.8" rx="0.9" transform="rotate(128.972 65.8438 158.547)" fill="#1874B7"/>
<rect x="71.8438" y="150.548" width="6.2" height="1.8" rx="0.9" transform="rotate(128.972 71.8438 150.548)" fill="#1874B7"/>
<rect x="77.8438" y="142.548" width="6.2" height="1.8" rx="0.9" transform="rotate(128.972 77.8438 142.548)" fill="#1874B7"/>
<rect x="71.752" y="135.215" width="6.2" height="1.8" rx="0.9" transform="rotate(179.769 71.752 135.215)" fill="#1874B7"/>
<rect x="60.752" y="135.215" width="6.2" height="1.8" rx="0.9" transform="rotate(179.769 60.752 135.215)" fill="#1874B7"/>
<rect x="49.752" y="135.215" width="6.2" height="1.8" rx="0.9" transform="rotate(179.769 49.752 135.215)" fill="#1874B7"/>
<rect x="87.8335" y="150.828" width="6.2" height="1.8" rx="0.9" transform="rotate(-106.653 87.8335 150.828)" fill="#1874B7"/>
<rect x="103.545" y="186.83" width="6.2" height="1.8" rx="0.9" transform="rotate(-33.4134 103.545 186.83)" fill="#1874B7"/>
<rect x="111.458" y="180.99" width="6.2" height="1.8" rx="0.9" transform="rotate(-33.4134 111.458 180.99)" fill="#1874B7"/>
<rect x="111.263" y="164.415" width="6.2" height="1.8" rx="0.9" transform="rotate(23.5216 111.263 164.415)" fill="#1874B7"/>
<rect x="102.263" y="160.415" width="6.2" height="1.8" rx="0.9" transform="rotate(23.5216 102.263 160.415)" fill="#1874B7"/>
<rect x="107.556" y="155.531" width="6.2" height="1.8" rx="0.9" transform="rotate(-0.692568 107.556 155.531)" fill="#1874B7"/>
<rect x="119.59" y="155.415" width="6.2" height="1.8" rx="0.9" transform="rotate(1.4498 119.59 155.415)" fill="#1874B7"/>
<rect x="216.67" y="198.205" width="6.2" height="1.8" rx="0.9" transform="rotate(122.235 216.67 198.205)" fill="#1874B7"/>
<rect x="192.594" y="210.415" width="6.2" height="1.8" rx="0.9" transform="rotate(1.54935 192.594 210.415)" fill="#1874B7"/>
<rect x="145.545" y="201.575" width="6.2" height="1.8" rx="0.9" transform="rotate(-83.4374 145.545 201.575)" fill="#1874B7"/>
<rect x="155.545" y="178.884" width="6.2" height="1.8" rx="0.9" transform="rotate(-46.1157 155.545 178.884)" fill="#1874B7"/>
<rect x="174.286" y="172.711" width="6.2" height="1.8" rx="0.9" transform="rotate(28.9501 174.286 172.711)" fill="#1874B7"/>
<rect x="47.356" y="242.487" width="6.2" height="1.8" rx="0.9" transform="rotate(-24.5002 47.356 242.487)" fill="#1874B7"/>
<rect x="46.5449" y="274.199" width="6.2" height="1.8" rx="0.9" transform="rotate(-37.6071 46.5449 274.199)" fill="#1874B7"/>
<rect x="46.0068" y="259.605" width="6.2" height="1.8" rx="0.9" transform="rotate(14.9825 46.0068 259.605)" fill="#1874B7"/>
<rect x="71.5449" y="263.721" width="6.2" height="1.8" rx="0.9" transform="rotate(-2.82652 71.5449 263.721)" fill="#1874B7"/>
<rect x="59.3872" y="260.52" width="6.2" height="1.8" rx="0.9" transform="rotate(-81.4776 59.3872 260.52)" fill="#1874B7"/>
<rect x="60.9604" y="250.64" width="6.2" height="1.8" rx="0.9" transform="rotate(-84.5258 60.9604 250.64)" fill="#1874B7"/>
<rect x="67.5449" y="226.44" width="6.2" height="1.8" rx="0.9" transform="rotate(-76.3318 67.5449 226.44)" fill="#1874B7"/>
<rect x="74.5449" y="229.486" width="6.2" height="1.8" rx="0.9" transform="rotate(-29.6854 74.5449 229.486)" fill="#1874B7"/>
<rect x="84.5449" y="224.486" width="6.2" height="1.8" rx="0.9" transform="rotate(-29.6854 84.5449 224.486)" fill="#1874B7"/>
<rect x="94.5449" y="219.486" width="6.2" height="1.8" rx="0.9" transform="rotate(-29.6854 94.5449 219.486)" fill="#1874B7"/>
<rect x="89.5879" y="211.565" width="6.2" height="1.8" rx="0.9" transform="rotate(0.0909925 89.5879 211.565)" fill="#1874B7"/>
<rect x="78.6353" y="211.415" width="6.2" height="1.8" rx="0.9" transform="rotate(2.87131 78.6353 211.415)" fill="#1874B7"/>
<rect x="99.9497" y="200.415" width="6.2" height="1.8" rx="0.9" transform="rotate(51.3069 99.9497 200.415)" fill="#1874B7"/>
<rect x="87.5884" y="201.857" width="6.2" height="1.8" rx="0.9" transform="rotate(143.214 87.5884 201.857)" fill="#1874B7"/>
<rect x="64.772" y="212.624" width="6.2" height="1.8" rx="0.9" transform="rotate(-177.534 64.772 212.624)" fill="#1874B7"/>
<rect x="33.334" y="310.415" width="6.2" height="1.8" rx="0.9" transform="rotate(83.7259 33.334 310.415)" fill="#1874B7"/>
<rect x="32.334" y="299.415" width="6.2" height="1.8" rx="0.9" transform="rotate(83.7259 32.334 299.415)" fill="#1874B7"/>
<rect x="10.5449" y="264.596" width="6.2" height="1.8" rx="0.9" transform="rotate(-42.402 10.5449 264.596)" fill="#1874B7"/>
<rect x="0.544922" y="272.596" width="6.2" height="1.8" rx="0.9" transform="rotate(-42.402 0.544922 272.596)" fill="#1874B7"/>
<rect x="3.50098" y="278.095" width="6.2" height="1.8" rx="0.9" transform="rotate(29.4639 3.50098 278.095)" fill="#1874B7"/>
<rect x="40.4365" y="260.056" width="6.2" height="1.8" rx="0.9" transform="rotate(-161.86 40.4365 260.056)" fill="#1874B7"/>
<rect x="42.9033" y="247.031" width="6.2" height="1.8" rx="0.9" transform="rotate(153.84 42.9033 247.031)" fill="#1874B7"/>
<rect x="20.8232" y="253.2" width="6.2" height="1.8" rx="0.9" transform="rotate(-148.358 20.8232 253.2)" fill="#1874B7"/>
<rect x="12.8232" y="248.2" width="6.2" height="1.8" rx="0.9" transform="rotate(-148.358 12.8232 248.2)" fill="#1874B7"/>
<rect x="14.2144" y="283.415" width="6.2" height="1.8" rx="0.9" transform="rotate(21.8324 14.2144 283.415)" fill="#1874B7"/>
<rect x="38.5449" y="281.199" width="6.2" height="1.8" rx="0.9" transform="rotate(-37.6071 38.5449 281.199)" fill="#1874B7"/>
<rect x="13.4297" y="228.785" width="6.2" height="1.8" rx="0.9" transform="rotate(139.531 13.4297 228.785)" fill="#1874B7"/>
<rect x="166.545" y="246.948" width="6.2" height="1.8" rx="0.9" transform="rotate(-46.9758 166.545 246.948)" fill="#1874B7"/>
<rect x="150.749" y="242.415" width="6.2" height="1.8" rx="0.9" transform="rotate(41.9961 150.749 242.415)" fill="#1874B7"/>
<rect x="131.707" y="249.898" width="6.2" height="1.8" rx="0.9" transform="rotate(-48.4449 131.707 249.898)" fill="#1874B7"/>
<rect x="125.545" y="236.891" width="6.2" height="1.8" rx="0.9" transform="rotate(-4.39957 125.545 236.891)" fill="#1874B7"/>
<rect x="113.545" y="237.891" width="6.2" height="1.8" rx="0.9" transform="rotate(-4.39957 113.545 237.891)" fill="#1874B7"/>
<rect x="113.578" y="261.067" width="6.2" height="1.8" rx="0.9" transform="rotate(-4.39957 113.578 261.067)" fill="#1874B7"/>
<rect x="83.5449" y="262.721" width="6.2" height="1.8" rx="0.9" transform="rotate(-2.82652 83.5449 262.721)" fill="#1874B7"/>
<rect x="242.282" y="224.415" width="6.2" height="1.8" rx="0.9" transform="rotate(74.8228 242.282 224.415)" fill="#1874B7"/>
<rect x="260.545" y="227.793" width="6.2" height="1.8" rx="0.9" transform="rotate(-22.5457 260.545 227.793)" fill="#1874B7"/>
<rect x="249.322" y="232.409" width="6.2" height="1.8" rx="0.9" transform="rotate(-22.5457 249.322 232.409)" fill="#1874B7"/>
<rect x="225.545" y="227.28" width="6.2" height="1.8" rx="0.9" transform="rotate(-38.5568 225.545 227.28)" fill="#1874B7"/>
<rect x="217.545" y="234.28" width="6.2" height="1.8" rx="0.9" transform="rotate(-38.5568 217.545 234.28)" fill="#1874B7"/>
<rect x="266.08" y="258.273" width="6.2" height="1.8" rx="0.9" transform="rotate(118.436 266.08 258.273)" fill="#1874B7"/>
<rect x="301.545" y="251.64" width="6.2" height="1.8" rx="0.9" transform="rotate(-42.9562 301.545 251.64)" fill="#1874B7"/>
<rect x="275.752" y="241.161" width="6.2" height="1.8" rx="0.9" transform="rotate(114.477 275.752 241.161)" fill="#1874B7"/>
<rect x="277.031" y="252.647" width="6.2" height="1.8" rx="0.9" transform="rotate(16.0513 277.031 252.647)" fill="#1874B7"/>
<rect x="247.368" y="260.415" width="6.2" height="1.8" rx="0.9" transform="rotate(27.2072 247.368 260.415)" fill="#1874B7"/>
<rect x="309.666" y="243.858" width="6.2" height="1.8" rx="0.9" transform="rotate(-47.3716 309.666 243.858)" fill="#1874B7"/>
<rect x="282.342" y="289.014" width="6.2" height="1.8" rx="0.9" transform="rotate(24.9564 282.342 289.014)" fill="#1874B7"/>
<rect x="289.545" y="280.074" width="6.2" height="1.8" rx="0.9" transform="rotate(-25.393 289.545 280.074)" fill="#1874B7"/>
<rect x="329.344" y="269.415" width="6.2" height="1.8" rx="0.9" transform="rotate(88.413 329.344 269.415)" fill="#1874B7"/>
<rect x="372.545" y="290.957" width="6.2" height="1.8" rx="0.9" transform="rotate(-5.01058 372.545 290.957)" fill="#1874B7"/>
<rect x="351.979" y="287.678" width="6.2" height="1.8" rx="0.9" transform="rotate(14.1 351.979 287.678)" fill="#1874B7"/>
<rect x="341.156" y="284.204" width="6.2" height="1.8" rx="0.9" transform="rotate(19.6717 341.156 284.204)" fill="#1874B7"/>
<rect x="326.272" y="289.004" width="6.2" height="1.8" rx="0.9" transform="rotate(109.074 326.272 289.004)" fill="#1874B7"/>
<rect x="276.545" y="203.327" width="6.2" height="1.8" rx="0.9" transform="rotate(-39.1123 276.545 203.327)" fill="#1874B7"/>
<rect x="308.545" y="194.347" width="6.2" height="1.8" rx="0.9" transform="rotate(-39.351 308.545 194.347)" fill="#1874B7"/>
<rect x="292.732" y="195.415" width="6.2" height="1.8" rx="0.9" transform="rotate(5.97665 292.732 195.415)" fill="#1874B7"/>
<rect x="254.108" y="201.415" width="6.2" height="1.8" rx="0.9" transform="rotate(18.2304 254.108 201.415)" fill="#1874B7"/>
<rect x="310.861" y="204.415" width="6.2" height="1.8" rx="0.9" transform="rotate(47.0006 310.861 204.415)" fill="#1874B7"/>
<rect x="382.169" y="244.415" width="6.2" height="1.8" rx="0.9" transform="rotate(64.4687 382.169 244.415)" fill="#1874B7"/>
<rect x="374.545" y="251.524" width="6.2" height="1.8" rx="0.9" transform="rotate(-1.00063 374.545 251.524)" fill="#1874B7"/>
<rect x="369.545" y="260.372" width="6.2" height="1.8" rx="0.9" transform="rotate(-28.4764 369.545 260.372)" fill="#1874B7"/>
<rect x="360.545" y="265.372" width="6.2" height="1.8" rx="0.9" transform="rotate(-28.4764 360.545 265.372)" fill="#1874B7"/>
<rect x="373.74" y="356.431" width="7.392" height="2.38386" rx="1.19193" transform="rotate(-166.745 373.74 356.431)" fill="#1874B7"/>
<rect x="393.609" y="261.415" width="6.2" height="1.8" rx="0.9" transform="rotate(36.2278 393.609 261.415)" fill="#1874B7"/>
<rect x="350.564" y="239.415" width="6.2" height="1.8" rx="0.9" transform="rotate(34.4915 350.564 239.415)" fill="#1874B7"/>
<rect x="397.603" y="253.415" width="6.2" height="1.8" rx="0.9" transform="rotate(1.85684 397.603 253.415)" fill="#1874B7"/>
<rect x="379.722" y="213.743" width="6.2" height="1.8" rx="0.9" transform="rotate(-175.056 379.722 213.743)" fill="#1874B7"/>
<rect x="370.877" y="201.203" width="6.2" height="1.8" rx="0.9" transform="rotate(115.953 370.877 201.203)" fill="#1874B7"/>
<rect x="348.322" y="186.415" width="6.2" height="1.8" rx="0.9" transform="rotate(80.8558 348.322 186.415)" fill="#1874B7"/>
<rect x="356.485" y="184.415" width="6.2" height="1.8" rx="0.9" transform="rotate(31.491 356.485 184.415)" fill="#1874B7"/>
<rect x="339.545" y="210.575" width="6.2" height="1.8" rx="0.9" transform="rotate(-56.3206 339.545 210.575)" fill="#1874B7"/>
</svg>
