<svg width="723" height="581" viewBox="0 0 723 581" fill="none" xmlns="http://www.w3.org/2000/svg">
<path d="M603.843 81.9224L594.822 91.9627L593.541 90.8121L602.563 80.7719L603.843 81.9224ZM607.088 84.838L606.068 85.973L598.313 79.0043L599.332 77.8693L607.088 84.838Z" fill="#BD900B"/>
<path d="M612.736 90.001C613.202 90.4379 613.673 90.8793 614.149 91.3251C614.634 91.7799 615.101 92.2352 615.55 92.6911C616.017 93.1465 616.456 93.5935 616.867 94.0322L615.887 94.9637L611.932 91.2589C611.637 90.9825 611.352 90.858 611.076 90.8855C610.809 90.9034 610.52 91.0789 610.207 91.412L604.724 97.265C604.412 97.5981 604.251 97.9032 604.242 98.1803C604.232 98.4574 604.375 98.7342 604.67 99.0106L608.624 102.715L607.772 103.74C607.307 103.358 606.833 102.949 606.348 102.513C605.873 102.085 605.392 101.644 604.907 101.19C604.422 100.753 603.947 100.317 603.48 99.8797C602.9 99.3358 602.581 98.7511 602.524 98.1256C602.475 97.4905 602.696 96.9113 603.187 96.3878L609.232 89.9352C609.731 89.4023 610.295 89.144 610.923 89.1605C611.551 89.1769 612.155 89.4571 612.736 90.001ZM607.188 92.6037L612.441 97.5257L611.491 98.5392L606.238 93.6173L607.188 92.6037Z" fill="#BD900B"/>
<path d="M624.551 101.093C625.32 101.854 625.84 102.544 626.11 103.16C626.38 103.777 626.397 104.399 626.16 105.027C625.932 105.646 625.428 106.35 624.648 107.137C623.868 107.924 623.165 108.439 622.539 108.682C621.922 108.934 621.309 108.932 620.699 108.677C620.108 108.421 619.451 107.936 618.728 107.22C618.339 106.834 617.973 106.453 617.63 106.077C617.296 105.709 616.995 105.365 616.726 105.043C616.466 104.712 616.248 104.423 616.072 104.175C615.905 103.936 615.794 103.761 615.738 103.651L616.523 102.942C617.014 103.428 617.523 103.933 618.051 104.456C618.579 104.979 619.103 105.498 619.622 106.012C620.094 106.462 620.515 106.769 620.885 106.933C621.273 107.097 621.66 107.095 622.047 106.928C622.452 106.76 622.907 106.421 623.411 105.912C623.925 105.393 624.26 104.935 624.415 104.538C624.579 104.149 624.577 103.762 624.409 103.376C624.251 102.998 623.94 102.58 623.477 102.121C622.717 101.368 622.055 100.721 621.49 100.18C620.934 99.6476 620.55 99.2943 620.337 99.1201L621.12 97.9407C621.509 98.2524 621.865 98.5505 622.189 98.8349C622.513 99.1193 622.856 99.4405 623.217 99.7984C623.588 100.147 624.032 100.579 624.551 101.093ZM622.343 99.1523L612.842 108.741L611.62 107.529L621.12 97.9407L622.343 99.1523Z" fill="#BD900B"/>
<path d="M640.246 117.685C640.565 118.029 640.548 118.366 640.194 118.693L631.208 127.79L630.038 126.527L638.56 117.967L638.281 117.665L628.929 122.221C628.571 122.411 628.259 122.362 627.994 122.075L626.943 120.941C626.669 120.644 626.635 120.32 626.842 119.968L632.1 110.992L631.834 110.705L622.66 118.562L621.49 117.299L631.221 109.006C631.592 108.698 631.933 108.711 632.244 109.045L633.573 110.481C633.821 110.748 633.842 111.058 633.634 111.41L629.307 118.858C629.158 119.139 628.996 119.405 628.82 119.656C628.653 119.918 628.486 120.188 628.318 120.468L628.557 120.726C628.849 120.58 629.131 120.434 629.405 120.288C629.678 120.141 629.965 119.991 630.266 119.836L637.994 116.118C638.352 115.928 638.664 115.977 638.93 116.264L640.246 117.685Z" fill="#BD900B"/>
<path d="M651.429 130.798L641.029 139.401L639.969 138.12L647.551 131.848C647.752 131.682 647.957 131.521 648.166 131.364C648.376 131.208 648.588 131.066 648.804 130.938L648.742 130.863C648.493 130.951 648.226 131.027 647.942 131.093C647.668 131.15 647.408 131.205 647.162 131.255L635.705 132.965L634.582 131.608L644.983 123.005L646.043 124.286L638.536 130.495C638.325 130.67 638.106 130.835 637.878 130.989C637.669 131.145 637.456 131.296 637.238 131.443L637.288 131.503C637.545 131.425 637.811 131.358 638.085 131.3C638.367 131.253 638.641 131.205 638.905 131.155L650.295 129.426L651.429 130.798Z" fill="#BD900B"/>
<path d="M656.877 137.717L646.013 145.728L644.991 144.342L655.855 136.331L656.877 137.717ZM656.241 146.182L655.044 147.065L651.132 141.759L652.328 140.876L656.241 146.182ZM661.59 144.109L650.727 152.12L649.705 150.734L660.569 142.723L661.59 144.109Z" fill="#BD900B"/>
<path d="M671.361 158.444L660.092 165.873L659.177 164.485L667.392 159.069C667.61 158.925 667.831 158.787 668.056 158.655C668.281 158.522 668.508 158.404 668.736 158.3L668.682 158.218C668.425 158.278 668.152 158.326 667.862 158.361C667.584 158.388 667.319 158.414 667.07 158.438L655.494 158.899L654.525 157.429L665.795 150L666.71 151.388L658.576 156.75C658.348 156.901 658.112 157.041 657.869 157.17C657.644 157.302 657.415 157.43 657.183 157.551L657.226 157.617C657.491 157.567 657.762 157.529 658.041 157.502C658.327 157.485 658.603 157.466 658.871 157.446L670.382 156.957L671.361 158.444Z" fill="#BD900B"/>
<path d="M680.002 172.5L668.418 179.427L667.534 177.95L677.91 171.745L676.484 169.361C676.237 168.947 675.967 168.698 675.674 168.615C675.388 168.543 675.025 168.623 674.586 168.855C673.798 169.265 673.034 169.639 672.293 169.975C671.57 170.317 670.862 170.619 670.168 170.881C669.486 171.138 668.8 171.35 668.111 171.519C667.44 171.693 666.762 171.817 666.077 171.892C665.399 171.978 664.697 172.011 663.97 171.989L663.147 170.613C664.417 170.628 665.661 170.484 666.878 170.182C668.107 169.873 669.307 169.467 670.48 168.963C671.67 168.464 672.831 167.914 673.961 167.314C674.657 166.928 675.32 166.829 675.948 167.015C676.576 167.202 677.104 167.653 677.533 168.37L680.002 172.5ZM663.676 171.231L660.933 172.666L660.321 171.642L662.973 170.055L663.676 171.231ZM670.48 180.131L669.271 180.854L662.856 170.126L664.065 169.403L670.48 180.131ZM669.389 180.784L666.736 182.37L666.123 181.346L668.696 179.625L669.389 180.784Z" fill="#BD900B"/>
<path d="M681.171 185.482C681.707 186.452 682.01 187.283 682.079 187.975C682.166 188.672 682.013 189.286 681.62 189.815C681.228 190.345 680.58 190.859 679.678 191.357C678.742 191.874 677.948 192.149 677.296 192.182C676.65 192.226 676.076 192.036 675.574 191.613C675.078 191.202 674.588 190.556 674.102 189.677C673.743 189.027 673.439 188.464 673.192 187.99C672.934 187.522 672.709 187.087 672.517 186.687C672.326 186.286 672.127 185.859 671.922 185.406L673.278 184.948C673.411 185.217 673.652 185.68 674 186.337C674.354 187.005 674.787 187.802 675.298 188.726C675.644 189.354 675.966 189.802 676.263 190.07C676.578 190.343 676.939 190.457 677.346 190.411C677.752 190.365 678.258 190.175 678.863 189.841C679.434 189.526 679.856 189.211 680.129 188.896C680.402 188.581 680.518 188.212 680.478 187.787C680.455 187.368 680.263 186.833 679.904 186.182L677.823 182.415L679.09 181.715L681.171 185.482ZM684.55 180.353L672.735 186.879L671.903 185.372L683.718 178.846L684.55 180.353ZM690.074 190.353L678.259 196.879L677.436 195.389L689.251 188.863L690.074 190.353Z" fill="#BD900B"/>
</svg>
