<svg width="50" height="50" viewBox="0 0 50 50" fill="none" xmlns="http://www.w3.org/2000/svg">
<path d="M50 14.7458C50.0001 14.975 49.9517 15.202 49.8575 15.4138C49.7633 15.6255 49.6251 15.818 49.451 15.9801L26.3267 37.4891C25.9749 37.8162 25.4978 38 25.0004 38C24.503 38 24.0259 37.8162 23.6741 37.4891L0.549814 15.9801C0.37556 15.8181 0.237317 15.6257 0.14298 15.414C0.0486428 15.2023 5.81241e-05 14.9754 5.21204e-08 14.7462C-5.80199e-05 14.517 0.0484118 14.2901 0.142642 14.0783C0.236872 13.8666 0.375017 13.6742 0.549189 13.5121C0.723361 13.35 0.93015 13.2214 1.15775 13.1336C1.38535 13.0459 1.6293 13.0007 1.87567 13.0006C2.12205 13.0006 2.36602 13.0457 2.59366 13.1333C2.82131 13.221 3.02816 13.3495 3.20241 13.5115L24.9998 33.7873L46.7971 13.5115C47.0595 13.2673 47.3938 13.101 47.7578 13.0336C48.1218 12.9662 48.4992 13.0007 48.8421 13.1329C49.1849 13.265 49.478 13.4888 49.6841 13.7759C49.8902 14.063 50.0002 14.4006 50 14.7458Z" fill="#FFE500"/>
</svg>
