<svg width="64" height="64" viewBox="0 0 64 64" fill="none" xmlns="http://www.w3.org/2000/svg">
<path fill-rule="evenodd" clip-rule="evenodd" d="M32 56C45.2548 56 56 45.2548 56 32C56 18.7452 45.2548 8 32 8C18.7452 8 8 18.7452 8 32C8 45.2548 18.7452 56 32 56ZM32 50C41.9411 50 50 41.9411 50 32C50 22.0589 41.9411 14 32 14C22.0589 14 14 22.0589 14 32C14 41.9411 22.0589 50 32 50Z" fill="white"/>
<circle cx="32" cy="32" r="7" fill="white"/>
<path d="M29 3C29 1.34315 30.3431 0 32 0V0C33.6569 0 35 1.34315 35 3V9H29V3Z" fill="white"/>
<path d="M29 61C29 62.6569 30.3431 64 32 64V64C33.6569 64 35 62.6569 35 61V55H29V61Z" fill="white"/>
<path d="M61 35C62.6569 35 64 33.6569 64 32V32C64 30.3431 62.6569 29 61 29H55V35H61Z" fill="white"/>
<path d="M3 35C1.34315 35 0 33.6569 0 32V32C0 30.3431 1.34315 29 3 29H9V35H3Z" fill="white"/>
</svg>
