<svg width="342" height="317" viewBox="0 0 342 317" fill="none" xmlns="http://www.w3.org/2000/svg">
<g clip-path="url(#clip0_34_2)">
<path d="M161.765 2.15012L64.7649 315.15" stroke="#FF6161" stroke-width="3" stroke-linecap="round"/>
<path d="M160.595 240.396L64.5952 315.396" stroke="#FF6161" stroke-width="3" stroke-linecap="round"/>
<path d="M160.787 240L161.787 2" stroke="#FF6161" stroke-width="3" stroke-linecap="round"/>
<path d="M103.765 109.15L85.7649 167.15" stroke="#FF6161" stroke-width="3" stroke-linecap="round"/>
<path d="M86 167.411L2 108.411" stroke="#FF6161" stroke-width="3" stroke-linecap="round"/>
<path d="M2.28735 108.502H104.287" stroke="#FF6161" stroke-width="3" stroke-linecap="round"/>
<path d="M181.81 2.15012L278.81 315.15Z" fill="#FF6161"/>
<path d="M181.81 2.15012L278.81 315.15" stroke="#FF6161" stroke-width="3" stroke-linecap="round"/>
<path d="M181.591 239.605L279.591 314.605" stroke="#FF6161" stroke-width="3" stroke-linecap="round"/>
<path d="M181.787 240.002V2.00211" stroke="#FF6161" stroke-width="3" stroke-linecap="round"/>
<path d="M238.81 109.15L256.81 167.15" stroke="#FF6161" stroke-width="3" stroke-linecap="round"/>
<path d="M257.001 166.592L340.001 108.592" stroke="#FF6161" stroke-width="3" stroke-linecap="round"/>
<path d="M340.287 109.502H238.287" stroke="#FF6161" stroke-width="3" stroke-linecap="round"/>
<path d="M181.5 239.5V1.5L278.5 313L181.5 239.5Z" fill="#FF6161"/>
<path d="M65 314L161.5 3.5L161 239.5L65 314Z" fill="#FF6161"/>
<path d="M337.5 110L257 166L239 110H337.5Z" fill="#FF6161"/>
<path d="M85.5 166.5L103 109H3.5L85.5 166.5Z" fill="#FF6161"/>
<path d="M337.489 117.671H338.455" stroke="#1E1E1E" stroke-width="2" stroke-linecap="round"/>
</g>
<defs>
<clipPath id="clip0_34_2">
<rect width="342" height="317" fill="white"/>
</clipPath>
</defs>
</svg>
