<svg width="54" height="54" viewBox="0 0 54 54" fill="none" xmlns="http://www.w3.org/2000/svg">
<g clip-path="url(#clip0_23_2)">
<path d="M53.5602 20.4546L51.4387 18.0679C50.8527 17.4087 49.9031 17.4087 49.3171 18.0679L48.2568 19.2607L45.5474 16.2127C46.0752 13.9651 45.5812 11.4771 44.0146 9.71473L39.7724 4.94227C33.9149 -1.64742 24.4171 -1.64742 18.5587 4.94227L27.044 9.71473V11.6923C27.044 13.4821 27.6759 15.1991 28.8018 16.4647L33.4087 21.6475C34.9752 23.4098 37.1868 23.9657 39.1846 23.3719L41.894 26.4199L40.8337 27.6128C40.2477 28.272 40.2477 29.3404 40.8337 29.9995L42.9552 32.3863C43.5412 33.0455 44.4909 33.0455 45.0768 32.3863L53.5621 22.8403C54.1462 22.1822 54.1462 21.1138 53.5602 20.4546ZM26.6802 18.8515C26.3334 18.4613 26.039 18.0299 25.7568 17.5911L1.84118 42.7106C-0.556004 45.2292 -0.620692 49.4807 1.69775 52.09C4.01618 54.6993 7.79618 54.6265 10.0349 51.9286L32.3596 25.0267C31.9884 24.7198 31.619 24.4076 31.2871 24.0342L26.6802 18.8515Z" fill="#2CC388"/>
</g>
<defs>
<clipPath id="clip0_23_2">
<rect width="54" height="54" fill="white"/>
</clipPath>
</defs>
</svg>
