<svg width="64" height="65" viewBox="0 0 64 65" fill="none" xmlns="http://www.w3.org/2000/svg">
<path fill-rule="evenodd" clip-rule="evenodd" d="M31.8988 0.675781L3.83496 5.99865L3.83498 48.3984L32.3152 64L60.1523 48.3984L60.1523 5.99865L31.8988 0.675781ZM31.9348 4.63557L8.38584 9.40786L8.38573 45.5491L32.3502 59.5166L55.4094 46.0597L55.4098 9.40771L31.9348 4.63557Z" fill="white"/>
<path d="M3.83496 5.99865L3.74179 5.50741L3.33496 5.58457L3.33496 5.99865L3.83496 5.99865ZM31.8988 0.675781L31.9914 0.184425L31.8985 0.166926L31.8057 0.184539L31.8988 0.675781ZM3.83498 48.3984L3.33498 48.3984L3.33498 48.6946L3.59476 48.8369L3.83498 48.3984ZM32.3152 64L32.075 64.4385L32.318 64.5716L32.5597 64.4362L32.3152 64ZM60.1523 48.3984L60.3968 48.8346L60.6523 48.6913L60.6523 48.3984L60.1523 48.3984ZM60.1523 5.99865L60.6523 5.99865L60.6523 5.58405L60.2449 5.50729L60.1523 5.99865ZM8.38584 9.40786L8.28654 8.91782L7.88584 8.99902L7.88584 9.40785L8.38584 9.40786ZM31.9348 4.63557L32.0344 4.1456L31.935 4.12538L31.8355 4.14554L31.9348 4.63557ZM8.38573 45.5491L7.88573 45.5491L7.88573 45.8364L8.13395 45.9811L8.38573 45.5491ZM32.3502 59.5166L32.0985 59.9486L32.3504 60.0954L32.6023 59.9484L32.3502 59.5166ZM55.4094 46.0597L55.6614 46.4916L55.9094 46.3468L55.9094 46.0597L55.4094 46.0597ZM55.4098 9.40771L55.9098 9.40772L55.9098 8.99913L55.5094 8.91773L55.4098 9.40771ZM3.92813 6.4899L31.992 1.16702L31.8057 0.184539L3.74179 5.50741L3.92813 6.4899ZM4.33498 48.3984L4.33496 5.99865L3.33496 5.99865L3.33498 48.3984L4.33498 48.3984ZM32.5554 63.5615L4.0752 47.9599L3.59476 48.8369L32.075 64.4385L32.5554 63.5615ZM59.9079 47.9622L32.0708 63.5638L32.5597 64.4362L60.3968 48.8346L59.9079 47.9622ZM59.6523 5.99865L59.6523 48.3984L60.6523 48.3984L60.6523 5.99865L59.6523 5.99865ZM31.8063 1.16714L60.0598 6.49L60.2449 5.50729L31.9914 0.184425L31.8063 1.16714ZM8.48515 9.89789L32.0341 5.12561L31.8355 4.14554L8.28654 8.91782L8.48515 9.89789ZM8.88573 45.5491L8.88584 9.40786L7.88584 9.40785L7.88573 45.5491L8.88573 45.5491ZM32.602 59.0846L8.63751 45.1171L8.13395 45.9811L32.0985 59.9486L32.602 59.0846ZM55.1574 45.6279L32.0982 59.0847L32.6023 59.9484L55.6614 46.4916L55.1574 45.6279ZM54.9098 9.4077L54.9094 46.0597L55.9094 46.0597L55.9098 9.40772L54.9098 9.4077ZM31.8352 5.12555L55.3102 9.89769L55.5094 8.91773L32.0344 4.1456L31.8352 5.12555Z" fill="white"/>
<path d="M12.8007 12.528L31.9336 8.67348L51.4612 12.528L51.4612 43.3642L32.3501 54.9279L12.8007 43.3642L12.8007 12.528Z" fill="white" stroke="white"/>
</svg>
