<svg width="64" height="64" viewBox="0 0 64 64" fill="none" xmlns="http://www.w3.org/2000/svg">
<path fill-rule="evenodd" clip-rule="evenodd" d="M7.23615 31.5276L7.24015 31.5302L7.25415 31.5456L7.25677 31.5482L7.2619 31.5533L7.26715 31.5584H7.26952L7.27615 31.5662H7.27752L7.28515 31.5739L7.2889 31.5766L7.29152 31.5817L7.29915 31.5868L7.30815 31.5944L7.3094 31.5971L7.31577 31.6022L7.31965 31.6048L7.3234 31.6074L7.33115 31.6151H7.33252L7.34027 31.6203L7.3429 31.6229L7.3479 31.6281L7.35452 31.6332H7.3559C7.41727 31.6821 7.48415 31.7257 7.55352 31.7616L7.5599 31.7642H7.5639L7.5729 31.7693L7.58565 31.7771L7.5909 31.7797L7.59852 31.7822H7.5999L7.61002 31.7873H7.61265L7.61902 31.7899L7.62552 31.7926L7.62802 31.7952L7.6384 31.7978V31.8004L7.6474 31.8029L7.6514 31.8056L7.6564 31.8081L7.6654 31.8107H7.66665L7.67565 31.8133L7.6794 31.8159L7.68602 31.8186L7.6924 31.8212H7.69502L7.7054 31.8263H7.70652L7.71427 31.8288H7.72077L7.72327 31.8314L7.73365 31.8339L7.74402 31.8366L7.7479 31.8392L7.75427 31.8418H7.7619L7.76327 31.8444L7.77227 31.8471H7.7749L7.78265 31.8497L7.7904 31.8523H7.7929L7.8109 31.8574H7.81877L7.82115 31.8601L7.83152 31.8627H7.84052L7.8469 31.8653H7.84952L7.8599 31.8679L7.88927 31.8731L7.90352 31.8757H7.90852L7.9189 31.8782L7.92927 31.8808H7.9319H7.93965H7.9474L7.94877 31.8833H7.9589H7.9629H7.96927L7.9759 31.8859H7.97827H7.98865H7.99127L7.99902 31.8886H8.00677H8.0094H8.01977H8.0209H8.0299L8.03515 31.8912H8.04027H8.05065H8.06102H8.06602H8.07002H8.0804H8.09052H8.09452H8.1009H8.1099H8.11115H8.12152H8.12552H8.1319H8.1409H8.14227H8.1524H8.15502L8.16277 31.8886H8.16915H8.17315H8.18352H8.18477H8.19377L8.20015 31.8859H8.20415H8.21427H8.21565L8.22465 31.8833H8.23102H8.23502H8.2454L8.25577 31.8808H8.25952L8.2659 31.8782H8.2749H8.27627L8.28665 31.8757H8.29052H8.29827L8.30602 31.8731H8.3074L8.31877 31.8704H8.3214L8.32902 31.8678H8.33677H8.3394L8.34977 31.8652H8.35115L8.36015 31.8626L8.36652 31.8599H8.37052L8.38065 31.8573L8.39102 31.8547H8.39627L8.4014 31.8522L8.41177 31.8496C8.73265 31.7623 8.9869 31.5569 9.1409 31.2923C9.2924 31.0254 9.34502 30.7018 9.25915 30.3809L9.25777 30.3758L9.2564 30.3681L9.25515 30.3654V30.3628L9.25377 30.3577L9.25115 30.3524V30.3499L9.25002 30.3473L9.24615 30.3344L9.24477 30.3293L9.2434 30.3243L9.24102 30.3217V30.3192L9.23965 30.3139C9.2164 30.2447 9.18702 30.1754 9.1524 30.1136L9.15102 30.1109L9.1484 30.1059L9.14602 30.1008L9.1434 30.0957L9.14077 30.0931L9.13815 30.0879V30.0853L9.13577 30.0827L9.13315 30.0776L9.13052 30.0751L9.12802 30.0698L9.1254 30.0647C9.01877 29.8926 8.87377 29.7514 8.70177 29.6512C8.43602 29.4972 8.11115 29.4458 7.79027 29.5332C7.4694 29.6181 7.21515 29.8259 7.06115 30.0903C6.90827 30.3547 6.85565 30.6809 6.94165 31.0018C6.99352 31.2064 7.09877 31.3837 7.23615 31.5276ZM59.1039 25.4271C59.0359 25.4271 58.9679 25.4244 58.9013 25.4193H58.896L58.7945 25.4091H58.7906L58.6803 25.3909H58.6725C58.6185 25.3807 58.5646 25.3678 58.5134 25.3551L58.4928 25.3499H58.489L58.4738 25.3448L58.462 25.3422L58.4543 25.3397L58.3953 25.3216L58.3823 25.3191L58.3759 25.3164L58.3566 25.3088L58.3374 25.3037L58.3296 25.3011L58.318 25.2959L58.2795 25.2832H58.2769L58.2615 25.2753L58.2511 25.2727L58.2409 25.2674L58.2255 25.2623L58.2229 25.2598L58.2049 25.2521H58.1999L58.1859 25.2443L58.1743 25.2417L58.1665 25.2366L58.1484 25.2289L58.1291 25.2211L58.1241 25.2186L58.1111 25.2134L58.0995 25.2056L58.0931 25.2029L58.0738 25.1952L58.0558 25.1849L58.048 25.1823L58.038 25.1772L58.025 25.1694L58.0199 25.1668L58.0019 25.1592L57.9993 25.1566L57.984 25.1487L57.9763 25.1437L57.9659 25.1386L57.9505 25.1307L57.9493 25.1281L57.9311 25.1177L57.9273 25.1152L57.8619 25.0766C57.6154 24.9252 57.3985 24.7249 57.2226 24.4859H57.2213L57.1905 24.4423V24.4397L57.1315 24.3498L57.1289 24.3472C57.098 24.2983 57.0699 24.2497 57.0443 24.2008L57.0364 24.1854L57.0314 24.1752C57.0083 24.1341 56.989 24.0904 56.9698 24.0468L56.9648 24.0366L56.9581 24.0212L56.9544 24.0109L56.948 23.9956L56.9364 23.9672L56.9338 23.9594L56.926 23.9414L56.9234 23.9336L56.9156 23.9131L56.8976 23.8591L56.8951 23.8539L56.8873 23.8309V23.8283L56.8795 23.8027L56.8784 23.8002L56.8705 23.7744H56.8695L56.8616 23.7461L56.8539 23.7178L56.8489 23.6973L56.8463 23.6894L56.8438 23.6767L56.8399 23.6612L56.8385 23.6586L56.8349 23.6381L56.8335 23.6329L56.8309 23.6174L56.827 23.6022L56.8259 23.5969L56.8206 23.5764V23.5738L56.818 23.5558L56.8155 23.5454L56.8129 23.5352L56.8103 23.5172V23.5146L56.8066 23.4966L56.8053 23.4888L56.8026 23.4759L56.8003 23.4579V23.4553L56.7976 23.4347V23.4296L56.795 23.4142L56.7924 23.4013V23.3936L56.7899 23.3729L56.7873 23.3524V23.3447L56.7859 23.3318L56.7845 23.3163V23.3138L56.782 23.2933V23.2854L56.7808 23.2726L56.7794 23.2572V23.2521V23.2316L56.778 23.2289L56.7766 23.2111V23.2007V23.1904V23.1518L56.7753 23.1442V23.1312V23.1158V23.1107L56.7766 23.0721V23.0592V23.0514L56.7793 23.0026V22.9898L56.7819 22.9512V22.9461L56.7844 22.9178L56.7858 22.9126C56.7896 22.8586 56.7974 22.8049 56.805 22.7534L56.8064 22.7509L56.8089 22.7356L56.8101 22.7226L56.8128 22.7148L56.8205 22.6763V22.6684L56.8231 22.6582L56.8269 22.6401L56.8283 22.6376L56.8321 22.6171L56.8335 22.6119L56.836 22.5989L56.8386 22.5862L56.8413 22.5811L56.8463 22.5606V22.5579L56.8515 22.5426L56.854 22.5323L56.8566 22.5219L56.867 22.4862L56.8684 22.4783L56.872 22.4653L56.876 22.4526L56.8773 22.4473L56.8824 22.4344L56.885 22.4242L56.8901 22.4062L56.8928 22.3984L56.8954 22.3933L56.899 22.3804L56.9016 22.3727L56.9043 22.3676L56.908 22.3546L56.9106 22.3443L56.9133 22.3392L56.9234 22.3136L56.9286 22.3006L56.9311 22.2929L56.9338 22.2878L56.939 22.2748L56.9401 22.2672L56.9441 22.2619L56.9491 22.2491L56.9518 22.2413L56.9544 22.2362L56.9594 22.2207L56.962 22.2156L56.9646 22.2078L56.9774 22.1822L56.9826 22.1693L56.9838 22.1667L56.9876 22.1563L56.994 22.1436L56.9954 22.1409L57.0006 22.1331C57.0263 22.0766 57.0544 22.0228 57.0854 21.9689L57.1138 21.9227V21.9249L57.1214 21.9147L57.1279 21.9044L57.1291 21.9018C57.1819 21.8196 57.2395 21.7374 57.3011 21.6629C55.129 20.1634 51.2341 19.3933 46.3199 19.4009C41.2579 19.4112 35.128 20.2534 28.6861 21.9788C24.8669 23.0006 21.2966 24.2408 18.1105 25.6041C14.9088 26.9752 12.0921 28.4719 9.79427 30.0074L9.79802 30.0177L9.80065 30.0228L9.80202 30.0279L9.80327 30.0306L9.80465 30.0331V30.0357L9.80702 30.0383V30.0409L9.8084 30.0436L9.81102 30.0513L9.8124 30.0538V30.0564L9.81477 30.0589V30.0616V30.0642L9.8174 30.0668V30.0694L9.82002 30.0721V30.0772L9.8214 30.0797L9.82277 30.0823L9.82377 30.0874L9.82515 30.0901V30.0927L9.82777 30.0953L9.82915 30.1004L9.8304 30.1029V30.1056L9.8329 30.1081V30.1132L9.83415 30.1158L9.83552 30.1184V30.1211V30.1236L9.83815 30.1262V30.1287L9.83952 30.1313L9.84065 30.1364L9.8419 30.1391L9.84327 30.1417V30.1468L9.84452 30.1494L9.8459 30.1519V30.1544L9.84852 30.1597V30.1623L9.84965 30.1649L9.8509 30.1676L9.85227 30.1727V30.1753L9.85365 30.1778V30.1804L9.85627 30.1854V30.1881L9.85752 30.1907L9.85865 30.1958V30.1983L9.86002 30.2009L9.86127 30.2034V30.2086L9.86265 30.2112L9.86402 30.2138V30.2164C9.9949 30.7042 9.91527 31.1998 9.68177 31.6054C9.4469 32.0111 9.05777 32.3268 8.5699 32.4578L8.55452 32.4629H8.54815L8.53915 32.4654L8.5249 32.4707H8.52377L8.50815 32.4733L8.50177 32.4759L8.49277 32.4786L8.48002 32.4812H8.4774L8.46065 32.4837L8.45677 32.4863H8.4454L8.42977 32.4888L8.41315 32.4939H8.41065L8.39765 32.4966H8.38727L8.38215 32.4992L8.35127 32.5018L8.3409 32.5043H8.33627L8.3209 32.5069H8.31952L8.30415 32.5094H8.2964H8.28865L8.2564 32.5146H8.25127H8.2409L8.2279 32.5172H8.22552H8.2099H8.2049H8.19452L8.18177 32.5198H8.17915H8.16377H8.15977H8.1484H8.13677H8.13277H8.1174H8.11477H8.10202H8.09165H8.08527H8.02502H8.02365H8.00827H8.00252L7.99352 32.5172H7.97952H7.97827L7.9629 32.5146L7.90265 32.5094H7.89102H7.88727L7.87165 32.5069H7.86927L7.85627 32.5043H7.8459L7.84077 32.5018L7.8254 32.4992L7.80977 32.4966H7.80202L7.7944 32.4939L7.7804 32.4913H7.77777L7.75077 32.4863L7.73677 32.4837H7.7354L7.72002 32.4812H7.71477L7.70465 32.4786L7.69302 32.4759L7.6904 32.4733L7.6764 32.4707H7.67127L7.66115 32.4681L7.65077 32.4654L7.64552 32.4629L7.63152 32.4603L7.6289 32.4578L7.61752 32.4552L7.60715 32.4526L7.6019 32.4499L7.58652 32.4473L7.57615 32.4447L7.56577 32.4396L7.55565 32.4371L7.54527 32.4344H7.5439L7.5349 32.4319L7.52502 32.4262H7.52365L7.51465 32.4236L7.50427 32.4209L7.5019 32.4183L7.49415 32.4157L7.48377 32.4131H7.48115L7.4734 32.4079L7.46302 32.4054H7.4604L7.45265 32.4028L7.44252 32.3977H7.4399L7.43215 32.3926L7.42177 32.3899L7.41915 32.3874L7.4114 32.3849L7.4024 32.3823L7.39865 32.3797L7.39202 32.3771L7.38302 32.3718H7.3779L7.37277 32.3692L7.3624 32.3641H7.35852L7.35215 32.3589L7.34177 32.3564L7.33915 32.3538L7.33277 32.3512L7.3224 32.3461L7.31865 32.3434L7.3134 32.3409L7.30302 32.3383L7.2979 32.3358L7.2929 32.3332L7.28252 32.3281L7.27852 32.3254L7.27352 32.3228L7.26452 32.3177L7.25927 32.3151L7.25415 32.3126L7.24377 32.3074L7.23877 32.3048L7.23477 32.3022L7.22577 32.2971L7.22065 32.2944L7.2154 32.2919L7.20665 32.2868L7.20002 32.2842L7.19765 32.2816L7.18727 32.2763L7.18202 32.2737L7.17827 32.2711L7.16927 32.2661L7.1629 32.2609H7.1589L7.1499 32.2531L7.14352 32.2504L7.1409 32.2478L7.13052 32.2427L7.1254 32.2402L7.12277 32.2376L7.1124 32.2298L7.10602 32.2272L7.1034 32.2246L7.0944 32.2193L7.08802 32.2142H7.0854L7.0764 32.2066L7.06865 32.2013H7.06727L7.05827 32.1963L7.05052 32.1912L7.04927 32.1886L7.04027 32.1834L7.03252 32.1783V32.1757L7.0224 32.1704L7.01452 32.1656V32.1629L7.00552 32.1578L6.98777 32.1448L6.9799 32.1372H6.97877L6.9709 32.1321C5.5794 33.3337 4.5384 34.5276 3.91565 35.6752C3.30452 36.7973 3.0979 37.8679 3.3584 38.8437C3.6819 40.0477 4.69727 41.0234 6.25965 41.7552C7.87702 42.5127 10.0725 43.0081 12.6939 43.2288V43.2238L12.6965 43.2187L12.699 43.2083V43.2058L12.7016 43.1956L12.7056 43.1852L12.708 43.1751L12.7106 43.1672L12.712 43.1646L12.7146 43.1544L12.7171 43.1492V43.1441L12.721 43.1337L12.7224 43.1286L12.7248 43.1236L12.7274 43.1132L12.73 43.1107L12.7326 43.1028L12.735 43.0926L12.739 43.0823L12.7428 43.0746V43.0719L12.7468 43.0617L12.7494 43.0539L12.7505 43.0513L12.7558 43.0409V43.0359L12.7584 43.0308L12.7635 43.0204V43.0178L12.7674 43.0102L12.7711 42.9998L12.7764 42.9894L12.7788 42.9818L12.7814 42.9792L12.7851 42.9688L12.7864 42.9637L12.789 42.9586L12.7941 42.9509L12.7954 42.9457L12.7994 42.9406L12.8031 42.9304L12.8045 42.9278L12.8085 42.9201L12.8123 42.9123V42.9098L12.8175 42.8994L12.8226 42.8942V42.8917L12.8279 42.8814L12.8303 42.8762L12.8329 42.8711L12.838 42.8609L12.8406 42.8583L12.8433 42.8532L12.8484 42.8429H12.8498L12.855 42.8327L12.8588 42.8249L12.86 42.8223L12.8768 42.7939L12.8794 42.7914L12.8818 42.7863L12.8884 42.7759L12.8898 42.7733L12.8948 42.7682L12.8999 42.7579L12.9051 42.7477L12.9103 42.7398H12.9115L12.9179 42.7297L12.9218 42.7244L12.9244 42.7219L12.9308 42.7117L12.9334 42.7091L12.9358 42.7039L12.9435 42.6937L12.9488 42.6859L12.9551 42.6757H12.9564L12.9615 42.6679L12.9668 42.6602H12.9693L12.9745 42.6498L12.9795 42.6447L12.9821 42.6422L12.9885 42.6318L12.9924 42.6292L12.9949 42.6241L13.0028 42.6164V42.6138L13.0079 42.6061L13.0156 42.5983L13.0183 42.5957L13.0286 42.5829L13.0388 42.5727L13.0414 42.5676L13.0491 42.5597L13.0544 42.5546L13.0595 42.5469L13.0673 42.5391L13.0699 42.5364L13.0815 42.5236L13.0955 42.5107L13.1033 42.5029L13.1085 42.4951L13.1136 42.4901L13.124 42.4822V42.4796L13.1354 42.4693L13.1366 42.4668L13.147 42.4564L13.1523 42.4538L13.1586 42.4462L13.165 42.4409L13.1701 42.4358L13.1804 42.4254H13.1818L13.1934 42.4153L13.196 42.4127L13.2048 42.4049L13.21 42.3998L13.2164 42.3947L13.2254 42.3869L13.2294 42.3843L13.2408 42.3741L13.2538 42.3638L13.2564 42.3612L13.2654 42.3534L13.2718 42.3483L13.2781 42.3432L13.2885 42.3379L13.2911 42.3353L13.3039 42.3251L13.3169 42.3148L13.3194 42.3122L13.3298 42.3071L13.3361 42.3021L13.3428 42.2968L13.3531 42.2891H13.3555L13.3685 42.2788H13.3699L13.3813 42.2711L13.3865 42.2684L13.3955 42.2632L13.4033 42.2554L13.4096 42.2529L13.42 42.2451H13.4226L13.4354 42.2373L13.438 42.2347L13.4494 42.2271L13.4559 42.2244L13.4636 42.2193L13.4726 42.2142L13.4776 42.2116L13.4893 42.2063L13.4919 42.2038L13.5046 42.1961H13.5073L13.52 42.1882L13.5266 42.1856L13.5343 42.1831L13.5433 42.1779L13.5483 42.1753L13.5625 42.1676L13.5765 42.1598H13.5816L13.592 42.1547L13.5996 42.1496L13.6074 42.1469L13.6178 42.1418L13.6218 42.1392L13.6358 42.1341H13.637L13.651 42.1263H13.6563L13.6665 42.1212L13.6755 42.1186L13.6819 42.1159L13.6946 42.1108L13.6973 42.1083L13.7126 42.1032H13.714L13.7283 42.0981L13.7334 42.0954L13.7438 42.0928L13.7541 42.0902L13.7591 42.0876L13.7731 42.0826H13.7745L13.7899 42.0774H13.7925L13.8068 42.0722L13.8131 42.0696L13.8221 42.0669L13.8335 42.0643L13.8388 42.0617L13.8541 42.0592L13.8748 42.0541L13.8951 42.0489L13.9158 42.0438L13.9364 42.0387L13.9568 42.0336L13.9774 42.0309L13.998 42.0259L14.0184 42.0233L14.0376 42.0207L14.0583 42.0181L14.0786 42.0154L14.0993 42.0129L14.1185 42.0103H14.1199L14.139 42.0078H14.1403H14.1596L14.1609 42.0052H14.1801H14.2006V42.0027H14.2213H14.2419H14.2623H14.2816H14.2829L14.3625 42.0052H14.3829L14.4021 42.0078L14.442 42.0103L14.4624 42.0129L14.501 42.0179L14.5406 42.0232L14.56 42.0283L14.5806 42.0308L14.6384 42.0438L14.6576 42.0464L14.6769 42.0516L14.6961 42.0566L14.7153 42.0617L14.7345 42.0669L14.7525 42.0747L14.7718 42.0798L14.791 42.0849L14.809 42.0927L14.8268 42.0979L14.846 42.1056L14.864 42.1134H14.8654L14.8834 42.1186L14.9014 42.1263L14.9194 42.1341L14.9374 42.1418L14.9554 42.1496L14.9734 42.1598L14.9914 42.1676L15.008 42.1753H15.0093L15.0259 42.1856L15.0425 42.1934H15.0439L15.0605 42.2037L15.0771 42.2139H15.0785L15.0939 42.2242H15.0953C15.1503 42.2549 15.2043 42.2909 15.2556 42.3294L15.2583 42.3321C15.2943 42.3578 15.3276 42.3861 15.3609 42.4143L15.3649 42.4193L15.4045 42.4553L15.4085 42.4579L15.4175 42.4682L15.4226 42.4733L15.4316 42.4811L15.4369 42.4863L15.4459 42.4966L15.4509 42.5017L15.4586 42.5094L15.465 42.5146L15.4728 42.5223L15.478 42.5301L15.487 42.5378L15.492 42.5429L15.4998 42.5532L15.505 42.5583L15.5128 42.5662L15.5179 42.5738L15.5256 42.5817L15.5309 42.5894L15.5373 42.5972L15.5436 42.6049L15.5503 42.6127L15.5566 42.6203L15.5618 42.6282L15.5695 42.6361L15.5748 42.6437L15.5811 42.6514L15.5863 42.6593L15.5979 42.6747L15.6043 42.6849L15.6095 42.6902L15.6209 42.7081L15.6288 42.7159L15.6325 42.7236L15.6389 42.7339L15.6429 42.7389L15.6493 42.7493L15.6545 42.7571L15.6609 42.7673L15.6646 42.7724L15.6725 42.7854L15.675 42.7906L15.6828 42.8007L15.6854 42.8084L15.6931 42.8187L15.6958 42.8239L15.7034 42.8368L15.706 42.8419L15.715 42.8601L15.7214 42.8728L15.724 42.8781L15.7318 42.8909L15.7521 42.9319L15.7588 42.9448L15.7601 42.9501L15.7678 42.9628L15.7691 42.9679L15.7755 42.9833L15.7769 42.9859L15.7833 43.0013L15.7859 43.0039L15.7973 43.0347L15.7985 43.0397L15.8011 43.0423L15.8061 43.0577L15.8075 43.0603L15.8139 43.0784V43.0809L15.8218 43.0991L15.8281 43.1169V43.1196L15.8345 43.1376L15.8409 43.1581L15.8475 43.1761V43.1787L15.8526 43.1967L15.8576 43.2172C15.8706 43.2661 15.8809 43.3122 15.8886 43.3583C18.437 43.3662 21.265 43.1581 24.2715 42.7319C27.278 42.3057 30.4618 41.6587 33.7276 40.7831C40.85 38.8754 47.1045 36.2181 51.6389 33.3887C55.942 30.7033 58.6803 27.8791 59.1039 25.4271ZM57.9665 21.8762L57.9575 21.8841L57.9563 21.8866L57.9459 21.8943L57.9433 21.8996L57.9139 21.9252L57.9035 21.9354L57.8996 21.9406L57.8933 21.9457L57.8843 21.9559H57.883L57.8729 21.9662L57.8715 21.9688L57.8638 21.9766L57.8571 21.9844L57.8535 21.9869L57.8431 21.9999L57.8329 22.0102L57.8303 22.0127L57.8239 22.0206L57.8073 22.0411L57.8046 22.0437H57.8033L57.7955 22.0541L57.7905 22.0592L57.7866 22.0642L57.7776 22.0746L57.7765 22.0771L57.7686 22.0873L57.7663 22.0899L57.7585 22.1002L57.7533 22.1078L57.7508 22.1104L57.7418 22.1234H57.7404L57.7328 22.1337L57.7288 22.1387L57.7249 22.1466L57.7171 22.1543L57.7146 22.1568L57.7069 22.1698L57.7056 22.1724L57.699 22.1802L57.6939 22.1879L57.6913 22.1931L57.6823 22.2059L57.6745 22.2189L57.672 22.2214L57.6668 22.2293L57.6604 22.2396L57.659 22.2422L57.6514 22.2551L57.65 22.2577L57.6449 22.2679L57.6396 22.2732L57.637 22.2808L57.6293 22.2912V22.2938L57.6215 22.3066L57.619 22.3092L57.6138 22.3171L57.6101 22.3272L57.6075 22.3298L57.6011 22.3428L57.5933 22.3556L57.5908 22.3607L57.5881 22.3686L57.583 22.3788L57.5804 22.3813L57.5754 22.3943L57.5728 22.3968L57.5675 22.4098L57.565 22.4149L57.5624 22.4228L57.5559 22.4329V22.4356L57.5495 22.4486L57.5469 22.4536L57.5443 22.4614L57.5393 22.4716L57.5379 22.4742L57.5326 22.4871L57.5315 22.4897L57.5263 22.5026L57.5249 22.5077L57.5213 22.5154L57.5173 22.5257L57.5159 22.5283L57.5109 22.5438V22.5463L57.5059 22.5567L57.5033 22.5644L57.5006 22.5696L57.4969 22.5849H57.4955L57.4916 22.5978L57.4903 22.6029L57.4878 22.6108L57.4839 22.6209L57.4825 22.6261L57.4775 22.6391V22.6416L57.4749 22.6519L57.4723 22.6597L57.4698 22.6676L57.4671 22.6804L57.462 22.6933V22.6984L57.4594 22.7087L57.4568 22.7189L57.4554 22.7216L57.449 22.7498L57.4464 22.7577L57.445 22.7628L57.4425 22.7782L57.4335 22.8192L57.4283 22.8476L57.4269 22.8578L57.4259 22.8603L57.4219 22.8887L57.4205 22.8989L57.4181 22.9169V22.9196L57.4168 22.9326L57.4154 22.9402V22.9454L57.414 22.9583L57.4128 22.9608V22.9764L57.4114 22.9789L57.41 22.9892V22.9996V23.0046L57.4089 23.0176V23.0202L57.4063 23.0612V23.0638L57.405 23.0922V23.1024V23.1049V23.1204V23.1231V23.1359V23.1438V23.1488V23.1643V23.1796L57.4063 23.1874V23.1926L57.4076 23.2079V23.2233V23.2284L57.409 23.2388L57.4101 23.2489V23.2516V23.2669L57.4115 23.2696L57.4129 23.2824V23.2903L57.4141 23.2954L57.4155 23.3108L57.4181 23.3262V23.3313L57.4193 23.3416L57.4205 23.3544L57.4231 23.3699V23.3751L57.4258 23.3853L57.4268 23.3956L57.4281 23.4007L57.4308 23.4136V23.4162L57.4334 23.4291V23.4368L57.4359 23.4447L57.4385 23.4574V23.4601L57.4411 23.4728L57.4425 23.4779L57.445 23.4883L57.4464 23.5012L57.449 23.5038L57.4516 23.5193V23.5218L57.4553 23.5348L57.4566 23.5424L57.4593 23.5476L57.4629 23.5631L57.4681 23.5836L57.4745 23.6041L57.4796 23.6221V23.6247L57.4863 23.6427L57.4875 23.6453L57.4926 23.6607V23.6633L57.499 23.6813L57.5004 23.6839L57.5056 23.6992L57.5081 23.7044L57.5134 23.7198L57.5145 23.7249L57.5198 23.7379L57.5224 23.7429L57.5275 23.7558L57.5301 23.7637L57.5353 23.7766L57.5379 23.7817L57.5429 23.7946L57.5469 23.8023L57.5519 23.8124L57.5545 23.8203L57.5595 23.8306L57.5634 23.8384L57.5671 23.8487L57.5724 23.8589L57.5761 23.8666L57.5814 23.8769L57.585 23.8847L57.5903 23.8949L57.594 23.9028L57.6006 23.9131L57.6031 23.9207L57.6098 23.9309L57.6134 23.9388L57.639 23.9849L57.6416 23.9901L57.6494 24.0031L57.652 24.0056L57.661 24.0186L57.6624 24.0237L57.6724 24.0364L57.6738 24.0391L57.6828 24.0544H57.6841L57.706 24.0878L57.7291 24.1187V24.1213L57.7651 24.1676L57.7765 24.1829H57.7779C57.896 24.3292 58.0374 24.4524 58.1939 24.5501L58.2426 24.5784L58.3286 24.6246L58.33 24.6272L58.3453 24.6349H58.3479C58.4865 24.7017 58.6341 24.7504 58.787 24.7762V24.7788L58.8074 24.7813L58.8844 24.7916H58.8883L58.9036 24.7942H58.9076L58.9229 24.7968H58.928C59.0129 24.8046 59.0975 24.8046 59.1821 24.7994H59.1964L59.2028 24.7968C59.2413 24.7942 59.2824 24.7916 59.3208 24.7839H59.3234L59.3426 24.7813L59.4108 24.7684H59.4196L59.5096 24.7453C59.9498 24.6273 60.3016 24.3449 60.516 23.9828L60.525 23.9673C60.7381 23.5976 60.8099 23.1431 60.6919 22.6989C60.5726 22.2523 60.2836 21.8979 59.9126 21.6848C59.543 21.4692 59.0899 21.3973 58.6444 21.5181C58.3851 21.5808 58.1565 21.7067 57.9665 21.8762ZM41.876 29.9947C42.017 30.1693 42.1249 30.3721 42.1865 30.6007L42.1891 30.6084C42.3008 31.0346 42.2301 31.4686 42.0249 31.8254L42.0159 31.8383C41.8091 32.1899 41.4675 32.4622 41.0466 32.5777H41.0364C40.6101 32.6907 40.1788 32.6188 39.8218 32.4159C39.7331 32.3646 39.6499 32.3031 39.5715 32.2362C38.7048 32.8191 37.6433 33.3889 36.4404 33.9128C35.1848 34.4571 33.7754 34.9501 32.2695 35.3532C29.3001 36.1491 26.4964 36.4546 24.3629 36.3032C22.1228 36.1466 20.5808 35.4687 20.2715 34.3132C20.1445 33.8358 20.2343 33.3299 20.5114 32.8112C20.7503 32.3696 21.1328 31.9127 21.6373 31.4582C21.6169 31.4042 21.5975 31.3478 21.5823 31.2912C21.468 30.8599 21.5386 30.4236 21.7439 30.0666L21.7529 30.0512C21.9609 29.7019 22.301 29.4272 22.7248 29.3142C23.1534 29.1987 23.5898 29.2706 23.948 29.4759L23.9623 29.4837C24.061 29.5429 24.1546 29.6122 24.2395 29.6916C25.0315 29.2628 25.9173 28.8547 26.8763 28.4798C27.8905 28.0844 28.9868 27.7199 30.1423 27.4117C33.1103 26.6158 35.9165 26.3129 38.0489 26.4617C40.2901 26.6209 41.8309 27.2962 42.14 28.4541C42.2146 28.7339 42.2146 29.0242 42.1453 29.3246C42.0929 29.5453 42.0029 29.7687 41.876 29.9947ZM41.0926 29.4734C41.1903 29.5017 41.2879 29.5429 41.3791 29.5891C41.4496 29.4504 41.5011 29.3117 41.5318 29.1808C41.5781 28.9831 41.5794 28.7931 41.5318 28.6158C41.3008 27.7479 39.968 27.2293 38.0065 27.0907C35.9373 26.9444 33.2066 27.2422 30.3054 28.0202C29.1718 28.3232 28.0959 28.6801 27.1049 29.0678C26.1959 29.4221 25.3575 29.8073 24.6105 30.2053L24.6118 30.2078V30.2104C24.6285 30.2463 24.6425 30.2822 24.6581 30.3208V30.3234L24.6605 30.3336L24.6631 30.3362V30.3388L24.6645 30.3413L24.6671 30.3492L24.6685 30.3517L24.6709 30.3596L24.6723 30.3647L24.6735 30.3673L24.6749 30.3723L24.6761 30.3749V30.3776L24.6786 30.3802V30.3853L24.68 30.3879L24.6813 30.3932L24.6826 30.3957L24.6839 30.3983V30.4009L24.6853 30.4036L24.6864 30.4087L24.6876 30.4113L24.689 30.4164L24.6903 30.4216L24.6916 30.4242V30.4292L24.6943 30.4318V30.4369L24.6954 30.4396L24.6968 30.4447L24.698 30.4472L24.6994 30.4524L24.7006 30.4551C24.815 30.8864 24.7456 31.3228 24.5388 31.6798C24.5198 31.7132 24.4991 31.7441 24.4785 31.7748L24.476 31.7801C24.449 31.8186 24.4194 31.8596 24.3874 31.8979L24.3835 31.9031L24.3758 31.9134L24.3501 31.9417L24.345 31.9468L24.332 31.9622L24.3243 31.9701L24.3191 31.9752L24.3113 31.9854L24.3061 31.9906L24.2971 31.9982L24.292 32.0033L24.283 32.0112L24.2778 32.0191L24.27 32.0267L24.2649 32.0318L24.2573 32.0397L24.25 32.0437L24.2421 32.0513L24.2371 32.0592L24.2281 32.0643L24.2218 32.0719L24.214 32.0771L24.2075 32.0849L24.1998 32.0901L24.1858 32.1029L24.178 32.1107L24.1703 32.1158L24.1626 32.1237L24.1548 32.1287L24.147 32.1339L24.1163 32.1596L24.1085 32.1647L24.1009 32.1698L24.0931 32.1749L24.0841 32.1827L24.0775 32.1879L24.0671 32.1931L24.062 32.1982L24.0516 32.2059L24.0466 32.2086L24.035 32.2162L24.0286 32.2213L24.0133 32.2317L24.0029 32.2394L23.9965 32.2421L23.9849 32.2497L23.9796 32.2523L23.9683 32.2601L23.963 32.2627L23.9516 32.2703L23.9464 32.2729L23.9336 32.2781L23.9284 32.2807L23.9156 32.2884L23.9116 32.2909L23.8989 32.2988L23.8949 32.3014L23.8809 32.3066L23.877 32.3092L23.863 32.3168L23.859 32.3194L23.845 32.3272H23.841L23.827 32.3349H23.8231L23.8078 32.3428L23.8054 32.3453L23.7898 32.3504L23.7874 32.3531L23.7718 32.3608H23.7693L23.7526 32.3687H23.75L23.7334 32.3737L23.7308 32.3763L23.7154 32.3814L23.7128 32.3841L23.6948 32.3892H23.6935L23.6769 32.3969H23.6744L23.6575 32.4047H23.6564L23.6384 32.4098H23.6358L23.6178 32.4149L23.5985 32.4227H23.5971L23.578 32.4279L23.5588 32.4331L23.5421 32.4382H23.5381L23.5254 32.4407L23.5176 32.4433L23.5086 32.4458L23.497 32.4484H23.4918L23.4778 32.4536H23.4751L23.4585 32.4562H23.4571L23.4431 32.4588L23.4381 32.4613L23.4251 32.4639H23.4174L23.4096 32.4664L23.3966 32.4691H23.3929L23.3763 32.4717L23.3596 32.4743H23.3556L23.3429 32.4769H23.3363H23.3273L23.3169 32.4796H23.3093L23.2965 32.4822H23.2939H23.2773H23.2759L23.2605 32.4847H23.2554H23.2438H23.2348L23.2271 32.4873H23.2155H23.2118H23.1961H23.1948H23.1781H23.1758L23.1448 32.4898H23.1358H23.1294L23.1164 32.4873H23.1126H23.096H23.0806H23.0754H23.0638H23.056H23.047L23.0369 32.4847H23.0316H23.0163H23.0149L22.9983 32.4822H22.9969H22.9829L22.9776 32.4796H22.9675H22.9571L22.9505 32.4769L22.9185 32.4743V32.4717H22.9031L22.8991 32.4691H22.8864L22.88 32.4664H22.8696L22.8593 32.4639H22.854L22.8413 32.4613H22.8386L22.7836 32.4486L22.7758 32.4459L22.745 32.4383L22.7296 32.4357L22.7256 32.4332L22.7143 32.4306L22.7076 32.4279L22.6333 32.4074L22.6229 32.4022L22.6153 32.3996L22.6075 32.3969L22.5971 32.3943L22.592 32.3917L22.5778 32.3868H22.5764L22.5328 32.3687L22.5238 32.3661H22.5224L22.475 32.3456L22.4699 32.3431L22.4659 32.3404L22.4453 32.3302L22.4375 32.3276L22.4349 32.3249L22.4171 32.3171L22.4003 32.3094L22.3991 32.3068L22.3708 32.2939L22.3655 32.2913L22.3631 32.2888L22.3528 32.2837L22.3488 32.2811L22.3436 32.2784L22.3346 32.2733L22.332 32.2707C22.2513 32.2246 22.174 32.1706 22.1024 32.1089L22.0998 32.1063C22.0599 32.0756 22.0228 32.0397 21.9868 32.0036H21.9855L21.9778 31.9959C21.5683 32.3759 21.2576 32.7508 21.0638 33.1102C20.8635 33.4849 20.7941 33.8368 20.8789 34.1501C21.1099 35.0178 22.4413 35.5391 24.4029 35.6751C26.4709 35.8214 29.2028 35.5237 32.104 34.7456C33.5881 34.3476 34.9669 33.8649 36.189 33.3362C37.3366 32.8381 38.3509 32.2937 39.1813 31.7391C39.1466 31.6697 39.1185 31.5979 39.0929 31.5234L39.0915 31.5183L39.0903 31.5157V31.5132L39.0849 31.5002L39.0839 31.4951L39.0824 31.4899L39.0798 31.4848V31.4797L39.0771 31.4771L39.0759 31.4693L39.0746 31.4642L39.0733 31.4591L39.0719 31.4564L39.0706 31.4513L39.0691 31.4461L39.0679 31.4409L39.0668 31.4358C38.9511 31.0071 39.0218 30.5706 39.2284 30.2112C39.2464 30.1804 39.2671 30.1469 39.2874 30.1162L39.29 30.1136C39.3184 30.0726 39.3476 30.0316 39.3799 29.9929L39.3824 29.9903L39.3914 29.9799L39.4158 29.9493L39.4209 29.9441L39.4338 29.9313L39.4416 29.9209L39.4466 29.9158L39.4555 29.9081L39.4606 29.9029L39.4684 29.8926L39.4749 29.8876L39.4828 29.8797L39.4878 29.8747L39.4955 29.8668L39.5021 29.8591L39.5098 29.8513L39.5163 29.8462L39.524 29.8384L39.5304 29.8333L39.538 29.8256L39.5446 29.8204L39.5525 29.8127L39.5601 29.8076L39.5679 29.7997L39.5819 29.7869L39.5898 29.7818L39.5961 29.7739L39.6039 29.7688L39.6116 29.7637L39.6194 29.7559L39.627 29.7508L39.6349 29.7431L39.6428 29.7379L39.6505 29.7328L39.6583 29.7277L39.6673 29.7198L39.6736 29.7147L39.6826 29.7071L39.689 29.7044L39.6993 29.6967L39.7056 29.6914L39.7146 29.6866L39.7213 29.6813L39.7326 29.6736L39.7379 29.6709L39.7533 29.6607L39.7649 29.6531L39.7714 29.6504L39.7816 29.6428L39.7866 29.6402L39.7996 29.6326L39.8046 29.6299L39.8164 29.6222L39.82 29.6196L39.833 29.6119L39.8381 29.6093L39.8511 29.6016L39.8561 29.5989L39.8691 29.5938L39.8729 29.5912L39.887 29.5836L39.8895 29.5809L39.9051 29.5732H39.9076L39.9218 29.5653L39.9254 29.5628L39.9408 29.5577L39.9434 29.5551L39.9588 29.5473H39.9614L39.9766 29.5396H39.9793L39.9959 29.5318H39.9985L40.0138 29.5241L40.0178 29.5214L40.0331 29.5163H40.0355L40.0511 29.5087H40.0536L40.0716 29.5008H40.073L40.0896 29.4957L40.0923 29.4932L40.1104 29.4881H40.1116L40.1298 29.4828L40.131 29.4802L40.1491 29.4751H40.1501L40.1695 29.4699L40.1888 29.4648H40.1901L40.2094 29.4571L40.2208 29.4544L40.2285 29.4518H40.2339L40.2466 29.4492L40.2493 29.4466H40.2596L40.2699 29.4441L40.2724 29.4414L40.284 29.4388H40.2904L40.2956 29.4362L40.3084 29.4336H40.3098L40.3214 29.4309H40.3304L40.334 29.4283H40.3458L40.3508 29.4257H40.3586L40.3701 29.4232L40.3831 29.4206H40.3908H40.3959L40.4089 29.4181H40.4114L40.4203 29.4154H40.4319H40.4333L40.4449 29.4129H40.4513H40.4576L40.4706 29.4103H40.4721L40.4835 29.4077H40.4913H40.4951H40.5079H40.5118L40.5196 29.4051H40.5326H40.5454H40.5518H40.557L40.5686 29.4024H40.5723H40.5813H40.5826H40.6069H40.6123H40.6186H40.63H40.643H40.652H40.6559H40.6673H40.6726H40.6803H40.6918L40.7048 29.4051H40.7125H40.7165H40.7279H40.7318H40.7408L40.7511 29.4077H40.7535H40.7651H40.7715L40.7769 29.4103H40.7896H40.7909L40.8013 29.4129H40.8101H40.8128L40.8255 29.4154H40.8306H40.8385L40.8486 29.4181L40.8731 29.4206L40.8846 29.4232H40.8885L40.8975 29.4257L40.9205 29.4283L40.9269 29.4309H40.9335L40.9439 29.4336H40.9463L40.9566 29.4362L40.9656 29.4388H40.9683L40.9798 29.4414L40.985 29.4441H40.9914L40.9978 29.4466H41.003H41.0044L41.0108 29.4492L41.0173 29.4518H41.0236L41.0288 29.4544L41.0366 29.4571H41.0416L41.0789 29.4674H41.0803L41.0853 29.4699L41.0926 29.4734ZM40.7718 23.1317L40.7693 23.1421L40.7666 23.1548V23.1574L40.7603 23.1908L40.7589 23.1961V23.2037L40.7563 23.2167L40.7536 23.2269L40.7513 23.2347V23.2398L40.7486 23.2527V23.2553L40.746 23.2631L40.7434 23.2733V23.2759L40.7398 23.2888L40.7385 23.2914L40.7359 23.2991L40.7334 23.3121L40.7308 23.3223L40.7269 23.3352L40.7233 23.3481L40.7206 23.3583L40.718 23.3686L40.717 23.3712L40.713 23.3814V23.3866L40.7104 23.3942L40.7066 23.4046H40.7053L40.7026 23.4174L40.7003 23.4226L40.6976 23.4277L40.695 23.4407H40.6936L40.6899 23.4508L40.6873 23.4587L40.6859 23.4637L40.6823 23.4739L40.6796 23.4792L40.677 23.4843L40.6734 23.4944L40.672 23.4971L40.668 23.5073L40.6654 23.5124L40.6643 23.5202L40.659 23.5306H40.6576L40.654 23.5408L40.6514 23.5484L40.6488 23.5537L40.6438 23.5638L40.6424 23.5664L40.6388 23.5742L40.6285 23.5973L40.6259 23.6026L40.6233 23.6076L40.6183 23.6178V23.6204L40.6094 23.6359L40.6079 23.6411L40.5669 23.7156L40.5618 23.7207L40.5413 23.7542V23.7567C40.5233 23.7874 40.5026 23.8183 40.481 23.8467C40.459 23.8776 40.4334 23.9083 40.4078 23.9391L40.4051 23.9442L40.3975 23.9518C40.377 23.9777 40.3538 24.0033 40.3294 24.0263L40.3258 24.0289L40.3179 24.0392L40.3128 24.0443L40.305 24.0494L40.2986 24.0572L40.2934 24.0623L40.2844 24.0701L40.2819 24.0727L40.2703 24.0856H40.2689L40.2433 24.1087L40.2406 24.1113L40.2318 24.1191L40.2254 24.1242L40.2176 24.1319L40.2113 24.1371L40.2046 24.1423L40.1969 24.1499L40.1919 24.1526L40.1815 24.1603L40.1789 24.1629L40.1661 24.1732L40.1518 24.1834L40.1508 24.1861L40.1378 24.1938L40.1339 24.1964L40.1249 24.2041L40.1185 24.2092L40.1106 24.2143L40.1018 24.2194L40.0968 24.2246L40.0864 24.2323L40.0825 24.2349L40.0696 24.2427H40.0684L40.0544 24.2529H40.053L40.04 24.2632H40.0364L40.0246 24.2708L40.0196 24.2761L40.0108 24.2812L40.0018 24.2864L39.9964 24.2889L39.985 24.2968L39.9811 24.2993L39.9681 24.3044L39.9658 24.3071L39.9504 24.3147L39.9349 24.3226L39.9324 24.3251L39.9194 24.3303L39.9143 24.3354L39.904 24.3407L39.8963 24.3432L39.8885 24.3483L39.8783 24.3534L39.8729 24.3561L39.8601 24.3613H39.8575L39.8421 24.3689L39.8269 24.3767H39.8243L39.8103 24.3846L39.8063 24.3872L39.7933 24.3923L39.7856 24.3948L39.7766 24.3974L39.7676 24.4026L39.7599 24.4052L39.7485 24.4103H39.7446L39.7293 24.4153L39.7279 24.4179L39.7111 24.4231H39.7099L39.6945 24.4282L39.6906 24.4308L39.6778 24.4334L39.6713 24.4361L39.6598 24.4386L39.652 24.4437H39.6431L39.6314 24.4488H39.6264L39.6108 24.4539H39.6084L39.5903 24.4591C39.1614 24.5747 38.725 24.5053 38.3668 24.2974L38.3528 24.2896L38.3501 24.2871L38.3371 24.2792H38.3348L38.3194 24.2689L38.2718 24.2382L38.241 24.2149L38.1805 24.1712L38.1794 24.1687L38.1511 24.1482L38.1498 24.1456L38.1368 24.1353L38.1343 24.1327L38.1213 24.1226H38.1199L38.1071 24.1122L38.1058 24.1096L38.0801 24.0864L38.0763 24.0838L38.0648 24.0737L38.0493 24.0556L38.0391 24.0453L38.0353 24.0427L38.0249 24.0323L38.0213 24.0298L38.0109 24.0196L38.0083 24.0144L37.9979 24.0066L37.9954 24.0014L37.9851 23.9912L37.9825 23.9861L37.9685 23.9733L37.9596 23.9629L37.9556 23.9577L37.948 23.9501L37.9443 23.9449L37.9364 23.9347L37.9314 23.9296L37.9236 23.9193L37.9184 23.9141L37.9106 23.9063L37.9056 23.8987L37.9005 23.8908L37.8953 23.8829L37.8875 23.8753L37.8825 23.8676L37.8773 23.8598L37.8709 23.8519L37.8645 23.8443L37.8593 23.8364L37.8541 23.8288L37.8489 23.8209L37.8439 23.8132L37.8375 23.8031L37.8323 23.7978L37.8258 23.7874L37.8221 23.7798L37.8155 23.7721L37.8105 23.7642L37.8053 23.7541L37.8001 23.7488L37.7951 23.7386L37.7899 23.7308L37.7848 23.7206L37.7809 23.7154L37.7745 23.7052L37.7719 23.6974L37.7643 23.6871L37.7616 23.6819L37.7566 23.6691L37.7526 23.6639L37.7463 23.6511L37.7438 23.6459L37.7373 23.6357L37.7348 23.6306L37.7281 23.6176L37.7256 23.6124L37.719 23.5996L37.7176 23.5944L37.71 23.5816L37.7086 23.5764L37.6946 23.5457L37.692 23.5406L37.6793 23.5071L37.6766 23.5044L37.6716 23.4892L37.6703 23.4866L37.6639 23.4712V23.4686L37.6573 23.4532L37.6561 23.4506L37.6509 23.4326L37.6495 23.4299L37.6431 23.4147V23.4121L37.6381 23.3939H37.6368L37.6251 23.3554C36.3849 23.4891 35.0898 23.6814 33.7573 23.9306C32.3683 24.1926 30.9318 24.5186 29.4706 24.9088C24.0764 26.3543 19.401 28.4162 16.2005 30.5753C13.09 32.6781 11.3954 34.8399 11.8575 36.5679C12.3196 38.2933 14.8666 39.3204 18.61 39.5848C22.4653 39.8569 27.5425 39.2998 32.9343 37.8568H32.9395C38.3339 36.4114 43.0093 34.3522 46.2096 32.1903C49.3215 30.0901 51.0148 27.9257 50.5513 26.1978C50.2701 25.1502 49.2008 24.3543 47.5538 23.8332C45.8299 23.2858 43.4934 23.0471 40.7718 23.1317ZM14.2418 42.6269C14.786 42.6269 15.2278 43.0686 15.2278 43.6129C15.2278 44.1573 14.786 44.5989 14.2418 44.5989C13.6974 44.5989 13.2558 44.1573 13.2558 43.6129C13.2558 43.0686 13.6974 42.6269 14.2418 42.6269ZM38.7563 21.3396C39.1863 21.2241 39.6241 21.2934 39.9811 21.5013L39.9951 21.5117C40.3456 21.7171 40.6204 22.0586 40.7334 22.4822L40.7385 22.5027C43.5421 22.4156 45.9545 22.6646 47.7451 23.2318C49.6028 23.8198 50.821 24.7596 51.1626 26.0357C51.7018 28.0512 49.9046 30.4569 46.5643 32.7138C43.3099 34.9092 38.5664 37.0016 33.1066 38.4652H33.0988C27.6404 39.9286 22.4874 40.4884 18.5705 40.2137L18.5655 40.2111C14.546 39.9286 11.7898 38.7449 11.2505 36.7294C10.7114 34.7139 12.5085 32.3107 15.8489 30.0538C19.1034 27.8561 23.8469 25.7636 29.3079 24.3001C30.7779 23.9073 32.2298 23.5787 33.6431 23.3117C34.9936 23.0599 36.3081 22.8649 37.5703 22.7288C37.5934 22.5028 37.6653 22.2872 37.7783 22.0921C37.9834 21.7351 38.3276 21.4551 38.7563 21.3396Z" fill="#2CC388"/>
</svg>
