<svg width="32" height="32" viewBox="0 0 32 32" fill="none" xmlns="http://www.w3.org/2000/svg">
<path d="M10.0998 22.9999C10.2861 22.8125 10.3906 22.5591 10.3906 22.2949C10.3906 22.0307 10.2861 21.7773 10.0998 21.5899L5.49983 16.9999H29.0498C29.315 16.9999 29.5694 16.8946 29.7569 16.707C29.9445 16.5195 30.0498 16.2651 30.0498 15.9999C30.0498 15.7347 29.9445 15.4803 29.7569 15.2928C29.5694 15.1053 29.315 14.9999 29.0498 14.9999H5.52983L10.0998 10.4299C10.2895 10.2416 10.3965 9.98568 10.3975 9.71844C10.3984 9.45121 10.2931 9.19454 10.1048 9.00491C9.91652 8.81528 9.6606 8.70822 9.39336 8.70728C9.12612 8.70634 8.86946 8.81161 8.67983 8.99991L2.31983 15.3699C2.1519 15.5386 2.05762 15.7669 2.05762 16.0049C2.05762 16.2429 2.1519 16.4712 2.31983 16.6399L8.67983 22.9999C8.77279 23.0936 8.88339 23.168 9.00525 23.2188C9.12711 23.2696 9.25782 23.2957 9.38983 23.2957C9.52184 23.2957 9.65255 23.2696 9.7744 23.2188C9.89626 23.168 10.0069 23.0936 10.0998 22.9999Z" fill="#FFE500"/>
</svg>
