<svg width="35" height="54" viewBox="0 0 35 54" fill="none" xmlns="http://www.w3.org/2000/svg">
<path d="M29.75 6.65509H26.25C23.3505 6.65509 21 8.92161 21 11.6227V41.9977C21 44.7936 23.3505 47.0602 26.25 47.0602L29.75 47.25C32.6495 47.25 35 44.9835 35 42.1875V11.8125C35 9.01654 32.6484 6.65509 29.75 6.65509ZM8.75 6.65509H5.25C2.35047 6.65509 0 8.92161 0 11.7176V42.0926C0 44.9824 2.35047 47.25 5.25 47.25H8.75C11.6495 47.25 14 44.9835 14 42.1875V11.8125C14 9.01654 11.6484 6.65509 8.75 6.65509Z" fill="#FFE500"/>
</svg>
