<svg width="65" height="60" viewBox="0 0 65 60" fill="none" xmlns="http://www.w3.org/2000/svg">
<g clip-path="url(#clip0_32_2)">
<mask id="mask0_32_2" style="mask-type:luminance" maskUnits="userSpaceOnUse" x="0" y="0" width="65" height="60">
<path d="M65 0H0V60H65V0Z" fill="white"/>
</mask>
<g mask="url(#mask0_32_2)">
<path d="M32.5 0L0 30H18.9583V60H46.0417V30H65L32.5 0Z" fill="#808080"/>
<path d="M35.1761 0.892803C34.8779 0.617458 34.479 0.392324 34.0135 0.236794C33.5481 0.0812643 33.0302 0 32.5044 0C31.9786 0 31.4607 0.0812643 30.9953 0.236794C30.5299 0.392324 30.1309 0.617458 29.8327 0.892803L0.580407 27.7576C0.241812 28.0675 0.0432541 28.4304 0.00630205 28.807C-0.0306499 29.1836 0.0954182 29.5594 0.370813 29.8936C0.646207 30.2278 1.06039 30.5077 1.56837 30.7027C2.07634 30.8978 2.65868 31.0006 3.25212 31H61.7567C62.3488 30.9984 62.9289 30.8943 63.4349 30.6988C63.9408 30.5032 64.3533 30.2237 64.6281 29.8903C64.9028 29.5568 65.0294 29.1821 64.9942 28.8063C64.9591 28.4305 64.7634 28.068 64.4284 27.7576L35.1761 0.892803Z" fill="#808080"/>
</g>
</g>
<defs>
<clipPath id="clip0_32_2">
<rect width="65" height="60" fill="white"/>
</clipPath>
</defs>
</svg>
