<svg width="459" height="401" viewBox="0 0 459 401" fill="none" xmlns="http://www.w3.org/2000/svg">
<path d="M346.924 355.506L134.5 357L124.5 357.5L116 359L109 360.5L102.5 363L89.4993 370.5L77 379L64.5 386.5L50.499 394L58 375L69.4993 355.506L89.4993 332.5L111.499 312.5L137.499 293.5L163.999 275.5L197.499 263.5L229.499 253.5L263.499 238.5L296.499 219L322.999 197.5L346.924 170L360.5 141V64.5001V62.0001L360 59.0001L358.5 54.0001L357 49.0001L355.5 44.5001L352 36.0001L349 28.0001L346 19.0001L344.5 10.0001L352.5 16.0001L359.999 24.0001L370.5 36.5001L380.5 50.0001L393 68.0001L403.5 86.0001L414.5 104.5L424.5 124L428 138V222.5L420 253.5L408 275.5L392 301L376 324.5L363 340.5L346.924 355.506Z" stroke="#FFC000" stroke-width="5"/>
<path d="M239 83.0002L198.5 102.5L175 119.5L152 142L139.5 157L129 172.5L122 184.5L118 193L117 202V279L134.5 264L150.5 252.5L168 243L186 236.5L203.5 231.5L220 227L236.5 223L230 213.5L218.5 198L214.5 185L211 172.5L210.5 165.5V157.5L211 150.5L212 143.5L214.5 129.5L220 117L225.5 106.5L229.5 99.0001L233.5 92.5001L238 84.0001" stroke="#FFC000" stroke-width="5"/>
<path d="M150 253L117.5 277.5V194.5L132 168L150 144L174 120.5L200 101.5L236 85L214.5 130.5L210.5 172L219 197.5L236 223L172 241.5L150 253Z" fill="#FFC000"/>
<path d="M105 362L51 393.5V392L64.5 362L83.5 339.5L111.5 311.5L161.5 277.5L185 267.5L228.5 254.5L264 238L296.5 219L323.5 197L347 170.5L360 140V57L347.5 23.5L345 10.5L365.5 30L399 76.5L424 123.5L428 138.5V215.5L426 235L416 262.5L371 331.5L363.5 339.5L347 355.5L124.5 358L105 362Z" fill="#FFC000"/>
</svg>
