<svg width="240" height="240" viewBox="0 0 240 240" fill="none" xmlns="http://www.w3.org/2000/svg">
<path d="M119.5 219L46 175.5V43.5L194 43.5V175L119.5 219Z" fill="#C3B101" fill-opacity="0.8"/>
<path d="M119.5 210.5L54.0003 170.5V51.5L186 51.5V170.5L119.5 210.5Z" fill="#CEC891"/>
<path d="M109.5 37.2923L119.5 22L129.5 37.4433V93C121.722 89.7231 117.278 89.7231 109.5 93V37.2923Z" fill="#CDD100"/>
<path d="M110 92.2519V37.4413L119.498 22.9167L129 37.5911V92.2519C125.403 90.7905 122.462 90.0423 119.5 90.0423C116.538 90.0423 113.597 90.7905 110 92.2519Z" stroke="black" stroke-opacity="0.2"/>
<path d="M129.5 197.9L119.5 203L109.5 197.9V169C117.667 170.295 121.333 170.295 129.5 169V197.9Z" fill="#CDD100"/>
<path d="M129 169.584V197.594L119.5 202.439L110 197.594V169.584C117.629 170.766 121.371 170.766 129 169.584Z" stroke="black" stroke-opacity="0.2"/>
<path d="M153.5 165L162.5 160V100L153.5 95V75.5L162.5 65.5L171.5 56H181.5V168L153.5 184V165Z" fill="#CDD100"/>
<path d="M181 167.71L154 183.138V165.294L162.743 160.437L163 160.294V160V100V99.7058L162.743 99.5629L154 94.7058V75.6919L162.867 65.8392L171.715 56.5H181V167.71Z" stroke="black" stroke-opacity="0.2"/>
<path d="M86.5 165L77.5 160V100L86.5 95V75.5L77.5 65.5L68.5 56H58.5V168L86.5 184V165Z" fill="#CDD100"/>
<path d="M59 167.71L86 183.138V165.294L77.2572 160.437L77 160.294V160V100V99.7058L77.2572 99.5629L86 94.7058V75.6919L77.1326 65.8392L68.2849 56.5H59V167.71Z" stroke="black" stroke-opacity="0.2"/>
<path d="M102.5 43.5H109.5V53H102.5V43.5Z" fill="#CEC891"/>
<path d="M129.5 43.5H136.5V53H129.5V43.5Z" fill="#CEC891"/>
<path d="M145.926 125.67C145.733 125.111 145.284 124.762 144.706 124.762H124.994L141.945 96.1921C142.266 95.6333 142.202 94.8649 141.752 94.376C141.303 93.887 140.597 93.887 140.083 94.3061L94.4966 133.423C94.0472 133.773 93.9188 134.401 94.0472 134.96C94.1756 135.519 94.6893 135.868 95.2671 135.868H114.144L96.7438 165.835C96.4228 166.393 96.487 167.162 97.0007 167.651C97.2575 167.86 97.5785 168 97.8353 168C98.0922 168 98.4132 167.93 98.6058 167.721L145.476 127.206C145.926 126.857 146.118 126.228 145.926 125.67ZM102.972 160.456L117.547 135.239C117.803 134.82 117.803 134.261 117.611 133.842C117.354 133.423 116.969 133.144 116.455 133.144H98.9911L135.588 101.71L121.527 125.39C121.271 125.809 121.271 126.368 121.463 126.787C121.656 127.206 122.105 127.486 122.619 127.486H141.046L102.972 160.456Z" fill="#DDD400"/>
<path d="M124.736 124.609L124.468 125.062H124.994H144.706C145.143 125.062 145.487 125.317 145.642 125.767C145.793 126.205 145.64 126.699 145.292 126.97L145.286 126.974L145.28 126.979L98.4096 167.494L98.3966 167.505L98.3849 167.518C98.2762 167.636 98.059 167.7 97.8353 167.7C97.6725 167.7 97.4211 167.604 97.1994 167.426C96.8011 167.039 96.7483 166.43 97.0035 165.985C97.0036 165.985 97.0038 165.984 97.004 165.984L114.403 136.019L114.665 135.568H114.144H95.2671C94.8054 135.568 94.4317 135.294 94.3396 134.893C94.2281 134.408 94.352 133.916 94.6807 133.66L94.6865 133.656L94.692 133.651L140.275 94.5363C140.684 94.205 141.205 94.2244 141.531 94.579C141.888 94.9668 141.943 95.5907 141.686 96.041C141.685 96.0416 141.685 96.0421 141.685 96.0427L124.736 124.609ZM102.712 160.306L103.168 160.683L141.242 127.713L141.851 127.186H141.046H122.619C122.211 127.186 121.875 126.965 121.736 126.662C121.58 126.323 121.585 125.871 121.783 125.547L121.785 125.543L135.846 101.864L135.393 101.483L98.7956 132.916L98.1813 133.444H98.9911H116.455C116.835 133.444 117.13 133.641 117.345 133.984C117.494 134.321 117.486 134.764 117.291 135.083L117.291 135.083L117.287 135.089L102.712 160.306Z" stroke="black" stroke-opacity="0.5" stroke-width="0.6"/>
</svg>
