<svg width="240" height="240" viewBox="0 0 240 240" fill="none" xmlns="http://www.w3.org/2000/svg">
<path d="M119.5 219L46 175.5V43.5L194 43.5V175L119.5 219Z" fill="#DDD400"/>
<path d="M119.5 210.5L54.0003 170.5V51.5L186 51.5V170.5L119.5 210.5Z" fill="#625A0E"/>
<path d="M109.5 37.2923L119.5 22L129.5 37.4433V93C121.722 89.7231 117.278 89.7231 109.5 93V37.2923Z" fill="#A3A700"/>
<path d="M110 92.2519V37.4413L119.498 22.9167L129 37.5911V92.2519C125.403 90.7905 122.462 90.0423 119.5 90.0423C116.538 90.0423 113.597 90.7905 110 92.2519Z" stroke="black" stroke-opacity="0.2"/>
<path d="M129.5 197.9L119.5 203L109.5 197.9V169C117.667 170.295 121.333 170.295 129.5 169V197.9Z" fill="#A3A700"/>
<path d="M129 169.584V197.594L119.5 202.439L110 197.594V169.584C117.629 170.766 121.371 170.766 129 169.584Z" stroke="black" stroke-opacity="0.2"/>
<path d="M153.5 165L162.5 160V100L153.5 95V75.5L162.5 65.5L171.5 56H181.5V168L153.5 184V165Z" fill="#A3A700"/>
<path d="M181 167.71L154 183.138V165.294L162.743 160.437L163 160.294V160V100V99.7058L162.743 99.5629L154 94.7058V75.6919L162.867 65.8392L171.715 56.5H181V167.71Z" stroke="black" stroke-opacity="0.2"/>
<path d="M86.5 165L77.5 160V100L86.5 95V75.5L77.5 65.5L68.5 56H58.5V168L86.5 184V165Z" fill="#A3A700"/>
<path d="M59 167.71L86 183.138V165.294L77.2572 160.437L77 160.294V160V100V99.7058L77.2572 99.5629L86 94.7058V75.6919L77.1326 65.8392L68.2849 56.5H59V167.71Z" stroke="black" stroke-opacity="0.2"/>
<path d="M102.5 43.5H109.5V53H102.5V43.5Z" fill="#625A0E"/>
<path d="M129.5 43.5H136.5V53H129.5V43.5Z" fill="#625A0E"/>
<path d="M149.911 125.521C149.682 124.895 149.146 124.503 148.457 124.503H124.955L145.165 92.4587C145.548 91.8319 145.471 90.9701 144.935 90.4217C144.399 89.8733 143.557 89.8733 142.945 90.3433L88.5921 134.218C88.0563 134.61 87.9032 135.315 88.0563 135.942C88.2094 136.568 88.8218 136.96 89.5108 136.96H112.017L91.2715 170.571C90.8887 171.198 90.9653 172.06 91.5777 172.608C91.8839 172.843 92.2667 173 92.5729 173C92.8791 173 93.2619 172.922 93.4916 172.687L149.375 127.245C149.911 126.853 150.141 126.148 149.911 125.521ZM98.6972 164.538L116.075 136.255C116.381 135.785 116.381 135.158 116.151 134.688C115.845 134.218 115.386 133.905 114.773 133.905H93.9509L137.586 98.6482L120.821 125.208C120.515 125.678 120.515 126.305 120.745 126.775C120.974 127.245 121.51 127.558 122.122 127.558H144.093L98.6972 164.538Z" fill="#DDD400"/>
<path d="M124.617 124.289L124.23 124.903H124.955H148.457C148.974 124.903 149.362 125.186 149.536 125.659C149.701 126.111 149.537 126.631 149.139 126.922L149.131 126.928L149.123 126.935L93.2392 172.376L93.2214 172.391L93.2055 172.407C93.0885 172.527 92.8405 172.6 92.5729 172.6C92.3845 172.6 92.0916 172.495 91.8335 172.3C91.3829 171.887 91.3277 171.248 91.6122 170.781C91.6125 170.78 91.6127 170.78 91.6129 170.78L112.358 137.17L112.734 136.56H112.017H89.5108C88.9589 136.56 88.5439 136.252 88.4448 135.847C88.3184 135.329 88.459 134.811 88.8282 134.541L88.8359 134.535L88.8434 134.529L143.192 90.6579C143.669 90.2946 144.277 90.3203 144.649 90.7012C145.053 91.1145 145.114 91.7732 144.825 92.248C144.825 92.2488 144.824 92.2495 144.824 92.2502L124.617 124.289ZM98.3564 164.329L98.9498 164.849L144.346 127.869L145.218 127.158H144.093H122.122C121.638 127.158 121.256 126.911 121.104 126.599C120.929 126.241 120.936 125.765 121.156 125.426L121.156 125.426L121.159 125.422L137.924 98.8617L137.335 98.337L93.6995 133.593L92.8193 134.305H93.9509H114.773C115.218 134.305 115.557 134.519 115.802 134.885C115.967 135.241 115.956 135.705 115.74 136.037L115.739 136.037L115.734 136.046L98.3564 164.329Z" stroke="black" stroke-opacity="0.4" stroke-width="0.8"/>
<path d="M93.2261 134.22L138.094 97.9988L121.391 126.521L145.406 127.12L98.267 165.017L116.047 135.026L93.2261 134.22Z" fill="#DDD400"/>
<path d="M149.911 125.521C149.682 124.895 149.146 124.503 148.457 124.503H124.955L145.165 92.4587C145.548 91.8319 145.471 90.9701 144.935 90.4217C144.399 89.8733 143.557 89.8733 142.945 90.3433L88.5921 134.218C88.0563 134.61 87.9032 135.315 88.0563 135.942C88.2094 136.568 88.8218 136.96 89.5108 136.96H112.017L91.2715 170.571C90.8887 171.198 90.9653 172.06 91.5777 172.608C91.8839 172.843 92.2667 173 92.5729 173C92.8791 173 93.2619 172.922 93.4916 172.687L149.375 127.245C149.911 126.853 150.141 126.148 149.911 125.521ZM98.6972 164.538L116.075 136.255C116.381 135.785 116.381 135.158 116.151 134.688C115.845 134.218 115.386 133.905 114.773 133.905H93.9509L137.586 98.6482L120.821 125.208C120.515 125.678 120.515 126.305 120.745 126.775C120.974 127.245 121.51 127.558 122.122 127.558H144.093L98.6972 164.538Z" fill="#DDD400"/>
<path d="M124.617 124.289L124.23 124.903H124.955H148.457C148.974 124.903 149.362 125.186 149.536 125.659C149.701 126.111 149.537 126.631 149.139 126.922L149.131 126.928L149.123 126.935L93.2392 172.376L93.2214 172.391L93.2055 172.407C93.0885 172.527 92.8405 172.6 92.5729 172.6C92.3845 172.6 92.0916 172.495 91.8335 172.3C91.3829 171.887 91.3277 171.248 91.6122 170.781C91.6124 170.78 91.6127 170.78 91.6129 170.78L112.358 137.17L112.734 136.56H112.017H89.5108C88.9589 136.56 88.5439 136.252 88.4448 135.847C88.3184 135.329 88.459 134.811 88.8282 134.541L88.8359 134.535L88.8434 134.529L143.192 90.6578C143.669 90.2946 144.277 90.3203 144.649 90.7012C145.053 91.1145 145.114 91.7732 144.825 92.248C144.825 92.2488 144.824 92.2495 144.824 92.2502L124.617 124.289ZM98.3564 164.329L98.9498 164.849L144.346 127.869L145.218 127.158H144.093H122.122C121.638 127.158 121.256 126.911 121.104 126.599C120.929 126.241 120.936 125.765 121.156 125.426L121.156 125.426L121.159 125.422L137.924 98.8617L137.335 98.337L93.6995 133.593L92.8193 134.305H93.9509H114.773C115.218 134.305 115.557 134.519 115.802 134.885C115.967 135.241 115.956 135.705 115.74 136.037L115.739 136.037L115.734 136.046L98.3564 164.329Z" stroke="black" stroke-opacity="0.4" stroke-width="0.8"/>
</svg>
