<svg width="240" height="240" viewBox="0 0 240 240" fill="none" xmlns="http://www.w3.org/2000/svg">
<path d="M119.5 219L46 175.5V43.5L194 43.5V175L119.5 219Z" fill="#AB0B15"/>
<path d="M119.5 210.5L54.0003 170.5V51.5L186 51.5V170.5L119.5 210.5Z" fill="#BB9A82"/>
<path d="M109.5 37.2923L119.5 22L129.5 37.4433V93C121.722 89.7231 117.278 89.7231 109.5 93V37.2923Z" fill="#BD381B"/>
<path d="M110 92.2519V37.4413L119.498 22.9167L129 37.5911V92.2519C125.403 90.7905 122.462 90.0423 119.5 90.0423C116.538 90.0423 113.597 90.7905 110 92.2519Z" stroke="black" stroke-opacity="0.2"/>
<path d="M129.5 197.9L119.5 203L109.5 197.9V169C117.667 170.295 121.333 170.295 129.5 169V197.9Z" fill="#BD381B"/>
<path d="M129 169.584V197.594L119.5 202.439L110 197.594V169.584C117.629 170.766 121.371 170.766 129 169.584Z" stroke="black" stroke-opacity="0.2"/>
<path d="M153.5 165L162.5 160V100L153.5 95V75.5L162.5 65.5L171.5 56H181.5V168L153.5 184V165Z" fill="#BD381B"/>
<path d="M181 167.71L154 183.138V165.294L162.743 160.437L163 160.294V160V100V99.7058L162.743 99.5629L154 94.7058V75.6919L162.867 65.8392L171.715 56.5H181V167.71Z" stroke="black" stroke-opacity="0.2"/>
<path d="M86.5 165L77.5 160V100L86.5 95V75.5L77.5 65.5L68.5 56H58.5V168L86.5 184V165Z" fill="#BD381B"/>
<path d="M59 167.71L86 183.138V165.294L77.2572 160.437L77 160.294V160V100V99.7058L77.2572 99.5629L86 94.7058V75.6919L77.1326 65.8392L68.2849 56.5H59V167.71Z" stroke="black" stroke-opacity="0.2"/>
<path d="M102.5 43.5H109.5V53H102.5V43.5Z" fill="#BB9A82"/>
<path d="M129.5 43.5H136.5V53H129.5V43.5Z" fill="#BB9A82"/>
<path d="M135.399 128.721L128.195 126.806L131.843 120.393C132.069 119.995 132.013 119.497 131.704 119.159C131.394 118.821 130.903 118.722 130.486 118.913L123.703 122.026L123.542 121.186C123.433 120.613 122.88 120.238 122.309 120.347C121.736 120.457 121.361 121.009 121.47 121.581L121.883 123.743C121.944 124.062 122.148 124.334 122.436 124.483C122.724 124.631 123.065 124.639 123.359 124.504L128.391 122.195L125.686 126.952C125.524 127.236 125.503 127.579 125.63 127.881C125.756 128.182 126.015 128.408 126.332 128.492L131.657 129.909L126.499 131.831C126.192 131.946 125.956 132.196 125.859 132.509C125.763 132.821 125.817 133.161 126.006 133.428L129.166 137.898L123.935 136.087C123.628 135.98 123.29 136.021 123.017 136.197C122.745 136.374 122.569 136.665 122.54 136.989L122.048 142.453L119.208 137.726C119.041 137.449 118.757 137.264 118.436 137.223C118.116 137.182 117.794 137.291 117.564 137.518L113.625 141.397L113.757 140.598C113.853 140.024 113.464 139.481 112.89 139.385C112.314 139.29 111.772 139.678 111.676 140.253L111.011 144.253C110.936 144.704 111.16 145.151 111.566 145.362C111.971 145.572 112.466 145.498 112.792 145.177L118.089 139.96L121.904 146.311C122.098 146.633 122.444 146.822 122.808 146.822C122.887 146.822 122.966 146.813 123.044 146.795C123.489 146.693 123.818 146.317 123.859 145.862L124.52 138.521L131.577 140.965C132.01 141.114 132.49 140.968 132.765 140.601C133.04 140.235 133.048 139.733 132.783 139.359L128.52 133.329L135.496 130.729C135.927 130.569 136.204 130.148 136.181 129.69C136.159 129.231 135.843 128.839 135.399 128.721Z" fill="#FF530A"/>
<path d="M155.216 128.349L137.301 123.583L146.381 107.619C146.607 107.221 146.551 106.723 146.242 106.385C145.932 106.047 145.44 105.948 145.025 106.139L128.179 113.868L124.74 95.8571C124.655 95.4088 124.291 95.0665 123.838 95.0087C123.386 94.9502 122.947 95.1908 122.751 95.6033L114.88 112.211L100.51 100.587C100.154 100.3 99.654 100.274 99.2711 100.523C98.8879 100.773 98.7092 101.241 98.8283 101.682L103.604 119.379L85.0424 119.596C84.5835 119.601 84.1808 119.903 84.0463 120.341C83.9119 120.78 84.0767 121.256 84.4537 121.517L99.6305 132.041L85.5675 143.976C85.2177 144.273 85.0999 144.762 85.2761 145.185C85.4523 145.609 85.8806 145.87 86.3394 145.831L104.837 144.258L101.833 162.333C101.758 162.784 101.981 163.231 102.387 163.442C102.792 163.652 103.287 163.578 103.613 163.257L116.766 150.305L126.242 166.077C126.435 166.399 126.781 166.589 127.146 166.589C127.224 166.588 127.303 166.58 127.382 166.562C127.827 166.46 128.155 166.083 128.196 165.628L129.839 147.375L147.366 153.444C147.799 153.594 148.279 153.447 148.554 153.08C148.829 152.714 148.836 152.212 148.572 151.838L137.957 136.826L155.314 130.357C155.744 130.197 156.021 129.776 155.999 129.318C155.976 128.859 155.66 128.468 155.216 128.349ZM135.936 135.328C135.63 135.442 135.394 135.692 135.297 136.005C135.2 136.318 135.255 136.658 135.444 136.925L144.955 150.377L129.254 144.941C128.948 144.834 128.609 144.875 128.337 145.051C128.064 145.228 127.888 145.519 127.859 145.843L126.385 162.22L117.884 148.07C117.718 147.793 117.434 147.608 117.113 147.567C117.069 147.562 117.025 147.559 116.981 147.559C116.705 147.559 116.439 147.667 116.24 147.862L104.446 159.477L107.141 143.265C107.194 142.944 107.096 142.616 106.875 142.377C106.654 142.137 106.334 142.013 106.011 142.041L89.4473 143.45L102.042 132.761C102.292 132.549 102.429 132.233 102.413 131.905C102.397 131.578 102.23 131.277 101.961 131.09L88.3707 121.666L104.989 121.472C105.315 121.468 105.621 121.314 105.818 121.054C106.015 120.794 106.08 120.458 105.995 120.143L101.712 104.273L114.596 114.694C114.848 114.898 115.179 114.974 115.494 114.902C115.809 114.83 116.074 114.618 116.213 114.326L123.274 99.4253L126.36 115.586C126.421 115.904 126.625 116.177 126.913 116.325C127.201 116.474 127.541 116.482 127.836 116.347L142.929 109.421L134.791 123.729C134.629 124.014 134.608 124.357 134.735 124.658C134.861 124.96 135.12 125.186 135.436 125.27L151.474 129.537L135.936 135.328Z" fill="#D60C0C"/>
<path d="M121.735 114.025C121.209 113.776 120.58 114 120.33 114.526L117.162 121.211L111.374 116.53C111.019 116.242 110.518 116.216 110.135 116.466C109.752 116.715 109.573 117.183 109.692 117.625L111.611 124.735L104.143 124.823C103.684 124.828 103.282 125.13 103.147 125.568C103.013 126.007 103.178 126.483 103.555 126.744L109.652 130.972L104.003 135.766C103.653 136.063 103.535 136.552 103.711 136.976C103.876 137.371 104.262 137.625 104.685 137.625C104.714 137.625 104.745 137.624 104.775 137.621L113.571 136.873C114.152 136.824 114.582 136.314 114.533 135.733C114.483 135.153 113.976 134.722 113.393 134.772L107.883 135.24L112.063 131.692C112.313 131.48 112.45 131.164 112.434 130.837C112.419 130.509 112.251 130.208 111.982 130.021L107.472 126.894L112.996 126.829C113.322 126.825 113.628 126.671 113.825 126.411C114.022 126.151 114.087 125.814 114.002 125.5L112.576 120.216L116.878 123.695C117.129 123.898 117.461 123.975 117.775 123.903C118.091 123.831 118.356 123.619 118.494 123.326L122.236 115.43C122.486 114.903 122.261 114.274 121.735 114.025Z" fill="#E14D0E"/>
</svg>
