<svg width="240" height="240" viewBox="0 0 240 240" fill="none" xmlns="http://www.w3.org/2000/svg">
<path d="M119.5 219L46 175.5V43.5L194 43.5V175L119.5 219Z" fill="#101412"/>
<path d="M119.5 210.5L54.0003 170.5V51.5L186 51.5V170.5L119.5 210.5Z" fill="#8B8B8B"/>
<path d="M109.5 37.2923L119.5 22L129.5 37.4433V93C121.722 89.7231 117.278 89.7231 109.5 93V37.2923Z" fill="#F8D726"/>
<path d="M119.498 22.9167L129 37.5911V92.2519C125.403 90.7905 122.462 90.0423 119.5 90.0423C116.538 90.0423 113.597 90.7905 110 92.2519V37.4413L119.498 22.9167Z" stroke="black" stroke-opacity="0.2"/>
<path d="M129.5 197.9L119.5 203L109.5 197.9V169C117.667 170.295 121.333 170.295 129.5 169V197.9Z" fill="#F8D726"/>
<path d="M119.5 202.439L110 197.594V169.584C117.629 170.766 121.371 170.766 129 169.584V197.594L119.5 202.439Z" stroke="black" stroke-opacity="0.2"/>
<path d="M153.5 165L162.5 160V100L153.5 95V75.5L162.5 65.5L171.5 56H181.5V168L153.5 184V165Z" fill="#F8D726"/>
<path d="M181 167.71L154 183.138V165.294L162.743 160.437L163 160.294V160V100V99.7058L162.743 99.5629L154 94.7058V75.6919L162.867 65.8392L171.715 56.5H181V167.71Z" stroke="black" stroke-opacity="0.2"/>
<path d="M86.5 165L77.5 160V100L86.5 95V75.5L77.5 65.5L68.5 56H58.5V168L86.5 184V165Z" fill="#F8D726"/>
<path d="M59 167.71L86 183.138V165.294L77.2572 160.437L77 160.294V160V100V99.7058L77.2572 99.5629L86 94.7058V75.6919L77.1326 65.8392L68.2849 56.5H59V167.71Z" stroke="black" stroke-opacity="0.2"/>
<path d="M102.5 43.5H109.5V53H102.5V43.5Z" fill="#8B8B8B"/>
<path d="M129.5 43.5H136.5V53H129.5V43.5Z" fill="#8B8B8B"/>
<mask id="path-13-inside-1_519_65" fill="white">
<path fill-rule="evenodd" clip-rule="evenodd" d="M93.1321 119.95L87 119.95V144.332C90.7857 147.086 94.9219 150.406 98.9579 153.645C107.997 160.901 116.533 167.752 119.5 166.93C122.517 167.766 130.989 160.962 140.229 153.541C144.133 150.405 148.175 147.159 152 144.332V119.95L145.868 119.95C144.028 96.7574 128.461 95.094 119.5 95.0027C110.973 94.9159 94.9717 96.7574 93.1321 119.95ZM138.51 119.95H100.491V138.385H109.689L113.368 131.844H119.194H125.632L129.311 138.385H138.51V119.95Z"/>
</mask>
<path fill-rule="evenodd" clip-rule="evenodd" d="M93.1321 119.95L87 119.95V144.332C90.7857 147.086 94.9219 150.406 98.9579 153.645C107.997 160.901 116.533 167.752 119.5 166.93C122.517 167.766 130.989 160.962 140.229 153.541C144.133 150.405 148.175 147.159 152 144.332V119.95L145.868 119.95C144.028 96.7574 128.461 95.094 119.5 95.0027C110.973 94.9159 94.9717 96.7574 93.1321 119.95ZM138.51 119.95H100.491V138.385H109.689L113.368 131.844H119.194H125.632L129.311 138.385H138.51V119.95Z" fill="#FFD601"/>
<path d="M87 119.95L87 118.95L86 118.95V119.95H87ZM93.1321 119.95L93.1321 120.95L94.0559 120.95L94.1289 120.029L93.1321 119.95ZM87 144.332H86V144.841L86.4118 145.141L87 144.332ZM98.9579 153.645L99.5839 152.866L99.5839 152.866L98.9579 153.645ZM119.5 166.93L119.767 165.966L119.5 165.893L119.233 165.966L119.5 166.93ZM140.229 153.541L140.855 154.32L140.855 154.32L140.229 153.541ZM152 144.332L152.594 145.136L153 144.837V144.332H152ZM152 119.95H153V118.95L152 118.95L152 119.95ZM145.868 119.95L144.871 120.029L144.944 120.95L145.868 120.95L145.868 119.95ZM119.5 95.0027L119.51 94.0028L119.5 95.0027ZM100.491 119.95V118.95H99.4907V119.95H100.491ZM138.51 119.95H139.51V118.95H138.51V119.95ZM100.491 138.385H99.4907V139.385H100.491V138.385ZM109.689 138.385V139.385H110.274L110.56 138.876L109.689 138.385ZM113.368 131.844V130.844H112.783L112.496 131.354L113.368 131.844ZM125.632 131.844L126.504 131.354L126.217 130.844H125.632V131.844ZM129.311 138.385L128.44 138.876L128.727 139.385H129.311V138.385ZM138.51 138.385V139.385H139.51V138.385H138.51ZM87 120.95L93.1321 120.95L93.1321 118.95L87 118.95L87 120.95ZM88 144.332V119.95H86V144.332H88ZM99.5839 152.866C95.5526 149.63 91.3968 146.294 87.5882 143.523L86.4118 145.141C90.1745 147.878 94.2913 151.182 98.3319 154.425L99.5839 152.866ZM119.233 165.966C119.084 166.008 118.81 166.022 118.36 165.918C117.919 165.817 117.378 165.619 116.736 165.317C115.451 164.712 113.876 163.742 112.075 162.495C108.476 160.002 104.113 156.501 99.5839 152.866L98.3319 154.425C102.842 158.045 107.266 161.597 110.936 164.139C112.77 165.409 114.45 166.451 115.883 167.126C116.6 167.464 117.283 167.723 117.912 167.868C118.532 168.01 119.174 168.058 119.767 167.894L119.233 165.966ZM139.603 152.761C134.973 156.48 130.576 160.01 126.962 162.509C125.154 163.76 123.577 164.727 122.289 165.328C121.646 165.629 121.103 165.824 120.66 165.923C120.208 166.025 119.926 166.011 119.767 165.966L119.233 167.894C119.828 168.059 120.471 168.015 121.096 167.875C121.73 167.733 122.416 167.477 123.136 167.141C124.574 166.469 126.258 165.428 128.1 164.154C131.786 161.605 136.245 158.023 140.855 154.32L139.603 152.761ZM151.406 143.528C147.561 146.368 143.504 149.628 139.603 152.761L140.855 154.32C144.763 151.181 148.788 147.949 152.594 145.136L151.406 143.528ZM151 119.95V144.332H153V119.95H151ZM145.868 120.95L152 120.95L152 118.95L145.868 118.95L145.868 120.95ZM119.49 96.0027C123.941 96.048 129.828 96.4908 134.819 99.6577C139.742 102.782 143.971 108.677 144.871 120.029L146.865 119.871C145.926 108.03 141.451 101.498 135.89 97.969C130.397 94.4832 124.02 94.0487 119.51 94.0028L119.49 96.0027ZM94.1289 120.029C95.0287 108.686 99.3602 102.742 104.343 99.5919C109.388 96.4015 115.279 95.9598 119.49 96.0027L119.51 94.0028C115.193 93.9588 108.82 94.3946 103.274 97.9014C97.6638 101.448 93.0751 108.022 92.1352 119.871L94.1289 120.029ZM100.491 120.95H138.51V118.95H100.491V120.95ZM101.491 138.385V119.95H99.4907V138.385H101.491ZM109.689 137.385H100.491V139.385H109.689V137.385ZM112.496 131.354L108.817 137.895L110.56 138.876L114.24 132.334L112.496 131.354ZM119.194 130.844H113.368V132.844H119.194V130.844ZM125.632 130.844H119.194V132.844H125.632V130.844ZM130.183 137.895L126.504 131.354L124.761 132.334L128.44 138.876L130.183 137.895ZM138.51 137.385H129.311V139.385H138.51V137.385ZM137.51 119.95V138.385H139.51V119.95H137.51Z" fill="black" fill-opacity="0.3" mask="url(#path-13-inside-1_519_65)"/>
</svg>
