<svg width="240" height="240" viewBox="0 0 240 240" fill="none" xmlns="http://www.w3.org/2000/svg">
<path d="M119.5 219L46 175.5V43.5L194 43.5V175L119.5 219Z" fill="#46D0FC"/>
<path d="M119.5 210.5L54.0003 170.5V51.5L186 51.5V170.5L119.5 210.5Z" fill="#D2F8FD"/>
<path d="M153.282 138L141.262 140.712L134.346 136.539V124.559L141.326 120.417L153.344 123.218L154.5 118.56L147.288 116.883L154.48 112.604L151.902 108.531L144.719 112.789L146.448 105.807L141.645 104.698L138.76 116.334L131.926 120.379L121.997 114.602V107.367L130.73 98.8952L127.238 95.5075L121.997 100.591V92H117.057V100.591L111.816 95.5075L108.324 98.8952L117.057 107.367V114.602L107.403 120.221L100.719 116.181L97.931 104.511L93.1197 105.592L94.7943 112.604L87.2687 108.052L84.6556 112.125L92.1688 116.665L84.9495 118.28L86.0659 122.947L98.094 120.244L104.708 124.236V136.563L98.0125 140.535L86.0091 137.739L84.8532 142.396L92.0503 144.073L84.5 148.558L87.0785 152.646L94.6411 148.156L92.9123 155.152L97.7161 156.273L100.603 144.62L107.519 140.511L117.057 146.064V153.709L108.324 162.181L111.816 165.569L117.057 160.485V169H121.997V160.485L127.238 165.569L130.73 162.181L121.997 153.709V146.064L131.56 140.499L138.636 144.778L141.422 156.446L146.233 155.365L144.561 148.36L151.712 152.672L154.325 148.599L147.179 144.287L154.396 142.665L153.282 138ZM129.406 136.165L119.527 141.915L109.648 136.165V124.502L119.527 118.752L129.406 124.502V136.165Z" fill="white"/>
<path d="M153.853 142.326L147.081 143.848L145.988 144.093L146.947 144.672L153.696 148.745L151.569 152.061L144.794 147.974L143.874 147.42L144.124 148.464L145.69 155.026L141.757 155.909L139.074 144.673L139.03 144.49L138.869 144.393L131.793 140.114L131.565 139.976L131.334 140.11L121.771 145.675L121.547 145.806V146.064V153.709V153.9L121.684 154.032L130.084 162.181L127.238 164.942L122.31 160.162L121.547 159.421V160.485V168.55H117.507V160.485V159.421L116.744 160.162L111.816 164.942L108.97 162.181L117.371 154.032L117.507 153.9V153.709V146.064V145.806L117.284 145.675L107.745 140.122L107.517 139.989L107.289 140.124L100.373 144.233L100.212 144.329L100.167 144.511L97.386 155.734L93.4585 154.817L95.078 148.264L95.3359 147.22L94.4114 147.769L87.2254 152.035L85.1272 148.709L92.2801 144.46L93.2418 143.889L92.1524 143.635L85.3999 142.062L86.339 138.278L97.9104 140.973L98.0865 141.014L98.2421 140.922L104.938 136.95L105.158 136.819V136.563V124.236V123.982L104.941 123.851L98.3265 119.859L98.1717 119.766L97.9953 119.805L86.4003 122.411L85.4934 118.619L92.2671 117.104L93.3608 116.86L92.4016 116.28L85.284 111.979L87.4108 108.664L94.5614 112.989L95.4818 113.546L95.232 112.5L93.6633 105.931L97.5964 105.047L100.282 116.286L100.325 116.469L100.487 116.566L107.17 120.606L107.398 120.744L107.629 120.609L117.284 114.991L117.507 114.861V114.602V107.367V107.176L117.371 107.044L108.97 98.8952L111.816 96.1344L116.744 100.914L117.507 101.655V100.591V92.45H121.547V100.591V101.655L122.31 100.914L127.238 96.1344L130.084 98.8952L121.684 107.044L121.547 107.176V107.367V114.602V114.861L121.771 114.991L131.699 120.768L131.928 120.9L132.155 120.766L138.989 116.722L139.151 116.626L139.197 116.443L141.975 105.236L145.902 106.143L144.283 112.68L144.024 113.724L144.949 113.176L151.755 109.141L153.853 112.454L147.058 116.496L146.097 117.068L147.186 117.321L153.953 118.895L153.014 122.679L141.428 119.979L141.252 119.938L141.096 120.03L134.116 124.172L133.896 124.303V124.559V136.539V136.793L134.114 136.924L141.029 141.097L141.184 141.191L141.361 141.151L152.948 138.537L153.853 142.326ZM129.633 136.554L129.856 136.424V136.165V124.502V124.243L129.633 124.113L119.754 118.363L119.527 118.231L119.301 118.363L109.421 124.113L109.198 124.243V124.502V136.165V136.424L109.421 136.554L119.301 142.304L119.527 142.435L119.754 142.304L129.633 136.554Z" stroke="black" stroke-opacity="0.5" stroke-width="0.9"/>
<path d="M109.5 37.2923L119.5 22L129.5 37.4433V93C121.722 89.7231 117.278 89.7231 109.5 93V37.2923Z" fill="#78F4E5"/>
<path d="M119.498 22.9167L129 37.5911V92.2519C125.403 90.7905 122.462 90.0423 119.5 90.0423C116.538 90.0423 113.597 90.7905 110 92.2519V37.4413L119.498 22.9167Z" stroke="black" stroke-opacity="0.2"/>
<path d="M129.5 197.9L119.5 203L109.5 197.9V169C117.667 170.295 121.333 170.295 129.5 169V197.9Z" fill="#78F4E5"/>
<path d="M119.5 202.439L110 197.594V169.584C117.629 170.766 121.371 170.766 129 169.584V197.594L119.5 202.439Z" stroke="black" stroke-opacity="0.2"/>
<path d="M153.5 165L162.5 160V100L153.5 95V75.5L162.5 65.5L171.5 56H181.5V168L153.5 184V165Z" fill="#78F4E5"/>
<path d="M181 167.71L154 183.138V165.294L162.743 160.437L163 160.294V160V100V99.7058L162.743 99.5629L154 94.7058V75.6919L162.867 65.8392L171.715 56.5H181V167.71Z" stroke="black" stroke-opacity="0.2"/>
<path d="M86.5 165L77.5 160V100L86.5 95V75.5L77.5 65.5L68.5 56H58.5V168L86.5 184V165Z" fill="#78F4E5"/>
<path d="M59 167.71L86 183.138V165.294L77.2572 160.437L77 160.294V160V100V99.7058L77.2572 99.5629L86 94.7058V75.6919L77.1326 65.8392L68.2849 56.5H59V167.71Z" stroke="black" stroke-opacity="0.2"/>
<path d="M102.5 43.5H109.5V53H102.5V43.5Z" fill="#D2F8FD"/>
<path d="M129.5 43.5H136.5V53H129.5V43.5Z" fill="#D2F8FD"/>
</svg>
