<svg width="240" height="240" viewBox="0 0 240 240" fill="none" xmlns="http://www.w3.org/2000/svg">
<path d="M119.5 219L46 175.5V43.5L194 43.5V175L119.5 219Z" fill="white"/>
<path d="M119.5 210.5L54.0003 170.5V51.5L186 51.5V170.5L119.5 210.5Z" fill="#053141"/>
<path d="M109.5 37.2923L119.5 22L129.5 37.4433V93C121.722 89.7231 117.278 89.7231 109.5 93V37.2923Z" fill="#B0EBFF"/>
<path d="M110 92.2519V37.4413L119.498 22.9167L129 37.5911V92.2519C125.403 90.7905 122.462 90.0423 119.5 90.0423C116.538 90.0423 113.597 90.7905 110 92.2519Z" stroke="black" stroke-opacity="0.2"/>
<path d="M129.5 197.9L119.5 203L109.5 197.9V169C117.667 170.295 121.333 170.295 129.5 169V197.9Z" fill="#B0EBFF"/>
<path d="M129 169.584V197.594L119.5 202.439L110 197.594V169.584C117.629 170.766 121.371 170.766 129 169.584Z" stroke="black" stroke-opacity="0.2"/>
<path d="M153.5 165L162.5 160V100L153.5 95V75.5L162.5 65.5L171.5 56H181.5V168L153.5 184V165Z" fill="#B0EBFF"/>
<path d="M181 167.71L154 183.138V165.294L162.743 160.437L163 160.294V160V100V99.7058L162.743 99.5629L154 94.7058V75.6919L162.867 65.8392L171.715 56.5H181V167.71Z" stroke="black" stroke-opacity="0.2"/>
<path d="M86.5 165L77.5 160V100L86.5 95V75.5L77.5 65.5L68.5 56H58.5V168L86.5 184V165Z" fill="#B0EBFF"/>
<path d="M59 167.71L86 183.138V165.294L77.2572 160.437L77 160.294V160V100V99.7058L77.2572 99.5629L86 94.7058V75.6919L77.1326 65.8392L68.2849 56.5H59V167.71Z" stroke="black" stroke-opacity="0.2"/>
<path d="M102.5 43.5H109.5V53H102.5V43.5Z" fill="#053141"/>
<path d="M129.5 43.5H136.5V53H129.5V43.5Z" fill="#053141"/>
<g clip-path="url(#clip0_530_91)">
<path d="M136.269 147.546C136.128 147.113 135.754 146.797 135.303 146.731L129.635 145.908L127.1 140.772C126.899 140.363 126.483 140.105 126.028 140.105C125.572 140.105 125.156 140.363 124.955 140.772L122.42 145.908L116.752 146.731C116.302 146.797 115.927 147.113 115.786 147.546C115.646 147.979 115.763 148.454 116.089 148.772L120.19 152.77L119.222 158.415C119.145 158.864 119.33 159.317 119.698 159.585C120.066 159.852 120.555 159.888 120.958 159.676L126.028 157.011L131.097 159.676C131.272 159.768 131.463 159.813 131.654 159.813C131.902 159.813 132.149 159.736 132.357 159.585C132.726 159.317 132.91 158.864 132.833 158.415L131.865 152.77L135.966 148.772C136.292 148.454 136.41 147.979 136.269 147.546ZM129.744 151.495C129.462 151.77 129.333 152.166 129.4 152.555L130.065 156.43L126.584 154.6C126.41 154.509 126.219 154.463 126.027 154.463C125.836 154.463 125.645 154.509 125.471 154.6L121.99 156.43L122.655 152.555C122.722 152.166 122.593 151.77 122.311 151.495L119.495 148.751L123.386 148.185C123.776 148.129 124.113 147.884 124.287 147.531L126.027 144.005L127.768 147.531C127.942 147.884 128.279 148.129 128.668 148.185L132.56 148.751L129.744 151.495Z" fill="#F3D640"/>
<path d="M151.172 103.025C151.165 102.375 150.64 101.85 149.99 101.842L121.552 101.515C121.23 101.507 120.92 101.637 120.692 101.865L86.8504 135.707C86.3832 136.174 86.3832 136.932 86.8504 137.399L109.587 160.135C109.82 160.369 110.127 160.486 110.433 160.486C110.739 160.486 111.045 160.369 111.279 160.135C111.746 159.668 111.746 158.91 111.279 158.443L89.3886 136.553L122.028 103.913L148.793 104.222L149.101 130.987L138.39 141.698C137.922 142.166 137.922 142.923 138.39 143.391C138.857 143.858 139.614 143.857 140.082 143.391L151.15 132.322C151.377 132.095 151.504 131.785 151.5 131.463L151.172 103.025Z" fill="white"/>
<path d="M137.949 108.996C134.65 108.996 131.967 111.68 131.967 114.979C131.967 118.277 134.65 120.961 137.949 120.961C141.248 120.961 143.931 118.277 143.931 114.979C143.931 111.68 141.248 108.996 137.949 108.996ZM137.949 118.568C135.97 118.568 134.359 116.958 134.359 114.979C134.359 113 135.97 111.389 137.949 111.389C139.928 111.389 141.538 113 141.538 114.979C141.538 116.958 139.928 118.568 137.949 118.568Z" fill="white"/>
</g>
<defs>
<clipPath id="clip0_530_91">
<rect width="65" height="65" fill="white" transform="translate(86.5 98.5)"/>
</clipPath>
</defs>
</svg>
