<svg width="240" height="240" viewBox="0 0 240 240" fill="none" xmlns="http://www.w3.org/2000/svg">
<path d="M119.5 219L46 175.5V43.5L194 43.5V175L119.5 219Z" fill="#565454"/>
<path d="M119.5 210.5L54.0003 170.5V51.5L186 51.5V170.5L119.5 210.5Z" fill="#C4C4C4"/>
<path d="M109.5 37.2923L119.5 22L129.5 37.4433V93C121.722 89.7231 117.278 89.7231 109.5 93V37.2923Z" fill="#848484"/>
<path d="M119.498 22.9167L129 37.5911V92.2519C125.403 90.7905 122.462 90.0423 119.5 90.0423C116.538 90.0423 113.597 90.7905 110 92.2519V37.4413L119.498 22.9167Z" stroke="black" stroke-opacity="0.2"/>
<path d="M129.5 197.9L119.5 203L109.5 197.9V169C117.667 170.295 121.333 170.295 129.5 169V197.9Z" fill="#848484"/>
<path d="M119.5 202.439L110 197.594V169.584C117.629 170.766 121.371 170.766 129 169.584V197.594L119.5 202.439Z" stroke="black" stroke-opacity="0.2"/>
<path d="M153.5 165L162.5 160V100L153.5 95V75.5L162.5 65.5L171.5 56H181.5V168L153.5 184V165Z" fill="#848484"/>
<path d="M181 167.71L154 183.138V165.294L162.743 160.437L163 160.294V160V100V99.7058L162.743 99.5629L154 94.7058V75.6919L162.867 65.8392L171.715 56.5H181V167.71Z" stroke="black" stroke-opacity="0.2"/>
<path d="M86.5 165L77.5 160V100L86.5 95V75.5L77.5 65.5L68.5 56H58.5V168L86.5 184V165Z" fill="#848484"/>
<path d="M59 167.71L86 183.138V165.294L77.2572 160.437L77 160.294V160V100V99.7058L77.2572 99.5629L86 94.7058V75.6919L77.1326 65.8392L68.2849 56.5H59V167.71Z" stroke="black" stroke-opacity="0.2"/>
<path d="M102.5 43.5H109.5V53H102.5V43.5Z" fill="#C4C4C4"/>
<path d="M129.5 43.5H136.5V53H129.5V43.5Z" fill="#C4C4C4"/>
<g clip-path="url(#clip0_519_33)">
<path d="M100.649 116.82L102.516 118.333C102.939 118.677 103.467 118.864 104.012 118.863C104.353 118.863 104.69 118.791 105.002 118.653C105.313 118.514 105.593 118.313 105.822 118.06C108.485 115.121 112.003 113.091 115.88 112.257C116.484 112.131 117.016 111.779 117.369 111.273C117.721 110.767 117.867 110.146 117.776 109.536L117.406 107.162C117.354 106.839 117.238 106.529 117.064 106.252C116.89 105.974 116.662 105.735 116.393 105.548C116.131 105.365 115.834 105.237 115.521 105.173C115.208 105.109 114.885 105.109 114.572 105.175C109.073 106.305 104.087 109.181 100.354 113.374C100.14 113.612 99.9778 113.891 99.8763 114.194C99.7747 114.496 99.7363 114.817 99.7632 115.135C99.79 115.461 99.8821 115.778 100.034 116.068C100.186 116.357 100.396 116.613 100.649 116.82ZM115.033 107.532L115.375 109.911C110.998 110.855 107.027 113.146 104.018 116.462L102.142 114.975C105.526 111.171 110.047 108.561 115.033 107.532Z" fill="#3B3B3B"/>
<path d="M115.88 149.743C112.003 148.909 108.484 146.878 105.822 143.938C105.41 143.48 104.838 143.196 104.223 143.146C103.608 143.096 102.998 143.282 102.516 143.667L100.648 145.18C100.395 145.387 100.187 145.642 100.035 145.931C99.8829 146.219 99.7906 146.535 99.7632 146.86C99.7363 147.179 99.7747 147.499 99.8763 147.802C99.9778 148.104 100.14 148.383 100.354 148.621C104.087 152.814 109.073 155.69 114.572 156.82C114.885 156.887 115.208 156.888 115.522 156.823C115.835 156.759 116.131 156.631 116.393 156.447C116.662 156.26 116.89 156.021 117.064 155.743C117.238 155.466 117.354 155.156 117.406 154.833L117.776 152.461C117.866 151.851 117.72 151.231 117.367 150.726C117.015 150.221 116.483 149.869 115.88 149.743ZM115.027 154.47C110.052 153.44 105.541 150.837 102.161 147.044L104.047 145.555C107.054 148.871 111.027 151.159 115.405 152.094L115.027 154.47Z" fill="#3B3B3B"/>
<path d="M143.845 121.389C143.549 121.25 143.228 121.173 142.901 121.161C142.574 121.15 142.248 121.205 141.943 121.323L139.701 122.192C139.129 122.42 138.667 122.857 138.406 123.415C138.146 123.972 138.107 124.607 138.298 125.192C139.501 128.967 139.501 133.023 138.298 136.798C138.107 137.383 138.145 138.019 138.406 138.576C138.667 139.133 139.13 139.57 139.702 139.798L141.943 140.667C142.248 140.785 142.574 140.84 142.901 140.829C143.228 140.818 143.549 140.74 143.845 140.601C144.135 140.467 144.395 140.274 144.607 140.035C144.82 139.796 144.981 139.516 145.081 139.213C146.839 133.874 146.839 128.112 145.081 122.773C144.981 122.47 144.819 122.191 144.606 121.953C144.394 121.715 144.135 121.523 143.845 121.389ZM142.824 138.44H142.811L140.583 137.54C141.944 133.276 141.94 128.693 140.569 124.431L142.8 123.532C143.598 125.941 144.003 128.463 144 131C144.004 133.527 143.607 136.038 142.824 138.44Z" fill="#3B3B3B"/>
<path d="M124.12 112.257C127.997 113.091 131.515 115.121 134.178 118.06C134.407 118.312 134.686 118.514 134.998 118.652C135.309 118.79 135.646 118.861 135.986 118.862C136.532 118.863 137.061 118.676 137.484 118.332L139.352 116.818C139.605 116.612 139.813 116.357 139.965 116.068C140.117 115.78 140.21 115.463 140.237 115.138C140.264 114.82 140.225 114.5 140.124 114.197C140.022 113.894 139.86 113.616 139.646 113.378C135.914 109.184 130.927 106.306 125.428 105.175C125.115 105.109 124.792 105.108 124.479 105.173C124.166 105.237 123.869 105.365 123.607 105.548C123.339 105.735 123.11 105.974 122.936 106.252C122.762 106.529 122.646 106.839 122.594 107.162L122.224 109.534C122.133 110.144 122.279 110.766 122.631 111.272C122.983 111.778 123.516 112.131 124.12 112.257ZM124.94 107.526C129.928 108.549 134.452 111.155 137.839 114.956L135.985 116.466C135.985 116.466 135.972 116.466 135.953 116.444C132.946 113.128 128.973 110.841 124.595 109.906L124.94 107.526Z" fill="#3B3B3B"/>
<path d="M139.351 145.18L137.484 143.667C137.002 143.283 136.392 143.097 135.777 143.148C135.163 143.198 134.591 143.482 134.178 143.94C131.515 146.879 127.997 148.909 124.12 149.743C123.516 149.869 122.984 150.221 122.631 150.727C122.279 151.233 122.133 151.855 122.224 152.464L122.595 154.838C122.646 155.161 122.762 155.471 122.936 155.748C123.11 156.026 123.339 156.265 123.607 156.452C123.869 156.636 124.165 156.764 124.479 156.828C124.792 156.892 125.115 156.891 125.428 156.825C130.927 155.695 135.914 152.819 139.647 148.626C139.86 148.388 140.022 148.109 140.124 147.807C140.225 147.504 140.264 147.183 140.237 146.865C140.21 146.539 140.118 146.222 139.966 145.933C139.814 145.643 139.605 145.387 139.351 145.18ZM124.974 154.478C124.971 154.476 124.968 154.472 124.967 154.468L124.625 152.089C129.002 151.146 132.972 148.852 135.973 145.53L137.859 147.025C134.474 150.827 129.957 153.44 124.974 154.478Z" fill="#3B3B3B"/>
<path d="M101.702 136.803C100.499 133.028 100.499 128.972 101.702 125.197C101.894 124.612 101.855 123.976 101.594 123.419C101.333 122.862 100.87 122.425 100.298 122.197L98.058 121.329C97.7529 121.211 97.4269 121.156 97.0998 121.167C96.7727 121.178 96.4512 121.255 96.1548 121.394C95.8655 121.528 95.6067 121.72 95.3944 121.958C95.182 122.196 95.0206 122.475 94.92 122.778C93.1627 128.117 93.1627 133.879 94.92 139.218C95.0202 139.521 95.1815 139.801 95.3941 140.04C95.6067 140.279 95.866 140.471 96.156 140.606C96.4522 140.745 96.7734 140.822 97.1003 140.834C97.4272 140.845 97.753 140.79 98.058 140.672L100.301 139.803C100.872 139.575 101.334 139.137 101.595 138.58C101.855 138.023 101.893 137.388 101.702 136.803ZM97.1892 138.44L97.1964 138.469C95.603 133.627 95.6005 128.403 97.1892 123.56L99.4176 124.46C98.056 128.724 98.0606 133.307 99.4308 137.569L97.1892 138.44Z" fill="#3B3B3B"/>
<path d="M153.691 127.287L152.172 127.212C152.071 126.356 151.932 125.503 151.77 124.662L153.191 124.12C153.746 123.907 154.202 123.496 154.473 122.967C154.743 122.438 154.808 121.827 154.656 121.252C154.528 120.794 154.387 120.337 154.238 119.875C154.09 119.413 153.932 118.962 153.766 118.514C153.552 117.959 153.141 117.503 152.611 117.234C152.081 116.965 151.47 116.903 150.896 117.058L149.438 117.452C149.078 116.67 148.685 115.899 148.262 115.148L149.438 114.199C149.902 113.826 150.211 113.295 150.305 112.708C150.399 112.121 150.272 111.52 149.948 111.021C149.683 110.624 149.41 110.232 149.125 109.839C148.841 109.447 148.553 109.065 148.256 108.692C147.881 108.232 147.348 107.926 146.761 107.834C146.174 107.742 145.574 107.87 145.075 108.193L143.798 109.026C143.215 108.394 142.607 107.786 141.974 107.202L142.807 105.92C143.131 105.422 143.26 104.822 143.168 104.235C143.076 103.648 142.77 103.116 142.309 102.741C141.935 102.442 141.552 102.154 141.158 101.869C140.765 101.583 140.376 101.312 139.978 101.047C139.478 100.723 138.877 100.597 138.29 100.692C137.703 100.787 137.172 101.096 136.8 101.56L135.851 102.738C135.1 102.315 134.329 101.922 133.547 101.562L133.942 100.104C134.096 99.53 134.032 98.9197 133.764 98.3901C133.495 97.8605 133.04 97.4488 132.486 97.2344C132.037 97.0676 131.584 96.9116 131.124 96.7616C130.664 96.6116 130.206 96.4736 129.745 96.344C129.171 96.192 128.56 96.2575 128.031 96.5279C127.502 96.7983 127.092 97.2546 126.878 97.8092L126.337 99.23C125.497 99.0632 124.643 98.9288 123.787 98.828L123.712 97.3088C123.681 96.7153 123.432 96.154 123.013 95.7329C122.594 95.3118 122.033 95.0606 121.44 95.0276C120.486 94.9856 119.513 94.9856 118.56 95.0276C117.966 95.06 117.406 95.3107 116.986 95.7317C116.566 96.1526 116.317 96.7139 116.286 97.3076L116.212 98.828C115.356 98.9288 114.503 99.068 113.662 99.23L113.12 97.8092C112.907 97.2543 112.496 96.7979 111.967 96.5274C111.438 96.257 110.827 96.1917 110.252 96.344C109.793 96.4736 109.334 96.6128 108.875 96.7616C108.415 96.9116 107.962 97.0676 107.514 97.2344C106.959 97.4475 106.503 97.8589 106.234 98.389C105.965 98.919 105.903 99.53 106.058 100.104L106.452 101.562C105.67 101.922 104.899 102.315 104.148 102.738L103.2 101.562C102.828 101.098 102.296 100.789 101.709 100.695C101.122 100.601 100.521 100.728 100.022 101.052C99.6252 101.317 99.2328 101.59 98.8404 101.875C98.448 102.159 98.0664 102.447 97.6932 102.744C97.2331 103.118 96.9276 103.65 96.8353 104.236C96.7429 104.822 96.8702 105.422 97.1928 105.92L98.0256 107.197C97.3944 107.78 96.7864 108.388 96.2016 109.021L94.92 108.193C94.4225 107.867 93.822 107.738 93.2348 107.83C92.6475 107.922 92.1153 108.229 91.7412 108.691C91.4424 109.065 91.1544 109.448 90.8688 109.842C90.5832 110.235 90.312 110.624 90.0468 111.022C89.7235 111.522 89.597 112.123 89.6919 112.71C89.7868 113.297 90.0963 113.828 90.5604 114.2L91.7376 115.149C91.3152 115.9 90.9216 116.671 90.5616 117.453L89.1036 117.058C88.5301 116.907 87.9207 116.971 87.3916 117.239C86.8625 117.508 86.4506 117.961 86.2344 118.514C86.0676 118.963 85.9116 119.416 85.7604 119.878C85.6092 120.34 85.4724 120.795 85.344 121.255C85.1917 121.829 85.2571 122.44 85.5275 122.969C85.798 123.498 86.2544 123.909 86.8092 124.122L88.23 124.663C88.0632 125.503 87.9288 126.357 87.828 127.213L86.3088 127.288C85.7153 127.319 85.154 127.568 84.7329 127.987C84.3118 128.406 84.0606 128.967 84.0276 129.56C84.0072 130.04 84 130.52 84 131C84 131.48 84.0072 131.96 84.0276 132.44C84.06 133.034 84.3108 133.594 84.7317 134.014C85.1526 134.434 85.7139 134.683 86.3076 134.714L87.8268 134.79C87.9276 135.645 88.0668 136.498 88.2288 137.34L86.808 137.881C86.2532 138.094 85.7967 138.505 85.5262 139.034C85.2558 139.564 85.1905 140.174 85.3428 140.749C85.4712 141.207 85.6116 141.664 85.7604 142.126C85.9092 142.588 86.0664 143.04 86.2332 143.487C86.4463 144.042 86.8577 144.498 87.3878 144.767C87.9178 145.036 88.5288 145.099 89.1024 144.943L90.5604 144.549C90.9204 145.332 91.314 146.102 91.7364 146.853L90.5616 147.8C90.0981 148.172 89.7893 148.704 89.6951 149.291C89.6008 149.878 89.7279 150.479 90.0516 150.978C90.3168 151.375 90.5904 151.767 90.8748 152.16C91.1592 152.552 91.4472 152.934 91.7436 153.307C92.1188 153.768 92.6512 154.074 93.2385 154.166C93.8258 154.258 94.4264 154.13 94.9248 153.806L96.2016 152.973C96.7848 153.604 97.3928 154.212 98.0256 154.797L97.1928 156.08C96.8687 156.578 96.7403 157.178 96.8323 157.765C96.9242 158.352 97.23 158.884 97.6908 159.259C98.0652 159.558 98.448 159.846 98.8416 160.131C99.2352 160.417 99.6252 160.689 100.02 160.951C100.519 161.275 101.121 161.402 101.708 161.308C102.296 161.213 102.828 160.904 103.2 160.44L104.149 159.262C104.9 159.685 105.671 160.078 106.453 160.438L106.058 161.896C105.904 162.47 105.968 163.08 106.236 163.61C106.505 164.14 106.96 164.551 107.514 164.766C107.963 164.932 108.416 165.088 108.878 165.246C109.34 165.403 109.795 165.534 110.255 165.662C110.829 165.814 111.44 165.748 111.969 165.478C112.498 165.208 112.908 164.751 113.122 164.197L113.663 162.776C114.503 162.943 115.357 163.077 116.213 163.178L116.288 164.697C116.319 165.291 116.568 165.852 116.988 166.273C117.407 166.694 117.968 166.945 118.561 166.977C119.041 166.998 119.521 167.005 120.001 167.005C120.481 167.005 120.961 166.998 121.441 166.977C122.035 166.945 122.595 166.694 123.015 166.273C123.435 165.852 123.684 165.291 123.715 164.697L123.791 163.178C124.646 163.077 125.5 162.938 126.341 162.776L126.882 164.197C127.096 164.751 127.506 165.208 128.036 165.478C128.565 165.749 129.175 165.814 129.75 165.662C130.208 165.534 130.666 165.393 131.128 165.244C131.59 165.096 132.041 164.938 132.488 164.772C133.043 164.558 133.499 164.147 133.768 163.617C134.037 163.087 134.1 162.476 133.944 161.902L133.55 160.444C134.333 160.084 135.103 159.691 135.854 159.268L136.804 160.444C137.176 160.907 137.707 161.216 138.293 161.31C138.88 161.404 139.48 161.277 139.979 160.954C140.377 160.69 140.771 160.416 141.163 160.131C141.556 159.847 141.937 159.559 142.31 159.262C142.772 158.887 143.078 158.355 143.17 157.767C143.262 157.18 143.134 156.58 142.81 156.081L141.977 154.804C142.608 154.221 143.216 153.613 143.801 152.98L145.078 153.813C145.576 154.137 146.176 154.265 146.762 154.173C147.349 154.081 147.881 153.776 148.256 153.315C148.555 152.941 148.843 152.558 149.129 152.164C149.414 151.771 149.686 151.382 149.951 150.984C150.276 150.484 150.404 149.882 150.309 149.293C150.215 148.705 149.905 148.172 149.44 147.8L148.262 146.851C148.685 146.1 149.078 145.329 149.438 144.547L150.896 144.942C151.47 145.095 152.08 145.031 152.61 144.763C153.139 144.494 153.551 144.039 153.766 143.486C153.932 143.037 154.088 142.584 154.246 142.122C154.403 141.66 154.534 141.205 154.662 140.745C154.814 140.171 154.749 139.56 154.478 139.031C154.208 138.502 153.752 138.091 153.197 137.878L151.776 137.337C151.943 136.497 152.077 135.643 152.178 134.787L153.697 134.712C154.291 134.681 154.852 134.432 155.273 134.012C155.694 133.593 155.945 133.032 155.977 132.439C155.998 131.959 156.005 131.479 156.005 130.999C156.005 130.519 155.998 130.039 155.977 129.559C155.944 128.965 155.692 128.404 155.27 127.984C154.848 127.565 154.286 127.317 153.691 127.287ZM153.571 132.315L151.02 132.442C150.73 132.457 150.455 132.576 150.246 132.778C150.037 132.98 149.908 133.251 149.884 133.54C149.762 134.982 149.537 136.413 149.21 137.822C149.145 138.104 149.183 138.401 149.319 138.657C149.456 138.914 149.68 139.112 149.951 139.215L152.344 140.101C152.224 140.53 152.092 140.958 151.955 141.382C151.818 141.807 151.673 142.23 151.522 142.626L149.07 141.963C148.79 141.885 148.491 141.912 148.229 142.039C147.968 142.167 147.762 142.386 147.652 142.654C147.088 143.987 146.429 145.278 145.68 146.516C145.528 146.765 145.473 147.06 145.523 147.348C145.573 147.635 145.726 147.894 145.954 148.076L147.95 149.654C147.71 150.026 147.446 150.391 147.185 150.753C146.923 151.116 146.653 151.473 146.387 151.8L144.247 150.404C144.004 150.246 143.713 150.182 143.426 150.223C143.139 150.263 142.877 150.406 142.687 150.625C141.739 151.715 140.714 152.736 139.621 153.68C139.402 153.87 139.259 154.132 139.219 154.419C139.178 154.705 139.243 154.997 139.4 155.24L140.816 157.37C140.468 157.646 140.114 157.914 139.752 158.175C139.392 158.439 139.024 158.696 138.672 158.926L137.075 156.946C136.892 156.719 136.633 156.566 136.346 156.516C136.059 156.465 135.764 156.521 135.515 156.673C134.277 157.423 132.986 158.083 131.653 158.647C131.386 158.76 131.169 158.966 131.042 159.226C130.915 159.487 130.886 159.785 130.962 160.065L131.645 162.512C131.228 162.668 130.805 162.812 130.385 162.949C129.965 163.086 129.529 163.219 129.122 163.329L128.214 160.946C128.11 160.675 127.912 160.451 127.656 160.315C127.4 160.179 127.103 160.14 126.821 160.206C125.412 160.533 123.981 160.758 122.539 160.879C122.25 160.903 121.979 161.032 121.777 161.241C121.575 161.45 121.456 161.725 121.441 162.015L121.336 164.569C120.448 164.606 119.527 164.608 118.684 164.569L118.56 162.021C118.546 161.731 118.426 161.456 118.224 161.247C118.023 161.038 117.752 160.909 117.462 160.885C116.02 160.764 114.59 160.539 113.18 160.212C113.092 160.19 113.001 160.179 112.909 160.179C112.666 160.179 112.428 160.253 112.228 160.391C112.028 160.529 111.874 160.725 111.787 160.952L110.902 163.345C110.472 163.225 110.045 163.093 109.62 162.956C109.195 162.819 108.773 162.674 108.377 162.523L109.039 160.071C109.115 159.791 109.087 159.493 108.959 159.232C108.832 158.972 108.615 158.766 108.348 158.653C107.014 158.089 105.723 157.43 104.484 156.68C104.235 156.528 103.94 156.473 103.652 156.523C103.365 156.573 103.106 156.726 102.924 156.954L101.344 158.948C100.973 158.708 100.609 158.446 100.247 158.185C99.8844 157.923 99.5268 157.653 99.2004 157.387L100.596 155.247C100.754 155.004 100.818 154.713 100.777 154.426C100.737 154.139 100.594 153.877 100.375 153.687C99.2854 152.739 98.2645 151.714 97.32 150.621C97.1304 150.402 96.868 150.259 96.5813 150.219C96.2946 150.178 96.0029 150.243 95.76 150.4L93.624 151.816C93.348 151.468 93.0796 151.114 92.8188 150.752C92.5548 150.392 92.2968 150.022 92.0676 149.672L94.0476 148.075C94.2749 147.892 94.428 147.633 94.4783 147.346C94.5287 147.059 94.4728 146.764 94.3212 146.515C93.5709 145.277 92.9112 143.986 92.3472 142.653C92.2363 142.384 92.0307 142.166 91.7693 142.038C91.5079 141.911 91.2088 141.884 90.9288 141.962L88.482 142.645C88.326 142.228 88.182 141.805 88.0452 141.385C87.9084 140.965 87.7752 140.529 87.6648 140.122L90.048 139.214C90.3189 139.11 90.5432 138.912 90.6793 138.656C90.8155 138.4 90.8542 138.103 90.7884 137.821C90.463 136.412 90.2396 134.981 90.12 133.54C90.0957 133.251 89.967 132.98 89.758 132.778C89.549 132.576 89.2739 132.457 88.9836 132.442L86.43 132.337C86.4072 131.893 86.4 131.449 86.4 131C86.4 130.551 86.4072 130.107 86.4276 129.68L88.9788 129.56C89.2691 129.546 89.5442 129.426 89.7532 129.224C89.9622 129.023 90.0909 128.752 90.1152 128.462C90.2364 127.02 90.4613 125.59 90.7884 124.18C90.8542 123.898 90.8155 123.601 90.6793 123.345C90.5432 123.089 90.3189 122.891 90.048 122.787L87.6552 121.902C87.7752 121.472 87.9072 121.045 88.044 120.62C88.1808 120.195 88.326 119.773 88.4772 119.377L90.9288 120.039C91.2088 120.117 91.5077 120.09 91.769 119.962C92.0303 119.835 92.2359 119.617 92.3472 119.348C92.9107 118.014 93.57 116.723 94.32 115.484C94.4716 115.235 94.5275 114.94 94.4771 114.652C94.4268 114.365 94.2737 114.106 94.0464 113.924L92.0508 112.35C92.2968 111.978 92.5548 111.613 92.8164 111.25C93.078 110.888 93.348 110.53 93.6144 110.204L95.76 111.6C96.0029 111.757 96.2946 111.822 96.5813 111.781C96.868 111.74 97.1304 111.598 97.32 111.379C98.2659 110.288 99.288 109.266 100.379 108.32C100.598 108.13 100.74 107.868 100.781 107.581C100.822 107.295 100.757 107.003 100.6 106.76L99.1836 104.624C99.5316 104.348 99.8864 104.08 100.248 103.819C100.608 103.555 100.978 103.297 101.328 103.068L102.925 105.048C103.108 105.275 103.367 105.428 103.654 105.478C103.941 105.529 104.236 105.473 104.485 105.321C105.723 104.571 107.014 103.911 108.347 103.347C108.614 103.234 108.831 103.028 108.958 102.768C109.085 102.507 109.114 102.209 109.038 101.929L108.36 99.482C108.776 99.326 109.2 99.182 109.622 99.044C110.045 98.906 110.477 98.7752 110.882 98.6648L111.791 101.048C111.894 101.319 112.092 101.543 112.349 101.679C112.605 101.815 112.902 101.854 113.184 101.788C114.591 101.463 116.02 101.24 117.46 101.12C117.749 101.096 118.02 100.967 118.222 100.758C118.424 100.549 118.543 100.274 118.558 99.9836L118.663 97.43C119.551 97.3928 120.472 97.3904 121.315 97.43L121.44 99.9788C121.454 100.269 121.574 100.544 121.776 100.753C121.977 100.962 122.248 101.091 122.538 101.115C123.98 101.236 125.41 101.461 126.82 101.788C127.102 101.854 127.399 101.815 127.655 101.679C127.911 101.543 128.109 101.319 128.213 101.048L129.098 98.6552C129.527 98.7752 129.953 98.9048 130.38 99.044C130.807 99.1832 131.227 99.326 131.623 99.4772L130.961 101.929C130.885 102.209 130.913 102.507 131.04 102.768C131.168 103.028 131.385 103.234 131.652 103.347C132.986 103.911 134.277 104.57 135.516 105.32C135.765 105.472 136.06 105.527 136.348 105.477C136.635 105.427 136.894 105.274 137.076 105.046L138.654 103.05C139.026 103.296 139.391 103.554 139.753 103.815C140.116 104.077 140.473 104.347 140.8 104.613L139.4 106.76C139.243 107.003 139.178 107.295 139.219 107.581C139.259 107.868 139.402 108.13 139.621 108.32C140.712 109.266 141.734 110.288 142.68 111.379C142.87 111.598 143.132 111.74 143.419 111.781C143.705 111.822 143.997 111.757 144.24 111.6L146.37 110.184C146.646 110.532 146.914 110.886 147.175 111.248C147.439 111.608 147.697 111.978 147.926 112.328L145.946 113.925C145.719 114.108 145.566 114.367 145.516 114.654C145.465 114.941 145.521 115.236 145.673 115.485C146.423 116.723 147.083 118.014 147.647 119.347C147.758 119.615 147.964 119.834 148.225 119.961C148.486 120.088 148.785 120.116 149.065 120.038L151.512 119.355C151.668 119.772 151.812 120.195 151.949 120.615C152.086 121.035 152.219 121.471 152.329 121.878L149.946 122.786C149.675 122.89 149.451 123.088 149.315 123.344C149.179 123.6 149.14 123.897 149.206 124.179C149.533 125.588 149.758 127.019 149.879 128.461C149.903 128.75 150.032 129.021 150.241 129.223C150.45 129.425 150.725 129.544 151.015 129.559L153.569 129.691C153.6 130.124 153.6 130.56 153.6 131C153.6 131.44 153.593 131.893 153.572 132.32L153.571 132.315Z" fill="#3B3B3B"/>
<path d="M135.6 131C135.6 127.915 134.685 124.898 132.971 122.333C131.257 119.768 128.82 117.768 125.97 116.587C123.119 115.407 119.983 115.098 116.956 115.7C113.93 116.302 111.151 117.787 108.969 119.969C106.787 122.151 105.302 124.93 104.7 127.956C104.098 130.983 104.407 134.119 105.587 136.97C106.768 139.82 108.768 142.257 111.333 143.971C113.898 145.685 116.915 146.6 120 146.6C124.136 146.595 128.101 144.95 131.026 142.026C133.95 139.101 135.595 135.136 135.6 131ZM120 144.2C117.389 144.2 114.837 143.426 112.666 141.975C110.496 140.525 108.804 138.463 107.805 136.051C106.806 133.639 106.544 130.985 107.054 128.425C107.563 125.864 108.82 123.512 110.666 121.666C112.512 119.82 114.864 118.563 117.425 118.054C119.985 117.544 122.639 117.806 125.051 118.805C127.463 119.804 129.525 121.496 130.975 123.666C132.426 125.837 133.2 128.389 133.2 131C133.196 134.499 131.804 137.855 129.329 140.329C126.855 142.804 123.499 144.196 120 144.2Z" fill="#3B3B3B"/>
<path d="M120 121.4C118.101 121.4 116.245 121.963 114.666 123.018C113.088 124.073 111.857 125.572 111.131 127.326C110.404 129.08 110.214 131.011 110.584 132.873C110.955 134.735 111.869 136.446 113.212 137.788C114.554 139.131 116.265 140.045 118.127 140.415C119.989 140.786 121.919 140.596 123.674 139.869C125.428 139.143 126.927 137.912 127.982 136.333C129.037 134.755 129.6 132.899 129.6 131C129.597 128.455 128.585 126.015 126.785 124.215C124.985 122.415 122.545 121.403 120 121.4ZM120 138.2C118.576 138.2 117.184 137.778 116 136.986C114.816 136.195 113.893 135.071 113.348 133.755C112.803 132.44 112.66 130.992 112.938 129.595C113.216 128.199 113.902 126.916 114.909 125.909C115.916 124.902 117.199 124.216 118.595 123.938C119.992 123.66 121.44 123.803 122.755 124.348C124.071 124.893 125.195 125.816 125.986 127C126.778 128.184 127.2 129.576 127.2 131C127.198 132.909 126.439 134.739 125.089 136.089C123.739 137.439 121.909 138.198 120 138.2Z" fill="#3B3B3B"/>
</g>
<defs>
<clipPath id="clip0_519_33">
<rect width="72" height="72" fill="white" transform="translate(84 95)"/>
</clipPath>
</defs>
</svg>
