<svg width="240" height="240" viewBox="0 0 240 240" fill="none" xmlns="http://www.w3.org/2000/svg">
<path d="M119.5 219L46 175.5V43.5L194 43.5V175L119.5 219Z" fill="#22969F"/>
<path d="M119.5 210.5L54.0003 170.5V51.5L186 51.5V170.5L119.5 210.5Z" fill="#054237"/>
<path d="M109.5 37.2923L119.5 22L129.5 37.4433V93C121.722 89.7231 117.278 89.7231 109.5 93V37.2923Z" fill="#78B3B7"/>
<path d="M110 92.2519V37.4413L119.498 22.9167L129 37.5911V92.2519C125.403 90.7905 122.462 90.0423 119.5 90.0423C116.538 90.0423 113.597 90.7905 110 92.2519Z" stroke="black" stroke-opacity="0.2"/>
<path d="M129.5 197.9L119.5 203L109.5 197.9V169C117.667 170.295 121.333 170.295 129.5 169V197.9Z" fill="#78B3B7"/>
<path d="M129 169.584V197.594L119.5 202.439L110 197.594V169.584C117.629 170.766 121.371 170.766 129 169.584Z" stroke="black" stroke-opacity="0.2"/>
<path d="M153.5 165L162.5 160V100L153.5 95V75.5L162.5 65.5L171.5 56H181.5V168L153.5 184V165Z" fill="#78B3B7"/>
<path d="M181 167.71L154 183.138V165.294L162.743 160.437L163 160.294V160V100V99.7058L162.743 99.5629L154 94.7058V75.6919L162.867 65.8392L171.715 56.5H181V167.71Z" stroke="black" stroke-opacity="0.2"/>
<path d="M86.5 165L77.5 160V100L86.5 95V75.5L77.5 65.5L68.5 56H58.5V168L86.5 184V165Z" fill="#78B3B7"/>
<path d="M59 167.71L86 183.138V165.294L77.2572 160.437L77 160.294V160V100V99.7058L77.2572 99.5629L86 94.7058V75.6919L77.1326 65.8392L68.2849 56.5H59V167.71Z" stroke="black" stroke-opacity="0.2"/>
<path d="M102.5 43.5H109.5V53H102.5V43.5Z" fill="#054237"/>
<path d="M129.5 43.5H136.5V53H129.5V43.5Z" fill="#054237"/>
<path d="M103.282 143.615H110.596V148.693H103.89L103.282 143.615ZM102.673 138.537H110.596V133.459H102.064L102.673 138.537ZM115.675 147H123.292V143.615H115.675V147ZM115.675 138.537H123.292V133.459H115.675V138.537ZM152 124.953H148.159L145.111 152.083C144.677 155.941 141.423 158.85 137.541 158.85H101.645C97.792 158.85 94.5408 155.965 94.0821 152.139L90.824 124.953H87V119.875H112.303C112.599 119.04 113.036 118.271 113.587 117.598L103.89 101.637L108.23 98.9998L117.924 114.958C118.428 114.853 118.949 114.797 119.483 114.797C122.793 114.797 125.615 116.92 126.663 119.875H152V124.953ZM119.483 119.875C118.083 119.875 116.944 121.014 116.944 122.414C116.944 123.814 118.083 124.953 119.483 124.953C120.883 124.953 122.022 123.814 122.022 122.414C122.022 121.014 120.883 119.875 119.483 119.875ZM143.049 124.953H126.663C125.616 127.908 122.793 130.031 119.483 130.031C116.173 130.031 113.351 127.908 112.302 124.953H95.9383L99.124 151.535C99.2768 152.81 100.361 153.772 101.645 153.772H137.541C138.835 153.772 139.92 152.802 140.064 151.516L143.049 124.953ZM135.43 148.693L135.987 143.74V143.615H128.37V148.693H135.43ZM137.142 133.459H128.37V138.537H136.572L137.142 133.459Z" fill="#00C3D2"/>
<path d="M126.663 120.375H151.5V124.453H148.159H147.712L147.662 124.897L144.614 152.027C144.209 155.632 141.169 158.35 137.541 158.35H101.645C98.0451 158.35 95.0071 155.654 94.5785 152.079L91.3204 124.894L91.2676 124.453H90.824H87.5V120.375H112.303H112.656L112.774 120.042C113.051 119.262 113.459 118.544 113.974 117.915L114.198 117.641L114.014 117.339L104.577 101.804L108.063 99.6868L117.497 115.218L117.681 115.52L118.027 115.448C118.497 115.349 118.984 115.297 119.483 115.297C122.574 115.297 125.212 117.28 126.192 120.042L126.31 120.375H126.663ZM143.546 125.009L143.608 124.453H143.049H126.663H126.31L126.192 124.786C125.213 127.549 122.574 129.531 119.483 129.531C116.392 129.531 113.754 127.549 112.774 124.786L112.656 124.453H112.302H95.9383H95.3748L95.4418 125.013L98.6276 151.594C98.8104 153.121 100.108 154.272 101.645 154.272H137.541C139.09 154.272 140.388 153.111 140.561 151.572L140.561 151.572L143.546 125.009ZM104.334 148.193L103.845 144.115H110.096V148.193H104.334ZM110.096 138.037H103.116L102.628 133.959H110.096V138.037ZM122.792 144.115V146.5H116.175V144.115H122.792ZM122.792 133.959V138.037H116.175V133.959H122.792ZM119.483 119.375C117.807 119.375 116.444 120.738 116.444 122.414C116.444 124.09 117.807 125.453 119.483 125.453C121.159 125.453 122.522 124.09 122.522 122.414C122.522 120.738 121.159 119.375 119.483 119.375ZM134.983 148.193H128.87V144.115H135.442L134.983 148.193ZM128.87 133.959H136.583L136.125 138.037H128.87V133.959Z" stroke="black" stroke-opacity="0.1"/>
<path fill-rule="evenodd" clip-rule="evenodd" d="M126.625 131H112.375V147.5H126.625V131ZM126.625 148.679H112.375V149.857H126.625V148.679Z" fill="#00C3D2"/>
<path fill-rule="evenodd" clip-rule="evenodd" d="M118.991 140.429V136.893H122.553V133.357H118.991L115.428 136.893V140.429H118.991ZM120.009 138.071V141.607H116.446V145.143H120.009L123.571 141.607V138.071H120.009Z" fill="black"/>
</svg>
