<svg width="240" height="240" viewBox="0 0 240 240" fill="none" xmlns="http://www.w3.org/2000/svg">
<path d="M119.5 219L46 175.5V43.5L194 43.5V175L119.5 219Z" fill="#F3D640"/>
<path d="M119.5 210.5L54.0003 170.5V51.5L186 51.5V170.5L119.5 210.5Z" fill="#233C45"/>
<path d="M109.5 37.2923L119.5 22L129.5 37.4433V93C121.722 89.7231 117.278 89.7231 109.5 93V37.2923Z" fill="#9AABB1"/>
<path d="M110 92.2519V37.4413L119.498 22.9167L129 37.5911V92.2519C125.403 90.7905 122.462 90.0423 119.5 90.0423C116.538 90.0423 113.597 90.7905 110 92.2519Z" stroke="black" stroke-opacity="0.2"/>
<path d="M129.5 197.9L119.5 203L109.5 197.9V169C117.667 170.295 121.333 170.295 129.5 169V197.9Z" fill="#9AABB1"/>
<path d="M129 169.584V197.594L119.5 202.439L110 197.594V169.584C117.629 170.766 121.371 170.766 129 169.584Z" stroke="black" stroke-opacity="0.2"/>
<path d="M153.5 165L162.5 160V100L153.5 95V75.5L162.5 65.5L171.5 56H181.5V168L153.5 184V165Z" fill="#9AABB1"/>
<path d="M181 167.71L154 183.138V165.294L162.743 160.437L163 160.294V160V100V99.7058L162.743 99.5629L154 94.7058V75.6919L162.867 65.8392L171.715 56.5H181V167.71Z" stroke="black" stroke-opacity="0.2"/>
<path d="M86.5 165L77.5 160V100L86.5 95V75.5L77.5 65.5L68.5 56H58.5V168L86.5 184V165Z" fill="#9AABB1"/>
<path d="M59 167.71L86 183.138V165.294L77.2572 160.437L77 160.294V160V100V99.7058L77.2572 99.5629L86 94.7058V75.6919L77.1326 65.8392L68.2849 56.5H59V167.71Z" stroke="black" stroke-opacity="0.2"/>
<path d="M102.5 43.5H109.5V53H102.5V43.5Z" fill="#233C45"/>
<path d="M129.5 43.5H136.5V53H129.5V43.5Z" fill="#233C45"/>
<path d="M150.95 132.34C150.95 149.802 136.864 163.95 119.5 163.95C102.136 163.95 88.05 149.802 88.05 132.34C88.05 114.877 102.136 100.729 119.5 100.729C136.864 100.729 150.95 114.877 150.95 132.34Z" stroke="#6B8892" stroke-width="2.1"/>
<ellipse cx="119.5" cy="132.339" rx="26" ry="26.1283" fill="#F3D640"/>
<path d="M145 132.339C145 146.496 133.581 157.968 119.5 157.968C105.419 157.968 94 146.496 94 132.339C94 118.183 105.419 106.711 119.5 106.711C133.581 106.711 145 118.183 145 132.339Z" stroke="black" stroke-opacity="0.2"/>
<path fill-rule="evenodd" clip-rule="evenodd" d="M121.167 109.954C135.303 111.787 142.41 119.8 142.487 133.992C141.447 133.121 140.407 132.25 139.367 131.379C138.176 132.944 137.223 134.685 136.507 136.605C134.671 133.113 131.811 131.633 127.927 132.163C128.88 132.554 129.747 133.076 130.527 133.731C129.219 135.133 127.832 136.439 126.367 137.65C124.776 136.026 123.302 134.284 121.947 132.424C122.363 134.484 123.229 136.399 124.547 138.172C125.431 138.646 126.384 138.82 127.407 138.695C125.81 143.299 123.643 147.654 120.907 151.759C118.783 150.387 116.617 149.08 114.407 147.84C113.822 143.42 111.309 141.243 106.867 141.308C103.496 139.849 102.629 137.41 104.267 133.992C105.451 131.066 107.444 128.976 110.247 127.721C111.958 127.793 113.171 128.577 113.887 130.073C116.308 130.333 118.734 130.421 121.167 130.334C121.273 129.346 120.926 128.562 120.127 127.982C118.116 126.573 116.036 125.266 113.887 124.063C112.055 125.31 110.148 126.355 108.167 127.199C108.085 126.481 108.172 125.784 108.427 125.108C110.678 121.967 113.625 119.877 117.267 118.837C117.917 117.491 118.091 116.098 117.787 114.657C117.323 114.024 116.89 114.024 116.487 114.657C116.219 115.558 115.872 116.429 115.447 117.27C114.868 116.631 114.781 115.934 115.187 115.18C116.057 113.873 117.011 112.653 118.047 111.522C118.557 112.295 119.164 112.993 119.867 113.612C120.382 112.406 120.816 111.187 121.167 109.954Z" fill="#6B8892"/>
<path fill-rule="evenodd" clip-rule="evenodd" d="M105.804 114.873C106.188 114.804 106.535 114.892 106.844 115.134C104.677 117.312 102.51 119.489 100.344 121.666C99.9971 121.318 99.9971 120.97 100.344 120.621C102.27 118.773 104.09 116.858 105.804 114.873Z" fill="#688792"/>
<path d="M119.5 93L121.017 97.6152H125.926L121.955 100.468L123.472 105.083L119.5 102.23L115.528 105.083L117.046 100.468L113.074 97.6152H117.983L119.5 93Z" fill="#FFDC29"/>
<path d="M119.5 93.6405L120.827 97.6777L120.872 97.8152H121.017H125.305L121.838 100.305L121.719 100.391L121.765 100.53L123.09 104.563L119.617 102.068L119.5 101.984L119.383 102.068L115.91 104.563L117.236 100.53L117.281 100.391L117.162 100.305L113.695 97.8152H117.983H118.128L118.173 97.6777L119.5 93.6405Z" stroke="black" stroke-opacity="0.2" stroke-width="0.4"/>
<path d="M113.548 100.179L116.127 99.8069L117.048 100.471L116.568 101.926L113.838 102.297L114.78 101.006L113.548 100.179Z" fill="#233C45"/>
<path d="M125.454 100.179L122.874 99.8069L121.953 100.471L122.433 101.926L125.163 102.297L124.221 101.006L125.454 100.179Z" fill="#233C45"/>
</svg>
