<svg width="240" height="240" viewBox="0 0 240 240" fill="none" xmlns="http://www.w3.org/2000/svg">
<path d="M119.5 219L46 175.5V43.5L194 43.5V175L119.5 219Z" fill="#A0A335"/>
<path d="M119.5 210.5L54.0003 170.5V51.5L186 51.5V170.5L119.5 210.5Z" fill="#101200"/>
<path d="M109.5 37.2923L119.5 22L129.5 37.4433V93C121.722 89.7231 117.278 89.7231 109.5 93V37.2923Z" fill="#5A5A5A"/>
<path d="M110 92.2519V37.4413L119.498 22.9167L129 37.5911V92.2519C125.403 90.7905 122.462 90.0423 119.5 90.0423C116.538 90.0423 113.597 90.7905 110 92.2519Z" stroke="black" stroke-opacity="0.2"/>
<path d="M129.5 197.9L119.5 203L109.5 197.9V169C117.667 170.295 121.333 170.295 129.5 169V197.9Z" fill="#5A5A5A"/>
<path d="M129 169.584V197.594L119.5 202.439L110 197.594V169.584C117.629 170.766 121.371 170.766 129 169.584Z" stroke="black" stroke-opacity="0.2"/>
<path d="M153.5 165L162.5 160V100L153.5 95V75.5L162.5 65.5L171.5 56H181.5V168L153.5 184V165Z" fill="#5A5A5A"/>
<path d="M181 167.71L154 183.138V165.294L162.743 160.437L163 160.294V160V100V99.7058L162.743 99.5629L154 94.7058V75.6919L162.867 65.8392L171.715 56.5H181V167.71Z" stroke="black" stroke-opacity="0.2"/>
<path d="M86.5 165L77.5 160V100L86.5 95V75.5L77.5 65.5L68.5 56H58.5V168L86.5 184V165Z" fill="#5A5A5A"/>
<path d="M59 167.71L86 183.138V165.294L77.2572 160.437L77 160.294V160V100V99.7058L77.2572 99.5629L86 94.7058V75.6919L77.1326 65.8392L68.2849 56.5H59V167.71Z" stroke="black" stroke-opacity="0.2"/>
<path d="M102.5 43.5H109.5V53H102.5V43.5Z" fill="#101200"/>
<path d="M129.5 43.5H136.5V53H129.5V43.5Z" fill="#101200"/>
<path d="M132.863 107.235V103.34H128.634C128.252 101.589 127.372 99.9828 126.068 98.6955C124.307 96.9572 121.974 96 119.5 96C117.025 96 114.693 96.9572 112.932 98.6955C111.628 99.9828 110.748 101.589 110.366 103.34H106.137V107.235H97.2832V161H141.717V107.235H132.863ZM109.946 107.149H113.932L113.959 105.272C114.002 102.259 116.487 99.8086 119.5 99.8086C122.513 99.8086 124.998 102.259 125.041 105.272L125.068 107.149H129.054V110.896H109.946V107.149ZM137.908 157.191H101.092V111.044H106.137V114.704H132.863V111.044H137.908V157.191Z" fill="#9AA703"/>
<path d="M132.363 107.235V107.735H132.863H141.217V160.5H97.7832V107.735H106.137H106.637V107.235V103.84H110.366H110.768L110.854 103.447C111.216 101.791 112.048 100.271 113.283 99.0513C114.951 97.4054 117.157 96.5 119.5 96.5C121.843 96.5 124.049 97.4054 125.717 99.0513C126.952 100.271 127.784 101.791 128.146 103.447L128.232 103.84H128.634H132.363V107.235ZM109.946 106.649H109.446V107.149V110.896V111.396H109.946H129.054H129.554V110.896V107.149V106.649H129.054H125.561L125.541 105.265C125.494 101.979 122.786 99.3086 119.5 99.3086C116.214 99.3086 113.506 101.979 113.459 105.265L113.439 106.649H109.946ZM137.908 157.691H138.408V157.191V111.044V110.544H137.908H132.863H132.363V111.044V114.204H106.637V111.044V110.544H106.137H101.092H100.592V111.044V157.191V157.691H101.092H137.908Z" stroke="black" stroke-opacity="0.05"/>
<path d="M129.736 123.022L117.743 133.816L113.787 128.542L106.847 133.747L109.132 136.794L113.025 133.874L117.195 139.433L132.284 125.853L129.736 123.022Z" fill="#9AA703"/>
<path d="M112.725 133.474L109.232 136.094L107.547 133.847L113.687 129.242L117.343 134.116L117.671 134.554L118.077 134.188L129.699 123.728L131.578 125.816L117.267 138.696L113.425 133.574L113.125 133.174L112.725 133.474Z" stroke="black" stroke-opacity="0.05"/>
<path d="M121.404 145.554H117.596V149.362H121.404V145.554Z" fill="#9AA703"/>
<path d="M118.096 146.054H120.904V148.862H118.096V146.054Z" stroke="black" stroke-opacity="0.05"/>
<path d="M128.979 145.554H125.171V149.362H128.979V145.554Z" fill="#9AA703"/>
<path d="M125.671 146.054H128.479V148.862H125.671V146.054Z" stroke="black" stroke-opacity="0.05"/>
<path d="M113.829 145.554H110.021V149.362H113.829V145.554Z" fill="#9AA703"/>
<path d="M110.521 146.054H113.329V148.862H110.521V146.054Z" stroke="black" stroke-opacity="0.05"/>
</svg>
