<svg width="240" height="240" viewBox="0 0 240 240" fill="none" xmlns="http://www.w3.org/2000/svg">
<path d="M119.5 219L46 175.5V43.5L194 43.5V175L119.5 219Z" fill="#9146FF"/>
<path d="M119.5 210.5L54.0003 170.5V51.5L186 51.5V170.5L119.5 210.5Z" fill="#2F0542"/>
<path d="M109.5 37.2923L119.5 22L129.5 37.4433V93C121.722 89.7231 117.278 89.7231 109.5 93V37.2923Z" fill="#9E59A9"/>
<path d="M110 92.2519V37.4413L119.498 22.9167L129 37.5911V92.2519C125.403 90.7905 122.462 90.0423 119.5 90.0423C116.538 90.0423 113.597 90.7905 110 92.2519Z" stroke="black" stroke-opacity="0.2"/>
<path d="M129.5 197.9L119.5 203L109.5 197.9V169C117.667 170.295 121.333 170.295 129.5 169V197.9Z" fill="#9E59A9"/>
<path d="M129 169.584V197.594L119.5 202.439L110 197.594V169.584C117.629 170.766 121.371 170.766 129 169.584Z" stroke="black" stroke-opacity="0.2"/>
<path d="M153.5 165L162.5 160V100L153.5 95V75.5L162.5 65.5L171.5 56H181.5V168L153.5 184V165Z" fill="#9E59A9"/>
<path d="M181 167.71L154 183.138V165.294L162.743 160.437L163 160.294V160V100V99.7058L162.743 99.5629L154 94.7058V75.6919L162.867 65.8392L171.715 56.5H181V167.71Z" stroke="black" stroke-opacity="0.2"/>
<path d="M86.5 165L77.5 160V100L86.5 95V75.5L77.5 65.5L68.5 56H58.5V168L86.5 184V165Z" fill="#9E59A9"/>
<path d="M59 167.71L86 183.138V165.294L77.2572 160.437L77 160.294V160V100V99.7058L77.2572 99.5629L86 94.7058V75.6919L77.1326 65.8392L68.2849 56.5H59V167.71Z" stroke="black" stroke-opacity="0.2"/>
<path d="M102.5 43.5H109.5V53H102.5V43.5Z" fill="#2F0542"/>
<path d="M129.5 43.5H136.5V53H129.5V43.5Z" fill="#2F0542"/>
<path d="M139.812 130.469L131.688 138.594H123.562L116.453 145.703V138.594H107.312V108.125H139.812V130.469Z" fill="white"/>
<path d="M105.281 104.062L95.125 114.219V150.781H107.312V160.938L117.469 150.781H125.594L143.875 132.5V104.062H105.281ZM139.812 130.469L131.688 138.594H123.562L116.453 145.703V138.594H107.312V108.125H139.812V130.469Z" fill="#9146FF"/>
<path d="M133.719 115.234H129.656V127.422H133.719V115.234ZM122.547 115.234H118.484V127.422H122.547V115.234Z" fill="#9146FF"/>
</svg>
