<svg width="240" height="240" viewBox="0 0 240 240" fill="none" xmlns="http://www.w3.org/2000/svg">
<path d="M119.5 219L46 175.5V43.5L194 43.5V175L119.5 219Z" fill="#004607"/>
<path d="M119.5 210.5L54.0003 170.5V51.5L186 51.5V170.5L119.5 210.5Z" fill="#260C01"/>
<path d="M109.5 37.2923L119.5 22L129.5 37.4433V93C121.722 89.7231 117.278 89.7231 109.5 93V37.2923Z" fill="#034026"/>
<path d="M110 92.2519V37.4413L119.498 22.9167L129 37.5911V92.2519C125.403 90.7905 122.462 90.0423 119.5 90.0423C116.538 90.0423 113.597 90.7905 110 92.2519Z" stroke="black" stroke-opacity="0.2"/>
<path d="M129.5 197.9L119.5 203L109.5 197.9V169C117.667 170.295 121.333 170.295 129.5 169V197.9Z" fill="#034026"/>
<path d="M129 169.584V197.594L119.5 202.439L110 197.594V169.584C117.629 170.766 121.371 170.766 129 169.584Z" stroke="black" stroke-opacity="0.2"/>
<path d="M153.5 165L162.5 160V100L153.5 95V75.5L162.5 65.5L171.5 56H181.5V168L153.5 184V165Z" fill="#034026"/>
<path d="M181 167.71L154 183.138V165.294L162.743 160.437L163 160.294V160V100V99.7058L162.743 99.5629L154 94.7058V75.6919L162.867 65.8392L171.715 56.5H181V167.71Z" stroke="black" stroke-opacity="0.2"/>
<path d="M86.5 165L77.5 160V100L86.5 95V75.5L77.5 65.5L68.5 56H58.5V168L86.5 184V165Z" fill="#034026"/>
<path d="M59 167.71L86 183.138V165.294L77.2572 160.437L77 160.294V160V100V99.7058L77.2572 99.5629L86 94.7058V75.6919L77.1326 65.8392L68.2849 56.5H59V167.71Z" stroke="black" stroke-opacity="0.2"/>
<path d="M102.5 43.5H109.5V53H102.5V43.5Z" fill="#260C01"/>
<path d="M129.5 43.5H136.5V53H129.5V43.5Z" fill="#260C01"/>
<g clip-path="url(#clip0_557_173)">
<path d="M131.688 131.25H107.312C104.512 131.25 102.234 128.972 102.234 126.172C102.234 123.372 104.512 121.094 107.312 121.094H107.748C108.796 124.049 111.619 126.172 114.93 126.172C116.102 126.172 117.252 125.894 118.35 125.345L128.507 120.267C131.056 118.992 132.703 116.327 132.703 113.477C132.703 110.626 131.056 107.96 128.516 106.691C121.807 103.309 118.828 101.763 118.193 101.534C117.143 101.037 116.047 100.781 114.93 100.781C111.619 100.781 108.796 102.904 107.748 105.859H107.312C96.1121 105.859 87 114.972 87 126.172C87 137.372 96.1121 146.484 107.312 146.484H126.609C129.409 146.484 131.688 148.762 131.688 151.562C131.688 154.363 129.409 156.641 126.609 156.641H121.531C120.129 156.641 118.992 157.777 118.992 159.18C118.992 160.582 120.129 161.719 121.531 161.719H131.688C140.088 161.719 146.922 154.885 146.922 146.484C146.922 138.084 140.088 131.25 131.688 131.25ZM135.866 155.741C136.444 154.466 136.766 153.051 136.766 151.562C136.766 145.962 132.21 141.406 126.609 141.406H107.312C98.9123 141.406 92.0781 134.572 92.0781 126.172C92.0781 117.772 98.9123 110.938 107.312 110.938H109.852C111.254 110.938 112.391 109.801 112.391 108.398C112.391 106.998 113.53 105.859 114.93 105.859C115.312 105.859 115.689 105.954 116.078 106.149C120.937 108.513 116.794 106.479 126.236 111.228C127.08 111.65 127.625 112.533 127.625 113.477C127.625 114.42 127.08 115.303 126.236 115.725L116.08 120.803C115.688 120.999 115.312 121.094 114.93 121.094C113.53 121.094 112.391 119.955 112.391 118.555C112.391 117.152 111.254 116.016 109.852 116.016H107.312C101.712 116.016 97.1562 120.572 97.1562 126.172C97.1562 131.772 101.712 136.328 107.312 136.328H131.688C137.288 136.328 141.844 140.884 141.844 146.484C141.844 150.596 139.388 154.145 135.866 155.741Z" fill="#004607"/>
<path d="M149.769 115.272C148.779 114.282 148.779 112.671 149.769 111.681L151.256 110.194C152.248 109.202 152.248 107.595 151.256 106.603C150.265 105.611 148.657 105.611 147.666 106.603L146.178 108.09C145.348 108.921 144.75 109.897 144.384 110.938H139.305C137.902 110.938 136.766 112.074 136.766 113.477C136.766 114.879 137.902 116.016 139.305 116.016H144.384C144.75 117.056 145.348 118.032 146.178 118.863L147.666 120.35C148.657 121.342 150.265 121.342 151.256 120.35C152.248 119.358 152.248 117.751 151.256 116.759L149.769 115.272Z" fill="#004607"/>
</g>
<defs>
<clipPath id="clip0_557_173">
<rect width="65" height="65" fill="white" transform="translate(87 98.75)"/>
</clipPath>
</defs>
</svg>
