<svg width="32" height="32" viewBox="0 0 32 32" fill="none" xmlns="http://www.w3.org/2000/svg">
<path d="M28.59 4.29001C28.2799 4.02958 27.9048 3.85847 27.5049 3.79504C27.105 3.73162 26.6954 3.77828 26.32 3.93001L3.40999 13.1C3.07602 13.2387 2.79065 13.4733 2.58989 13.7741C2.38913 14.0749 2.28198 14.4284 2.28198 14.79C2.28198 15.1516 2.38913 15.5052 2.58989 15.8059C2.79065 16.1067 3.07602 16.3413 3.40999 16.48L4.88999 17.09C5.13401 17.1932 5.40902 17.1954 5.65464 17.096C5.90025 16.9967 6.09639 16.8039 6.19999 16.56C6.25081 16.4386 6.27715 16.3083 6.2775 16.1766C6.27785 16.045 6.2522 15.9146 6.20203 15.7929C6.15186 15.6712 6.07815 15.5606 5.98514 15.4674C5.89212 15.3742 5.78162 15.3004 5.65999 15.25L4.55999 14.8L27.07 5.80001C27.1046 5.7788 27.1444 5.76756 27.185 5.76756C27.2256 5.76756 27.2654 5.7788 27.3 5.80001C27.3326 5.82773 27.3573 5.86367 27.3713 5.90411C27.3854 5.94456 27.3884 5.98803 27.38 6.03001L23.27 25.21C23.2565 25.2783 23.2254 25.3419 23.1798 25.3945C23.1342 25.4472 23.0757 25.487 23.01 25.51C22.9455 25.5356 22.8754 25.5435 22.8068 25.533C22.7383 25.5224 22.6738 25.4938 22.62 25.45L14.62 19.21L22.45 11.3C22.6173 11.1265 22.7162 10.8984 22.7287 10.6577C22.7411 10.417 22.6662 10.1799 22.5177 9.99C22.3692 9.80014 22.1572 9.6703 21.9206 9.62437C21.684 9.57843 21.4387 9.6195 21.23 9.74001L9.74999 16.54C9.62248 16.5976 9.50849 16.6814 9.41537 16.7858C9.32226 16.8903 9.25211 17.0131 9.20944 17.1464C9.16678 17.2796 9.15255 17.4203 9.16769 17.5594C9.18283 17.6986 9.22699 17.8329 9.29732 17.9539C9.36764 18.0749 9.46257 18.1797 9.57597 18.2617C9.68937 18.3437 9.8187 18.4009 9.95562 18.4298C10.0925 18.4586 10.234 18.4584 10.3708 18.4292C10.5077 18.3999 10.6368 18.3423 10.75 18.26L15.58 15.41L13.23 17.8C13.015 18.002 12.8474 18.2491 12.7391 18.5235C12.6308 18.7979 12.5846 19.0928 12.6037 19.3872C12.6228 19.6815 12.7068 19.968 12.8496 20.2261C12.9925 20.4842 13.1907 20.7075 13.43 20.88L21.43 27.03C21.851 27.355 22.3681 27.5308 22.9 27.53C23.1832 27.528 23.464 27.4772 23.73 27.38C24.112 27.2429 24.4524 27.0099 24.7185 26.7035C24.9847 26.3971 25.1677 26.0275 25.25 25.63L29.33 6.47001C29.4166 6.0737 29.3934 5.66127 29.2631 5.27714C29.1327 4.893 28.8999 4.55171 28.59 4.29001Z" fill="#2CC388"/>
</svg>
