<svg width="256" height="256" viewBox="0 0 256 256" fill="none" xmlns="http://www.w3.org/2000/svg">
<path d="M201.969 199.645L128.224 241.716L53.5795 199.645L53.5795 57.3219L201.969 57.4758L201.969 199.645Z" fill="#232323"/>
<path d="M54.0304 179.058L54.0302 57.7695L201.97 57.7695L201.97 179.058L177.688 165.183C177.133 159.19 177.399 157.687 179.037 154.442C181.446 150.417 183.507 148.852 185.332 147.281C187.456 143.919 187.424 140.312 187.246 135.919C187.167 133.957 186.815 132.01 186.168 130.154C181.747 117.475 177.882 109.306 168.694 94.4692C159.136 80.3952 149.6 77.5094 134.969 72.0913L121.479 72.0913C105.752 77.128 98.1468 81.3564 88.204 94.4692C79.2763 110.548 74.6707 119.828 69.7284 131.003C69.1542 132.302 68.7013 133.657 68.518 135.065C68.0007 139.037 68.2789 143.428 70.667 147.281C73.041 149.937 75.2609 151.01 77.412 154.442C78.7013 158.611 78.9252 160.965 78.761 165.183L54.0304 179.058Z" fill="#D00001"/>
<path fill-rule="evenodd" clip-rule="evenodd" d="M127.324 241.267L201.969 199.197L226.7 199.644L214.11 179.952L214.11 45.6844L139.915 45.6844L127.324 23.3063L114.734 45.6844L41.888 45.6844L41.8877 179.952L28.3977 199.197H53.5786L127.324 241.267ZM59.2244 188.581L127.573 226.624L196.822 188.581L168.943 171.574L177.487 164.861L202.218 179.63L202.219 57.8946L134.768 57.8946L134.768 72.664L121.278 72.6015L121.278 57.8946L53.8284 57.8946L53.8284 179.63L79.4594 164.861L88.003 171.574L59.2244 188.581Z" fill="#E1D5D4"/>
<path d="M121.282 200.951C122.957 205.754 123.85 209.303 127.822 212.925C128.367 213.421 129.056 213.747 129.789 213.826C130.414 213.895 131.11 213.899 131.855 213.663C131.26 211.801 131.372 210.387 131.855 208.292C133.128 205.555 134.011 204.629 138.14 201.734C138.407 201.547 138.569 201.242 138.555 200.917C138.474 199.091 137.953 196.39 136.318 195.17C133.262 194.735 128.511 195.144 121.653 199.805C121.283 200.057 121.134 200.528 121.282 200.951Z" fill="#D8D8D8" stroke="#D8D8D8"/>
<path d="M135.868 185.228L135.868 189.351C127.438 189.554 124.133 190.262 119.68 193.38L119.68 188.829C119.68 187.698 119.913 186.578 120.293 185.513C120.591 184.679 120.921 183.891 121.928 182.638C125.39 178.332 131.766 178.169 135.448 183.745C135.737 184.183 135.868 184.704 135.868 185.228Z" fill="#D8D8D8" stroke="#D8D8D8"/>
<path d="M124.177 173.687V160.616C124.177 160.101 124.373 159.6 124.745 159.243C127.037 157.044 128.536 156.954 130.836 159.251C131.189 159.603 131.372 160.09 131.372 160.589V173.687H139.016L143.644 179.061C144.046 179.528 144.772 179.523 145.168 179.05L148.909 174.582V164.736L127.775 148.176L106.64 164.736V174.582L110.411 179.085C110.796 179.546 111.499 179.565 111.909 179.126L116.983 173.687H124.177Z" fill="#D8D8D8" stroke="#D8D8D8"/>
<path d="M127.776 141.463L95.3986 166.974L85.506 159.365L84.157 149.519L91.8013 144.148L85.506 135.644L76.063 140.12L76.063 135.644L91.8013 103.868C120.928 110.373 136.857 110.197 164.647 103.868L179.937 135.644L179.937 140.12L170.944 135.644L164.647 144.148L172.293 149.519L170.943 159.365L161.949 166.974L127.776 141.463Z" fill="#D8D8D8" stroke="#D8D8D8"/>
<path d="M161.499 98.0497C143.513 72.9865 109.338 73.8816 94.9487 98.0497C121.479 103.924 134.07 103.916 161.499 98.0497Z" fill="#D9D9D9" stroke="#D8D8D8"/>
<path d="M91.3513 126.693V132.959L100.104 144.148H107.539L110.237 142.358H114.284L122.828 136.987H132.721L140.365 142.358H145.311L148.009 144.148L155.654 144.148L164.647 132.959V126.693H155.654L147.11 129.379H108.439L100.104 126.693H91.3513Z" fill="#232323" stroke="#D8D8D8"/>
</svg>
