<svg width="256" height="256" viewBox="0 0 256 256" fill="none" xmlns="http://www.w3.org/2000/svg">
<path d="M49.441 182.432L127.5 225.577L206 182.432V55.1107H49.441V182.432Z" fill="#4B743A" stroke="#4B743A"/>
<path d="M49 55.1106H93.5421V65.2625H60.0253L60.0253 176.087L127.5 214.579L195.416 176.087V65.2625H161.458V55.1106H206V182.432L127.5 226L49.441 182.432L49 55.1106Z" fill="#FFDE24" stroke="#FFDE24"/>
<path d="M90.4551 137.171V111.792H97.9523V106.818C97.9523 105.627 98.0802 104.429 98.4835 103.307C105.603 83.5148 142.679 78.986 156.097 102.315C157.097 104.052 157.489 106.061 157.489 108.066V111.792H163.663V137.171L144.258 157.052L148.228 161.282L155.725 154.514L160.576 160.013L139.407 178.625L134.997 173.972L143.376 166.358L138.966 161.705C130.612 169.008 125.643 168.99 116.034 161.705L111.183 166.358L119.121 173.972L113.829 178.625L93.5422 160.013L98.8343 154.514L105.89 161.282L110.301 157.052L90.4551 137.171Z" fill="#FFDE24"/>
<ellipse cx="127.5" cy="136.748" rx="2.64607" ry="2.53796" fill="#4B743A"/>
<ellipse cx="127.5" cy="147.746" rx="2.64607" ry="2.53796" fill="#4B743A"/>
<ellipse cx="137.202" cy="142.67" rx="2.64607" ry="2.53796" fill="#4B743A"/>
<ellipse cx="117.798" cy="142.67" rx="2.64607" ry="2.53796" fill="#4B743A"/>
<ellipse cx="137.202" cy="153.668" rx="2.64607" ry="2.53796" fill="#4B743A"/>
<ellipse cx="117.798" cy="153.668" rx="2.64607" ry="2.53796" fill="#4B743A"/>
<ellipse cx="127.5" cy="158.744" rx="2.64607" ry="2.53796" fill="#4B743A"/>
<path d="M149.992 128.942V111.792H105.449V128.861C105.449 130.371 106.133 131.801 107.308 132.75L112.708 137.112C113.377 137.653 114.316 137.704 115.01 137.195C117.807 135.146 122.493 131.257 126.526 129.516C127.149 129.247 127.851 129.248 128.475 129.512C132.594 131.25 137.866 135.138 140.826 137.191C141.549 137.692 142.511 137.627 143.181 137.056L148.236 132.747C149.35 131.797 149.992 130.406 149.992 128.942Z" fill="#4B743A"/>
<path d="M131.469 187.085V211.341L168.89 190.138L168.361 187.085H131.469Z" fill="#9EC558" stroke="#9EC558"/>
<path d="M123.55 187.085V211.341L86.1697 190.026L86.6585 187.085H123.55Z" fill="#9EC558" stroke="#9EC558"/>
<path d="M161.458 170.165L151.755 179.048L166.309 179.048C165.254 175.239 164.182 173.298 161.458 170.165Z" fill="#9EC558" stroke="#9EC558"/>
<path d="M93.9771 170.017L103.68 178.9L89.1259 178.9C90.1814 175.091 91.2532 173.15 93.9771 170.017Z" fill="#9EC558" stroke="#9EC558"/>
<path d="M188.356 179.104H175.129C173.446 172.911 171.421 169.208 166.309 164.666L170.278 158.321C180.659 163.117 185.773 167.208 192.211 176.923L188.356 179.104Z" fill="#9EC558" stroke="#9EC558"/>
<path d="M66.8355 178.986L79.944 178.891C81.6273 172.699 84.0136 168.657 89.126 164.114L85.1569 157.769C74.7756 162.565 69.4032 167.066 62.9651 176.781L66.8355 178.986Z" fill="#9EC558" stroke="#9EC558"/>
<path d="M194.534 138.863V164.666L193.652 163.82C186.612 158.334 176.06 150.742 165.5 147.767C165.457 147.754 165.427 147.715 165.427 147.67V145.683C165.427 145.651 165.443 145.62 165.469 145.601L171.617 141.277C171.884 141.09 172.042 140.785 172.042 140.459V130.926C172.042 130.871 172.087 130.826 172.142 130.826H182.944C183.026 130.826 183.109 130.837 183.189 130.857C189.342 132.409 191.668 134.03 194.534 138.863Z" fill="#9EC558" stroke="#9EC558"/>
<path d="M60.9013 138.312V164.114L61.7833 163.268C68.8233 157.782 79.3753 150.19 89.9353 147.215C89.9784 147.203 90.0081 147.164 90.0081 147.119V145.132C90.0081 145.099 89.9922 145.068 89.9656 145.05L83.8176 140.725C83.5513 140.538 83.3929 140.233 83.3929 139.907V130.375C83.3929 130.32 83.3481 130.275 83.2929 130.275H72.4907C72.409 130.275 72.3257 130.285 72.2464 130.305C66.0934 131.857 63.7666 133.479 60.9013 138.312Z" fill="#9EC558" stroke="#9EC558"/>
<path d="M171.16 123.213V110.1C176.368 114.683 178.495 117.587 180.862 123.213H171.16Z" fill="#9EC558" stroke="#9EC558"/>
<path d="M84.2749 123.213V110.1C79.0665 114.683 76.9399 117.587 74.5726 123.213H84.2749Z" fill="#9EC558" stroke="#9EC558"/>
<path d="M125.736 65.6854H112.172C110.564 70.683 109.972 73.7555 109.86 80.0672H125.736V65.6854Z" fill="#FFDE24" stroke="#FFDE24"/>
<path d="M129.264 65.6854H142.828C144.436 70.683 145.028 73.7555 145.14 80.0672H129.264V65.6854Z" fill="#FFDE24" stroke="#FFDE24"/>
<path d="M108.096 65.6854C106.467 71.2457 105.949 74.3947 105.744 80.0672H96.6293C97.0032 73.9311 98.3933 70.4794 101.039 65.6854H108.096Z" fill="#FFDE24" stroke="#FFDE24"/>
<path d="M145.14 65.6854C147.019 71.2457 147.617 74.3947 147.854 80.0672H158.371C157.939 73.9311 156.132 70.4794 153.079 65.6854H145.14Z" fill="#FFDE24" stroke="#FFDE24"/>
<path d="M112.947 63.9935L125.736 63.9935L125.736 52.1497C120.683 52.1497 116.257 57.1366 112.947 63.9935Z" fill="#FFDE24" stroke="#FFDE24"/>
<path d="M142.053 63.9935L129.264 63.9935L129.264 52.1497C134.001 52.1497 138.95 57.1366 142.053 63.9935Z" fill="#FFDE24" stroke="#FFDE24"/>
<path d="M108.978 63.9935H101.921C103.775 60.7634 112.367 54.4569 116.916 53.8417C113.041 57.2256 109.651 61.3787 108.978 63.9935Z" fill="#FFDE24" stroke="#FFDE24"/>
<path d="M144.303 63.9935H151.756C150.011 60.7634 141.484 54.4569 137.202 53.8417C140.849 57.2256 143.669 61.3787 144.303 63.9935Z" fill="#FFDE24" stroke="#FFDE24"/>
<path d="M146.5 46.6943C152.911 49.0793 153.849 54.7437 149.627 58.9176C136.181 47.5887 118.513 46.9924 104.286 58.9176C101.002 56.6816 100.377 48.7812 107.413 46.6943L115.699 46.6943C113.605 44.8268 111.672 44.4184 108.351 44.3092C108.351 41.7205 109.942 39.865 113.293 38.3609C113.538 38.2507 113.805 38.1976 114.074 38.1976L121.953 38.1976C121.321 37.259 120.6 37.2249 118.983 36.4088C118.983 34.3219 121.953 31.7878 124.768 31.1915C126.46 30.925 127.42 30.9476 129.145 31.1915C132.272 31.7878 134.93 34.62 134.93 36.4088C134.93 36.4088 132.669 37.4369 131.96 38.1976L139.836 38.1976C140.106 38.1976 140.375 38.2516 140.623 38.3628C143.45 39.6344 145.562 41.3105 145.562 44.3092C140.937 44.5093 139.626 45.1749 138.057 46.6943L146.5 46.6943Z" fill="#FFDE24" stroke="#FFDE24"/>
</svg>
