<svg width="256" height="256" viewBox="0 0 256 256" fill="none" xmlns="http://www.w3.org/2000/svg">
<g clip-path="url(#clip0_1264_36)">
<path d="M207.457 175.564L128.212 217.791L48.5118 175.564L48.5113 49.3303L207.457 49.3303L207.457 175.564Z" fill="#62312C" stroke="#62312C"/>
<path d="M61.7185 100.542H40.3132V147.926C40.3132 150.405 41.1112 152.856 42.7965 154.675C48.8956 161.257 53.2227 161.063 59.4113 154.794C61.27 152.911 62.161 150.298 62.1375 147.652L61.7185 100.542Z" fill="#FC9900" stroke="#FC9900"/>
<path d="M216.566 100.542H195.16V147.926C195.16 150.405 195.958 152.856 197.644 154.675C203.743 161.257 208.07 161.063 214.258 154.794C216.117 152.911 217.008 150.298 216.985 147.652L216.566 100.542Z" fill="#FC9900" stroke="#FC9900"/>
<path d="M61.7185 77.1825V92.9055H40.3132V77.1825H61.7185Z" fill="#FC9900" stroke="#FC9900"/>
<path d="M216.565 77.1825V92.9055H195.16V77.1825H216.565Z" fill="#FC9900" stroke="#FC9900"/>
<path d="M87.6782 57.8656H57.6197V69.0963H47.1448V47.9826H87.6782V57.8656Z" fill="#FC9900" stroke="#FC9900"/>
<path d="M169.201 57.4164H199.259V68.6471H209.734V47.5333H169.201V57.4164Z" fill="#FC9900" stroke="#FC9900"/>
<path d="M199.257 166.87L209.734 166.87L209.734 185.447L128.211 229.92L47.1447 185.447L47.1447 166.87L57.6197 166.87L57.6197 177.81L128.211 215.994L199.257 177.81L199.257 166.87Z" fill="#FC9900" stroke="#FC9900"/>
<path d="M103.163 73.5886V14.7397L161.914 73.5886L163.28 62.8072L189.695 136.93L137.32 188.591L127.756 182.302L117.737 188.591L73.1044 145.016L73.1044 103.238L103.163 73.5886Z" fill="#FC9900" stroke="#FC9900"/>
<path d="M165.102 90.2101L127.756 78.5302L89.9554 90.2101V130.641L79.025 141.422L96.3314 161.188L106.806 156.696L110.45 169.724L127.756 178.259L146.429 169.724L150.528 156.696L160.092 161.188L176.488 141.422L165.102 130.641V90.2101Z" fill="#62312C" stroke="#62312C"/>
<ellipse cx="106.351" cy="136.031" rx="9.56408" ry="9.4338" fill="#FC9900"/>
<ellipse cx="149.162" cy="136.031" rx="9.56408" ry="9.4338" fill="#FC9900"/>
<path d="M133.505 155.5L129.081 147.864C128.696 147.199 127.725 147.204 127.338 147.872L122.905 155.525C122.384 156.423 123.415 157.407 124.303 156.86L127.679 154.778C128.005 154.577 128.417 154.576 128.741 154.776L132.098 156.845C132.983 157.391 134.024 156.396 133.505 155.5Z" fill="#FC9900" stroke="#FC9900"/>
</g>
<defs>
<clipPath id="clip0_1264_36">
<rect width="256" height="256" fill="white"/>
</clipPath>
</defs>
</svg>
