<svg width="256" height="256" viewBox="0 0 256 256" fill="none" xmlns="http://www.w3.org/2000/svg">
<g clip-path="url(#clip0_1044_2)">
<path d="M75.6348 50.5833L75.6348 155.05L108.811 176.127L108.812 203.159L127.91 215.989L149.229 203.159L149.229 176.127L183.428 155.05L183.428 50.5833L75.6348 50.5833Z" fill="#282E2E" stroke="#282E2E"/>
<path d="M162.097 79.4325C123.782 65.8757 136.011 66.3036 95.1877 79.4337C94.3365 79.7075 93.721 80.528 93.7349 81.4281L94.0555 102.279C94.1212 106.552 95.1466 110.739 97.0541 114.523L98.5737 117.538C99.4075 119.192 101.085 120.227 102.93 120.227L111.769 120.227C113.158 120.227 114.372 119.254 114.697 117.882C115.792 113.259 116.935 109.165 120.36 108.773L135.017 108.773C139.601 109.245 140.817 112.596 142.4 118.091C142.765 119.359 143.905 120.227 145.215 120.227L154.246 120.227C156.079 120.227 157.779 119.205 158.667 117.568L159.953 115.199C162.241 110.984 163.442 106.265 163.442 101.487L163.442 81.3178C163.442 80.4708 162.883 79.7106 162.097 79.4325Z" fill="#BB1020" stroke="#BB1020"/>
<path d="M118.28 172.919H139.761C140.644 172.919 141.093 171.857 140.479 171.223L139.961 170.689C137.606 168.26 136.03 165.184 135.434 161.854L132.855 147.458C132.064 143.042 125.719 143.074 124.973 147.498L122.571 161.751C121.998 165.145 120.409 168.286 118.014 170.757L117.562 171.223C116.947 171.857 117.397 172.919 118.28 172.919Z" fill="#BB1020" stroke="#BB1020"/>
<path d="M132.57 113.813H124.942C124.296 113.813 123.685 114.122 123.336 114.665C117.799 123.303 119.214 134.904 111.477 135.348C103.482 135.806 102.594 135.348 102.594 135.348C98.8542 134.062 98.2246 126.358 95.6128 121.619C95.3292 121.104 94.6519 121.006 94.1971 121.378L82.9366 130.591C82.5095 130.941 82.4463 131.57 82.7952 131.998L95.7759 147.9C96.1557 148.365 96.7246 148.635 97.3253 148.635H98.3222C98.7868 148.635 99.2478 148.482 99.5508 148.13C99.9945 147.613 100.25 147.15 101.262 146.802H105.754C107.856 146.802 109.725 148.12 110.335 150.132C111.69 154.594 113.355 160.757 113.698 161.464C114.142 160.09 118.583 137.639 123.913 135.348H133.684C139.902 137.639 142.567 160.09 143.455 161.464C144.202 160.694 145.263 153.122 147.165 148.824C147.767 147.465 149.201 146.802 150.687 146.802H154.559C155.096 146.802 155.634 147.138 156.073 147.606C156.597 148.165 157.266 148.635 158.033 148.635H158.531C159.111 148.635 159.662 148.383 160.042 147.945L173.908 131.959C174.263 131.55 174.227 130.932 173.828 130.567L163.744 121.319C163.197 120.817 162.31 121.072 162.095 121.784C158.761 132.835 156.118 135.38 153.226 135.348H147.008C138.031 134.907 138.812 123.156 134.243 114.776C133.912 114.168 133.262 113.813 132.57 113.813Z" fill="#BB1020" stroke="#BB1020"/>
<path d="M162.997 209.298L156.018 213.896L156.018 181.166L188.758 159.173L188.758 41.877L195.42 41.877L195.42 164.672L162.997 185.748L162.997 209.298Z" fill="#282E2E"/>
<path d="M94.0029 208.861L100.982 213.459L100.982 180.729L68.242 158.736L68.242 41.4401L61.5806 41.4401L61.5806 164.235L94.0029 185.311L94.0029 208.861Z" fill="#282E2E"/>
<path d="M207.411 181.167V41.8772H195.42V164.672L162.997 185.748V209.326L207.411 181.167Z" fill="#BB1020"/>
<path d="M49.5888 180.73V41.4402H61.5806V164.235L94.0029 185.311V208.889L49.5888 180.73Z" fill="#BB1020"/>
</g>
<defs>
<clipPath id="clip0_1044_2">
<rect width="256" height="256" fill="white"/>
</clipPath>
</defs>
</svg>
