<svg width="256" height="256" viewBox="0 0 256 256" fill="none" xmlns="http://www.w3.org/2000/svg">
<g clip-path="url(#clip0_45_90)">
<path d="M58 170.392V59.5638L81.0868 44.0178L96.1434 39.5045L126.257 38L156.37 39.5045L191 59.5638L189.996 170.392L126.257 207L58 170.392Z" fill="#5A3E54" stroke="#5A3E54"/>
<path d="M126.5 41L131.776 57.2381H148.85L135.037 67.2738L140.313 83.5119L126.5 73.4762L112.687 83.5119L117.963 67.2738L104.15 57.2381H121.224L126.5 41Z" fill="#FDEA89"/>
<path d="M103.5 135.5L119.6 129.9L136.4 129.9L151.8 135.5L150.4 160.7L158.1 168.4L147.6 179.6L140.6 177.5L137.8 187.3L127.3 190.8L116.8 187.3L113.3 177.5L107 179.6L97.1999 168.4L104.2 160.7L103.5 135.5Z" fill="#FDEA89"/>
<path d="M126.426 172.073L124.289 175.92C124.022 176.4 124.209 177.005 124.7 177.25C125.009 177.405 125.377 177.382 125.665 177.19L126.19 176.84C126.862 176.392 127.737 176.392 128.409 176.84L128.935 177.19C129.222 177.382 129.591 177.405 129.9 177.25C130.391 177.005 130.578 176.4 130.311 175.92L128.174 172.073C127.793 171.388 126.807 171.388 126.426 172.073Z" fill="#5A3E54" stroke="#FDEA89"/>
<circle cx="114" cy="164.2" r="5.1" fill="#5A3E54" stroke="#FDEA89"/>
<circle cx="142" cy="164.2" r="5.1" fill="#5A3E54" stroke="#FDEA89"/>
<path d="M95.1934 160.5L95.1934 147.539L64 147.539L63.9999 56.5L70.0001 54L78.0001 51L86.0001 48.5L98.0002 45.5L107.5 43.5L116.5 42L116.5 33.5L104 35L91.5001 37L81.5001 39.5L72.5001 42.5L63.9999 46.5L55.5 51L55.5 183L127.5 222L196 183L196 51L187 46.5L178.5 42.5L170 39.5L160.5 37L148 35L134.5 33.5L134.5 42L142.5 43.5L152.5 45.5L165 48.5L174.5 51L182 54L187 56.5L187 147.5L161.5 147.5L161.5 160.5L163.5 170L157.5 179L150 189.5L142.5 195.5L113.5 195.5L104 189.5L96 179L92.5 170L95.1934 160.5Z" fill="#FDEA89"/>
</g>
<defs>
<clipPath id="clip0_45_90">
<rect width="256" height="256" fill="white"/>
</clipPath>
</defs>
</svg>
