<svg width="256" height="256" viewBox="0 0 256 256" fill="none" xmlns="http://www.w3.org/2000/svg">
<g clip-path="url(#clip0_45_101)">
<path d="M100.5 74.5H75L69.5 79.5V189L127.5 218L187.5 189V79.5L181 74.5H156L128 96L100.5 74.5Z" fill="#5A3E54"/>
<path d="M55.5189 186L55.5189 79.5L69.4999 79.5L69.4999 182L83.4999 182L83.4999 149.5L97.4999 149.5L97.4999 200.5L111.5 200.5L111.5 149.5L107 149.5L107 121.5L121 112L121 210L135 210L135 112L149 121.5L149 149.5L144.5 149.5L144.5 200.5L158 200.5L158 149.5L172.5 149.5L172.5 182L186.5 182L186.5 79.5L200.5 79.5L200.5 186L127.5 224L55.5189 186Z" fill="#FDEA89"/>
<path d="M102.5 67V60.5H60.5L55.5 70H97.5L128 93.5L158.5 70H196L190.5 60.5H153.5V67L128 86.5L102.5 67Z" fill="#FDEA89"/>
<path d="M147.5 62.5H142.5L139.5 66.5L135.5 70L128 76.5L120 70L116 66.5L113 62.5H108.5V48H113L115.5 42.5L119.5 37L128 34L136 37L140.5 42.5L142.5 48H147.5V62.5Z" fill="#FDEA89"/>
<path d="M137.5 61.5V50.5H118V61.5H123V58H133V61.5H137.5Z" fill="#00293A"/>
<path d="M196.5 51.5H153.5V58.5H190.5L196.5 51.5Z" fill="#FDEA89"/>
<path d="M55.5001 51.5L102.5 52V59H60.6355L55.5001 51.5Z" fill="#FDEA89"/>
</g>
<defs>
<clipPath id="clip0_45_101">
<rect width="256" height="256" fill="white"/>
</clipPath>
</defs>
</svg>
