<svg width="256" height="243" viewBox="0 0 256 243" fill="none" xmlns="http://www.w3.org/2000/svg">
<path d="M100.5 57.5H75L69.5 62.5V172L127.5 201L187.5 172V62.5L181 57.5H156L128 79L100.5 57.5Z" fill="#5A3E54"/>
<path d="M55.5189 169L55.5189 62.5L69.4999 62.5L69.4999 165L83.4999 165L83.4999 132.5L97.4999 132.5L97.4999 183.5L111.5 183.5L111.5 132.5L107 132.5L107 104.5L121 95L121 193L135 193L135 95L149 104.5L149 132.5L144.5 132.5L144.5 183.5L158 183.5L158 132.5L172.5 132.5L172.5 165L186.5 165L186.5 62.5L200.5 62.5L200.5 169L127.5 207L55.5189 169Z" fill="#FDEA89"/>
<path d="M102.5 50V43.5H60.5L55.5 53H97.5L128 76.5L158.5 53H196L190.5 43.5H153.5V50L128 69.5L102.5 50Z" fill="#FDEA89"/>
<path d="M147.5 45.5H142.5L139.5 49.5L135.5 53L128 59.5L120 53L116 49.5L113 45.5H108.5V31H113L115.5 25.5L119.5 20L128 17L136 20L140.5 25.5L142.5 31H147.5V45.5Z" fill="#FDEA89"/>
<path d="M137.5 44.5V33.5H118V44.5H123V41H133V44.5H137.5Z" fill="#00293A"/>
</svg>
