<svg width="256" height="256" viewBox="0 0 256 256" fill="none" xmlns="http://www.w3.org/2000/svg">
<path d="M61 170.392V59.5638L84.0868 44.0178L99.1434 39.5045L129.257 38L159.37 39.5045L194 59.5638L192.996 170.392L129.257 207L61 170.392Z" fill="#5A3E54" stroke="black"/>
<path d="M93 142.5V156H69.5V170H87L128.5 197L169.5 170H186V156H163V142.5H186L186 86H200L200 175.5L128.5 218L55 175.5L55 86H69.5L69.5 142.5H93Z" fill="#FDEA89" stroke="#FDEA89"/>
<path d="M104.5 133.5L120.6 127.9L137.4 127.9L152.8 133.5L151.4 158.7L159.1 166.4L148.6 177.6L141.6 175.5L138.8 185.3L128.3 188.8L117.8 185.3L114.3 175.5L108 177.6L98.1999 166.4L105.2 158.7L104.5 133.5Z" fill="#FDEA89" stroke="#FDEA89"/>
<path d="M127.426 170.073L125.289 173.92C125.022 174.4 125.209 175.005 125.7 175.25C126.009 175.405 126.377 175.382 126.665 175.19L127.19 174.84C127.862 174.392 128.737 174.392 129.409 174.84L129.935 175.19C130.222 175.382 130.591 175.405 130.9 175.25C131.391 175.005 131.578 174.4 131.311 173.92L129.174 170.073C128.793 169.388 127.807 169.388 127.426 170.073Z" fill="#5A3E54" stroke="#FDEA89"/>
<circle cx="115" cy="162.2" r="5.1" fill="#5A3E54" stroke="#FDEA89"/>
<circle cx="143" cy="162.2" r="5.1" fill="#5A3E54" stroke="#FDEA89"/>
<path d="M128.5 76L133.776 92.2381H150.85L137.037 102.274L142.313 118.512L128.5 108.476L114.687 118.512L119.963 102.274L106.15 92.2381H123.224L128.5 76Z" fill="#FDEA89"/>
<path d="M153.5 41L158.776 57.2381H175.85L162.037 67.2738L167.313 83.5119L153.5 73.4762L139.687 83.5119L144.963 67.2738L131.15 57.2381H148.224L153.5 41Z" fill="#FDEA89"/>
<path d="M102.5 41L107.776 57.2381H124.85L111.037 67.2738L116.313 83.5119L102.5 73.4762L88.687 83.5119L93.9631 67.2738L80.1502 57.2381H97.2239L102.5 41Z" fill="#FDEA89"/>
<path d="M55.5 67.5V53.5L57.5 49L61.5 45.5L65.5 43.5L69.5 41.5L74 39.5L78.5 38L84.5 36.5L90.5 35L97.5 34.5V43.5L92.5 44L88 45.5L83 47.5L78.5 50L75 52.5L72 55.5L69.5 60V67.5H55.5Z" fill="#FDEA89" stroke="#FDEA89"/>
<path d="M200 68V54L198 49.5L194 46L190 44L186 42L181.5 40L177 38.5L171 37L165 35.5L158 35V44L163 44.5L167.5 46L172.5 48L177 50.5L180.5 53L183.5 56L186 60.5V68H200Z" fill="#FDEA89" stroke="#FDEA89"/>
<path d="M112 43.5V35H149V43.5H112Z" fill="#FDEA89" stroke="#FDEA89"/>
</svg>
