<svg width="256" height="256" viewBox="0 0 256 256" fill="none" xmlns="http://www.w3.org/2000/svg">
<path d="M100.5 57.5H75L69.5 62.5V172L127.5 201L187.5 172V62.5L181 57.5H156L128 79L100.5 57.5Z" fill="#3C42A2"/>
<path d="M55.5189 169L55.5189 62.5L69.4999 62.5L69.4999 165L83.4999 165L83.4999 132.5L97.4999 132.5L97.4999 183.5L111.5 183.5L111.5 132.5L107 132.5L107 104.5L121 95L121 193L135 193L135 95L149 104.5L149 132.5L144.5 132.5L144.5 183.5L158 183.5L158 132.5L172.5 132.5L172.5 165L186.5 165L186.5 62.5L200.5 62.5L200.5 169L127.5 207L55.5189 169Z" fill="#FDEA89"/>
<path d="M102.5 50V43.5H60.5L55.5 53H97.5L128 76.5L158.5 53H196L190.5 43.5H153.5V50L128 69.5L102.5 50Z" fill="#FDEA89"/>
<path d="M128 64.5L151 44H105.5L128 64.5Z" fill="#FDEA89"/>
</svg>
