<svg width="256" height="256" viewBox="0 0 256 256" fill="none" xmlns="http://www.w3.org/2000/svg">
<path opacity="0.994" fill-rule="evenodd" clip-rule="evenodd" d="M51.5 47.5C102.833 47.5 154.167 47.5 205.5 47.5C205.667 93.5012 205.5 139.501 205 185.5C180.812 198.933 156.645 212.767 132.5 227C129.833 227.667 127.167 227.667 124.5 227C100.38 213.014 76.2136 198.847 52 184.5C51.5 138.835 51.3333 93.1679 51.5 47.5Z" fill="#C1B5A3"/>
<path fill-rule="evenodd" clip-rule="evenodd" d="M63.5001 67.5C90.6675 95.2539 123.001 103.087 160.5 91C173.008 85.65 184.008 78.15 193.5 68.5C194.833 105.167 194.833 141.833 193.5 178.5C171.814 190.634 150.147 202.968 128.5 215.5C106.553 202.946 84.7194 190.279 63.0001 177.5C62.1738 140.762 62.3405 104.095 63.5001 67.5Z" fill="#7F7366"/>
<path fill-rule="evenodd" clip-rule="evenodd" d="M100.5 135.5C108.521 139.848 115.854 145.181 122.5 151.5C116.078 157.55 109.078 162.883 101.5 167.5C94.2817 162.398 87.2817 157.064 80.5 151.5C87.1971 146.158 93.8638 140.825 100.5 135.5Z" fill="#C1B5A3"/>
<path fill-rule="evenodd" clip-rule="evenodd" d="M154.5 135.5C156.783 135.608 158.783 136.441 160.5 138C166.311 142.31 171.977 146.81 177.5 151.5C170.584 157.204 163.417 162.537 156 167.5C148.724 162.723 141.89 157.389 135.5 151.5C141.853 146.144 148.186 140.81 154.5 135.5Z" fill="#C1B5A3"/>
</svg>
