<svg width="272" height="272" viewBox="0 0 272 272" fill="none" xmlns="http://www.w3.org/2000/svg">
<path d="M208.557 197.055L135.38 241.456L60.3522 197.055L60.3516 52.2803L135.38 52.2803L208.558 52.2803L208.557 197.055Z" fill="#444444" stroke="#444444"/>
<path fill-rule="evenodd" clip-rule="evenodd" d="M120.775 83.7195V102.8H150.416V83.6679L176.166 91.9012V136.804L188.394 148.779L170.786 170.731L159.515 165.629V152.308C164.339 151.479 168.015 147.156 168.015 141.949C168.015 136.148 163.454 131.445 157.826 131.445C152.199 131.445 147.637 136.148 147.637 141.949C147.637 146.868 150.918 150.997 155.347 152.139V180.436L135.595 189.691L119.849 182.052L115.98 180.279V153.057C120.34 151.867 123.554 147.772 123.554 142.903C123.554 137.103 118.992 132.4 113.365 132.4C107.737 132.4 103.176 137.103 103.176 142.903C103.176 148.16 106.921 152.514 111.811 153.285V165.498L102.31 170.731L83.7236 148.779L95.4623 136.804V91.9012L120.775 83.7195Z" fill="#A2A4A3"/>
<path d="M120.775 83.7195H121.275V83.0324L120.621 83.2437L120.775 83.7195ZM120.775 102.8H120.275V103.3H120.775V102.8ZM150.416 102.8V103.3H150.916V102.8H150.416ZM150.416 83.6679L150.568 83.1916L149.916 82.9831V83.6679H150.416ZM176.166 91.9012H176.666V91.5361L176.318 91.4249L176.166 91.9012ZM176.166 136.804H175.666V137.015L175.816 137.162L176.166 136.804ZM188.394 148.779L188.784 149.092L189.067 148.738L188.743 148.421L188.394 148.779ZM170.786 170.731L170.579 171.187L170.933 171.347L171.176 171.044L170.786 170.731ZM159.515 165.629H159.015V165.952L159.309 166.085L159.515 165.629ZM159.515 152.308L159.43 151.815L159.015 151.887V152.308H159.515ZM155.347 152.139H155.847V151.751L155.471 151.654L155.347 152.139ZM155.347 180.436L155.559 180.889L155.847 180.754V180.436H155.347ZM135.595 189.691L135.377 190.14L135.592 190.244L135.808 190.143L135.595 189.691ZM119.849 182.052L120.067 181.602L120.057 181.597L119.849 182.052ZM115.98 180.279H115.48V180.6L115.771 180.734L115.98 180.279ZM115.98 153.057L115.848 152.575L115.48 152.676V153.057H115.98ZM111.811 153.285H112.311V152.858L111.889 152.791L111.811 153.285ZM111.811 165.498L112.053 165.936L112.311 165.793V165.498H111.811ZM102.31 170.731L101.928 171.054L102.193 171.367L102.551 171.169L102.31 170.731ZM83.7236 148.779L83.3666 148.429L83.0476 148.754L83.342 149.102L83.7236 148.779ZM95.4623 136.804L95.8194 137.154L95.9623 137.009V136.804H95.4623ZM95.4623 91.9012L95.3085 91.4254L94.9623 91.5373V91.9012H95.4623ZM120.275 83.7195V102.8H121.275V83.7195H120.275ZM120.775 103.3H150.416V102.3H120.775V103.3ZM150.916 102.8V83.6679H149.916V102.8H150.916ZM176.318 91.4249L150.568 83.1916L150.264 84.1441L176.014 92.3774L176.318 91.4249ZM176.666 136.804V91.9012H175.666V136.804H176.666ZM188.743 148.421L176.516 136.447L175.816 137.162L188.044 149.136L188.743 148.421ZM171.176 171.044L188.784 149.092L188.004 148.466L170.396 170.419L171.176 171.044ZM159.309 166.085L170.579 171.187L170.992 170.276L159.721 165.174L159.309 166.085ZM160.015 165.629V152.308H159.015V165.629H160.015ZM159.6 152.801C164.67 151.929 168.515 147.393 168.515 141.949H167.515C167.515 146.92 164.007 151.028 159.43 151.815L159.6 152.801ZM168.515 141.949C168.515 135.886 163.744 130.945 157.826 130.945V131.945C163.163 131.945 167.515 136.41 167.515 141.949H168.515ZM157.826 130.945C151.909 130.945 147.137 135.886 147.137 141.949H148.137C148.137 136.41 152.489 131.945 157.826 131.945V130.945ZM147.137 141.949C147.137 147.092 150.568 151.423 155.222 152.623L155.471 151.654C151.267 150.571 148.137 146.644 148.137 141.949H147.137ZM154.847 152.139V180.436H155.847V152.139H154.847ZM135.808 190.143L155.559 180.889L155.135 179.983L135.383 189.238L135.808 190.143ZM119.63 182.502L135.377 190.14L135.814 189.241L120.067 181.602L119.63 182.502ZM115.771 180.734L119.64 182.506L120.057 181.597L116.188 179.825L115.771 180.734ZM115.48 153.057V180.279H116.48V153.057H115.48ZM123.054 142.903C123.054 147.55 119.987 151.445 115.848 152.575L116.111 153.54C120.692 152.289 124.054 147.994 124.054 142.903H123.054ZM113.365 132.9C118.702 132.9 123.054 137.364 123.054 142.903H124.054C124.054 136.841 119.282 131.9 113.365 131.9V132.9ZM103.676 142.903C103.676 137.364 108.028 132.9 113.365 132.9V131.9C107.447 131.9 102.676 136.841 102.676 142.903H103.676ZM111.889 152.791C107.249 152.06 103.676 147.921 103.676 142.903H102.676C102.676 148.398 106.593 152.969 111.733 153.779L111.889 152.791ZM112.311 165.498V153.285H111.311V165.498H112.311ZM102.551 171.169L112.053 165.936L111.57 165.06L102.069 170.293L102.551 171.169ZM83.342 149.102L101.928 171.054L102.691 170.408L84.1052 148.456L83.342 149.102ZM95.1053 136.454L83.3666 148.429L84.0807 149.129L95.8194 137.154L95.1053 136.454ZM94.9623 91.9012V136.804H95.9623V91.9012H94.9623ZM120.621 83.2437L95.3085 91.4254L95.6161 92.3769L120.929 84.1953L120.621 83.2437Z" fill="#A2A4A3"/>
<path d="M119.849 236L51.767 195.897L51.7671 45.5097L115.217 45.5098L115.217 57.9227L62.8823 57.9227L62.8824 187.781L115.681 219.291L119.849 236Z" fill="#A2A4A1" stroke="#9DA3A1"/>
<path d="M152.151 236.086L220.233 195.983L220.233 45.5956L156.783 45.5956L156.783 58.0085L209.118 58.0085L209.118 187.867L156.32 219.377L152.151 236.086Z" fill="#A2A4A1" stroke="#9DA3A1"/>
<path fill-rule="evenodd" clip-rule="evenodd" d="M140.228 39.8577C145.102 37.9357 148.564 33.0685 148.564 27.3678C148.564 19.985 142.758 14 135.596 14C128.434 14 122.628 19.985 122.628 27.3678C122.628 33.0686 126.09 37.936 130.965 39.8578V63.6517H114.429C113.128 63.6517 111.813 63.9686 110.82 64.8089C108.347 66.9019 108.347 68.995 110.82 71.088C111.812 71.9284 113.128 72.2453 114.429 72.2453H126.796L126.796 97.0711H144.859L144.859 72.2453H156.92C158.122 72.2453 159.331 71.9698 160.302 71.2617C163.331 69.0529 163.331 66.8441 160.302 64.6352C159.331 63.9271 158.122 63.6517 156.92 63.6517H140.228V39.8577Z" fill="#FCE500"/>
<path d="M140.228 39.8577L140.044 39.3925L139.728 39.5174V39.8577H140.228ZM130.965 39.8578H131.465V39.5175L131.148 39.3927L130.965 39.8578ZM130.965 63.6517V64.1517H131.465V63.6517H130.965ZM110.82 64.8089L111.143 65.1906H111.143L110.82 64.8089ZM110.82 71.088L111.143 70.7064L111.143 70.7064L110.82 71.088ZM126.796 72.2453H127.296V71.7453H126.796V72.2453ZM126.796 97.0711H126.296V97.5711H126.796V97.0711ZM144.859 97.0711V97.5711H145.359V97.0711H144.859ZM144.859 72.2453V71.7453H144.359V72.2453H144.859ZM160.302 71.2617L160.597 71.6657L160.302 71.2617ZM160.302 64.6352L160.597 64.2312L160.302 64.6352ZM140.228 63.6517H139.728V64.1517H140.228V63.6517ZM148.064 27.3678C148.064 32.8636 144.727 37.5461 140.044 39.3925L140.411 40.3229C145.477 38.3253 149.064 33.2733 149.064 27.3678H148.064ZM135.596 14.5C142.468 14.5 148.064 20.2467 148.064 27.3678H149.064C149.064 19.7232 143.048 13.5 135.596 13.5V14.5ZM123.128 27.3678C123.128 20.2467 128.724 14.5 135.596 14.5V13.5C128.144 13.5 122.128 19.7232 122.128 27.3678H123.128ZM131.148 39.3927C126.465 37.5463 123.128 32.8637 123.128 27.3678H122.128C122.128 33.2735 125.715 38.3256 130.781 40.323L131.148 39.3927ZM131.465 63.6517V39.8578H130.465V63.6517H131.465ZM114.429 64.1517H130.965V63.1517H114.429V64.1517ZM111.143 65.1906C112.015 64.452 113.2 64.1517 114.429 64.1517V63.1517C113.056 63.1517 111.61 63.4851 110.497 64.4273L111.143 65.1906ZM111.143 70.7064C109.957 69.7027 109.465 68.7828 109.465 67.9485C109.465 67.1141 109.957 66.1942 111.143 65.1906L110.497 64.4273C109.21 65.5166 108.465 66.6898 108.465 67.9485C108.465 69.2071 109.21 70.3803 110.497 71.4696L111.143 70.7064ZM114.429 71.7453C113.2 71.7453 112.015 71.4449 111.143 70.7064L110.497 71.4696C111.61 72.4118 113.056 72.7453 114.429 72.7453V71.7453ZM126.796 71.7453H114.429V72.7453H126.796V71.7453ZM127.296 97.0711L127.296 72.2453H126.296L126.296 97.0711H127.296ZM144.859 96.5711H126.796V97.5711H144.859V96.5711ZM144.359 72.2453L144.359 97.0711H145.359L145.359 72.2453H144.359ZM156.92 71.7453H144.859V72.7453H156.92V71.7453ZM160.008 70.8577C159.147 71.4853 158.052 71.7453 156.92 71.7453V72.7453C158.192 72.7453 159.515 72.4544 160.597 71.6657L160.008 70.8577ZM160.008 65.0392C161.482 66.1143 162.074 67.0887 162.074 67.9485C162.074 68.8082 161.482 69.7826 160.008 70.8577L160.597 71.6657C162.152 70.532 163.074 69.2976 163.074 67.9485C163.074 66.5994 162.152 65.365 160.597 64.2312L160.008 65.0392ZM156.92 64.1517C158.052 64.1517 159.147 64.4117 160.008 65.0392L160.597 64.2312C159.515 63.4426 158.192 63.1517 156.92 63.1517V64.1517ZM140.228 64.1517H156.92V63.1517H140.228V64.1517ZM139.728 39.8577V63.6517H140.728V39.8577H139.728Z" fill="#FCE500"/>
<path d="M128.185 209.265L135.595 225.974L143.469 209.265V193.51L135.595 195.42L128.185 193.51V209.265Z" fill="#FCE500" stroke="#FCE500"/>
<path d="M141.558 163.132L136.136 153.673C135.752 153.002 134.782 153.003 134.398 153.674L128.973 163.137C128.457 164.039 129.489 165.029 130.372 164.479L134.737 161.76C135.061 161.557 135.473 161.557 135.797 161.759L140.158 164.476C141.04 165.026 142.075 164.033 141.558 163.132Z" fill="#444444" stroke="#444444"/>
</svg>
