<svg width="272" height="272" viewBox="0 0 272 272" fill="none" xmlns="http://www.w3.org/2000/svg">
<g clip-path="url(#clip0_1850_2)">
<path d="M136.783 246.327L50.5574 197.596L50.5572 50.8299L222.442 50.8297L222.442 197.596L136.783 246.327Z" fill="#292929" stroke="#292929"/>
<path d="M171.864 107.67L136.215 96.1212L100.132 107.67V147.646L89.6987 158.307L106.219 177.851L116.218 173.409L119.695 186.29L136.215 194.73L154.04 186.29L157.952 173.409L167.082 177.851L182.732 158.307L171.864 147.646V107.67Z" fill="#FCE500" stroke="#FCE500"/>
<path d="M142.832 173.756L137.409 164.297C137.025 163.627 136.056 163.628 135.671 164.299L130.247 173.762C129.73 174.663 130.763 175.654 131.645 175.104L136.01 172.384C136.335 172.182 136.747 172.182 137.071 172.384L141.431 175.101C142.314 175.65 143.348 174.657 142.832 173.756Z" fill="#292929" stroke="#292929"/>
<path d="M125.504 153.452C125.504 158.247 121.66 162.125 116.928 162.125C112.196 162.125 108.352 158.247 108.352 153.452C108.352 148.657 112.196 144.779 116.928 144.779C121.66 144.779 125.504 148.657 125.504 153.452Z" fill="#292929" stroke="#292929"/>
<path d="M165.214 153.452C165.214 158.247 161.369 162.125 156.637 162.125C151.906 162.125 148.061 158.247 148.061 153.452C148.061 148.657 151.906 144.779 156.637 144.779C161.369 144.779 165.214 148.657 165.214 153.452Z" fill="#292929" stroke="#292929"/>
<path d="M209.394 62.8695L209.394 190.717L136.215 232.568L63.6045 190.717L63.6041 62.8692L87.4298 62.8692L80.0551 50.8299L52.8257 50.8299L52.8259 197.023L136.215 245.181L220.173 197.023L220.172 50.8301L194.645 50.8301L186.703 62.8694L209.394 62.8695Z" fill="#FCE503" stroke="#FCE503"/>
<path d="M114.092 180.97V206.769L76.0842 184.41L76.0842 74.3353H109.554C104.448 81.7882 101.316 85.2281 102.746 96.6942C107.73 86.9697 109.981 83.5149 115.794 77.7751V97.2675L95.3716 104.72V145.998L84.0261 156.318V160.904L105.583 185.556L114.092 180.97Z" fill="#464646" stroke="#464646"/>
<path d="M160.04 180.97V206.195L196.346 185.556V74.3353H162.877C167.982 81.7882 171.115 85.2281 169.684 96.6942C164.7 86.9696 162.45 83.5149 156.637 77.7751V97.2675L177.059 104.72V145.998L188.404 156.318V160.904L166.848 185.556L160.04 180.97Z" fill="#464646" stroke="#464646"/>
<path d="M81.1898 50.8298L91.968 50.8297L91.968 53.1229L82.8916 53.123L81.1898 50.8298Z" fill="#84847D" stroke="#84847D"/>
<path d="M180.462 53.1229V50.8297H193.51L191.808 53.1229H180.462Z" fill="#868583" stroke="#868583"/>
<path d="M156.07 53.1229V51.403H116.36V53.1229H156.07Z" fill="#84847D" stroke="#84847D"/>
<path d="M115.226 61.7225V57.1361H99.9092L101.611 61.7225H115.226Z" fill="#FFEE02" stroke="#FFEE02"/>
<path d="M156.637 61.7225V57.1361H172.52L170.819 61.7225H156.637Z" fill="#FFEE02" stroke="#FFEE02"/>
<path d="M115.226 50.2564H93.1023V45.67H115.226V50.2564Z" fill="#FFEE02" stroke="#FFEE02"/>
<path d="M179.328 50.2564H157.204V45.67H179.328V50.2564Z" fill="#FFEE02" stroke="#FFEE02"/>
<path d="M128.273 73.1886H122.601V33.0573H128.273V73.1886Z" fill="#FFEE02" stroke="#FFEE02"/>
<path d="M149.83 73.1886H144.157V33.0573H149.83V73.1886Z" fill="#FFEE02" stroke="#FFEE02"/>
<path d="M138.484 73.1886H133.946V33.0573H138.484V73.1886Z" fill="#FFEE02" stroke="#FFEE02"/>
<path d="M102.746 10.1249C105.582 19.2979 108.419 24.4577 115.226 31.3373C107.851 31.3373 100.477 19.8712 102.746 10.1249Z" fill="#FFEE02" stroke="#FFEE02"/>
<path d="M169.968 10.125C167.131 19.298 164.295 24.4578 157.488 31.3373C164.862 31.3374 172.237 19.8713 169.968 10.125Z" fill="#FFEE02" stroke="#FFEE02"/>
</g>
<defs>
<clipPath id="clip0_1850_2">
<rect width="272" height="272" fill="white"/>
</clipPath>
</defs>
</svg>
