<svg width="256" height="256" viewBox="0 0 256 256" fill="none" xmlns="http://www.w3.org/2000/svg">
<rect x="87" y="41" width="82" height="9" fill="#FAE783"/>
<path d="M61.5 49.5H194" stroke="#FAE783" stroke-width="2"/>
<path opacity="0.971" fill-rule="evenodd" clip-rule="evenodd" d="M53.0612 41H128.5H166.219H203.939C204.102 83.5591 204.428 127.444 203.939 170L128.5 213L53.0612 170C52.5714 127.444 52.8979 83.5591 53.0612 41Z" fill="#FEEB87"/>
<path d="M61.5 49.5H91.5C100.804 49.5 109.441 50 118.251 50C142.475 50 166.366 49.5 196.5 49.5V63V107V137.5V161V165L162 184.279L131.5 201.324L128.5 203L90.592 181.5L61.5 165V158V141V79.5V49.5Z" fill="#465035"/>
<path d="M61.5 79.5037C73.5 60.5037 75.5 58.0037 91.5 49.5037C100.804 49.5037 109.441 50.0037 118.251 50.0037C93 82.0037 72.5 76.0037 67.2162 127.504C65.5 135.004 63.6205 136.586 61.5 141.004V79.5037Z" fill="#6F824D"/>
<path d="M61.5 158.004V165.004L90.592 181.504C94.3946 171.773 97.7421 163.463 111.345 151.506C112.104 150.839 112.763 150.056 113.26 149.177C121.192 135.136 116.413 137.076 130 123.004C144 108.504 193.5 113.004 196.5 107.004V63.0037C193 67.5037 189 72.5037 186 73.0037C178.276 74.291 167.975 74.1052 156.675 73.3946C153.057 73.167 149.481 74.3982 146.98 77.0242C140.502 83.829 133.341 92.4228 125.5 96.7685C111.5 101.504 99 115.504 97.4273 121.504C86 156.004 78.5 158.004 61.5 158.004Z" fill="#6F824D"/>
<path d="M196.5 161.004V137.504C186 145.004 173 149.504 165.5 149.504C122 149.504 125.5 184.283 131.5 201.327L162 184.283C164.5 174.004 179.5 161.004 196.5 161.004Z" fill="#6F824D"/>
<path d="M174.5 72L129 60L83 72L85.801 115.68L72 129.011L90.3383 150.14L103.667 146.15L109.433 164.106L129 170L148.473 164.106L154.239 146.15L167.378 150.14L186 129.011L172.294 115.68L174.5 72Z" stroke="#F8E584" stroke-width="6"/>
<circle cx="105" cy="120" r="10" fill="#F8E584"/>
<circle cx="153" cy="120" r="10" fill="#F8E584"/>
</svg>
